<svg xmlns="http://www.w3.org/2000/svg" viewBox="0 0 200 200" id="Being-Creative-1--Streamline-Free-Illustrations" height="200" width="200">
  <desc>
    Being Creative 1 Streamline Illustration: https://streamlinehq.com
  </desc>
  <g>
    <g fill="#ffffff">
      <path d="M116.19 187.41c2.2 -2.13 9.53 -10 11.9 -11.84a0.45 0.45 0 0 1 0.74 0.49c-1.18 2.13 -11.47 11.8 -12.07 12.37 -0.41 0.51 -2.17 2.63 -2.65 3.07a2 2 0 0 1 -1.18 1.9 35.52 35.52 0 0 0 -3.78 1.53c-0.18 0.16 -0.39 0 -0.34 -0.17a11.86 11.86 0 0 0 1.54 -2.52 2.47 2.47 0 0 1 2.5 -2.11c0.07 -0.13 2.72 -2.31 3.34 -2.72m-3.37 2.88a2.26 2.26 0 0 0 -2.12 2.05 6.37 6.37 0 0 1 -1 1.88c2.53 -1.05 3.39 -0.9 3.94 -1.75a2.25 2.25 0 0 0 0.32 -0.93c-0.7 -0.19 -1.19 -1.37 -1.14 -1.25m3.17 -2.51c-0.78 0.71 -1.59 1.47 -2.78 2.5a2.25 2.25 0 0 0 0.76 0.86l2.61 -2.79a2 2 0 0 1 -0.58 -0.57zm-4.45 -11.78c1.14 -0.75 16.61 -10.93 16.76 -10.43s-15.18 12.1 -15.31 12.18c-0.65 0.74 -5 5.43 -5.57 5.63a2.83 2.83 0 0 1 -1.92 -0.85 6.21 6.21 0 0 1 -1.5 -2.53c-0.19 -0.68 6.92 -3.74 7.54 -4m-7.05 4.45a3.88 3.88 0 0 0 2.75 2.61c-0.72 -0.68 -2.24 -2.13 -2.75 -2.61m3 -2.31a22.4 22.4 0 0 0 -3.15 1.83c0.13 0.43 0 0 1 0.83a10.29 10.29 0 0 1 2.11 2.24c0.5 -0.37 2.53 -2.39 2.41 -2.28a31.17 31.17 0 0 0 -2.4 -2.62zm4.09 -2c-1.65 0.77 -2.75 1.31 -4 1.92a6.6 6.6 0 0 1 2.33 2.57c0.6 -0.6 2.64 -2.67 2.94 -3 -0.29 -0.28 -1.05 -1.15 -1.3 -1.47zm24.23 -11.43c0.51 -4.48 1.26 -10.05 1.87 -10.08s-0.05 5.6 -0.68 10.11c2 0.17 4.38 1.27 4 3.17a2.78 2.78 0 0 1 -0.13 1c1 6.79 0.11 8.19 0.18 8.08a6.26 6.26 0 0 1 -4.77 2.26 6.45 6.45 0 0 1 -4.85 -2.16c-0.83 -1.25 -0.3 -6.53 -0.14 -8a3.94 3.94 0 0 1 -0.15 -0.95 2.3 2.3 0 0 1 1.34 -2.63 6.75 6.75 0 0 1 3.33 -0.8m4.87 8.78c-0.79 1.62 -3 2.13 -4.78 2.13a11.8 11.8 0 0 1 -0.16 1.43c-0.08 0.38 -0.17 0.71 -0.56 0.7a2.19 2.19 0 0 1 -1.38 -0.92c-0.26 -0.39 -0.2 -0.59 0.13 -1.45a3.08 3.08 0 0 1 -2 -1.65 13.87 13.87 0 0 0 0.27 2.66 2.87 2.87 0 0 0 0.88 1c2.26 1.84 5 1.32 7.29 -0.65 0.1 -0.74 0.24 -2.19 0.31 -3.25m-9.18 -4c-0.07 1.21 -0.34 6.32 0.34 7.32a5 5 0 0 0 1.93 1.38 4 4 0 0 1 -1.81 -1.78 15.22 15.22 0 0 1 -0.17 -3.24 1.91 1.91 0 0 1 0.49 -1.71c0.71 -0.82 0.88 -0.35 0.23 -0.8a3.09 3.09 0 0 1 -1.01 -1.13zm2.69 5.9a5.51 5.51 0 0 0 -0.27 1c0 0.34 0.9 1.1 1.3 1.06 0.14 0 0.18 -0.21 0.23 -0.46a11 11 0 0 0 0.18 -1.37 6.53 6.53 0 0 1 -1.44 -0.19zm6.56 -6.14a3.59 3.59 0 0 1 -1.51 1.48c1.15 0.36 1.91 1.13 1.6 2.3 0 0.63 0 1.25 -0.06 1.81 -0.1 2.09 -0.17 2 -0.07 1.85 0.47 -1.78 0.23 -5.52 0.04 -7.4zm-1.68 1.57a6.91 6.91 0 0 1 -3 0.69 6.81 6.81 0 0 1 -0.23 1.77 16.49 16.49 0 0 1 0 2 6.58 6.58 0 0 0 3.57 -0.91c1.59 -1 1.84 -2.81 -0.34 -3.51zm-4.13 2.5c-0.06 0.14 -0.56 1.53 -0.65 1.78a6 6 0 0 0 1.37 0.17c0 -0.49 0.1 -1.43 0.09 -1.92a2 2 0 0 1 -0.81 0.01zm-1.87 -2.32c-1.92 1.32 -1.11 3.42 1 4.06 0.21 -0.53 0.54 -1.27 0.78 -1.78a13.66 13.66 0 0 1 0.2 -1.78 6 6 0 0 1 -1.98 -0.5m2.07 0.51 -0.09 1.62c0.17 0 0.72 0.08 0.66 0s0.13 -0.94 0.2 -1.6c-0.26 0.02 -0.52 0.01 -0.77 -0.01zm5.44 -2.65c-1.78 2.23 -7.16 2.26 -9 0a3.13 3.13 0 0 0 2.37 1.95c2.28 0.62 5.71 0.12 6.63 -1.94zm-3.73 -3.08c-0.3 2.07 -0.56 3.75 -0.65 4.3 1.51 0 3.53 -0.55 4.23 -1.77 -0.22 -1.56 -2 -2.37 -3.58 -2.52zm-1.16 0a4.61 4.61 0 0 0 -3.92 2.59c0.64 1 2.25 1.55 3.49 1.67 0.05 -0.55 0.21 -2.21 0.43 -4.25zm0.1 -0.88a6.51 6.51 0 0 0 -3.09 0.91c-0.89 0.57 -1.49 1.45 -1 2.4a4.57 4.57 0 0 1 4 -2.75zm1.21 0.1c0 0.17 -0.05 0.34 -0.08 0.51 1.65 0.15 3.38 1 3.65 2.6 0.36 -0.91 -0.24 -1.73 -1.08 -2.26A6.16 6.16 0 0 0 137 165m9.58 4.06c-0.47 -2.33 -4.27 -19.69 -3 -20.7a4.49 4.49 0 0 1 1.45 -0.5c1.4 -0.3 10.33 -1.5 10.74 -0.29s-2 19.64 -2.18 20.63c0 0.67 -0.25 2.54 -0.25 2.54a3.8 3.8 0 0 1 -6.06 1.1 13.16 13.16 0 0 1 -0.7 -2.78m8.68 -19.27a77.67 77.67 0 0 0 -11.43 1c0.31 4.2 2.13 14 2.92 18.18a6 6 0 0 0 6.64 -0.59c0.11 -0.85 1.79 -17.47 1.87 -18.59m-0.9 5.8s0.06 -0.68 -0.78 -0.51 -2.37 1.61 -4.25 1.45 -3.67 -1.21 -4.23 -0.51 1.81 2.91 4.88 2.39c3.52 -0.59 4.45 -2.04 4.38 -2.82m-9.9 -7.1c-0.15 0 -0.56 0.16 -0.6 0.29a7.16 7.16 0 0 0 0 1.91l1 -0.19a7.38 7.38 0 0 1 -0.4 -2.01m1.73 -0.37c-0.51 0.09 -1.11 0.2 -1.6 0.33a17.51 17.51 0 0 1 0.33 2c0.38 -0.07 1.44 -0.25 1.75 -0.28 -0.03 -0.07 -0.27 -0.9 -0.48 -2.05m1.91 -0.25c-0.63 0.07 -1.23 0.15 -1.78 0.23a7.49 7.49 0 0 1 0.44 2.08l1.68 -0.21c-0.06 -0.33 -0.27 -1.37 -0.34 -2.1m1.87 -0.18c-0.34 0 -1.06 0.08 -1.74 0.16a7 7 0 0 1 0.31 2.11l1.8 -0.17c-0.03 -0.17 -0.24 -1.07 -0.34 -2.1zm2 -0.13 -1.87 0.12a7.27 7.27 0 0 1 0.34 2.1c0.58 0 1.22 -0.08 1.79 -0.1 0 -0.02 -0.23 -1.99 -0.23 -2.12zm2.42 0a18.07 18.07 0 0 1 -0.23 2.09l1.11 0c0 -0.25 0.17 -1.93 0 -2a4.25 4.25 0 0 0 -0.88 -0.08zm-0.13 0 -2.15 0a6.29 6.29 0 0 1 0.22 2.12l1.74 0a8.11 8.11 0 0 1 0.19 -2.12M79 161.33c1.31 0 2.38 0.48 2.38 1.09s-1.07 1.09 -2.38 1.09 -2.37 -0.49 -2.37 -1.09 1.02 -1.09 2.37 -1.09m-25.28 -5.76c0 0.22 -0.41 0.42 -0.93 0.44s-1 -0.15 -1 -0.38c0.02 -0.53 1.91 -0.63 1.93 -0.06" fill-rule="evenodd" stroke-width="0.5"></path>
      <path d="M62.03 180.12a1.16 0.69 0 1 0 2.32 0 1.16 0.69 0 1 0 -2.32 0" stroke-width="0.5"></path>
      <path d="M113.13 147c1 0 1.86 0.29 1.86 0.64s-0.83 0.65 -1.86 0.65 -1.85 -0.29 -1.85 -0.65 0.83 -0.64 1.85 -0.64M49.46 121.47c0 0.25 -0.15 2.14 -0.07 4.9 0 0.37 0.07 1.63 0.07 1.63s0.12 0.07 0.12 0 0.06 -1.26 0.07 -1.63c0.06 -2.3 -0.07 -5 -0.07 -4.9a0.06 0.06 0 0 0 -0.12 0m41.65 -109.27c1.25 0.34 3.46 1.05 4.26 2.08a0.22 0.22 0 0 1 -0.25 0.34c-4 -1.63 -10.37 0.45 -14.41 2.13 -1.6 0.67 8 -10.16 14.9 -8.46a0.23 0.23 0 0 1 0 0.44 34.3 34.3 0 0 0 -4.61 1.43c1.15 0.05 3.8 0.22 4.69 1a0.24 0.24 0 0 1 -0.13 0.42 43.42 43.42 0 0 0 -4.45 0.62m3.32 -3.63a11.18 11.18 0 0 0 -5.6 1.48 27.28 27.28 0 0 0 -8 6.43c3.83 -1.66 9.28 -3.54 13.37 -2.6a16.32 16.32 0 0 0 -4.08 -1.44 0.23 0.23 0 0 1 0 -0.45 28 28 0 0 1 4.65 -0.84 20.23 20.23 0 0 0 -4.68 -0.54 0.23 0.23 0 0 1 -0.12 -0.43 21.17 21.17 0 0 1 4.46 -1.61M26.9 92.22a21.36 21.36 0 0 1 -3 0.18 0.22 0.22 0 0 1 -0.1 -0.42c1.24 -0.67 4.16 -1.33 5.66 -2.37l3.71 -2.48a0.08 0.08 0 0 1 0.12 0c0.11 0.13 -0.12 0.14 -1.37 1.79a13.34 13.34 0 0 0 -2 3.38 40.51 40.51 0 0 0 -1.41 3.9c0 0.3 -0.72 0.52 -0.52 -1.12a18.43 18.43 0 0 1 0.34 -1.82 25.12 25.12 0 0 1 -3.27 2 0.23 0.23 0 0 1 -0.33 -0.28 8.05 8.05 0 0 1 2.17 -2.76m5.66 -4.43c-4.9 3.45 -2.71 2.2 -7.6 4.15a9.42 9.42 0 0 0 2.76 -0.42l0.11 -0.09c0.22 -0.17 0.61 0.17 0.18 0.45a12.86 12.86 0 0 0 -2.52 2.64 15.89 15.89 0 0 0 3.09 -2.07 0.23 0.23 0 0 1 0.39 0.23 22.23 22.23 0 0 0 -0.5 2.29 18.07 18.07 0 0 1 4.09 -7.18m0.68 -4.67a17.51 17.51 0 0 1 7 -6.43c3.88 -1.83 5.3 0.12 3.54 3.62a20 20 0 0 1 -6.25 7 9.48 9.48 0 0 1 0.35 3.16c-0.26 1 -5.15 2.68 -5.82 2.6a0.28 0.28 0 0 1 -0.24 -0.16c-0.1 -0.23 0.13 -0.44 0.35 -0.61a33.64 33.64 0 0 1 3.83 -2.42l-0.07 -1.66 -0.57 0.28a0.21 0.21 0 0 1 -0.21 -0.06l-3.15 -3.07a0.09 0.09 0 0 1 0 -0.12s0.1 -0.21 0.31 -0.58l-1.75 0c-0.26 0.54 -2 4.06 -2.56 4.3a0.28 0.28 0 0 1 -0.4 -0.22c-0.12 -0.75 1.36 -5.64 2.34 -5.93a10.27 10.27 0 0 1 3.25 0.22 0.08 0.08 0 0 1 0.05 0.08m4.07 4.26a13.64 13.64 0 0 1 -1.23 0.73l0.21 1.89c0 0.15 0 0.06 -2 1.38 -0.61 0.39 -1.23 0.8 -1.65 1.11a20.19 20.19 0 0 0 4.36 -1.77c0.11 -0.07 0.4 -0.27 0.44 -0.4a9.75 9.75 0 0 0 -0.13 -2.94m-4.41 -3.27c-0.39 0.58 -0.63 1 -0.72 1.17l3.1 2.87c0.36 -0.18 0.75 -0.4 1.16 -0.65a24.22 24.22 0 0 1 -3.54 -3.39m0.25 -0.85a11.07 11.07 0 0 0 -3.11 0c-0.35 0.12 -0.95 1.71 -1.06 2a20.71 20.71 0 0 0 -0.85 2.89c0.6 -0.89 2.24 -3.8 2.17 -3.66a0.16 0.16 0 0 1 0.15 -0.09l1.95 0.1c0.2 -0.38 0.44 -0.77 0.75 -1.24m5.51 -5.19A20 20 0 0 0 33 83.91a23.22 23.22 0 0 1 3.62 3.46 20.51 20.51 0 0 0 5.76 -5.72zm-1.79 2.51a2.1218977355 2.1218977355 0 1 0 3.07 2.93 2.1218977355 2.1218977355 0 0 0 -3.07 -2.93m2.79 0.16a1.77 1.77 0 0 1 0 2.47 1.69 1.69 0 0 1 -2.44 -2.33 1.76 1.76 0 0 1 2.44 -0.14m-0.55 0.57a1 1 0 1 1 -1.44 0 1 1 0 0 1 1.44 0" fill-rule="evenodd" stroke-width="0.5"></path>
      <path d="M70.77 13.39a0.76 0.76 0 1 1 1.23 -0.76 0.8 0.8 0 0 1 -1 0.82c0 0.1 -0.15 1.21 -0.45 2.51a5.8 5.8 0 0 1 3.78 1.42 0.13 0.13 0 0 1 0.07 -0.06c7.8 -1.1 8.61 1.48 6.1 3.55 -2.82 2.33 -11.48 5 -16.26 4.37 -1.25 -0.15 -3.19 -0.73 -3.21 -1.91 0 -1.52 4.07 -3.21 4.23 -3.29a6.94 6.94 0 0 1 3.52 -3.74c-0.71 -0.77 -1.45 -1.89 -1.62 -2.08 -0.85 0.46 -1.65 -0.63 -1 -1.19a0.73 0.73 0 0 1 0.52 -0.18 0.72 0.72 0 0 1 0.59 1.27 4.31 4.31 0 0 1 0.89 0.86c1.44 1.74 0.22 1.14 2 1a7.77 7.77 0 0 1 0.61 -2.59m-5.68 6.93c-0.9 0.44 -3.8 2 -3.76 3 0 0.33 0.29 0.66 0.82 0.95 3.72 2 14.79 -1.14 18 -3.75 1.83 -1.47 1.64 -2.88 -1.84 -3.13a26.61 26.61 0 0 0 -4 0.12c-0.25 0.58 -2.66 5.14 -9.22 2.81m-1 2.38a0.73 0.73 0 0 0 0.42 1 0.75 0.75 0 0 0 0.91 -0.55 0.70203276275 0.70203276275 0 0 0 -1.33 -0.45m0.82 -0.28c0.44 0.2 0.14 1 -0.28 0.88s-0.2 -0.97 0.28 -0.88m6.9 -0.57a0.59 0.59 0 0 0 -0.89 0.23 0.79 0.79 0 0 0 0.34 1 0.64 0.64 0 0 0 0.94 -0.33 0.74 0.74 0 0 0 -0.39 -0.9m-0.08 0.14c0.4 0.3 0.14 1 -0.28 0.76s-0.2 -0.96 0.28 -0.75zm5.35 -2.86a0.53 0.53 0 0 0 -0.82 0.12 0.73 0.73 0 0 0 0.26 0.93 0.58 0.58 0 0 0 0.88 -0.18 0.65 0.65 0 0 0 -0.32 -0.87m-0.08 0.13c0.3 0.28 0.09 0.84 -0.26 0.6s-0.15 -0.8 0.26 -0.6M66.68 13a0.52 0.52 0 0 1 0.5 0.49 0.45 0.45 0 0 1 -0.45 0.43 0.4606788469 0.4606788469 0 1 1 -0.05 -0.92m4.43 -0.85a0.52 0.52 0 0 1 0.5 0.49 0.45 0.45 0 0 1 -0.45 0.43 0.46 0.46 0 1 1 -0.05 -0.91zm49.35 49.65a4.07 4.07 0 0 1 7.54 2.88 28 28 0 0 1 4.2 2.52c0.58 0.52 0.5 1 -0.53 0.93a27.41 27.41 0 0 1 -5.28 -1A4.07 4.07 0 0 1 120 64.65c-1 -0.48 -4.47 -2.27 -4.68 -3.28 -0.07 -0.37 0.29 -0.54 0.67 -0.58a13.57 13.57 0 0 1 4.47 1.01m7.46 3.09a4.07 4.07 0 0 1 -1.07 1.79 29.25 29.25 0 0 0 5.2 1c-0.57 -0.74 -3.31 -2.32 -4.13 -2.79m-7.56 -0.09A3.81 3.81 0 0 0 126 67a40.78 40.78 0 0 1 -5.64 -2.2m6.18 1.79a3.83 3.83 0 0 0 0.58 -5.07 3.73 3.73 0 0 0 -5.35 -0.87 3.84 3.84 0 0 0 -1.54 3.52 41.89 41.89 0 0 0 6.31 2.42M120.36 62c-0.74 -0.24 -4 -1.18 -4.59 -0.72 0.23 0.72 3.48 2.41 4.23 2.72a3.94 3.94 0 0 1 0.36 -2m-72.5 61.63a26.17 26.17 0 0 0 3.8 2.07 0.06 0.06 0 0 0 0.06 -0.1 26.78 26.78 0 0 0 -3.8 -2.07 0.06 0.06 0 0 0 -0.06 0.1M26.18 35.83c0 -2.42 0.14 -4.7 0.14 -4.6a0.1 0.1 0 0 1 0.19 0c0 0.73 0.13 1.38 0.14 4.76a24.46 24.46 0 0 1 2.29 -1.32 0.0943398113 0.0943398113 0 1 1 0.1 0.16 23.36 23.36 0 0 1 -2 1.47c1.44 0.79 1.73 1 2.42 1.42s0.7 0.42 0.65 0.52 -0.1 0.06 -0.79 -0.26 -1.16 -0.52 -2.67 -1.35c0 3.83 -0.15 5.58 -0.15 5.48a0.1 0.1 0 0 1 -0.19 0c0 -0.72 -0.14 -1.35 -0.14 -5.25a25.78 25.78 0 0 1 -2.42 1.42 0.0943398113 0.0943398113 0 1 1 -0.1 -0.16 25.84 25.84 0 0 1 2.47 -1.79c-0.81 -0.45 -1.07 -0.61 -1.71 -1s-0.85 -0.51 -0.8 -0.62a0.11 0.11 0 0 1 0.13 0c1.26 0.47 2.01 0.9 2.44 1.12" fill-rule="evenodd" stroke-width="0.5"></path>
      <path d="M47.92 125.7a19.83 19.83 0 0 0 3.17 -2.07c0.07 0 0 -0.14 -0.06 -0.1a20.09 20.09 0 0 0 -3.17 2.07c-0.06 0.04 0 0.14 0.06 0.1m31 -60.3c0 2.81 0.1 3.26 0.1 3.77a0.07 0.07 0 1 0 0.13 0c0 0.1 0.11 -1.52 0.11 -3.94a25.32 25.32 0 0 0 2.39 1.19c0.08 0 0.15 -0.08 0.07 -0.12a24.72 24.72 0 0 0 -2.18 -1.3 15.28 15.28 0 0 0 1.43 -1 0.07 0.07 0 0 0 -0.07 -0.12s-0.82 0.42 -1.64 0.95c0 -2.49 -0.1 -3 -0.1 -3.42a0.07 0.07 0 0 0 -0.14 0c0 -0.1 -0.09 1.61 -0.1 3.31 -0.29 -0.15 -0.87 -0.46 -1.75 -0.84 -0.08 0 -0.15 0.08 -0.07 0.12s0.74 0.51 1.78 1.08a19.15 19.15 0 0 0 -1.78 1.22c-0.08 0 0 0.17 0.07 0.12 -0.1 0.05 0.65 -0.32 1.75 -1.02m25.14 70.66c-1.09 -0.45 -12.59 -1.16 -12.69 -1.17 -0.31 0 -2.55 0.45 -2.7 0.49s0 0 0 0.05a19.5 19.5 0 0 0 2.7 1c1 0.21 3 0.23 12.48 1.25 0.18 0 0.56 -0.62 0.34 -1.52 -0.01 -0.03 -0.08 -0.07 -0.13 -0.1m-12.74 0.27 -1.51 -0.53a0.6 0.6 0 0 0 0.08 -0.56 12.85 12.85 0 0 1 1.48 -0.21c0.24 0.24 -0.4 0.33 0.08 0.64 0.06 0 0.07 0 0 0.07a0.21 0.21 0 0 0 -0.09 0.29c0.08 0.14 0.17 0.2 -0.04 0.3m0.12 0c0.28 -0.15 -0.1 -0.38 0.09 -0.5 0.42 -0.29 -1.58 -0.21 11.63 1a0.88 0.88 0 0 0 0.13 0.59zm11.73 0.42c-0.45 -0.05 -11.52 -1.1 -11.59 -1.16s-0.25 -0.11 -0.16 -0.23 0.14 -0.23 0 -0.35c0.1 0 9.91 0.78 12 1.13a1.13 1.13 0 0 0 -0.25 0.63zm0.64 0.69c-0.07 -0.07 -0.08 -0.05 -0.15 -0.25s0 -0.88 0.32 -0.88a1.51 1.51 0 0 1 -0.17 1.15zm6.95 -29.51a0.26 0.26 0 1 0 -0.45 0.24c0.1 0.16 0.2 0.32 0.31 0.48a0.26 0.26 0 1 0 0.43 -0.28c-0.05 -0.14 -0.2 -0.29 -0.29 -0.44m-12.46 -21.24c0.06 -0.47 0.61 -2.86 0.4 -2.91a0.09 0.09 0 0 0 -0.12 0.06 12.06 12.06 0 0 0 -0.65 2.16 5.2 5.2 0 0 0 -0.11 0.79 0.24 0.24 0 0 0 0.12 0.2 2.49 2.49 0 0 0 0.8 0.25c0.22 0 1 0.06 0.91 -0.15s-0.21 0.17 -1.35 -0.4m4.49 -1.45 0 -0.52c0 -0.36 -0.5 -0.41 -0.51 0l0 0.57a0.26 0.26 0 1 0 0.51 -0.05m0.66 2.76c-0.32 1.2 -0.75 1.38 -1.27 1.44a2 2 0 0 1 -0.32 0 0.0948683298 0.0948683298 0 0 0 -0.06 0.18c0.87 0.5 2.06 -0.11 1.84 -1.62a0.1 0.1 0 0 0 -0.19 0m3.76 12.5a0.2540177159 0.2540177159 0 1 0 -0.5 0.09 5 5 0 0 0 0.16 0.55 0.26 0.26 0 1 0 0.49 -0.14c-0.06 -0.17 -0.11 -0.34 -0.15 -0.5m-9.84 -16.75a0.26 0.26 0 1 0 -0.51 0l0 0.57a0.26 0.26 0 1 0 0.51 0 4.52 4.52 0 0 1 0 -0.57m79.05 41.89s-0.06 0.01 0 0" fill-rule="evenodd" stroke-width="0.5"></path>
      <path d="M181.41 125c-1.11 -0.54 -3.75 -0.09 -5 0.17a4.16 4.16 0 0 0 -3.71 -1.34c-1.12 0.28 -1.39 1.66 -1.34 2.82 -0.72 -0.13 -1.5 -0.22 -2.22 -0.29 0.06 -0.22 0.25 -0.53 0.19 -0.75a0.59 0.59 0 0 0 -0.85 -0.28 4.09 4.09 0 0 0 -0.55 0.53c0 -0.35 0.29 -0.91 -0.06 -1s-1.44 0.89 -1.75 1.24a31.59 31.59 0 0 0 -6.91 0 12.78 12.78 0 0 0 -8 3.59c12.16 -14 17.5 -23.62 17.36 -35.61s-14.39 -17.71 -20.25 -17.86c-5.69 -0.14 -11.56 3 -11.86 3 -5.14 1 -18.62 -0.49 -21.45 0.69a9.21 9.21 0 0 0 -2.76 -6.83c-1.62 -1.77 -4.21 -2.43 -6.84 -2.32 -3.75 0.17 -7.47 1.74 -9.33 5a7.89 7.89 0 0 0 -1.06 3.46c0 0.31 -0.64 5.41 1 9.27a6.75 6.75 0 0 0 4.42 4.09 65.23 65.23 0 0 0 -4.44 6.71c-0.31 0.65 -0.08 1 0.37 1s1.05 -0.12 1.47 -0.1c-0.66 1.81 -2.34 6.53 -2.75 8.4a26.49 26.49 0 0 0 -5.5 4.95c-3 3.44 -4.4 7.17 -7.8 9.16l-1 0.56c1.36 -4.13 3.93 -12.33 3 -12.34s-3.19 7.88 -4.63 13.23c-1.54 0.85 -2.32 1.39 -2.86 3.07a3.5 3.5 0 0 0 0 2.68 0.88 0.88 0 0 0 0.7 0.5c0.12 0 0.12 -0.11 -0.21 0.62a1.48 1.48 0 0 0 -0.44 0.21l-4.81 -2.93c-0.11 0 1.27 -0.19 -28 3.62 -0.55 -0.41 -1.13 -0.84 -1.73 -1.31 -14.38 -11.19 32.58 -23.2 36.34 -38.49 3.37 -13.69 -16 -16.45 -11.7 -29.31s32.42 -9.26 58.89 -10.8 37 -28.26 17.73 -42.18 -39.07 5.85 -43.75 10.9 -10.08 11.66 -25.24 11 -35 1.91 -42.27 23.89c-3.5 10.52 -0.36 17.9 4.31 23.75a13.49 13.49 0 0 1 5.63 -3.43c1.24 -0.3 2.47 -0.14 2.82 1.09 0.66 2.26 -2.08 5.77 -3.67 7.52 4 3.86 7.84 7.12 9.35 10.49 2.52 5.66 -9.56 9.85 -14.66 13.16s-12.89 13.55 -8.11 23.49a23 23 0 0 0 1.2 2.22c-10.14 1.31 -10.49 1.31 -10.59 1.37s-0.07 0.24 0 0.34l-0.07 0c0.9 1 27.39 38.86 43.65 58.1l0.29 0.06c3.52 -1.69 67.4 -32.7 64 -34.61 0 0 -46.7 -26.07 -47.81 -26.73a6.73 6.73 0 0 0 0.45 -0.93 0.24 0.24 0 0 0 0.22 -0.21l0 -0.54c0.62 0.21 1.59 -0.39 2.09 -0.84 1 -0.92 2.5 -3.48 3.61 -3.82a64.93 64.93 0 0 0 6.54 -2c8.91 -3.34 12.61 -7.08 16.49 -13.12a17.25 17.25 0 0 0 1.63 -3 23.77 23.77 0 0 0 8.08 5.7c-8.08 9.33 -6.81 15.25 -3.89 18.48 2.67 2.95 7 1.91 7.71 1.69 0 4.44 1.5 14.3 2 15.29 0.26 0.57 -0.61 1 -0.79 2.13a3 3 0 0 0 1.32 3c1.11 0.7 3 0.74 2.26 -0.37a6 6 0 0 0 -0.83 -0.87c0.29 0.09 0.61 0.21 1 0.35 3.65 1.43 4.13 2.08 4.8 1.89a0.63 0.63 0 0 0 0.42 -0.33 0.69 0.69 0 0 0 1 -0.24 0.45 0.45 0 0 0 0 -0.42 1 1 0 0 0 0.12 -0.71c0 -0.9 -3.44 -3.84 -4.14 -4.42 0.1 -1 0.63 -3.22 1.95 -9.12 6.82 7.69 29.75 -3 31 -3.54 0.21 0.22 8.68 -3.39 9.66 -3.91 -0.1 0 10.74 -4.9 11.15 -6.7 0 -0.42 -0.27 -0.69 -0.59 -0.88M142.73 34.46a0.63 0.63 0 0 1 0.61 0.64 0.62 0.62 0 0 1 -0.61 0.64 0.63 0.63 0 0 1 -0.62 -0.64 0.63 0.63 0 0 1 0.62 -0.64M137.08 17a0.61 0.61 0 0 1 0.61 0.62 0.61 0.61 0 1 1 -1.21 0 0.61 0.61 0 0 1 0.6 -0.62m-18.8 27.59a0.31 0.31 0 0 1 0 -0.61 0.315 0.315 0 0 1 0 0.63zm-2.72 -27.47c0 -0.4 1 -0.6 1.44 -0.66a8.36 8.36 0 0 1 2.19 0 11.06 11.06 0 0 1 1.65 -2.28c0.21 -0.17 0.4 -0.23 0.59 0a8.85 8.85 0 0 1 0.86 2.91c1.55 0.4 3.71 1.14 2.41 2.07 -0.4 0.29 -1.11 0.59 -1.88 1a16.57 16.57 0 0 1 0.08 2.43c0 0.37 -0.1 0.93 -0.47 1 -0.75 0.13 -1.33 -0.91 -2.51 -1.93 -1.13 0.56 -3.39 1.8 -3.44 0.61a8.65 8.65 0 0 1 0.89 -2.91c-1.15 -1.09 -1.88 -1.62 -1.81 -2.22zm-1 18.39a4.06 4.06 0 0 1 -5.95 3.58l5.82 -4.62a4.42 4.42 0 0 1 0.14 1.06zm-0.25 -1.41c-1.6 1.23 -3.75 3 -5.9 4.87a3.54 3.54 0 0 1 -0.46 -0.33c2.09 -2.11 4.14 -4.49 5.41 -6a4.33 4.33 0 0 1 0.96 1.48zm-1.17 -1.67c-0.4 0.43 -3.88 4.35 -5.38 6a4.17 4.17 0 0 1 -1 -1.4c1.52 -1.1 3.59 -2.63 5.89 -4.44l0.36 -0.29zm-2.63 -1a4 4 0 0 1 2.25 0.69l-1.41 1c-0.32 0.24 -2.75 2.15 -4.67 3.65a4.07 4.07 0 0 1 3.83 -5.36zm-9.64 -1.64a0.61 0.61 0 1 1 -0.59 0.61 0.6 0.6 0 0 1 0.6 -0.56zm-5.51 15.14a1.19 1.19 0 1 1 -1.23 1.19 1.22 1.22 0 0 1 1.23 -1.19m-15.56 -2.82c0.43 0 0.43 0.77 0 0.77s-0.44 -0.77 0 -0.77m-40.67 22.11a0.33 0.33 0 1 1 0 -0.65 0.33 0.33 0 1 1 0 0.65m21.5 39.26a0.7 0.7 0 1 1 0.78 -0.69 0.74 0.74 0 0 1 -0.78 0.69M63 36.6a0.69 0.69 0 1 1 -0.68 0.69A0.69 0.69 0 0 1 63 36.6m0.58 35.91A0.51 0.51 0 1 1 63 72a0.51 0.51 0 0 1 0.55 0.51zm0.23 14.77c0.6 -0.47 2.37 -1.93 2.9 -1.47s0.07 1.43 0 2.81c1.11 0.53 3.41 1.54 2.51 2.18a9 9 0 0 1 -2.8 0.84c-0.17 1.45 -0.16 2.19 -0.65 2.44 -0.34 0.16 -1.09 -0.45 -1.37 -0.71a7.59 7.59 0 0 1 -1.4 -1.58 11.48 11.48 0 0 1 -2.75 0c-0.24 -0.06 -0.42 -0.17 -0.37 -0.41 0.11 -0.55 1.35 -1.72 1.76 -2.11 -0.26 -0.57 -0.87 -2 -0.66 -2.57 0.3 -0.79 1.59 0.08 2.8 0.58zm-3.25 -32.22c0.21 0 0.32 0.15 0.29 0.41a7.91 7.91 0 0 1 -0.94 2.1 6.94 6.94 0 0 1 1.09 1.5c1 1.93 -0.39 1.44 -2.45 1a6.93 6.93 0 0 1 -1.82 1.84c-0.93 0.46 -1.14 -1.5 -1.3 -2.61 -1.41 -0.37 -2.53 -0.32 -2.82 -0.89s1.87 -1.44 2.49 -1.72c-0.07 -1 -0.5 -2.34 0.36 -2.3a6 6 0 0 1 2.34 1.34 9 9 0 0 1 2.76 -0.67M47.82 83a0.78 0.78 0 1 1 0 -1.54 0.78 0.78 0 1 1 0 1.54m-5.64 -30.21a0.17 0.17 0 0 1 0 -0.33c2.19 -0.15 4.68 -0.22 6.87 -0.22A32 32 0 0 0 43.22 49a0.18 0.18 0 0 1 0.08 -0.35 14.6 14.6 0 0 1 6.53 1.62 48 48 0 0 0 -4.21 -3.73 0.17 0.17 0 0 1 0.17 -0.29 23.65 23.65 0 0 1 7 3.64 22.7 22.7 0 0 1 5.35 5.54c0 0.09 -0.09 0.16 -0.15 0.07a22.6 22.6 0 0 0 -5.34 -5.5 23.62 23.62 0 0 0 -6.06 -3.21c0.73 0.59 3.69 3 4.08 3.89 0.08 0.16 -0.12 0.31 -0.29 0.21A15.52 15.52 0 0 0 47 49.5a12.46 12.46 0 0 0 -2.82 -0.5c1.15 0.55 4.72 2.3 5.45 3.34a0.18 0.18 0 0 1 -0.16 0.28c-0.11 0 -2.87 0 -5.8 0.1 3.46 0.66 8 1.93 10.89 4 0.08 0.06 0 0.18 -0.1 0.12 -3.14 -2.19 -8.57 -3.55 -12.28 -4.05m56.62 20.65c3.41 -2.57 10.17 -3.25 13.13 0a8.76 8.76 0 0 1 2.64 6.56 10.16 10.16 0 0 1 -2.7 5.89c-0.18 0.18 -0.18 0 -0.12 -0.09a2 2 0 0 0 -0.9 -3c-1.89 -0.86 -2.46 2.31 -3.84 2.7 -1.2 0.35 -0.75 -2.45 -0.66 -4.32a3.3 3.3 0 0 0 -0.53 -2.35 7.82 7.82 0 0 0 -3 -2A12.77 12.77 0 0 0 96.5 76a8.54 8.54 0 0 1 2.3 -2.56m-2.37 14.91c-1.65 -3.9 -0.93 -9.08 -0.93 -9.08a7.44 7.44 0 0 1 0.89 -3 12.56 12.56 0 0 1 6.33 1 7.59 7.59 0 0 1 2.85 1.89c1 1.32 0 3.84 0.32 5.81 0.12 0.77 0.48 1.26 1.23 1 1.55 -0.44 2.07 -3.38 3.56 -2.7s1.22 2.63 -0.54 3.37c-0.68 0.29 -0.62 0.94 -0.1 1 0.27 0 0.8 -0.15 1.61 -0.8a12 12 0 0 0 2.74 -4.09 16 16 0 0 1 4 1.42c1.78 0.81 3.88 1.94 5.54 2.91a13.71 13.71 0 0 0 -10.24 10.53c-0.38 0 -0.35 -0.54 -0.61 -0.74s-0.42 0 -0.73 0.1a1.49 1.49 0 0 0 -0.16 -0.71c0 -0.58 -0.95 -0.24 -1.5 -0.06a2.11 2.11 0 0 0 -0.11 -0.73c0.23 -0.74 -1.11 -0.37 -1.86 -0.16a2.2 2.2 0 0 0 0 -0.86c0.07 -0.58 -1.2 -0.21 -1.73 0a2.58 2.58 0 0 0 -0.06 -1c-0.28 -0.39 -1.76 0.43 -1.82 0.06a2.29 2.29 0 0 1 0.16 -0.8c0.17 -0.61 -0.66 -0.23 -0.9 -0.27a0.06 0.06 0 0 1 -0.06 0l0 -0.12a10.09 10.09 0 0 0 2.39 -1 2.81 2.81 0 0 0 1.61 1.14 3.23 3.23 0 0 0 3.85 -4.46c0 -0.11 -0.22 0 -0.17 0.07a3 3 0 0 1 -2 3.84l-2.42 -1.49c-0.09 -0.06 -0.08 0 -0.61 0.34a3.11 3.11 0 0 1 0.93 -3.91 3.92 3.92 0 0 1 2.37 -0.66 0.1 0.1 0 0 0 0 -0.19 4.09 4.09 0 0 0 -2.59 0.55 3.42 3.42 0 0 0 -1.13 4.45 10.24 10.24 0 0 1 -5.84 1.31 6.38 6.38 0 0 1 -4.27 -3.96M112 97.23a3.39 3.39 0 0 0 0.76 -0.26c0.44 -0.16 0.32 0.72 0.88 0.73 -0.1 0.47 -0.16 0.84 -0.19 1.07 -0.47 -0.17 -0.91 -0.36 -1.35 -0.54a3.21 3.21 0 0 0 -0.1 -1m0 -0.22s0 -0.05 0.1 -0.39a0.91 0.91 0 0 0 0.15 0.35l-0.25 0.03zm-0.1 0.19a3.28 3.28 0 0 0 0 1c-0.7 -0.29 -1.35 -0.59 -2 -0.89a1.45 1.45 0 0 0 -0.11 -0.55c0.46 0 2 -0.74 2.07 -0.52s-0.29 0.76 0.04 0.96m-2.21 -0.51a1.43 1.43 0 0 0 0.07 0.46c-0.26 -0.12 -1.33 -0.66 -1.6 -0.8a2.37 2.37 0 0 0 -0.1 -0.63 11.38 11.38 0 0 0 1.77 -0.39c0.07 0 0.52 -0.06 0.48 0 -0.04 0.29 -1.06 1.13 -0.62 1.36m-1.75 -0.46c-0.51 -0.27 -1 -0.53 -1.38 -0.77a1.53 1.53 0 0 0 -0.11 -0.62 0.72 0.72 0 0 0 0.47 -0.08 3.94 3.94 0 0 1 1.46 -0.35 4 4 0 0 0 -0.54 0.8 2.43 2.43 0 0 0 0.1 1.02m-1.61 -0.9 -1.11 -0.67a2.5 2.5 0 0 0 -0.09 -0.88c0.32 0.07 1.15 -0.26 1.53 -0.23a6.63 6.63 0 0 0 -0.49 0.77 3.27 3.27 0 0 0 0.16 1.01m0.43 -1.45a2.42 2.42 0 0 0 0 0.6c-0.07 0 -0.3 0.11 -0.32 0s0.2 -0.48 0.32 -0.6m1.76 0.86a1.94 1.94 0 0 0 0.07 0.58 1.46 1.46 0 0 1 -0.48 0.09s-0.04 -0.14 0.41 -0.67m1.92 1a1.69 1.69 0 0 0 0.11 0.48 5.16 5.16 0 0 1 -0.61 0.19c0.12 -0.18 0.28 -0.41 0.5 -0.68zm-5.51 -2.08a3.23 3.23 0 0 0 0.11 0.89 8.61 8.61 0 0 1 -0.5 -0.33l-0.23 -1.68c0.25 0 0.77 -0.15 0.77 0s-0.42 0.81 -0.15 1.11zm2.14 -2.7c0.14 -0.09 0.29 -0.2 0.43 -0.31l2.2 1.35a2.64 2.64 0 0 1 -2.63 -1zm-10.71 8.88c-0.24 -0.07 1.14 -2.21 1.3 -2.46 0.49 -0.79 2.86 -4.45 3.06 -4.75a10.39 10.39 0 0 0 2.47 -0.15c0.16 5.92 1.23 8.38 2.53 10.69 -0.67 -0.21 -1.35 0.1 -1.94 -0.11 -0.83 -0.28 -0.8 -1.48 -2 -1.55a5.41 5.41 0 0 0 -2.21 0.77c-0.27 0.11 -0.33 0 -0.4 -0.12a14.39 14.39 0 0 0 -0.44 -2c-0.46 -0.79 -1.9 -0.16 -2.37 -0.32m-24.93 28.72 4.72 2.85a6.28 6.28 0 0 1 -0.89 0.7c-0.77 0.41 -1.57 0.1 -1.58 0.71 -4.31 1.65 -10.8 9.26 -2.71 16.21 10.34 8.87 22.11 12.41 11.16 20.87 -3 2.35 -6.09 2 -9.66 -0.31 -3.92 -2.57 -3.88 -13.89 -7.64 -20.88 -6.25 -11.63 -8.83 -7.71 -20.91 -16.45zm13.89 42a0.1 0.1 0 1 1 0 -0.2 0.1 0.1 0 0 1 0 0.19zm-5.12 3a0.29 0.29 0 1 1 0 -0.57 0.305 0.305 0 1 1 0 0.61zm-12.88 -0.7a2.77 2.77 0 0 1 0.45 -0.82c-0.45 -0.62 -0.72 -0.93 0.06 -0.89a2.59 2.59 0 0 1 0.67 0.14c0.8 -0.88 0.94 -0.82 0.91 0.38 0.2 0.1 0.67 0.34 0.76 0.54s-0.42 0.32 -0.78 0.43c0 0.24 -0.09 1 -0.32 1s-0.36 -0.37 -0.66 -0.75c-0.41 0.11 -1.14 0.37 -1.09 0.01zm-0.13 -12.74a0.29 0.29 0 1 1 0 -0.57 0.305 0.305 0 1 1 0 0.61zm-12.08 -14.5a0.29 0.29 0 1 1 0 -0.57 0.29 0.29 0 1 1 0 0.57m-4 -6.24a0.29 0.29 0 1 1 0 -0.57 0.29 0.29 0 1 1 0.03 0.57zm-11.73 -2a0.29 0.29 0 1 1 0 0.57 0.29 0.29 0 1 1 0.03 -0.57zm-6.59 -20a4.34 4.34 0 0 1 1.39 -0.75c0 -1.3 -0.1 -2 0.93 -1.23a4.63 4.63 0 0 1 0.8 0.84 5.41 5.41 0 0 1 1.43 -0.23c0.14 0 0.23 0.08 0.22 0.22a4.82 4.82 0 0 1 -0.76 1.43 3.38 3.38 0 0 1 0.52 1.49c-0.09 0.49 -0.86 0.06 -1.48 -0.12 -0.27 0.32 -1.1 1.38 -1.41 1.14s-0.14 -0.86 -0.18 -1.7c-0.61 -0.22 -1.85 -0.62 -1.43 -1.09zm-3.68 8.82a0.29 0.29 0 1 1 0 0.57 0.29 0.29 0 1 1 0.03 -0.57zm96.45 33.21c-3.66 4.77 -58.31 31.29 -63.63 33.86C49.44 178.44 30 151.4 18.6 135.62l10.3 -1.35c6.42 10.13 16.26 7.78 21.54 11 5.94 3.63 9 6.37 10.8 13.41 2.45 9.57 -0.64 13.7 6.52 16.75 6.86 2.91 20.48 1.74 26 -7.73s-5.29 -13.61 -15 -18 -8 -10.47 -6.68 -12.19a19.6 19.6 0 0 1 3.48 -3.5 2.82 2.82 0 0 0 2.44 -1.39c1.17 0.63 45.55 25.64 47.59 26.79zm-37 11.79a0.1 0.1 0 1 1 0 0.2 0.100124922 0.100124922 0 1 1 0.01 -0.2zm2.56 -10.13c-0.12 0.08 -0.3 0 -0.58 -0.14 -0.44 0.49 -0.65 0.63 -0.6 -0.2 -0.43 -0.14 -0.67 -0.21 -0.27 -0.44a1.67 1.67 0 0 1 0.38 -0.15c0.11 -0.69 0.2 -0.7 0.58 -0.12a1.17 1.17 0 0 1 0.56 0c0.14 0.08 -0.09 0.27 -0.25 0.46 0.06 0.14 0.3 0.52 0.19 0.59zm-14.76 -27.66a2.16 2.16 0 0 1 -2.23 -0.55l0.09 0c1.89 -0.29 1.61 -1.07 2.59 -1.55 0.09 0.1 0 0.07 1.59 0.19a3.67 3.67 0 0 1 -2.04 1.91m2.31 -4a1.45 1.45 0 0 0 -0.16 0.88c0 0.07 -0.07 0.39 -0.11 0.69l-1.08 -0.09c0 -0.05 0.71 -1.74 0.76 -1.9l0.68 0zm-0.2 -2.81c-0.69 1.29 -1 3.69 -1.61 3.27a1.21 1.21 0 0 1 -0.34 -0.82 4.41 4.41 0 0 1 0.24 -1.7 4.06 4.06 0 0 1 2.26 -2.6c-0.53 2.04 -0.38 1.58 -0.55 1.89zm0.72 1.51c0.16 -0.47 0.38 -1.16 0.69 -2.06 0.13 -0.07 0.16 0 0.33 0.42 0.27 0.7 -1.31 2.48 -1.31 2.48 0.1 -0.29 0.21 -0.57 0.29 -0.8zm28.24 -17.33c-3.53 5.31 -6.15 7.69 -10.27 10a53.9 53.9 0 0 1 -12.71 4.82c-1.78 0.55 -3.27 4.5 -5.22 4.68 -0.22 0 -0.37 0 -0.19 -0.5 0.45 -1.25 2.08 -2.29 1.61 -3.48a2.4 2.4 0 0 0 -0.24 -0.51 0.67 0.67 0 0 0 -0.35 -0.28c0.06 -0.2 0.26 -0.78 0.53 -1.6 0.23 -0.16 0.39 -0.21 1.44 -0.83 3.52 -2.08 4.9 -5.81 7.86 -9.3a26.35 26.35 0 0 1 5.42 -5c0.15 -0.09 -0.1 0.06 1.06 -3.6 0.67 -2.11 1.45 -4.34 1.68 -5a0.29 0.29 0 0 1 0.21 0.14c0.26 0.49 0.21 1.43 0.43 2 0.52 1.26 1.81 -0.43 3 -0.4 1 0 1 1.15 2 1.44 0.75 0.22 1.5 -0.24 2.2 0.09a25.66 25.66 0 0 0 3.22 4.35 16.75 16.75 0 0 1 -1.68 3.02zm6.14 0.32a26.12 26.12 0 0 1 -7.42 -8.17c-1.23 -2.14 -2.37 -4.53 -2.76 -10.53a6.93 6.93 0 0 0 0.7 -0.16l0.21 2a27.23 27.23 0 0 0 3.48 2.24s-0.85 4.81 3 11c1.85 3.04 2.79 3.66 2.79 3.66zm18.59 12.9c0.18 2.18 -1.8 14.08 -2.07 15.7a0.12 0.12 0 0 0 -0.07 0.07c0.13 -0.49 -2.12 7.08 -2.29 9.45 0 0.19 0 0.1 1.71 1.58 0.58 0.51 2.57 2.2 2.67 2.79a0.82 0.82 0 0 1 0 0.47 10.22 10.22 0 0 0 -3.14 -2.26 0.0943398113 0.0943398113 0 1 0 -0.1 0.16l0.81 0.66a12.88 12.88 0 0 1 2.22 1.91c-0.1 0.25 -0.32 0.27 -0.58 0.2 0 -0.52 -2.28 -1.78 -3 -2.21 -0.11 -0.06 -0.21 0.1 -0.1 0.16a15.47 15.47 0 0 1 2.79 2.06c-0.32 0.72 -1.29 -0.31 -4.82 -1.76a7.45 7.45 0 0 0 -2 -0.58 0.22 0.22 0 0 0 -0.22 0.14c-0.09 0.26 0.19 0.25 1.09 1.16a2.55 2.55 0 0 1 0.49 0.58 2.58 2.58 0 0 1 -1.71 -0.4 2.54 2.54 0 0 1 -1.1 -2.49c0.17 -1 1.16 -1.51 0.75 -2.4s-1.25 -6.67 -1.37 -7.5c-1.11 -7.51 -0.69 -7.67 -0.9 -7.73 0 -10.42 0.33 -10.46 0.25 -11 0 -0.11 -2.24 -15.49 -2.26 -15.61 0.66 0 1.13 0.73 1.5 1.33 0.54 0.86 1 1.42 2.08 1.09s2 -1.24 3 -1.6 1.53 0 2.62 0.35a2.12 2.12 0 0 0 2.52 -0.53c1.74 -1.45 0.92 -1.81 4.48 -0.41 -0.69 2.69 -2.24 10.29 -2.27 10.41a21.32 21.32 0 0 0 -0.98 6.21m-13.07 -17.34a19.13 19.13 0 0 0 -2.29 1c-0.17 0 -0.24 0 -0.29 -0.2 -0.31 -1.43 3.33 -18.36 12.4 -19 4.14 -0.28 7 7.15 8.25 11.11a54.69 54.69 0 0 1 1.91 7.7c0.18 1.81 -5.1 -1.58 -6.62 -1.23 -0.6 0.14 -0.87 0.65 -1.73 1.37s-1.3 0.72 -2.06 0.45a4 4 0 0 0 -2.94 -0.36c-1.06 0.38 -1.94 1.27 -3 1.6 -0.9 0.29 -1.18 -0.33 -1.69 -1.13s-1.03 -1.48 -1.94 -1.35zm14.9 9.44c0.42 -1.66 1.16 -5.1 1.71 -8.7 0.92 0.36 2.93 1.24 3.6 0.6a0.9 0.9 0 0 0 0.22 -0.81 48.76 48.76 0 0 0 -1.5 -6.24c-1.34 -4.45 -4.47 -13 -9.13 -12.71 -9.46 0.66 -13.15 17.73 -12.83 19.27a0.65 0.65 0 0 0 0.87 0.55c0.57 -0.14 1.38 -0.76 2.12 -0.93 0.11 1.82 0.32 4.24 0.76 7.37a32.72 32.72 0 0 1 -4.87 -2.4 23.19 23.19 0 0 1 -6.38 -11.17 20.05 20.05 0 0 1 -0.6 -4.25 44.51 44.51 0 0 0 5.64 2.65 0.22 0.22 0 0 0 0.3 -0.19 14.36 14.36 0 0 1 3.44 -7.62 13.36 13.36 0 0 1 7.25 -4.14 0.22 0.22 0 0 0 0.07 -0.41 61.46 61.46 0 0 0 -6.12 -3.09 19.2 19.2 0 0 0 -4.06 -1.36 10 10 0 0 0 0.54 -2.31c2 -0.85 12.09 0.4 18.89 -0.31a15.86 15.86 0 0 0 3.05 -0.49c6.13 -0.17 15.36 7.37 17.06 10.77s1.43 7.65 -2.34 12.94c-3.55 4.95 -16.31 12.17 -17.68 12.94zm27.21 20.19c1.39 -4.38 -0.81 -8.48 -1.6 -9.75l6.62 -0.18a4.27 4.27 0 0 1 1.84 2.22 12.49 12.49 0 0 1 0.85 4.37c-1.98 0.89 -5.65 2.57 -7.71 3.3zm8.14 -3.61a11.29 11.29 0 0 0 -1 -4.24 4.6 4.6 0 0 0 -2 -2.22 4.22 4.22 0 0 1 1.42 -1c0 0.32 -0.39 1 0.08 1.07s0.52 -0.39 0.81 -0.54c0.12 -0.06 0.36 -0.07 0.26 0.19s-0.32 0.65 -0.09 1a1.13 1.13 0 0 0 0.66 0.38c0.06 0 -0.34 0.28 -0.45 0.6a0.31 0.31 0 0 0 0.18 0.39c0.34 0.13 0.93 -0.21 1.3 0.16 0.15 0.16 0.07 0.31 -0.12 0.42 -0.46 0.29 -0.52 0.63 -0.09 1a2.62 2.62 0 0 1 0.57 0.54 1.42 1.42 0 0 0 -0.87 0.29 0.39 0.39 0 0 0 0 0.62c0.22 0.19 0.76 0.39 0.88 0.56a6.14 6.14 0 0 1 -1.54 0.74zm12.13 -6.92c-0.41 1.67 -9.41 5.7 -10.05 6 -0.11 -0.39 -0.74 -0.58 -1 -0.77 0.28 -0.15 0.84 -0.09 0.95 -0.44s-0.67 -0.93 -0.85 -1.16c0.17 -0.16 0.78 -0.45 0.51 -1a1.14 1.14 0 0 0 -1.23 -0.53l-0.15 0c0.22 -0.28 0.58 -0.64 0.25 -0.88s-0.55 0 -0.72 -0.33c0.95 0.12 1.73 0.25 2.33 0.38a0.14 0.14 0 0 0 0.16 -0.14c0 0.4 -0.28 -2.31 1.14 -2.63a3.89 3.89 0 0 1 3.39 1.37 0.2 0.2 0 0 0 0.2 0.07c0.37 -0.07 3.44 -0.7 4.67 -0.25 0.14 -0.01 0.43 0.13 0.4 0.27z" fill-rule="evenodd" stroke-width="0.5"></path>
    </g>
  </g>
</svg>