<svg xmlns="http://www.w3.org/2000/svg" viewBox="0 0 200 200" id="Being-Creative-2--Streamline-Free-Illustrations" height="200" width="200">
  <desc>
    Being Creative 2 Streamline Illustration: https://streamlinehq.com
  </desc>
  <g>
    <g>
      <path d="M31.450000000000003 63.660000000000004c1.56 3.7200000000000006 13.64 1 10.18 -3.6500000000000004 -3.02 -4.010000000000001 -11.43 0.68 -10.18 3.6500000000000004" fill="#ffffff" stroke-width="0.8"></path>
      <path d="M59.08 27.27c-4.4799999999999995 3.73 4.5 10.340000000000002 6.57 4.43 2 6.53 11.83 2.18 8.61 -3.2600000000000002 3.6 1.77 5.0600000000000005 -4.19 3.3600000000000003 -6.220000000000001a3.2700000000000005 3.2700000000000005 0 0 0 -2.16 -1.1c6.390000000000001 -4.5600000000000005 -4 -11.66 -6.859999999999999 -4.7 0 -8.86 -12.940000000000001 -3.3600000000000003 -8.31 3.4299999999999997 -5.050000000000001 -1.72 -6.6000000000000005 7.43 -1.21 7.420000000000001M58.31 22.880000000000003c0.5900000000000001 -2.09 3.08 0.18000000000000002 4.37 -1.1199999999999999 1.54 -1.55 -3.3000000000000003 -5.8500000000000005 1 -7.31s1.09 4.74 3.8200000000000003 5.59c3.0600000000000005 0.9400000000000001 3.2100000000000004 -6.3100000000000005 6.63 -3.59 3.2 2.54 -3.3600000000000003 3.25 -2.32 5.760000000000001s5.19 -0.37000000000000005 4 3.33c-0.7200000000000001 2.17 -4 -1.8800000000000001 -5.11 0.22000000000000003s3.34 4.4 1 6.140000000000001c-2.12 1.59 -3.38 0 -4.2299999999999995 -1.89 -2.8600000000000003 -6.5 -4 6.7700000000000005 -7.2700000000000005 -0.33 -0.55 -1.16 3 -1.6600000000000001 2.49 -3.4600000000000004C62 23.64 57.28 26.480000000000004 58.31 22.880000000000003" fill="#ffffff" stroke-width="0.8"></path>
      <path d="M27 57.629999999999995a23.11 23.11 0 0 1 -0.1 11.590000000000002c-9.840000000000002 -13.090000000000002 -16.580000000000002 2.59 -1.1900000000000002 3.5 -4.15 6.3500000000000005 -3 6.170000000000001 -2.58 6.609999999999999 1.46 1.3800000000000001 10 -10.15 6.15 -22.47 7.790000000000001 -2.54 8.590000000000002 -17.430000000000003 -0.5 -19.85 -7.32 -1.9500000000000002 -16.419999999999998 5.640000000000001 -13.469999999999999 13.42 2.15 6.220000000000001 6.81 8.24 11.690000000000001 7.2m-9.24 -7.5c3.08 -5 6.43 0 8.55 5.220000000000001 -3 0.65 -6.7700000000000005 -0.45 -8.540000000000001 -5.220000000000001ZM32.94 45a8.43 8.43 0 0 1 -4.36 9.53c-3.08 -4.28 -0.8500000000000001 -11.940000000000001 4.36 -9.53M31.84 42.11000000000001c-3.34 -0.15000000000000002 -6.2700000000000005 2.16 -7 5.9 -2.39 -2.3000000000000003 -4.54 -3.49 -7.57 -1.11C17.6 40 28.200000000000003 36 31.84 42.120000000000005Z" fill="#ffffff" stroke-width="0.8"></path>
      <path d="M34.71 163.18c-3.4200000000000004 -2.4600000000000004 -8.209999999999999 0.67 -7.33 5.11a18.56 18.56 0 0 0 -4.07 -5.800000000000001c-1.16 -1 -2.75 0.82 -1.57 1.82a16.48 16.48 0 0 1 3.2600000000000002 4.69 4.64 4.64 0 0 0 -3.45 6.940000000000001A28.92 28.92 0 0 1 16 169.65a1.2000000000000002 1.2000000000000002 0 0 0 -2.2600000000000002 0.8 29.110000000000003 29.110000000000003 0 0 0 8.08 8.61c-5.75 2.68 -1.72 9.88 4.43 9.05 5.120000000000001 -0.08000000000000002 8.49 -2.31 13.480000000000002 -3.58a1.1900000000000002 1.1900000000000002 0 0 0 0.81 -1.35c-2.3000000000000003 -5.7 -1.2800000000000002 -16.740000000000002 -5.83 -20m-2.09 21c-14.65 5.78 -15.86 -8.49 1 -0.36000000000000004Zm-9.209999999999999 -10.520000000000001c0.7200000000000001 -7.670000000000001 9.42 6 12.5 8.18 -8.1 -1.35 -12.75 -5.45 -12.5 -8.200000000000001ZM33.28 175.27c-9 -10.13 2.2600000000000002 -19.630000000000003 3.8600000000000003 4.36 -1.3900000000000001 -1.4800000000000002 -2.6500000000000004 -3.0100000000000002 -3.8600000000000003 -4.38Z" fill="#ffffff" stroke-width="0.8"></path>
      <path d="M118.63 48.25c-11.75 -13.37 -22.430000000000003 -10.76 -29 -6.32a9.14 9.14 0 0 1 -6 1.6C80.30000000000001 43.400000000000006 65.25 41.06 57 63c0 0 -6.9 22.230000000000004 -9.700000000000001 26.42s-7 10.61 -12.700000000000001 11.25c-3.83 0.44000000000000006 -5.760000000000001 -2.18 -9 -1.42 -6.640000000000001 1.5300000000000002 -7 17.52 0.41 31.900000000000002 7.890000000000001 15.39 20.480000000000004 21 32 22.78 -6.45 -22.53 -3.3100000000000005 -40.25 18.48 -42.800000000000004 7.120000000000001 -13.730000000000002 -0.51 -23.16 -3.69 -31 -5.18 -12.56 3.3000000000000003 -23.37 13.950000000000001 -27.53 19.3 -7.53 35.56 7.790000000000001 38.6 29.55 0 0 5.04 -20.53 -6.720000000000001 -33.9" fill="#ffffff" stroke-width="0.8"></path>
      <path d="M164.53 151.67000000000002c-10.55 0.67 -15.930000000000001 -5.59 -17.51 -3.5500000000000003 -0.9 1.17 0.31000000000000005 1.6 1.72 2.34 -1.33 6.890000000000001 -2.5700000000000003 13.37 -3.83 16.37 -1.6800000000000002 -1.9300000000000002 -5.640000000000001 -2.12 -6.740000000000001 0.5599999999999999 -1.7000000000000002 4.19 4.4 6.46 7.32 3.8200000000000003 2.5700000000000003 -2.32 3.2100000000000004 -7.15 4.75 -15.690000000000001 3.3600000000000003 1.1900000000000002 10.68 2.8000000000000003 12.41 3.18a44.910000000000004 44.910000000000004 0 0 1 -3.18 12.840000000000002c-1.7800000000000002 -1.54 -3.38 -1.4500000000000002 -4.41 -0.66 -2.12 1.62 -0.4 6.41 3.41 5.84 2 -0.30000000000000004 3.66 -0.81 5.32 -8.93 1.4400000000000002 -7.0200000000000005 3.09 -15.969999999999999 0.7400000000000001 -16.12M150.72 152.9c0.09000000000000001 -0.47000000000000003 0.18000000000000002 -0.9400000000000001 0.27 -1.4300000000000002a33.839999999999996 33.839999999999996 0 0 0 12.14 2.62c-0.06 0.65 -0.12 1.27 -0.18000000000000002 1.8800000000000001 -4.170000000000001 0.03 -9.86 -2.1100000000000003 -12.23 -3.0700000000000003" fill="#ffffff" stroke-width="0.8"></path>
      <path d="M137 55.629999999999995c5.13 -1.69 2.75 -8.64 -0.65 -18.880000000000003a5.260000000000001 5.260000000000001 0 0 0 5.38 1.3800000000000001c4.870000000000001 -1.1300000000000001 2.49 -9.82 -0.38 -7.41 -3.7600000000000002 5.38 -8 0.29 -8.200000000000001 4.15 1.47 4.2 3.6 10.06 4.16 12.8 -8.959999999999999 -4.14 -8.78 10.73 -0.31000000000000005 7.96" fill="#ffffff" stroke-width="0.8"></path>
      <path d="M89.63 86c5 1.6800000000000002 12.73 -1.58 16.540000000000003 -5.24 0.9400000000000001 -0.9 0 -3.2700000000000005 -1.75 -2 -2.92 2.14 -7.93 5.38 -14.590000000000002 4.82a1.21412519944 1.21412519944 0 0 0 -0.2 2.42" fill="#ffffff" stroke-width="0.8"></path>
      <path d="M37.27 111.4c-5.07 3.74 -7.7700000000000005 -2.32 -9 1.37 0.26 4.220000000000001 0.7000000000000001 10.16 0.5 12.8 -6.91 -5.95 -11.280000000000001 7.56 -2.5300000000000002 7.13 5.670000000000001 -0.27999999999999997 5.19 -7.2 4.6000000000000005 -17.28 3.3700000000000006 5.69 11 2.1100000000000003 8.090000000000002 -3.7700000000000005a1.21 1.21 0 0 0 -1.6600000000000001 -0.25" fill="#ffffff" stroke-width="0.8"></path>
      <path d="M102.36000000000001 63.629999999999995a15.080000000000002 15.080000000000002 0 0 1 8.88 -1.6300000000000001c1.54 0.15000000000000002 1.6 -1.72 0.12 -2.23 -2.22 -0.75 -8.15 0 -10.14 1.9300000000000002 -0.8500000000000001 0.82 0.09000000000000001 2.52 1.1400000000000001 1.9300000000000002" fill="#ffffff" stroke-width="0.8"></path>
      <path d="M83.53 63.910000000000004c1.34 -0.71 0 -3.12 -1.57 -2.5 -5 2.07 -14.090000000000002 12.280000000000001 -10.620000000000001 13.280000000000001a1.26 1.26 0 0 0 1.58 -0.6200000000000001c1.29 -2.95 6.220000000000001 -7.83 10.61 -10.16" fill="#ffffff" stroke-width="0.8"></path>
      <path d="M188.26 43.800000000000004c-2.47 -0.37000000000000005 -6.11 0.44000000000000006 -10 1.9000000000000001 -0.76 -4.36 3.3000000000000003 -5.38 4.890000000000001 -9.08a9.76 9.76 0 0 0 -0.06 -7.740000000000001 1.2008018154400002 1.2008018154400002 0 0 0 -2.2100000000000004 0.9400000000000001c3.35 8.06 -7.220000000000001 10 -4.870000000000001 16.77 -1.5300000000000002 0.6400000000000001 -3.0700000000000003 1.35 -4.59 2.1100000000000003a4 4 0 0 0 -4.78 -1.7000000000000002c-2 0.52 -1.6500000000000001 2.92 -0.22000000000000003 2.5300000000000002 1.6100000000000003 -0.44000000000000006 2 -0.31000000000000005 2.7800000000000002 0.32000000000000006a62.14 62.14 0 0 0 -9.540000000000001 6.24c-0.8300000000000001 -0.8400000000000001 -0.65 -1.59 -0.29 -2.8200000000000003 1.46 -4.94 -2.7 -4.55 -5.4 -6.890000000000001 -1.27 -1.11 4.94 -8.18 3 -9.23a1.1900000000000002 1.1900000000000002 0 0 0 -1.67 0.31000000000000005c-6.93 10.670000000000002 -3.8700000000000006 10.350000000000001 1.89 13.340000000000002 0.33 1.87 -1.7600000000000002 4.9 0.65 6.9 -5.49 8.33 4.4799999999999995 6.300000000000001 -8.43 18.6 -4.420000000000001 -4.59 -11.950000000000001 -0.7000000000000001 -10.63 5.18a25.689999999999998 25.689999999999998 0 0 0 -10.590000000000002 -1.8399999999999999c5.550000000000001 -24.64 -19.3 -54.900000000000006 -42.19 -41.980000000000004 -1.37 0.77 -2.35 1.9000000000000001 -4.11 2.34a14 14 0 0 1 -4.55 0.06c-8.68 -0.31000000000000005 -16.900000000000002 1.89 -24.6 11.540000000000001 -10.81 14.26 -9.56 31 -20.94 45.13 -10.4 12.940000000000001 -15.06 3.78 -20.66 5.43 -1.6 0.47000000000000003 -5.61 2.18 -6 10.23a50.2 50.2 0 0 0 17.41 40.36000000000001 48.54 48.54 0 0 0 25.150000000000002 11.82c3 16.150000000000002 18.21 19.8 33.42 15.200000000000001 11.63 8.14 26.35 3.88 33.87 -8 3.7600000000000002 -5.69 3 -13.62 5.9 -19.46 3.2100000000000004 -6.300000000000001 11.280000000000001 -9.920000000000002 15.740000000000002 -11.68 8.459999999999999 -3.35 8.07 -9.24 2.8600000000000003 -12.450000000000001 -3.0700000000000003 -1.25 -7.95 -1.9500000000000002 -9.39 -4.93 3.24 -3.2700000000000005 6.0600000000000005 -6.15 8 -8.4 4.4 8.1 9.48 17.39 14.66 21.46 8.65 6.81 24.060000000000002 2.07 25.130000000000003 -9.65 0.9 -9.76 -3.48 -17.81 -7.93 -26.64 -4 -8 -0.42000000000000004 -12.690000000000001 -5.25 -16.66 6.550000000000001 -10.89 15.4 -3.1 15.600000000000001 -15.590000000000002 0.11000000000000001 -6.34 0.44000000000000006 -7.45 5.550000000000001 -7.720000000000001 10.06 -0.54 13.14 -14.4 2.4000000000000004 -16.25m-15.81 7.06c1.54 -0.78 3.1100000000000003 -1.51 4.63 -2.15a14.630000000000003 14.630000000000003 0 0 0 3.3100000000000005 3.2200000000000006c-3.17 5.6000000000000005 -19.82 24.57 -24.72 31.310000000000002 -0.31000000000000005 -0.45 -0.65 -0.9400000000000001 -1 -1.4500000000000002 5.370000000000001 -5.120000000000001 11.200000000000001 -18.73 17.89 -23.200000000000003 2.0300000000000002 -1.3800000000000001 0.09000000000000001 -6.28 -0.11000000000000001 -7.73m-13.14 8.8 0.45999999999999996 -0.47000000000000003a20.16 20.16 0 0 0 2.77 1.4100000000000001c-1.25 1.3800000000000001 -2.4000000000000004 2.6 -3.73 4.170000000000001 -0.26 -1.89 -0.6400000000000001 -3.9200000000000004 0.5 -5.11m-6.800000000000001 16.87c4.25 -4.49 8.74 -11 13 -15.680000000000001 1.72 -1.9000000000000001 -2.5 -2.23 -3.83 -3.33a62.89 62.89 0 0 1 8.620000000000001 -5.5200000000000005 25.5 25.5 0 0 1 0.9400000000000001 4.55c-5.83 4.260000000000001 -12.66 17.790000000000003 -18.080000000000002 23.36 -0.5900000000000001 -0.6900000000000001 -1.2300000000000002 -1.3900000000000001 -1.89 -2Zm-12.950000000000001 7.9c0.25 0.73 0.52 1.47 0.82 2.22 -6.25 4.57 -11.71 12.600000000000001 -16.73 17.630000000000003 -3 -0.5599999999999999 -4.34 -1.6300000000000001 -3.84 -4.38 5.460000000000001 -5 5.760000000000001 -11.490000000000002 7.8500000000000005 -17.8a23.180000000000003 23.180000000000003 0 0 1 11.9 2.33m-69.94 2.4800000000000004C61.150000000000006 73.32000000000001 66.57000000000001 62.120000000000005 76.11 55.75c8 -5.34 18.76 -7.5 27.72 -2.85 -4.37 -0.5900000000000001 -14.450000000000001 2.77 -13 5.54a1.64 1.64 0 0 0 2 0.58 19.400000000000002 19.400000000000002 0 0 1 13.780000000000001 -3.5100000000000002c10.850000000000001 3.1100000000000003 22.130000000000003 26.79 14.440000000000001 38.85 0.16000000000000003 -2.22 -0.77 -3.89 -3.58 -4 -6.78 -0.06 -13.82 9.56 -14.61 16.27 -5.870000000000001 3 -20 6.120000000000001 -30 3.7100000000000004 3.98 -9.540000000000001 1.03 -16.57 -3.24 -23.430000000000003M102.33 109.60000000000001c-0.27 12.25 -10 7.609999999999999 -18.23 10.25a14.240000000000002 14.240000000000002 0 0 0 -3.88 -6.24c7.6000000000000005 -0.2 16.36 -1.52 22.11 -4.010000000000001M92.4 121.12c7.63 -0.1 11.9 -2.7800000000000002 12.170000000000002 -10.420000000000002 0.16000000000000003 -4.75 4 -13.8 9.11 -16.790000000000003 1.54 -0.91 4 -1.4900000000000002 4.890000000000001 -0.78s-0.49000000000000005 3.58 -0.8300000000000001 5.5c-0.5900000000000001 3.3600000000000003 -0.61 6.6000000000000005 4.08 7.68 -5.36 6 -9.35 10.290000000000001 -16.62 18 -2.8600000000000003 0.06999999999999999 -6.36 2.4800000000000004 -10 5.54 -2.32 -5.470000000000001 -6.470000000000001 -6.540000000000001 -10 -3.8700000000000006a26.52 26.52 0 0 0 -0.47000000000000003 -3.79A22.290000000000003 22.290000000000003 0 0 1 92.4 121.12m40.6 -23.69a16.12 16.12 0 0 0 -0.06 3c-9.600000000000001 9.270000000000001 -13.16 15.62 -22.830000000000002 25.310000000000002a7.07 7.07 0 0 0 -2 -1.08c7.670000000000001 -8.08 12.030000000000001 -12.8 24.89 -27.230000000000004m0.37000000000000005 6a28 28 0 0 0 0.79 2.8800000000000003c-5.86 6.920000000000001 -14.580000000000002 17.5 -21.130000000000003 24.230000000000004a5.28 5.28 0 0 0 -1.1900000000000002 -3.0600000000000005c9.780000000000001 -9.93 13.4 -16.05 21.53 -24.090000000000003ZM11.83 134.68c-6.7700000000000005 -15 -6 -28.62 0 -30.47 4.49 -1.37 10.83 7.75 21.790000000000003 -6C45.11000000000001 84.06 44.050000000000004 67.04 54.620000000000005 53.04c11.06 -14.040000000000001 23.12 -9.600000000000001 27.610000000000003 -10.780000000000001 2.1100000000000003 -0.5599999999999999 3.9200000000000004 -2.22 5.91 -3.1300000000000003 21.200000000000003 -9.600000000000001 41.79 16.89 37.78 39.81 -3.63 -14.64 -11.51 -24.880000000000003 -24.41 -29.730000000000004S66.28 54.45 63.2 68.9c-3.4600000000000004 16.180000000000003 14.8 24.85 7.140000000000001 41.29 -24.94 0.5700000000000001 -29 30.3 -23.430000000000003 51.92000000000001 -10.14 -1.05 -27.910000000000004 -11.450000000000001 -35.080000000000005 -27.430000000000003m59.23 -22.080000000000002c14.219999999999999 0.39 12.22 19.290000000000003 9.36 28.060000000000002 -12.830000000000002 2.44 -25.939999999999998 12.23 -30.710000000000004 22.52 -6.490000000000001 -21.5 -1.6 -51.18000000000001 21.35 -50.580000000000005m0.7200000000000001 66.4C64 180 53 177 50.910000000000004 166.75c7.48 -18.78 27.85 -23 31.560000000000002 -24.130000000000003 2.83 -0.86 2.2399999999999998 -14.850000000000001 6.07 -15.600000000000001s4.49 8.14 8.709999999999999 4.34c6.48 -8 18.400000000000002 -4.4 10.83 5.11a37.65 37.65 0 0 1 -5 4.2700000000000005 1.21 1.21 0 0 0 0.6900000000000001 2.18c1.21 -0.22999999999999998 2.16 -1.34 4.78 -3.49a28.380000000000003 28.380000000000003 0 0 1 1.79 8.190000000000001c-1.8800000000000001 1.46 -4.53 3.09 -4.5600000000000005 3.1100000000000003a1.2000000000000002 1.2000000000000002 0 0 0 0.63 2.22c1 -0.18000000000000002 1.6100000000000003 -0.86 3.85 -2.29 -0.8800000000000001 15.930000000000001 -21.430000000000003 26.060000000000002 -38.480000000000004 28.34m64.39 -49.410000000000004c5.88 0.9300000000000002 5.73 6.93 -0.44000000000000006 8.770000000000001 -5.9 2.18 -13.65 6.170000000000001 -17 12.850000000000001 -3 5.870000000000001 -2.2399999999999998 13.67 -5.78 19.240000000000002 -6.45 10.07 -18.330000000000002 14.39 -28.77 8.4 18.12 -5.640000000000001 32.64 -19.42 27.689999999999998 -36.800000000000004 5.49 -6 11.22 -11.780000000000001 16.46 -17.05 1.67 2.6500000000000004 5.170000000000001 3.7600000000000002 7.840000000000001 4.59m-25.17 9.780000000000001q-0.30000000000000004 -0.9199999999999999 -0.66 -1.89c5.870000000000001 -7.57 17.73 -19.53 24.78 -28.64 0.52 1.26 1.11 2.5100000000000002 1.7300000000000002 3.7200000000000006 -4.7299999999999995 5.58 -15.850000000000001 15.91 -25.85 26.810000000000002m54.470000000000006 -47.18000000000001c0.16000000000000003 9.850000000000001 12 22 10 34.2 -1.92 11.55 -15.87 12.880000000000003 -21.62 7.38 -5.370000000000001 -5.13 -9.28 -12 -13.56 -19.85 -5.11 -9 -8.42 -19.080000000000002 1 -25 1.2300000000000002 2.2 1.58 2.8600000000000003 2.31 3.0600000000000005s1.5300000000000002 -1.07 1 -1.8399999999999999a28.110000000000003 28.110000000000003 0 0 1 -1.6 -3.4200000000000004c-2.44 -6 -2.9000000000000004 -10.490000000000002 2 -10.07 3 0.25 6.68 5.710000000000001 9.13 8.72s11.13 -6.03 11.350000000000001 6.82Zm27.080000000000002 -40.34c-2.29 11.55 -15.3 -0.9 -14.67 15.719999999999999 -0.2 9.740000000000002 -8.57 3.19 -15.5 14.880000000000003a9.9 9.9 0 0 0 -3.12 0c5.84 -7.390000000000001 23.310000000000002 -27.82 23.78 -30.53 0.22000000000000003 -2.15 -1.6300000000000001 -1.4100000000000001 -3.6500000000000004 -4.13 5.74 -2.59 13.700000000000001 -2.5500000000000003 13.17 4.0600000000000005Z" fill="#ffffff" stroke-width="0.8"></path>
      <path d="M94 68.49c5.7 -0.45999999999999996 10.370000000000001 1.34 5.45 6.53 -1.62 1.7100000000000002 0.15000000000000002 2.93 1.51 1.8600000000000003 3.4600000000000004 -2.7 3.3700000000000006 -5.670000000000001 2.5500000000000003 -7.640000000000001 -1.4000000000000001 -3.24 -7.2700000000000005 -3.7 -10.51 -2.87 -2.07 0.54 -1.82 2.35 1 2.12" fill="#ffffff" stroke-width="0.8"></path>
      <path d="M75.78 78.22000000000001c-0.38 1 1.79 2.5100000000000002 2.6300000000000003 0.8 1.62 -3.29 4.32 -6.48 7.8500000000000005 -7.26 0.65 -0.15000000000000002 1.21 -0.8400000000000001 0.9199999999999999 -1.4300000000000002C85.62 67.2 78 72.66000000000001 75.78 78.22000000000001" fill="#ffffff" stroke-width="0.8"></path>
    </g>
  </g>
</svg>