<svg xmlns="http://www.w3.org/2000/svg" viewBox="0 0 200 200" id="Designer-Desk--Streamline-Free-Illustrations" height="200" width="200">
  <desc>
    Designer Desk Streamline Illustration: https://streamlinehq.com
  </desc>
  <g>
    <g>
      <g>
        <path d="M164.2 49.12c2.5 -2.86 6.86 -3.69 8.37 1s0.47 10.29 1.87 11.75 11.27 2.84 16.89 7.85 5.13 11.32 -4.08 14.51 -22.33 1.92 -22.33 1.92Z" fill="#ffffff" stroke-width="0.5"></path>
        <path d="M12.9 77.56c-1.23 0 -4.85 -3.39 -6.37 -2s1.63 5.67 1.11 7.08 -3.1 3.36 -2.17 5.56 4.57 -0.23 5.21 0.18 0.84 5.75 2.25 5.88 1.77 -7 2.36 -7.58 6.67 0.09 6.9 -1.18 -5.08 -3.73 -5.31 -4.32 3 -5 1.95 -6.17 -4.83 2.56 -5.93 2.55" fill="#ffffff" stroke-width="0.5"></path>
        <path d="M67.9 63.94c-0.35 -3.12 -0.44 -9.57 0.63 -10.37S80.4 52 86 51.73s24.74 1.56 28.3 1.12 10.08 -2.25 12.77 -0.87 2.87 3.87 2.5 6.43a119.49 119.49 0 0 0 -0.38 17.15c0.41 3.5 0.68 7.37 -0.54 8.78s-4.19 1 -5.93 1.62S120 88 119 87.25s-1.62 -4.4 -0.65 -5.53c0 0 3.15 1 3.63 0.16s-0.19 -24.2 -0.78 -24.55 -19.46 -0.54 -22.84 -0.48 -26.75 0 -27.52 0.53 0 6.59 0 6.59Z" fill="#ffffff" stroke-width="0.5"></path>
        <path d="M136 118.43c1.42 -1.67 3.69 -1.07 4.73 0.87s2.41 4.19 1.58 7.47 -2.86 3.92 -4.69 3.89a5.23 5.23 0 0 1 -3 -0.93c-0.36 -2.16 -0.23 -2.16 -0.36 -3a9.44 9.44 0 0 1 -0.06 -5.2c0.8 -2.44 1.8 -3.1 1.8 -3.1" fill="#ffffff" stroke-width="0.5"></path>
        <path d="m110.68 73.61 0 -0.61 -2.66 0c0 -0.54 -0.06 -1 0 -1.41a14.24 14.24 0 0 1 0.15 -2.09l-0.58 0.13 0 3.38 -4.63 0c0 -1.43 0.09 -3.61 0.09 -3.61l-0.72 0.19c0 0.29 0 1.65 0.07 3.41 -0.9 0 -1.84 0 -2.78 -0.07l-2.91 -0.1c0 -1.7 -0.07 -3.27 -0.1 -3.37s-0.42 0 -0.42 0 0 1.5 0.09 3.33l-5 -0.16 0 -0.56 0 -2.4 -0.49 0.11 0 2.83 -5.22 -0.16c0 -1.79 0.09 -3.06 0.09 -3.06l-0.51 0.14 0 2.91 -5.08 -0.17c0 -1.22 0.07 -2.69 0.07 -2.69l-0.52 0a6.22 6.22 0 0 0 0 1.07l0 1.6 -6.25 -0.22c0 -0.56 -0.07 -1.15 -0.08 -1.5 0 -0.74 -0.4 -0.68 -0.36 0 0 0.32 0 0.91 0.06 1.48l-1.92 -0.01c-1.28 0 -2.63 -0.09 -4 -0.12a0.57 0.57 0 0 1 0 -0.13l0 -2.59 -0.39 0.06 0 2.66 -4.14 0a17.14 17.14 0 0 1 0.15 -2.86c0.21 -0.54 -0.62 -0.22 -0.62 -0.22l0 3.08 -4.57 0 0 -0.26c0 -1.79 -0.12 -2.93 -0.12 -2.93l-0.47 0.12s0 1.22 0.11 3.07l-2.86 0 -0.09 0.6s1.18 0 3 -0.1c0 1 0.08 2.16 0.12 3.4l-2.82 0 0.07 0.49a15 15 0 0 1 2.76 -0.13c0.06 1.56 0.12 3.22 0.17 4.82a16.87 16.87 0 0 0 -2.9 0.21l-0.08 0.37c0.56 -0.06 1.68 -0.11 3 -0.14 0.06 1.84 0.12 3.58 0.17 5 -1.82 0.06 -3.41 0.11 -3.6 0.15 -0.43 0.09 -0.63 0.46 0 0.41l3.63 -0.06c0.05 1.35 0.08 2.35 0.08 2.76s0 1.23 0.07 2.23l-3.92 0c-0.86 0 -0.51 0.62 0 0.52 0.18 0 1.84 -0.06 3.93 -0.08 0 1.38 0.11 3.06 0.17 4.7l-3.16 0c-0.43 0 -0.67 0.51 0.06 0.54l3.12 0c0.07 1.89 0.14 3.66 0.18 4.77l-2.71 0c-0.77 0 -0.59 0.42 -0.08 0.41s1.73 0 2.81 0l0 0.76c0 0.43 0.38 0.74 0.39 0l0 -0.76 4.05 0 0 0.79c0.08 0.64 0.53 0.58 0.53 -0.1l0 -0.69 4.21 0 0 0.75c0.08 0.46 0.46 0.57 0.46 0.05l0 -0.8 0.77 0c0.84 0 2.88 0 4.77 0.06l0 1.66 0.55 0.06 0 -1.71 3.19 0 2.4 0c0 0.93 0.08 1.59 0.08 1.59l0.62 0.07s0 -0.69 -0.1 -1.66l5.1 0 0.38 0c0 0.88 0.06 1.49 0.06 1.49l0.49 0.15s0 -0.68 -0.07 -1.65c1.42 0 3.75 -0.07 5.79 -0.09l0 1.61 0.44 0.18 0 -1.8 3.23 0c0.54 0 1 0 1.61 -0.06l0 1.76 0.5 0.18s0 -0.81 -0.06 -2c1.63 -0.1 3.59 -0.26 4.75 -0.2l0.22 0 0 2.43 0.5 0 0 -2.38c1.49 0 2.94 0 3.69 -0.06l1.55 -0.07 0 0.71c0 0.65 0.59 0.67 0.57 0l0 -0.76 0.47 0c0.75 0 0.62 -0.46 0.07 -0.49l-0.56 0c0 -1 0 -2.4 -0.09 -3.92l0.73 0c0.57 0 0.83 -0.39 -0.13 -0.47l-0.61 0c0 -1.88 -0.08 -3.84 -0.11 -5.22l0.69 0c0.74 0 0.61 -0.2 0.15 -0.31a2.91 2.91 0 0 0 -0.84 0l0 -1.06 0 -3.7 1.06 0c0.56 0 0.41 -0.42 -0.07 -0.42l-1 0c0 -1.51 0 -3.18 -0.06 -4.65l1.16 0c0.48 0 0.23 -0.31 0 -0.36l-1.12 -0.08c0 -1.65 -0.05 -3 -0.07 -3.48a2.62 2.62 0 0 0 0 -0.27l0.4 0c0.59 0 0.78 -0.5 0.15 -0.5l-0.59 0c-0.08 -1 -0.26 -2.47 -0.36 -3.73Zm-12.68 -0.27 4.42 0.12 0 3.39c-1.75 -0.1 -4.45 -0.11 -5.64 -0.14l0 -0.22c0 -0.76 0 -2 -0.08 -3.2Zm-1.12 8c1.3 0.07 4.55 0.34 5.45 0.37l0.16 0 0 1.29c0 0.94 0 2.26 0.09 3.56l-5.25 0c-0.2 0 -0.42 -0.35 -0.42 -0.68s-0.06 -2.26 -0.08 -4.49Zm0 -0.53 0 -3.73 5.63 0.33 0 3.77Zm-0.57 -7.58c0 1.14 0.06 2.37 0.09 3.42 -1.19 0 -4 -0.33 -4.93 -0.35l-0.15 0 0 -3.24Zm-5.38 -0.18 0 2.06 0 1.17c-1.33 0 -3.91 -0.18 -5.1 -0.21l0 -2.21 0 -1Zm-5.61 -0.17 0 2.83 0 0.35 -5.22 0 0 -0.75c0 -0.3 0.2 -1 0.19 -1.55l0 -1Zm-12.13 -0.38a4.62 4.62 0 0 0 0.13 0.91c0.16 0.53 0.52 0.38 0.39 0a5.41 5.41 0 0 1 -0.13 -0.91c2.27 0.11 4.39 0.22 6.11 0.26l0.1 0 0 1.22c0 0.22 0 1.34 -0.06 2.08l-0.21 0c-0.71 -0.08 -0.71 0.38 -0.3 0.39l0.5 0 0 0.37c0 0.44 0.34 0.28 0.34 0.06l0 -0.42 1 0 4.24 0 0 3.68c-0.58 0 -1.08 -0.08 -1.4 -0.13s-0.66 0.26 -0.24 0.38c0.15 0 0.82 0.08 1.64 0.12l0 2a1.49 1.49 0 0 1 0.47 0.53l0 -2.5c1.42 0.06 3 0.11 3.25 0.1s0.34 -0.39 -0.09 -0.39 -1.8 0 -3.16 -0.08c0 -1.27 0 -2.52 -0.07 -3.69l2.07 0.05 3.06 0.15 0 1a5.18 5.18 0 0 0 0.32 1.39c0.08 0.12 0.1 0.11 0.12 -0.55l0 -1.85 4.33 0.25 0.76 0 0 1.8c0 0.41 0 1.18 0.06 1.93l-0.15 0a0.27 0.27 0 1 0 0 0.53 0.81 0.81 0 0 1 0.16 0 39.31 39.31 0 0 1 0 5.08 0.5 0.5 0 0 1 -0.28 0.16c-0.9 -1.92 -2.93 -7.26 -3.32 -6.93a34.64 34.64 0 0 0 -3.31 3.84c-1.09 1.47 -0.59 1.38 -0.5 2.42 0.08 0.85 0.22 7.87 0.66 7.81s6.75 0.06 8.07 0.06 1.46 -0.38 1 -1.26c-0.36 -0.67 -1.13 -2.75 -1.82 -4.32l0 -1c0 -0.13 0.21 -0.18 0.48 -0.16l5.13 0c0 1.46 0.1 2.84 0.08 3.57l0 1 -1.08 0a13.15 13.15 0 0 1 -1.74 -0.19c-0.87 -0.07 -0.54 0.57 0.16 0.59s1.67 0.09 2.65 0.16l0 4.18 0 0.76 -5.18 0.05c0 -1 -0.05 -1.66 -0.05 -1.85 0 -0.75 -0.44 -0.91 -0.42 -0.23 0 0.18 0 1 0.05 2.07l-0.13 0 -4.71 0c0 -1.07 0 -1.88 -0.08 -2 -0.1 -0.65 -0.29 -0.76 -0.36 -0.08l0 2.13 -5.93 0 0 -0.47c0 -0.68 -0.41 -1.07 -0.47 -0.42l0 0.89 -5.65 0 0 -0.27c-0.08 -0.57 -0.39 -0.39 -0.42 0l0 0.24 -0.56 0 -4.88 0 0 -3.12c0 -0.43 -0.11 -0.58 0.34 -0.64a19.63 19.63 0 0 1 2.07 0.1l-0.38 -0.42 -1.94 -0.11c-0.12 0 -0.1 -0.1 -0.09 -0.32s-0.31 -0.38 -0.36 0l0 4.53 -5.83 -0.03c-0.06 -2.15 -0.11 -4.06 -0.08 -4.34 0.08 -0.65 0.11 -0.65 -0.7 -0.67 -0.3 0 -1.95 0 -4 -0.07 0 -1.68 -0.09 -3.74 -0.12 -5.14l0.68 0c0.11 0 0.52 -0.61 -0.17 -0.57l-0.53 0 0 -1 0 -4 2.16 0c1.51 0.08 0.61 -0.45 -0.18 -0.45l-2 0 0 -4.62c1.41 0.06 2.87 0.13 4.26 0.22 0 2 0.08 4.39 0.08 4.39l0.51 -0.23s-0.09 -2.4 -0.12 -4.14l2.66 0.17 0.11 -0.44 -2.84 -0.11 0 -0.78c0 -1.21 -0.2 -2.17 -0.25 -3 2.02 0.08 4.11 0.18 6.09 0.28M63 94.49c0 -0.39 -0.06 -1.22 -0.09 -2.23 2.32 0 4.19 0 4.28 0.08a40.35 40.35 0 0 1 0.12 4.66l-4.26 0c-0.05 -1.14 -0.05 -2.09 -0.05 -2.51m1.66 -22.27 2.14 0 0 1.71c0 0.32 0 1.11 0.07 2.06l-4.25 -0.16 0 -0.39 0 -3.24Zm-7.05 0.11c1.31 0 2.88 -0.07 4.53 -0.09l0 3.61c-1.27 0 -2.64 -0.08 -4.12 -0.1 -0.18 -1.42 -0.36 -2.31 -0.45 -3.42Zm0.39 4.39 0 -0.65c1.2 0 2.61 0.06 4.09 0.12l0 4.65 -4 0c-0.04 -1.72 -0.09 -3.27 -0.09 -4.12m0.1 4.59 3.95 0 0 1.9c0 0.79 0.07 1.84 0.1 3l-4 0.12c-0.01 -1.55 -0.03 -3.33 -0.06 -5.02Zm0.09 8.09 0 -2.58 4 -0.08c0 1.65 0.09 3.48 0.14 5.13l-4.09 -0.05c-0.04 -1.08 -0.06 -1.95 -0.06 -2.42Zm4.14 2.86c0.06 2 0.1 3.7 0.13 4.28l0 0.45 -0.56 0 -3.53 0c0 -1.63 -0.1 -3.31 -0.13 -4.7 1.31 -0.03 2.76 -0.04 4.08 -0.03Zm-3.79 10c0 -1.11 -0.08 -2.88 -0.14 -4.77l4.09 0c0 1.37 0.06 3.47 0.1 4.81Zm4.62 0c0 -1.2 0 -3.14 -0.09 -4.81l4.26 0 0 4.85Zm9.22 0 -4.55 0c0 -1.18 -0.11 -3.06 -0.17 -4.86l5.77 0 0 4 0 1Zm1.5 0 0 -5 5.19 0 0.23 0c0 1.14 0.13 3.4 0.21 5Zm9.19 0 -3 0c-0.1 -1.65 -0.24 -3.89 -0.33 -5l5.63 0.08c0 1.35 0.12 3.35 0.19 4.84 -1.1 0.16 -1.98 0.19 -2.5 0.22Zm3 -0.11c-0.06 -1.55 -0.15 -3.59 -0.19 -4.81l5.91 0.12c0 1.46 0 3.22 0.08 4.56 -1.93 0.17 -4.09 0.22 -5.87 0.27Zm8.82 -0.16 -2.56 0c0 -1.36 0 -3.1 -0.08 -4.54l4.75 0.25c0 1.4 0.06 3 0.08 4.36 -0.7 0.04 -1.45 0.07 -2.25 0.07Zm2.74 -0.1c0 -1.33 -0.08 -3 -0.12 -4.32l3.63 0 1.5 0 0 4c-1.85 0.19 -3.4 0.36 -5.07 0.43Zm10.67 -3.3c0 0.58 0 2 0.08 3.11 -0.34 0 -0.72 0.09 -1.15 0.1 -0.92 0 -1.75 -0.21 -4.07 -0.21 0 -1.23 0 -2.67 0.05 -4 1.92 0 3.84 0 5.08 0.06 -0.06 0.61 -0.05 0.93 -0.05 1.08Zm0 -1.39 -5.08 -0.2 0 -2.33 0 -2.6c0.5 0 1 0.05 1.3 0.05 0.78 0 2.51 -0.06 3.74 -0.09 -0.07 1.82 -0.05 3.97 -0.03 5.31Zm-0.1 -7.42 0 1.9 -0.2 0c-0.64 0 -3.11 -0.12 -4.82 -0.16 0 -1.49 0 -3.16 0.06 -4.6l4.88 0c-0.02 1.39 0 2.46 0.01 3Zm-0.06 -3.29 -4.94 0 0 -2.82c0 -0.49 0 -1.1 -0.06 -2l4.86 0.33c0 1.38 0 3.12 0.07 4.63Zm-0.1 -7.25 0 2.15 -4.12 -0.22 -0.73 0c0 -1.15 -0.07 -2.5 -0.1 -3.78 1.07 0.07 3.49 0.23 4.88 0.3 0.03 0.7 0.03 1.25 0.03 1.69Zm-0.1 -2.11c-1.37 -0.09 -3.53 -0.25 -4.78 -0.37l-0.16 0c0 -1.51 -0.07 -2.83 -0.08 -3.43l4.63 0.09 0 0.3c0.02 0.63 0.2 2.13 0.32 3.55Z" fill="#ffffff" stroke-width="0.5"></path>
      </g>
      <g>
        <path d="M76.39 22.94c-1.92 0.27 -2.09 0.06 -2 2.09s0.18 3.93 0.55 8 -0.29 8.76 -1.47 10.73 -1.71 2.3 1.41 2.59 14.61 0.72 20.43 1.71c2.72 0.46 3.1 -0.08 3.85 -2.72s1.27 -5.59 0.3 -11 -1.68 -9.24 -1.62 -10.54 -1.41 -2.19 -4.06 -2.1c-7.35 0.3 -15.91 1.04 -17.39 1.24" fill="#ffffff" stroke-width="0.5"></path>
        <path d="M166.32 89.46c-0.23 -2.89 -1.69 -9.5 -1.69 -12.24s-1.2 -23.65 -0.48 -28.16 1.69 -6.68 1.77 -10.86 0.24 -9.5 -0.16 -10.46 -4.56 0.29 -8.8 0.5 -17 0.25 -18 0.87c-0.78 0.5 0.17 20.9 -0.24 28.16s-0.13 14.24 -0.37 17.21 0.55 6.51 0.55 9.26a39.24 39.24 0 0 0 1.13 8.68c0.37 0.75 1.31 0.5 2.25 0.5s5.84 0.55 9.83 0.44 9.37 -0.5 11.23 -0.22 3.21 -0.78 2.98 -3.68m-5.93 -3.54c-1.15 0.83 -18.16 0.36 -18.95 -0.21s-0.8 -6.77 -0.66 -8.62 0 -17.79 0.27 -19.2 -0.05 -12.21 -0.05 -13.78 -0.64 -11.37 0.42 -12.54 17.26 -0.49 18 0.23 0.9 12.81 1 14.25 0.36 21.11 0.36 22.26 0.77 16.77 -0.39 17.61" fill="#ffffff" stroke-width="0.5"></path>
        <path d="M172.41 26.67c-0.3 -1.68 3.3 -2.32 4 -3s0.51 -8.49 2.41 -8.74 4.1 5.53 4.81 6 4.86 -1 5.41 0.46 -3.34 3.84 -3.51 4.94 4.18 4.73 3.38 5.74 -6.29 -1.14 -7.35 -1.14 -3.16 4.27 -4.56 3.85 -0.25 -5.87 -0.46 -6.34 -3.83 -0.12 -4.13 -1.77" fill="#ffffff" stroke-width="0.5"></path>
        <path d="M126.32 99.5c-1.49 0.38 -1.6 1.82 -1.63 2.83s0 6.16 0.07 7.28 1.86 2.08 4.24 2.67 4.42 0.3 5.46 -1.3 3 -5.87 2.6 -8.76 -0.45 -2.83 -1.93 -2.79 -8.81 0.07 -8.81 0.07" fill="#ffffff" stroke-width="0.5"></path>
        <path d="M54.5 114c-0.43 -1.12 0.53 -1.66 1.73 -1a20.34 20.34 0 0 1 4.67 4.71c1.37 1.89 4.1 6.19 5 7.32s0.92 3.86 -1.49 2.29 -7.73 -9.56 -8.56 -10.74A8.92 8.92 0 0 1 54.5 114" fill="#ffffff" stroke-width="0.5"></path>
        <path d="M50.94 111.51c-1.9 -2.16 -14 -1.27 -15.69 -0.54 -2.36 1 -2.63 5.24 -3 7.47s-2 5.6 -2 7.62 0 2.19 1.09 2.44 14.65 0.65 16.55 0.27 3.19 -1.21 3.53 -3.45 1.41 -11.65 -0.48 -13.81m-12.1 9.78a7.88 7.88 0 0 1 -3.44 0.19c-1.19 -0.22 -0.94 -1.81 0.35 -1.94a20.38 20.38 0 0 1 3.2 0c1.18 0.11 0.91 1.46 -0.11 1.75m0.79 -4.91a16.79 16.79 0 0 1 -3.81 0.18c-1.29 -0.21 -0.62 -1.88 0.72 -1.74a14.61 14.61 0 0 1 2.64 0.18c1.02 0.27 1.35 1.32 0.45 1.38m3.17 1.31a18.74 18.74 0 0 1 3 0.46c0.86 0.27 0.79 1.57 -0.15 1.43s-1.89 0.16 -3.15 0 -0.74 -2.02 0.3 -1.89M46.27 124a6.46 6.46 0 0 1 -2.13 0.09c-0.81 -0.1 -0.51 -0.34 -1.24 -0.7s-0.24 -1.21 0.76 -1c0.58 0.13 1.71 0.25 2.51 0.41a0.60207972895 0.60207972895 0 0 1 0.1 1.2m0.26 -8c-1.27 -0.2 -1.45 -0.35 -2.13 -0.42 -1 -0.11 -1 -1.1 0 -1.23a4.29 4.29 0 0 1 2.33 0.38c0.7 0.33 1.08 1.53 -0.2 1.33Z" fill="#ffffff" stroke-width="0.5"></path>
        <path d="M80.26 82.39a6.89 6.89 0 0 0 1.3 -2c0.12 -0.67 -6 -5.87 -6.88 -5.62s-3.77 4.57 -5.16 6.4a40.29 40.29 0 0 0 -3.89 6.41c-0.32 1 -0.63 1.84 0.7 2.86s3.7 2.34 4.49 3 1.21 0.82 1.4 0.12a29.07 29.07 0 0 1 2.66 -4.56 7.58 7.58 0 0 1 1.93 -5.13c2.09 -2.27 3.45 -1.48 3.45 -1.48" fill="#ffffff" stroke-width="0.5"></path>
      </g>
      <g>
        <path d="M11.24 26.55c2.36 2.36 4.37 5.18 5.38 4.52s0.3 -7.28 -1.61 -9.44c-5.35 -6.05 -9.58 -0.89 -3.77 4.92" fill="#ffffff" stroke-width="0.5"></path>
        <path d="M9.39 39.08c2.54 1.58 7 4.31 7.67 3.55s-2.16 -5.58 -4.63 -8c-7.38 -7.18 -10.71 -0.35 -3.04 4.45" fill="#ffffff" stroke-width="0.5"></path>
        <path d="M30.13 20.52c-1.91 0.27 -2.6 1.07 -2.66 2.87s0.08 12.24 -0.06 15 0 12.17 -0.75 15.8 -0.23 10.93 -0.05 12 20.94 2.38 20.94 2.38a5.29 5.29 0 0 1 0.47 -4l-17.19 -2.1a101.06 101.06 0 0 0 -1.26 -10.56c-0.75 -3.22 -1.27 -5 -1.13 -8.17s0.38 -8 0.28 -11 0.52 -6.54 0.19 -7.52 -1.31 -1.87 0.84 -1.82 14.33 1.5 17.41 1.6a46.44 46.44 0 0 1 6.21 0.59 44.81 44.81 0 0 1 1 10.16c-0.16 5.3 -0.38 13.45 -0.7 17.13s-0.64 9.94 -0.08 9.94 1.24 -0.31 2.18 -0.31a10.23 10.23 0 0 1 2.5 0.54c2.47 -3.25 1.7 -16.45 1.65 -19.22s-0.6 -18.58 -1.29 -20.53 -0.59 -3.54 -2.78 -3.42 -7.11 0.47 -8.38 0.51 -17.34 0.13 -17.34 0.13" fill="#ffffff" stroke-width="0.5"></path>
        <path d="M48.83 75c-4.58 -0.18 -11.47 1.53 -14.83 7s-6.16 8.47 -11.28 10.91 -6.16 5 -5 7.26 8.66 2.87 14.09 1.1 17.38 -0.12 17.38 -0.12 -0.67 -20.86 -0.67 -23.3 0.31 -2.85 0.31 -2.85" fill="#ffffff" stroke-width="0.5"></path>
        <path d="M111.33 64.25c-5.06 0.22 -44.13 0.76 -47.86 0.87s-7.89 -0.67 -10.11 1.11c-2.52 2 -2.81 6.24 -2.55 10s-0.05 17.81 0.7 22.62 1 6.63 1.09 7.9 20.32 2 29.76 2.07 22.2 1.24 27.49 0.36c5.93 -1 8.08 -4.12 7 -12.15a40.24 40.24 0 0 1 0.72 -16.1c0.91 -3.93 -1.18 -16.93 -6.24 -16.68m-0.84 40.24c-1.4 1.3 -5.77 0.28 -13.49 0.28s-16.94 0.06 -24.11 0.06 -17.82 0 -18.74 -0.89 -1.24 -6.55 -0.95 -11.22 0.95 -12 0.85 -16.72 -0.15 -7.18 -0.15 -7.18a5.28 5.28 0 0 1 1.51 -0.14c1.11 0 14.55 0.42 23 0.66s27.34 -0.37 29 -0.24 3.07 -1.44 4 7.21 0.47 26.88 -0.92 28.18" fill="#ffffff" stroke-width="0.5"></path>
        <path d="M84.63 83.41c-4.76 -1.39 -7.53 1.34 -8 4.56S77 94.11 79 95s7.81 2 9.42 -3.42c0.82 -2.87 -1.42 -7.48 -3.79 -8.17" fill="#ffffff" stroke-width="0.5"></path>
        <path d="M106.92 25.2c0 -1.07 0.19 -1 1 -1.07s15.59 -1.2 18.25 -1.07 3.34 0.06 3.22 2.78 -0.07 8 0.88 10.86 1.77 8.78 0.82 9.91 -5.87 -0.19 -10.1 0.13 -8.4 -0.06 -11.12 0.76 -4.54 1.26 -4.1 -1.9 1.15 -18.94 1.15 -20.4" fill="#ffffff" stroke-width="0.5"></path>
        <path d="M136.27 21.4c-1.76 -0.32 -0.77 -5.82 0.13 -8.63 1.31 -4.11 4.76 -5.51 7.15 -4s0.13 4.8 -2.11 6.87 -3.51 6.05 -5.17 5.76" fill="#ffffff" stroke-width="0.5"></path>
        <path d="M155.55 69.81c-0.49 -3.7 -2.69 -10 -2.6 -10.75s0.21 -0.91 2 -1.6 1.25 -3 0.67 -3.57 -1.24 -0.63 -1.06 -0.91a19.78 19.78 0 0 0 0.38 -2.14c0.22 -1 0.05 -1.57 -0.68 -1.77s-1.3 0.63 -1.57 1.6a1.56 1.56 0 0 1 -1.81 1.33 3.52 3.52 0 0 1 -2.48 -1.08c-0.63 -0.74 -1.05 -2.66 -2.06 -2.51s-1 1.53 -0.52 3.77c0 0 -0.85 0.32 -1.08 1.82a3.71 3.71 0 0 0 1.34 3.69 6.16 6.16 0 0 0 2.77 0.82c0.56 0.21 -0.28 1.2 -1.09 3.68a72.52 72.52 0 0 0 -1.49 8.14 3.29 3.29 0 0 1 -0.62 -3.06 13.88 13.88 0 0 0 -0.15 -6.67c-0.35 -1.3 -1.81 -1.45 -1.12 0.31s0.43 5.79 0 7.67 -0.59 3.61 1.34 5.27c-0.2 1.48 -0.37 2.73 -0.48 3.48 -0.4 2.83 2.33 4.62 3.54 4s2.44 -0.14 3.65 0 1.47 0.54 3 -1.75 0.57 -6.07 0.12 -9.77" fill="#ffffff" stroke-width="0.5"></path>
        <path d="M153.3 117.59c-1 0 -1.17 -0.51 -1.1 -1.17s0.58 -1.15 1.33 -0.74 0.73 0.13 1.06 -0.06 0.63 -0.3 1.35 0.22a1.72 1.72 0 0 0 1.43 0.44 0.64 0.64 0 1 1 0 1.27c-0.98 0.04 -3.28 0.08 -4.07 0.04" fill="#ffffff" stroke-width="0.5"></path>
        <path d="M164.55 115.67c-1.15 -0.33 -1.53 0.39 -2.19 0.36s-1.24 0.23 -1.25 0.86 0.7 0.38 1.15 0.44 0 0.29 0.67 0.42a7.77 7.77 0 0 0 1.91 -0.07Z" fill="#ffffff" stroke-width="0.5"></path>
        <path d="M156.87 120.45c-2.19 0.06 -1.83 -1 1.37 -1.21a6.16 6.16 0 0 1 3.29 0.69c0.9 0.49 -0.26 1.19 -1.54 1a15.87 15.87 0 0 0 -3.12 -0.48" fill="#ffffff" stroke-width="0.5"></path>
        <path d="M151 123a7.56 7.56 0 0 1 2.68 -0.49 9.58 9.58 0 0 1 2.9 0.47c1 0.38 0.93 1.08 -0.41 1.1a35.38 35.38 0 0 1 -4.29 0.06 10 10 0 0 1 -1 -0.24Z" fill="#ffffff" stroke-width="0.5"></path>
        <path d="M165.12 123.47c-1.8 -0.43 -2.14 -0.7 -2.8 -0.56s-1 1 0.12 1.35a8 8 0 0 0 2.85 0.15Z" fill="#ffffff" stroke-width="0.5"></path>
        <path d="M151.27 126.58s3.94 0.13 7.85 0 6.68 0.18 7.51 0 0.75 0.53 0.33 1.09 0.49 1.54 -1 1.35a62.38 62.38 0 0 0 -6.83 -0.63c-1.43 0.07 -8 -0.3 -8 -0.3Z" fill="#ffffff" stroke-width="0.5"></path>
        <path d="M100.92 119.32c0 -1.09 0.26 -1.61 2.27 -1.58s7.46 0.76 12 0.53 10.49 -0.63 11.36 -0.41 0.9 4.51 0.3 7.4 -0.5 4.39 -5.29 4.19 -11.47 0.9 -13.81 0.7 -6.19 0 -6.79 -2.69 -0.05 -7.05 -0.04 -8.14" fill="#ffffff" stroke-width="0.5"></path>
        <path d="M76.5 110.83c0.45 -0.36 3.21 0 5.4 -0.14s3.74 -0.65 4.62 -0.4 1.4 0.23 1.17 1.17 0 1.43 0.32 1.49a11.77 11.77 0 0 0 2.22 -0.72c1.12 -0.34 1.92 0.6 2 1.77s-1.2 4.63 -3.22 5.43 -9.85 1.56 -12.29 0.12 -2.41 -2.41 -2.34 -3.67 0.26 -2.52 1 -3.17a3.91 3.91 0 0 0 1.12 -1.88" fill="#ffffff" stroke-width="0.5"></path>
      </g>
      <g>
        <path d="M39 29.36a4.18 4.18 0 0 0 2.42 0.12c0.9 -0.07 1 0.53 3.07 0.36s-0.16 -1.79 -2 -1.68a11.3 11.3 0 0 1 -3.6 -0.16c-1.35 -0.28 -1.27 0.71 0.11 1.36" fill="#ffffff" stroke-width="0.5"></path>
        <path d="M37.21 34.45a1.76 1.76 0 0 0 1.81 0c1.33 -0.83 1 0.24 2.36 0s1.28 -0.76 2 -0.47 3.08 0.48 3.68 0.09 0.45 -0.11 0.92 0.12 0.57 -1.23 -0.23 -1.36 -1 0.16 -1.84 0.32c-1.36 0.26 -1.58 -0.27 -2.26 -0.31s-1.35 0.4 -2.41 0.33 -1.36 -0.84 -2.26 -0.28c-1.68 1 -1.35 -0.85 -3.18 -0.1 -1.07 0.44 -1.24 1.73 0 1.17s0.85 0.19 1.41 0.49" fill="#ffffff" stroke-width="0.5"></path>
        <path d="M43.1 38.51c-0.75 0 -1 0.26 -1.83 0.19S41 37.26 39 37.92c-0.57 0.19 -1.1 0.54 -1.67 0.76 -0.75 0.3 -1 1 0 1a3.61 3.61 0 0 0 1.95 -0.54c0.56 -0.25 0.69 -0.17 1.09 0.29s0.69 0.4 1.65 0.39a5.8 5.8 0 0 1 2.27 0.05 6.83 6.83 0 0 0 2.88 0.4c1 -0.13 1.13 -0.77 -0.2 -1 -1.81 -0.22 -2.17 -0.71 -3.87 -0.76" fill="#ffffff" stroke-width="0.5"></path>
        <path d="M38.55 46a2 2 0 0 0 2 0.27c0.8 -0.29 1.35 -0.67 1.78 -0.5a2.49 2.49 0 0 0 1.49 0.25 2.48 2.48 0 0 1 1.77 0.15c1 0.33 1.41 -0.25 1 -0.51s-1.18 -1 -1.88 -0.67a2.49 2.49 0 0 1 -2 0 2.58 2.58 0 0 0 -2 0.08c-0.75 0.33 -1.07 0.46 -1.33 0.26S39 44.49 38 44.81s-2 0.72 -1.71 1c0.45 0.45 1.81 -0.24 2.26 0.19" fill="#ffffff" stroke-width="0.5"></path>
        <path d="M48.4 52.46c-0.67 -0.31 -1.12 -0.15 -1.39 -0.39a1.27 1.27 0 0 0 -1.29 -0.23c-0.48 0.2 -0.64 0.52 -1.27 0.25a2.39 2.39 0 0 0 -2 0 1.31 1.31 0 0 1 -1.53 0.06 2.68 2.68 0 0 0 -2.29 -0.15c-0.85 0.32 -1.06 0 -1.82 0.19s-0.47 1 -0.12 0.83 0.67 0 1.15 0.16 0.73 -0.35 1.53 -0.35a1.64 1.64 0 0 1 1 0.32 1.82 1.82 0 0 0 2 0.11 5 5 0 0 1 2.71 0.17c0.66 0.11 1.19 -0.5 1.77 -0.22a3.35 3.35 0 0 0 2.08 0.19c0.48 -0.17 0.14 -0.63 -0.53 -0.94" fill="#ffffff" stroke-width="0.5"></path>
        <path d="M43.42 58c-0.84 0 -4.18 0 -5 0.07s-0.89 1.24 -0.11 1.2 4.06 0 5 0 0.94 -1.27 0.11 -1.27" fill="#ffffff" stroke-width="0.5"></path>
        <path d="M74.88 43.82c1.84 0.29 4.21 0.83 6.72 1.33 7 1.4 15.6 1.14 16.22 1.16 1.5 0 1.07 -8.84 0.56 -11.9a108.05 108.05 0 0 1 -1.12 -11.69c-0.06 -2.25 0.42 -2.38 -3 -2.17 -0.64 0 -1.71 0.08 -3 0.13a11.07 11.07 0 0 0 -0.47 -1.34c-0.46 -1.09 -1.55 -1.41 -1.6 0.14l0 1.26c-3.26 0.1 -7.34 0.19 -10.69 0.25 -0.2 -0.57 -0.42 -1.11 -0.53 -1.49 -0.36 -1.17 -1.64 -1.73 -1.55 -0.08 0 0.51 0.05 1.06 0.1 1.6l-4 0c-2.52 -0.02 -1.67 1.1 -1.47 1.89 0.92 3.57 0.89 12.76 -0.41 17.22 -1.35 4.65 -0.12 3.01 4.24 3.69m2 -20.95a1.11 1.11 0 0 0 1.17 0.71 0.73 0.73 0 0 0 0.71 -0.64c3.93 0.11 7.53 0 10.73 -0.12 0.25 0.62 0.63 1 1.2 0.9s0.68 -0.47 0.74 -1q2.1 -0.09 3.93 -0.12s0.55 0.87 0.23 4.12 1.45 11.7 0.74 17.75c0 0 -4.13 -0.47 -7.61 -0.82s-3 -0.45 -15.65 -2.69c0.73 -3 1.87 -14.51 0 -18.36 1.31 0.13 2.59 0.21 3.85 0.27Z" fill="#ffffff" stroke-width="0.5"></path>
        <path d="M78.82 28.84a13.32 13.32 0 0 1 2.3 0.17A18.45 18.45 0 0 1 85 29a9.85 9.85 0 0 0 3.61 -0.18c1.11 -0.11 0.86 -1.24 0.17 -1.33s-0.88 0.34 -2.44 0a43.09 43.09 0 0 0 -7.23 -0.11c-1.19 0.19 -1.64 1.52 -0.29 1.46" fill="#ffffff" stroke-width="0.5"></path>
        <path d="M88.79 30.89a26.18 26.18 0 0 1 -3.4 -0.08c-1.65 0 -4.81 0 -6 0.07s-1.15 1 0 1.07 6.08 -0.24 6.92 -0.1a5.34 5.34 0 0 0 2.69 0.15c0.81 -0.35 0.77 -1.29 -0.21 -1.11" fill="#ffffff" stroke-width="0.5"></path>
        <path d="M80.9 34c-1.51 0.09 -1.67 1.24 0 1.46a71.81 71.81 0 0 0 9.34 0.31c1.54 -0.18 1.27 -1.35 -0.85 -1.47S82.5 33.94 80.9 34" fill="#ffffff" stroke-width="0.5"></path>
        <path d="M109.82 45.77a50.92 50.92 0 0 0 11.56 -0.66c3.61 -0.68 6.5 0.82 8.07 0s1 -3.42 0.14 -7.53 -1.46 -10.2 -1.91 -13.39 -0.87 -3 -3.32 -3.3c-0.9 -0.11 -1.93 -0.19 -3 -0.23 -0.16 -0.48 -0.33 -0.88 -0.41 -1.1 -0.33 -0.84 -1.32 -1.51 -1.49 -0.16a6.93 6.93 0 0 0 0 1.2c-2.81 -0.05 -5.82 0 -8.15 0.16l-0.28 -0.69c-0.46 -1.21 -1.33 -1.31 -1.33 0l0 0.78 -1.3 0.1c-3.11 0.27 -4.1 -0.57 -4.35 3.45a147.31 147.31 0 0 0 0.6 17.11c0.41 3.7 1.7 3.94 5.17 4.26m-3.76 -22.86c0.08 -0.32 1.76 -0.47 3.85 -0.51 0.25 1.33 0.75 2.59 1.69 2.51s0.71 -1.29 0.31 -2.52c1.44 0 2.89 0.05 4 0.11s2.56 0.06 3.89 0.06c0.26 0.8 0.63 1.4 1.08 1.36 0.7 -0.07 0.89 -0.64 0.85 -1.37 1.81 0 3.22 0.06 3.41 0.36 0.4 0.58 0.5 4.65 1.16 9.22s1 8.51 1.61 9.93c0.33 0.78 -0.37 1.89 -1.92 1.47s-9.14 -0.1 -13.58 0.13 -6.11 0.63 -6.12 -1.23 -1.37 -15.1 -0.23 -19.52" fill="#ffffff" stroke-width="0.5"></path>
        <path d="M110.77 30.38c1.4 0 10.26 -0.51 11.91 -0.7s1.77 -1.94 -0.1 -1.75 -10.51 0.88 -12 1.29 -1.21 1.14 0.19 1.16" fill="#ffffff" stroke-width="0.5"></path>
        <path d="M120.47 32.28a81 81 0 0 0 -9.33 0.5c-0.85 0.16 -1.49 1 0.12 1s8.72 0 10.07 -0.27 0.6 -1.12 -0.86 -1.23" fill="#ffffff" stroke-width="0.5"></path>
        <path d="M120.47 36.33c-2 0.13 -7.53 0.45 -8.57 0.63 -1.54 0.27 -0.83 0.85 0.17 0.94s7.69 -0.15 8.93 -0.09 1.5 -1.6 -0.53 -1.48" fill="#ffffff" stroke-width="0.5"></path>
        <path d="M137.55 91.11a53.45 53.45 0 0 1 9.92 0.35c2.9 0.47 10 0.05 12.74 0.34s4.26 0.46 5.15 -0.45 0.44 -7 0.27 -9.59 -0.2 -11.19 -0.42 -13.79S165 52.1 165 50s-0.55 -16.19 -0.69 -17.79 0.25 -4.29 -0.48 -4.95 -3.81 -0.58 -5.9 -0.78 -6 -0.08 -8.84 -0.23a87.86 87.86 0 0 0 -11.65 0.7c-1 0.2 -0.72 1.33 -0.72 3.17s-0.22 12.35 -0.38 15.73 -0.66 16.14 -0.66 19.56 0.28 11.74 0.13 14.79 0 6.87 -0.14 8.45 0.44 2.64 1.88 2.46m0.21 -30.88c0 -2.92 0.42 -20.07 0.42 -24.07s-0.18 -7.88 0.32 -7.95c6 -0.93 19.41 -0.45 24.17 0 1 3.42 0.66 18.79 0.51 23s0.35 15.91 0.34 18.23 0.22 16.44 0.62 18.28 0.24 2.17 -0.57 2.35a53.54 53.54 0 0 1 -7.38 -0.09c-4.26 -0.16 -15.59 -0.64 -18.64 -0.56 0 0 0.44 -10.3 0.48 -13.07s-0.27 -13.21 -0.27 -16.12" fill="#ffffff" stroke-width="0.5"></path>
        <path d="M140.55 53.11c0 5.37 -0.44 17.35 -0.46 19.89s-0.17 12.4 0.72 13.41 19.12 0.68 20.19 0 0.41 -10.21 0.42 -12.6 -0.42 -23.46 -0.42 -25.9 -0.14 -10.53 -0.2 -13.21 -0.44 -3.79 -1.75 -4 -16.45 -0.82 -18 0.34c-1.08 0.8 -1 6.1 -1 8.93s0.49 7.78 0.5 13.14m1 -20.78a0.52 0.52 0 0 1 0.16 -0.36 0.48 0.48 0 0 1 0.37 -0.14c1.84 0.06 16.08 0.32 16.72 0.16 0.4 0.59 0.92 13.52 1.11 17.23s0.14 15.82 0 19.69 0.56 16 -0.42 16.57 -17.35 0.33 -17.75 -0.31 -0.25 -20 -0.1 -23.48 0.11 -12.25 -0.12 -14.46 -0.02 -10.31 0.06 -14.9Z" fill="#ffffff" stroke-width="0.5"></path>
        <path d="M54.17 104.66c0.93 0.61 6.75 0.93 10.47 0.7s14.24 0.14 18.34 0.14 17.55 0 20.67 0.23 6.47 0.33 7.73 -0.79 1 -11.78 1 -14.52 -0.19 -12.25 -0.65 -15.32 0.14 -4.84 -1 -5.86 -9.6 -0.9 -15.72 -0.79 -13.3 0.4 -18.36 0.23 -12.18 -0.62 -15.88 -0.68 -6.43 -0.28 -7.23 0.34 -0.57 4.54 -0.22 6.76 -0.41 16 -0.78 21 0.7 7.96 1.63 8.56m0.5 -22.79a64 64 0 0 0 -0.42 -12.65c4.37 0 21.06 0.69 25.27 0.69s16.87 0.07 20.74 0.12 8.22 0 9 0.2c1.08 1.64 1.74 16.77 1.65 18.77 -0.2 3.81 -0.15 14.71 -1.14 15.21s-15.51 -0.25 -19.77 -0.25 -19 0 -22.49 0.2 -11.3 0.25 -12.49 -0.35 -0.94 -2 -1.19 -5.4 0.4 -12.47 0.84 -16.54" fill="#ffffff" stroke-width="0.5"></path>
        <path d="M63.67 87.56a17.23 17.23 0 0 1 4.19 2.82c0.74 0.86 2.36 2.53 3.37 2.55s1.47 -1.26 2 -1.72 0.62 -1.64 -0.17 -1.31 -1.31 1.57 -1.67 1.53a31.38 31.38 0 0 1 -3.5 -2.82 38.34 38.34 0 0 0 -3.43 -2.29c-0.22 -0.16 0 -0.54 0.23 -0.81s2.91 -3.88 3.91 -5.43 3 -4.25 3.2 -4.65 0.55 -0.55 1.14 0a36 36 0 0 0 5.3 3c0.71 0.24 0.69 0.54 0.36 0.85a3.19 3.19 0 0 0 -0.6 1.26c-0.09 0.24 1 0.37 1.11 0a7.73 7.73 0 0 0 0.9 -1.81c0.15 -0.75 -2.47 -2.28 -4.16 -3.19a43.23 43.23 0 0 0 -3.93 -1.82c-0.28 -0.12 -0.25 0.29 -0.69 0.8s-2.23 2.81 -3.72 4.84 -4.11 5.75 -4.61 6.64 -0.02 1.28 0.77 1.56" fill="#ffffff" stroke-width="0.5"></path>
        <path d="M74.48 89.71c0.54 3.8 2.83 6.42 7.43 6.1s6.29 -4.47 5.41 -8.49 -3.32 -5.61 -6.86 -5.76c-4.07 -0.19 -6.46 4.34 -5.98 8.15m6 -6.8c3.47 0 4.84 2.58 5.66 5.23a5 5 0 0 1 -4.18 6.45c-3.34 0.31 -6 -1.61 -6.23 -5.83a5.29 5.29 0 0 1 4.73 -5.85Z" fill="#ffffff" stroke-width="0.5"></path>
        <path d="M89 83.91c0.71 -0.88 3.16 -3 3.32 -3.14s0.49 0 0.52 0.2 1 4.49 1.4 5.85 1.28 4.93 1.42 5.18 -0.12 0.38 -0.4 0.37a49.59 49.59 0 0 0 -7 0.52c-1.14 0.37 -1.67 1.38 -0.36 1.44s7.38 -0.55 8.56 -0.63 0.91 -1.49 0.52 -2.64 -2.66 -8.48 -3 -9.89 -0.26 -2.32 -0.91 -2.37 -1.1 0.18 -1.72 1 -2.65 2.68 -3.26 3.38 0.19 1.61 0.91 0.73" fill="#ffffff" stroke-width="0.5"></path>
        <path d="M59.5 117.62c-1.06 -1.06 -3.41 -3.63 -4.08 -4.08a1.36 1.36 0 0 0 -1.48 -0.22 0.71 0.71 0 0 0 -0.11 1.19c0.48 0.52 0.75 1.06 1.23 1.64s3.21 4.74 3.75 5.57a49.24 49.24 0 0 0 3.83 5c0.72 0.64 2 1.32 2.61 0.82a1.39 1.39 0 0 0 0.17 -2.1c-0.61 -0.72 -4.87 -6.77 -5.92 -7.82m4.22 8.81a75.18 75.18 0 0 1 -5.46 -6.69c-1.13 -1.64 -3.3 -4.64 -3.57 -5.09s0.07 -0.52 0.42 -0.22A75.33 75.33 0 0 1 61 120.94c1.55 2.1 3.22 4.23 3.68 5.08s-0.14 1.15 -0.96 0.41" fill="#ffffff" stroke-width="0.5"></path>
        <path d="M178.06 130.52a88.61 88.61 0 0 1 -4.9 -12.42c-0.77 -3 -1.89 -7 -4 -8.55s-8.76 -2 -12.93 -2.16c-3.81 -0.17 -19.41 -0.22 -22.14 -0.23a32.2 32.2 0 0 0 1.76 -5.2c0.47 -2 0.7 -2.71 0.42 -3.53a5.9 5.9 0 0 0 -2.52 -3l0 -1.09c0.07 -1 -0.48 -3 -1.29 -1.07a8.72 8.72 0 0 0 -0.43 1.34 8 8 0 0 0 -1 -0.3 19.24 19.24 0 0 0 -0.29 -3c-0.4 -2 -1.38 -2.42 -1.53 -0.24 -0.05 0.81 -0.06 1.84 0 2.93l-1 0c-0.28 -1.38 -0.54 -2.61 -0.66 -3 -0.33 -1.15 -1.5 -1 -1.4 0 0 0.47 0.08 1.82 0.13 3.33a4.76 4.76 0 0 0 -3.62 4.53c-0.07 1.56 -0.25 4.51 -0.12 7l-8.18 -0.25a24.92 24.92 0 0 0 1.4 -4.4c0.83 -3.44 1 -9.59 0.83 -15.24 1.76 0.08 7.36 0.28 8.93 0.38 1.85 0.13 2.23 0.05 2.36 -1.3s0.35 -9.18 0.45 -12.3 0.21 -16.19 0.24 -17.87 0.18 -2.62 -1.4 -2.67 -7.3 0 -13.83 -0.37 -19.34 -1.03 -26.58 -0.84 -20.28 0.28 -20.93 1.3 -1.34 8 -1.11 11.07l-5.51 0c0.06 -2.89 0.41 -23.18 0.31 -27 -0.11 -3.56 0.2 -9.15 0.15 -13.1A2.18 2.18 0 0 0 58 21.15c-6.7 -1.51 -17.35 -2.34 -31.3 -1.22a2.9 2.9 0 0 0 -2.7 3.18c0.7 6.79 0.09 18.23 0.44 22.55s0.69 15.6 0.67 20.25a1.87 1.87 0 0 0 1.89 1.87c8.79 0.14 19.06 1.2 21.26 1.44a46.4 46.4 0 0 0 -0.32 6.71c0 9.22 -0.58 17.19 0.11 23a20.25 20.25 0 0 0 1.59 6.79c-3.34 0.11 -13.47 0.44 -16.44 0.52 -3.57 0.09 -4.48 0.43 -7.23 4.43s-9.78 14.94 -10.4 16.94 -0.11 5.33 0 6.4 1 1.62 2.5 1.82a149.21 149.21 0 0 0 15.27 1c-4.6 11.36 -17.14 43.9 -17.86 45.33s-0.21 2.11 1.55 3.1 3.1 -0.48 3.74 -1.42 8.29 -12.56 10.6 -17.89c2 -4.7 11.84 -24.91 14.1 -29.58l3.32 -0.08 -7.53 14.56c-2.67 5.16 -3.92 8.25 -4.22 9.73s0.24 1.66 1.31 2 2.43 0.42 3.14 -0.3 15 -19.16 16.86 -21.06c1.37 -1.42 3.37 -3.86 4.29 -5l2.83 0.05c6.66 0.13 17.92 -0.31 25.12 0.29 6.55 0.54 26.42 0.32 40.2 0.36 4.43 8.07 16.55 25.75 17.6 26.69s2.16 1.77 3.43 1.27 2.42 -0.83 3.31 -1.21 0.93 -2.21 -0.11 -4.2c-0.9 -1.69 -9.5 -17.95 -12 -22.63 2.5 -0.08 5 -0.19 7.47 -0.31 2.82 10.21 9.41 28.21 11 33.71 1.64 5.69 5.1 18.45 5.64 20s1.06 1.68 2.2 1.37a33.24 33.24 0 0 0 3.55 -1.41c0.87 -0.34 1 -0.68 0.68 -2.4s-7 -42 -8.22 -52c2.69 -0.11 4.93 -0.15 6.49 -0.06 6.27 0.37 5.79 0.28 6.61 -0.88s0.66 -2.36 -0.38 -4.34M134.64 98c0.09 0.11 0.12 0.2 0 0.3a2.73 2.73 0 0 1 -0.8 0.27c0 -0.4 -0.05 -1 -0.07 -1.55a11.8 11.8 0 0 1 0.87 0.98m-2 -3.56c0.07 -0.47 0.4 -0.62 0.4 -0.19s0.07 3.19 0.1 4.45l-0.89 0.14a20.43 20.43 0 0 1 0.42 -4.42Zm-2.93 -1.61a7.59 7.59 0 0 1 0.14 -2.38 4.52 4.52 0 0 1 0.57 2.38l0 5c0 0.78 0.51 1 0.6 0.41a27.21 27.21 0 0 0 0.07 -2.94 5.84 5.84 0 0 1 0.73 0.29 22 22 0 0 0 -0.27 3.33c-0.42 0 -0.87 0 -1.34 0.06a46.55 46.55 0 0 1 -0.47 -6.17Zm-0.46 2.17c0.05 1.4 0.16 2.81 0.28 3.9l-0.38 0c-0.13 -0.74 -0.42 -2.28 -0.73 -3.82 0.27 -0.01 0.58 -0.03 0.83 -0.08m-1.93 -2.69a54.72 54.72 0 0 1 1.13 6.51c-0.37 0 -0.74 -0.08 -1.1 -0.14 -0.09 -1.5 -0.36 -5.66 -0.38 -6.12s0.03 -0.91 0.35 -0.21Zm-1 3.34c0 1 0.09 2.07 0.15 2.87a5.92 5.92 0 0 1 -2.44 -0.83c-0.03 -0.13 0.69 -1.25 2.29 -2Zm-2.55 3.51c2.56 1.67 7.06 2.23 11.17 0.9 -1 5.17 -3.26 9.6 -3.82 10s-2.88 0 -4.06 -0.19a3.74 3.74 0 0 1 -2.66 -2.3 26 26 0 0 1 -0.63 -8.37Zm-52.23 -35.85a40.59 40.59 0 0 0 -0.5 -5.52s9 0.06 13.16 0 18.37 0 23.83 0.06 12.23 0.06 12.66 0.49c-0.07 1.09 0.13 5.16 0.06 9.31s1.18 12.67 0.25 13.41c-0.72 0.58 -3.44 0 -4.61 -0.29 -0.17 -3.47 -0.39 -6.21 -0.51 -7.18 -0.37 -2.85 0.19 -10.53 -11.16 -10.45Zm-4.64 -10.13c0.36 -0.41 4.59 0 7.51 0s11.79 -0.75 14.36 -0.75 18.89 1.15 21.78 1 13.23 -0.12 14.84 -0.06 1.67 0.25 1.73 1.73 -0.46 13.56 -0.55 16.42 0 12.72 -0.42 13.35 -5.1 0.4 -9.6 -0.06c0 -0.85 0 -1.69 -0.09 -2.49a42.78 42.78 0 0 1 4.48 0.46c1.55 0.31 1.8 -0.38 1.74 -2.36s0.12 -9.68 0 -12.1 -0.19 -10.1 -0.94 -11.12 -12.07 -1.2 -16.09 -1.27 -20.72 0.82 -23.92 0.82 -11 -0.32 -11.69 0 -0.47 4.13 -0.39 6.54l-3.36 0c0.19 -1 0.5 -2.67 0.65 -4.08 0.23 -2.07 -0.4 -5.63 -0.04 -6.03M28 66.15a0.89 0.89 0 0 1 -0.85 -0.9c0.13 -9.15 -1 -14.48 -1.06 -19.59 -0.05 -5.28 0.47 -13.21 0.43 -17.08a23.6 23.6 0 0 0 -0.77 -5.69 0.91 0.91 0 0 1 0.13 -0.75 1 1 0 0 1 0.65 -0.4c13 -1.57 27.35 0.71 30.59 1.28a0.8 0.8 0 0 1 0.66 0.81c-0.77 20.29 0.55 20.36 -0.28 26.76a69.89 69.89 0 0 0 -0.27 12.76l-1.6 0 -1.44 0a92.51 92.51 0 0 1 0.41 -16.79c0.84 -6.22 0.12 -16.44 0 -18.8s-0.15 -3.73 -4.52 -3.59 -15.29 -0.48 -17.51 -0.67 -4.41 -0.39 -3.76 1S29 30 29 34.67s0.21 20.69 0.23 24.45 0.52 4.25 2.74 4.24c4.37 0 13.2 1.44 17.67 2a6.15 6.15 0 0 0 -1.17 2.39c-8.35 -1.03 -17.69 -1.49 -20.47 -1.6m23 -1.88c-4.48 -1.27 -10.91 -1.76 -20 -2.65 0 0 -0.21 -2.5 -0.26 -5.41s-0.56 -11.54 -0.43 -15.9 0.2 -12.57 -0.41 -15.29c0 0 18.56 1.45 22.63 1.05 1 1.82 1.42 11.74 1.16 17 -0.26 5 -1.35 15.59 -0.82 20.54a6.52 6.52 0 0 0 -1.87 0.66m-1.76 9.36c0.27 -5.81 0.8 -9 6.63 -8.79s21.29 -0.31 29.43 0 14.67 0.4 19.71 0.37 8.5 2.67 8.86 8.59 0.61 22.6 0.51 26.37 -0.73 7.78 -8.12 7.77 -45.17 -0.17 -50.09 -0.86 -5.55 -3.19 -6 -8.79 -1.17 -18.78 -0.92 -24.66Zm36.83 41.08a0.75 0.75 0 0 0 1.44 0.08 3.11 3.11 0 0 0 0 -0.76 8.21 8.21 0 0 1 1.14 0.07c0.47 0.07 0.76 0 1 0.66a5.25 5.25 0 0 1 -1.06 3.89c-0.88 0.78 -2.84 0.95 -6.33 1a34.17 34.17 0 0 1 -7.7 -1c-0.63 -0.13 -0.77 -0.34 -1 -1s-0.8 -3.86 -0.57 -4.23 1.63 -0.24 2.64 -0.17a4.33 4.33 0 0 0 0.25 1.54c0.37 0.52 1.37 0.87 1.51 0 0.1 -0.68 -0.31 -3.67 -0.43 -5l8.68 0.12c0.19 1.32 0.36 4.24 0.44 4.8Zm2.41 5.38c0 0.58 -0.1 1.26 -0.86 1.3s-4.53 0.12 -5.68 0.2a31.23 31.23 0 0 1 -6.39 -0.4c-1.49 -0.38 -1.59 -0.82 -1.57 -1.38a62.3 62.3 0 0 0 8.36 0.77c1.66 -0.08 6.15 -0.49 6.15 -0.49Zm-60.3 47.67c-3.87 7.73 -8.9 15.34 -9.49 15.68s-1.47 -0.45 -1.22 -1.11 5.62 -14.65 7.86 -20.51c2.08 -5.41 8.62 -20.88 9.7 -24.91 1 0 2 0 2.95 -0.12 1.48 -0.1 3.19 -0.18 5 -0.25 -4.76 10.36 -11.04 23.71 -14.8 31.22m21.37 -18.07c-3 3.51 -8.42 10.74 -9.25 11.16s-1.6 0.48 -0.89 -1.07 9.31 -19.76 10.5 -22.13l0.65 -1.3c3 0 6.11 -0.06 8.86 0 -2.82 4.05 -7.14 10.19 -9.87 13.34M151.36 157c1 1.76 2.71 4.3 2.16 5.07a3.18 3.18 0 0 1 -3.37 0.5c-0.66 -0.55 -10.54 -15 -12.58 -18.21 -1.41 -2.21 -3.5 -5.52 -4.66 -7.36l1.83 0c2 0 4 0 6.07 -0.05 2.01 3.91 9.64 18.55 10.55 20.05m13.7 -8.9c1.07 6.87 4.55 31.7 5.38 34.85s1.62 5.15 1.11 5.66a3 3 0 0 1 -2.42 0.72c-0.51 -0.26 -4.18 -14.78 -6 -20.19 -1.64 -4.74 -9.34 -27.11 -11.23 -32.62 4.34 -0.22 8.46 -0.47 12 -0.64 0.03 2.23 0.36 7.12 1.16 12.26Zm11.51 -14.78c-1 1.16 -7.2 0.68 -9 0.84s-24.53 0.31 -31.95 0.31 -22.58 0.75 -29.67 0.83 -30.95 -0.96 -38.25 -1.3 -21.91 0.33 -31.16 0.75a135.13 135.13 0 0 1 -18.71 -0.75 1 1 0 0 1 -0.86 -0.83c-0.19 -1.38 -0.4 -3.32 0 -4.32 0.52 -1.19 10.12 -17.06 12 -19.15s4.25 -2 6.48 -2.09 10.38 0.74 13.22 -0.14c0.74 -0.23 1.28 -0.41 1.67 -0.55a7.28 7.28 0 0 0 5.19 2.3c2.61 0.26 11 0.45 20.15 0.59 -0.07 0.65 -0.11 1.44 -0.12 2.19 -0.64 0 -1.81 -0.08 -2.44 -0.07 -0.9 0 -1.91 0.26 -1.88 1.38a47.92 47.92 0 0 0 0.73 5.39c0.18 0.77 0.76 0.68 0.92 0.9a4.7 4.7 0 0 0 0.87 1.88c0.72 0.75 5.57 0.94 7.74 0.9s6.74 -0.17 7.28 -0.46 0.5 -2 0.92 -2.18 0.8 -0.66 1.31 -2.23a5.58 5.58 0 0 0 -0.31 -4.53c-0.61 -0.81 -2.41 -0.5 -3.41 -0.39 -0.17 -1 -0.39 -2 -0.57 -2.63 8.37 0.1 15.82 0.16 18.54 0.19 4.21 0.06 6.57 -0.7 8.15 -2.91l9.29 0.5a4.21 4.21 0 0 0 0.65 1.86c1.28 1.63 6.15 2.5 7.84 1.78a5.49 5.49 0 0 0 1.94 -2.39c9.76 -0.05 19.23 0.11 23.13 0.16s10.11 0.53 12 1.64 4.81 9.63 5.5 11.91 3.76 9.49 2.81 10.66Z" fill="#ffffff" stroke-width="0.5"></path>
        <path d="M132 106.87c0.74 -0.64 1.15 -2.74 1.08 -4s-1.08 -0.59 -1 0.36a7.25 7.25 0 0 1 -0.75 3c-0.28 0.77 -0.04 1.29 0.67 0.64" fill="#ffffff" stroke-width="0.5"></path>
        <path d="M150.54 128.05c0 0.72 0.72 0.75 1.64 0.59s12.31 0.06 13 0.11 0.83 -0.27 0.83 -1.38 0 -7.66 -0.34 -10.51 -0.83 -4.23 -1.22 -4.6a3.18 3.18 0 0 0 -0.92 -0.14 4.21 4.21 0 0 0 -0.09 -0.49c-0.17 -0.79 -0.5 -0.67 -0.63 0.1 0 0.13 0 0.25 -0.05 0.35l-0.78 0a5.32 5.32 0 0 0 -0.13 -0.59c-0.21 -0.81 -0.88 -0.64 -0.92 0.23l0 0.34 -1.11 0a5.08 5.08 0 0 0 -0.15 -0.52c-0.25 -0.71 -0.79 -0.63 -0.87 0.06a3.37 3.37 0 0 0 0 0.44l-0.8 0a3.73 3.73 0 0 0 -0.17 -0.64c-0.25 -0.65 -0.79 -0.67 -0.89 0.2l0 0.43 -1.18 0c0 -0.2 -0.05 -0.4 -0.07 -0.57 -0.06 -0.61 -0.61 -0.71 -0.67 0l0 0.53 -0.74 0c-0.09 -0.33 -0.17 -0.64 -0.2 -0.8 -0.07 -0.53 -0.71 -0.6 -0.68 0l0 0.83 -0.4 0a5.93 5.93 0 0 0 -0.08 -0.76c-0.08 -0.48 -0.84 -0.6 -0.85 0l0 0.72 -1.16 0c-0.44 0 -0.65 -0.21 -0.79 0.69a60.41 60.41 0 0 0 -0.22 8.81c0.15 3.8 0.62 5.86 0.64 6.57m14.09 -0.53a26.67 26.67 0 0 1 -4.83 0.17c-2.08 -0.06 -8 0.16 -8.12 0a2.19 2.19 0 0 1 0.06 -1.35c0.28 -0.2 7 0.39 8.43 0.32a37.63 37.63 0 0 1 4.59 -0.08c0.29 0.13 0.04 0.81 -0.13 0.94m-13.17 -14.46a3.33 3.33 0 0 1 0.65 -0.07l0 0.3c0.08 0.78 0.85 0.57 0.86 0l0 -0.29 0.44 0c0.1 0.4 0.3 0.69 0.68 0.64s0.29 -0.29 0.27 -0.64l0.53 0 0 0.41c0.06 0.69 0.95 0.67 0.92 0.11l0 -0.53 1.11 0a5 5 0 0 0 0.14 0.65c0.16 0.62 0.86 0.79 1 0.14a5 5 0 0 0 0 -0.8l0.75 0a2.15 2.15 0 0 0 0.13 0.47c0.16 0.44 0.62 0.79 0.84 0.14a2.13 2.13 0 0 0 0.12 -0.6l1.07 0c0 0.18 0.07 0.37 0.12 0.58a0.46219584595 0.46219584595 0 0 0 0.92 -0.09l0 -0.46 0.7 0c0 0.13 0 0.28 0.06 0.44a0.41 0.41 0 0 0 0.81 0.06l0 -0.41c0.13 0 0.21 0.05 0.21 0.09 0 0.27 0.49 5.38 0.59 6.85s0.61 5.28 0.31 5.54 -5.07 0 -6.82 0 -6 0 -6.17 -0.36a26.55 26.55 0 0 1 -0.33 -5.33c0.08 -2.05 -0.37 -6.65 0.09 -6.84" fill="#ffffff" stroke-width="0.5"></path>
        <path d="M173.38 131.65c-1.39 0 -16.5 0 -20.74 0.12s-12.27 0.44 -13.44 0.51c-0.92 0.06 -1.14 0.91 0.05 0.86s14.87 -0.32 19.76 -0.32 12.85 -0.13 14.63 0 1.12 -1.21 -0.26 -1.17" fill="#ffffff" stroke-width="0.5"></path>
        <path d="M142.09 124.76c-0.46 -3.19 -3 -7.22 -5.1 -7.19s-4.48 5.22 -4.33 8.6 1.94 5 5.28 4.79 4.61 -2.96 4.15 -6.2m-5.1 -5.89c1.57 0 3.56 4 3.54 5.63s-1.08 3.51 -3.09 3.53a3.31 3.31 0 0 1 -3.3 -3.35c-0.08 -1.68 1.41 -5.81 2.86 -5.81Zm-3 10c-0.67 -0.59 0.07 -0.7 0.56 -0.25a4.25 4.25 0 0 0 5.75 -0.47c0.83 -1 1.12 -0.24 0.72 0.29a4.67 4.67 0 0 1 -7.02 0.45Z" fill="#ffffff" stroke-width="0.5"></path>
        <path d="M137.33 121.62a7.93 7.93 0 0 0 0 -1.09c0 -0.5 -1 -0.8 -1 0.14a2.58 2.58 0 0 1 -0.07 1c-0.1 0.59 1.06 0.43 1.07 -0.05" fill="#ffffff" stroke-width="0.5"></path>
        <path d="M135.69 125.16c1.16 -0.19 1.61 -0.53 2.77 0.11 0.48 0.26 0.78 -0.15 0.42 -0.68a2.84 2.84 0 0 0 -3.5 -0.2 0.44 0.44 0 0 0 0.31 0.77" fill="#ffffff" stroke-width="0.5"></path>
        <path d="M101.58 129c2 0.23 9.41 0.63 12.5 0.68s9.32 0.14 10.81 -1 2.55 -10.47 1.69 -11.84c-0.53 -0.85 -25.57 -1.24 -27.48 0 -0.73 0.46 -1 5.08 -0.48 8s0.96 3.9 2.96 4.16m-1.11 -3.21A3.46 3.46 0 0 1 100 124l2.12 0c0.05 0.47 0.08 0.85 0.09 1 0 0.82 0.72 1.2 0.74 0.56 0 -0.19 0 -0.8 -0.06 -1.58l2.12 0c0.07 0.7 0.13 1.25 0.15 1.42 0.07 0.61 0.69 0.61 0.6 -0.06 0 -0.17 -0.07 -0.69 -0.12 -1.35l2 0 0 2.56c-3.29 0.14 -6.59 -0.11 -7.17 -0.79Zm2.2 -4.71c0 -0.58 -0.06 -1.09 -0.08 -1.44l1.91 0c0 0.33 0.09 0.84 0.15 1.42Zm2.06 0.87c0.06 0.52 0.11 1 0.16 1.54l-2.08 0c0 -0.49 -0.06 -1 -0.09 -1.53Zm0.63 -0.83c0 -0.59 -0.08 -1.09 -0.1 -1.41l2.31 0.06 0 1.38Zm2.24 0.89 0 1.51 -2.09 0c0 -0.49 -0.07 -1 -0.11 -1.53Zm16.56 6.12c-0.88 0.4 -4.09 0.87 -10.2 0.87a104.5 104.5 0 0 1 -13 -0.82c-0.44 -0.14 -0.44 -0.84 -0.44 -0.84s5.07 0.6 9.26 0.65 13.22 -0.15 14.18 -0.36 1.04 0.07 0.2 0.47Zm-15.65 -4.61 -0.13 -1.49 2.9 0.06 0.09 1.4Zm2.91 0.77 0.16 2.48 -2.79 0 -0.22 -2.55Zm-3.12 -3.14 -0.12 -1.36 3 0.08 0.08 1.3Zm4.4 2.3 -0.53 0 -0.15 -1.36 3 0c0 0.39 0 0.79 0.08 1.16l0 0.1Zm2.5 0.87c0.12 0.86 0.27 1.75 0.37 2.33 -0.76 0 -1.47 0 -2.1 0.06l-1 0 -0.25 -2.43c0.96 0.01 1.96 0.02 2.98 0.01Zm-0.23 -3.16 -3 0 -0.14 -1.29 3.18 0.07c-0.01 0.26 -0.01 0.7 -0.01 1.19Zm3.65 0.86c0 0.4 0.06 0.82 0.08 1.24l-2.8 0.09a5.12 5.12 0 0 1 -0.07 -0.9l0 -0.35c0.94 -0.04 1.88 -0.1 2.79 -0.1Zm-2.77 -0.87 0 -1.19 2.53 0c0 0.31 0.09 0.71 0.13 1.16Zm2.89 3.14a21 21 0 0 1 0 2.31l-2.14 0c-0.14 -0.52 -0.36 -1.43 -0.53 -2.31Zm0.65 -1.05c-0.06 -0.42 -0.11 -0.84 -0.15 -1.24l3.43 -0.17c0.07 0.43 0.12 0.88 0.15 1.31Zm3.46 1c0 0.88 0 1.66 0.05 2.14 -0.77 0.11 -1.75 0.18 -2.81 0.22a13.45 13.45 0 0 1 -0.54 -2.29Zm-3.7 -3.11c0 -0.46 -0.05 -0.86 0 -1.16l3.24 0c0.05 0.25 0.12 0.62 0.19 1Zm5.32 4.71a1.58 1.58 0 0 1 -0.74 0.37l0 -2 1.29 0a3.92 3.92 0 0 1 -0.55 1.57Zm0.68 -2.74 -1.49 0 0 -0.65c0 -0.2 -0.06 -0.46 -0.1 -0.68l1.78 -0.12c-0.09 0.45 -0.13 0.93 -0.19 1.35Zm0.2 -2.21c-0.46 0 -1.13 0.07 -2 0.1 -0.09 -0.38 -0.18 -0.72 -0.26 -1 0.88 0 1.68 0.07 2.31 0.14 -0.02 0.2 -0.04 0.45 -0.05 0.7Zm-25.45 -3.19s3 -0.25 6 -0.26c3.31 0 10.8 0.13 19.55 0.62l0 0.81 -25.56 0c0 -0.45 0.01 -0.87 0.01 -1.17m0 1.83 1.77 0c0 0.32 0.08 0.84 0.15 1.45l-2 0c0.02 -0.5 0.03 -0.98 0.04 -1.45Zm2 2.34c0 0.51 0.1 1 0.15 1.52l-2.13 -0.09 0 -1.47Z" fill="#ffffff" stroke-width="0.5"></path>
        <path d="M130 132.67c-2.17 -0.06 -23.11 -1.06 -29.77 -1.33 -5.7 -0.23 -24.59 -1 -30.19 -0.27 -1.83 0.24 -1.15 1.28 0.34 1.23s8.51 0 16.55 0 27.92 0.86 33.94 1.43a57 57 0 0 0 9.6 -0.21c1.19 -0.12 1.65 -0.8 -0.47 -0.85" fill="#ffffff" stroke-width="0.5"></path>
        <path d="M64.11 131.22c-1.42 -0.25 -10.43 -0.2 -15.69 -0.25s-14.17 -0.1 -17.09 -0.44a84.51 84.51 0 0 0 -10.27 -0.29c-1.75 0.08 -1.37 1.07 -0.25 1.27s3.61 -0.2 6.53 -0.29 9.54 1 14.85 0.87 17.44 0 20.21 0.39 3.12 -1.02 1.71 -1.26" fill="#ffffff" stroke-width="0.5"></path>
        <path d="M39.11 125.38a0.42 0.42 0 0 0 0 0.84 0.42 0.42 0 0 0 0 -0.84" fill="#ffffff" stroke-width="0.5"></path>
        <path d="M29.87 128.49a67.1 67.1 0 0 0 8.15 0.69c2.54 0 7.43 0.1 9.31 0a2.5 2.5 0 0 0 2.77 -2.15c0.3 -1.2 0.69 -5.51 0.88 -7.3s0.56 -5.6 0.17 -6.94a3.75 3.75 0 0 0 -3.65 -2.77c-2.19 -0.09 -9.6 -0.45 -11.12 -0.39s-3.05 0.11 -3.51 1.29 -3.68 10 -4.18 11.76 -0.42 2.65 0.13 3.29c-0.32 1.13 0.43 2.43 1.05 2.52M48.4 128c-1.2 0.52 -3.81 0.43 -7 0.38s-10.43 -0.3 -11.13 -0.69 -0.63 -0.86 0.34 -0.65a44.26 44.26 0 0 0 6.26 0.54c1.89 0 10.24 -0.14 11.25 -0.27s1 -1 1.2 -0.9 0.28 1.09 -0.92 1.59m-18.57 -4c0.58 -1.78 3.35 -11.21 3.53 -11.94s0.24 -1.09 1 -1.09c1.57 0 2.29 -0.35 13.17 0.18 1.5 0.07 1.79 1.24 2.22 2.91s-0.21 6.74 -0.51 8.56 0.3 3.75 -2.07 4 -13.14 0 -14.56 -0.43 -3.37 -0.36 -2.78 -2.14Z" fill="#ffffff" stroke-width="0.5"></path>
        <path d="M31.26 124.66c0.66 0.56 5.14 0.57 6.3 0.49s7.71 0.17 8.88 0.14 1.82 -0.6 1.73 -1.64c-0.11 -1.36 1.45 -10.46 0 -11.15 -0.72 -0.34 -3.91 -0.18 -5.64 -0.34s-7 -0.28 -7.59 -0.21 -0.39 0.08 -0.64 1.07 -2.09 5.75 -2.6 7.31 -1.09 3.77 -0.44 4.33m1.85 -7c0.33 -1.16 1.2 -3.3 1.59 -4.41a0.48 0.48 0 0 1 0.46 -0.33c2 0 11.64 0.09 12.12 0.29s0.68 1.51 0.66 2.82a79.3 79.3 0 0 1 -0.84 8.21c-0.22 0.57 -0.67 0.14 -2.12 0.19s-7.85 0.13 -9.34 0.09 -3.61 -0.25 -4 -0.64 1.11 -4.95 1.47 -6.23Z" fill="#ffffff" stroke-width="0.5"></path>
      </g>
    </g>
  </g>
</svg>