<svg xmlns="http://www.w3.org/2000/svg" viewBox="0 0 200 200" id="Machine-Learning--Streamline-Free-Illustrations" height="200" width="200">
  <desc>
    Machine Learning Streamline Illustration: https://streamlinehq.com
  </desc>
  <g>
    <g>
      <g>
        <path d="M49.47 124.73c-0.07 0.45 0.26 0.45 0.58 0.19 1.49 -1.68 3.76 -2.39 5.38 -3.82a7.75 7.75 0 0 1 2 -1.23c2.21 -0.83 2.16 1.41 1.43 2.2 -0.91 1 -2 1.88 -3 2.79 -7.54 8 -6.47 7.35 -11.72 11.79 -1 0.84 -2 0.51 -2.34 -0.85a13.19 13.19 0 0 1 -0.12 -3.56c0.12 -0.71 0.12 -1.68 -0.26 -2s-1.1 0.52 -1.49 0.85a52.92 52.92 0 0 0 -4.21 3.69c-6.74 6.39 -12.44 8 -16.71 11.59 -0.5 0.44 -3.06 -5.37 -3.24 -7.77 -0.07 -0.58 0.45 -1 0.91 -1.36 2.65 -1.69 5.37 -3.24 8 -5 3.36 -2.27 6.86 -4.34 10 -6.86 1.23 -1 2.79 -1.49 4.21 -2.4 1.94 -1.3 4 -2.46 6.09 -3.69 1.79 -1.2 4.29 -1.51 4.14 0.58 -0.12 2.45 0.58 3.26 0.35 4.86" fill="#ffffff" stroke-width="0.5"></path>
        <path d="M148.82 77.38a1.7 1.7 0 0 0 -2.33 -1.29c-0.65 0.21 -1.43 0.52 -2.34 0.78 0.72 -1.23 1.3 -2.21 1.95 -3.24a7.11 7.11 0 0 0 1.29 -3.24 0.86 0.86 0 0 0 -1 -1.1c-0.72 0.06 -1.36 0.13 -2.27 0.19 1 -0.84 1 -2 1.68 -2.78 0.26 -0.33 0.78 -0.91 0.26 -1.17a1 1 0 0 0 -1.42 0.46 1.35 1.35 0 0 0 -0.39 0.58c-2.13 4.05 -2.83 4.59 -2.07 5.44 0.58 0.65 1.1 0.19 1.68 0 0.89 -0.3 1 -0.14 0.45 0.65a45.39 45.39 0 0 0 -3.2 5.34 1.58 1.58 0 0 0 0.26 2c0.58 0.51 1.29 0.19 1.88 -0.26a1.94 1.94 0 0 1 1.68 -0.59c-0.71 1.75 -2 3 -2.78 4.54 -0.62 1.15 -1.72 2.2 -1.75 3.62 0 0.59 0 1.11 0.52 1.36s0.9 -0.06 1.36 -0.25a4.23 4.23 0 0 1 2 -0.78c-3.57 5.26 -2.82 3.43 -4.72 6.41a1.45 1.45 0 0 0 0.06 1.75c0.33 0.52 0.9 0.12 1.36 -0.07l1.3 -0.54c-0.79 1.61 -1.14 1.2 -3.37 5.14 -0.33 0.58 -0.67 1.11 -0.39 1.75 0.37 0.85 1 0.39 1.68 0.45 -0.19 0.26 -0.32 0.52 -0.45 0.72 -1.17 1.29 -1.88 2.85 -3 4.21 -0.45 0.71 -0.39 1.49 0.39 1.74s0.84 0.59 0.26 1.17a0.48 0.48 0 0 0 -0.07 0.58c0.13 0.13 0.26 0.07 0.39 0a19.2 19.2 0 0 0 4.67 -3.88 1 1 0 0 0 0.06 -1.36 0.88 0.88 0 0 0 -1.16 -0.2 0.44 0.44 0 0 1 -0.59 -0.13c0.78 -0.9 1.43 -1.87 2.27 -2.78a11.41 11.41 0 0 0 2.07 -2.92 1.55 1.55 0 0 0 0 -1.42c-0.42 -0.74 -1.34 -0.52 -2.14 -0.19 1.36 -1.24 1.88 -2.92 2.92 -4.28 0.39 -0.52 0.52 -0.91 0.13 -1.42s-0.65 -0.91 -1.3 -0.65c-0.19 0.06 -0.52 0.13 -0.71 -0.07 1.23 -1.87 2.66 -3.62 3.76 -5.57a1.16 1.16 0 0 0 -0.13 -1.49c-0.33 -0.45 -0.72 -0.38 -1.23 -0.26 -0.72 0.26 -1.56 0.46 -2.59 0.72 1.55 -2.2 2.78 -4.34 4.27 -6.22 0.34 -0.41 0.85 -0.83 0.8 -1.45" fill="#ffffff" stroke-width="0.5"></path>
        <path d="M117.15 154.46c1.1 -5.51 0.4 -6.94 3.17 -16.52a28.81 28.81 0 0 1 3 -7.9c0.78 -1.3 1.24 -2.92 2 -4.28a47.19 47.19 0 0 1 4.21 -5.89c3.41 -3.93 4.15 -5.6 12.44 -10.49a18.63 18.63 0 0 1 2.52 -1.17 3.06 3.06 0 0 1 1.3 -0.13c1.19 0.14 1.53 1.82 0.45 1.82 -1.81 0.19 -3 1.49 -4.4 2.39a54.08 54.08 0 0 0 -4.73 3.56 32.58 32.58 0 0 0 -4.53 4.86 58.41 58.41 0 0 0 -3.89 5.38c-0.91 1.49 -1.55 3.11 -2.46 4.6a51.83 51.83 0 0 0 -3.3 8.55c-0.77 2.43 -3 12.53 -3 18 0 1 -0.52 1.36 -1.3 1.36s-1.16 -0.58 -1.29 -1.36 0.07 -1.81 -0.19 -2.78" fill="#ffffff" stroke-width="0.5"></path>
        <path d="M124.92 106.53a2 2 0 0 1 0.84 0.19c0.26 0.13 0.58 0.26 0.52 0.65s-0.39 0.26 -0.58 0.39c-3.31 0.91 -6.35 2.59 -9.46 3.89a29.84 29.84 0 0 0 -12.82 10.23c-2.33 3.17 -3.89 6.73 -5.77 10.1 -0.77 1.43 -1.29 3.11 -1.94 4.6a30.84 30.84 0 0 0 -2.66 10.17 39.56 39.56 0 0 0 -0.38 4.86c0 1.1 -1.15 1.16 -1.82 0.71a3 3 0 0 1 -0.9 -2.07c0 -1 0.71 -7.52 0.84 -8.23 2.15 -8.5 8.09 -21.1 14.7 -26.68a36.47 36.47 0 0 1 10.75 -6.22 51.79 51.79 0 0 1 5.18 -2 17.5 17.5 0 0 0 3.5 -0.59" fill="#ffffff" stroke-width="0.5"></path>
        <path d="M159.25 88.65c0.77 -1.16 2.07 -2.13 1.35 -4 -0.19 -0.51 -0.32 -0.64 -0.84 -0.64s-1.16 0.51 -1.94 0.45c0.39 -0.65 0.66 -1.22 1 -1.81s1 -1.24 0.9 -2a5.51 5.51 0 0 0 -0.84 -2.72c-0.39 -0.52 -1.16 0.13 -1.81 0.06 -1 -0.32 0.35 -1.84 0.45 -1.94 1 -0.92 0.71 -1.88 0.26 -3.17 -1 2.2 -2.62 3.84 -3.76 5.82a1.59 1.59 0 0 0 0.07 1.69c0.31 0.59 0.91 0.32 1.42 0.19s1.6 -0.9 1.95 -0.39a37.29 37.29 0 0 1 -2.92 5.19 1.41 1.41 0 0 0 0.26 1.87 1.11 1.11 0 0 0 1.69 0.07c0.38 -0.2 0.64 -0.39 1 -0.2a0.64 0.64 0 0 1 -0.19 0.59l-3.89 5.83c-0.32 0.45 -0.78 0.9 -0.39 1.55a1.46 1.46 0 0 0 1.7 0.59c-0.71 1.13 -1.65 2 -2.35 3.1a1.17 1.17 0 0 0 0 1.69 1.22 1.22 0 0 0 1.82 0.19 1 1 0 0 1 1.1 -0.19c-1.1 1.23 -2.14 2.46 -3.18 3.69 -0.45 0.52 -1 1.1 -0.58 1.88s1 0.71 1.58 0.71 -1 1.33 -1.58 3.17c-0.19 0.46 -0.26 1 0.2 1.3s0.85 0.2 1.29 -0.26c1.12 -1.15 1.75 -2.66 2.79 -3.89a6.61 6.61 0 0 0 0.84 -1.55 1 1 0 0 0 -0.52 -1.49c-1 -0.33 -0.39 -0.71 -0.13 -1.1a20 20 0 0 0 2.33 -3.18 1.27 1.27 0 0 0 -0.9 -1.87 6.53 6.53 0 0 0 -1.17 0c0.52 -1.36 1.68 -2.08 2.33 -3.24s0.26 -2 -1.16 -2c-0.26 0 -0.59 0.06 -0.72 -0.07s0.07 -0.58 0.2 -0.77c0.85 -1.07 1.62 -2.04 2.34 -3.15" fill="#ffffff" stroke-width="0.5"></path>
        <path d="M70.19 128.55a26.85 26.85 0 0 1 -1.19 4.86c-1.29 3.3 -2.14 6.73 -3.11 10.1a1.29 1.29 0 0 1 -1.75 0.91c-2.14 -1 -5.66 -0.08 -4.85 -2.79a78.8 78.8 0 0 1 3.36 -8.94c0.81 -1.94 1.92 -5.07 3.44 -6.93 0.19 -0.19 2.39 0.46 3.17 0.91a1.82 1.82 0 0 1 0.93 1.88" fill="#ffffff" stroke-width="0.5"></path>
        <path d="M127 46.08c1.8 0.1 4.1 0.69 6.06 1 1.68 0.26 7.38 1.3 8.42 1.82a2.79 2.79 0 0 1 1 4 2.58 2.58 0 0 1 -2.53 0.84c-3.37 -0.52 -12.31 -2 -13.41 -2.27 -3.17 -0.47 -4.16 -5.64 0.46 -5.39" fill="#ffffff" stroke-width="0.5"></path>
        <path d="M126 75.57c-0.58 -0.13 -0.78 0.13 -1.1 0.26 -1.34 0.45 -1.59 -0.35 -1.49 -1.1a9.27 9.27 0 0 1 1.23 -3.37c-0.65 -0.06 -0.78 0.58 -1.36 0.65 -0.84 0.13 -1.42 -0.13 -1.36 -1a10 10 0 0 1 1 -3.82c0.25 -0.58 0.9 -0.71 1.55 -1 -0.38 2.07 -0.79 2.47 -0.52 2.65s0.59 -0.13 0.84 -0.26a12.3 12.3 0 0 1 1.24 -0.65c0.45 -0.13 0.9 -0.51 1.29 0.13s0.52 1.1 0.06 1.56a10.45 10.45 0 0 0 -1.29 2.72c-0.06 0.19 -0.2 0.45 -0.06 0.58s0.45 0.07 0.58 0c1.49 -0.45 2.07 0.2 1.55 1.75 -1.72 5.38 -3.65 6 -1.88 6.22a1.06 1.06 0 0 1 0.85 1.49 22.13 22.13 0 0 1 -2.59 5 1.18 1.18 0 0 1 -0.39 -1.1 12.44 12.44 0 0 0 -1.15 -4.56 1.27 1.27 0 0 1 0.26 -1.36c1.34 -1.49 1.66 -3.17 2.74 -4.79" fill="#ffffff" stroke-width="0.5"></path>
        <path d="M133.92 82.31c-0.58 -0.13 -1.1 0.58 -1.49 0a1.46 1.46 0 0 1 -0.06 -1.82c0.71 -1.49 1.36 -3 2 -4.47a2 2 0 0 0 0.2 -0.9 7.79 7.79 0 0 1 -1.17 0.71c-0.26 0.13 -0.71 0.45 -1.1 0s-0.52 -0.84 -0.26 -1.36c1.36 -2.53 2.46 -5.25 3.63 -7.84 0.84 -1.89 1.94 -1.86 1.17 0.46 -0.59 1.68 -1.3 3.3 -2 5.11a9.36 9.36 0 0 0 1.29 -0.45c0.52 -0.19 1 -0.26 1.36 0.13a1.32 1.32 0 0 1 0.26 1.55c-0.58 1.3 -1.16 2.66 -1.75 4 -0.13 0.26 -0.45 0.65 0.26 0.84a1.11 1.11 0 0 1 0.72 1.3 11.44 11.44 0 0 1 -3.18 6.21c-0.26 0.26 -0.71 0.59 -1.16 0.2a0.93 0.93 0 0 1 -0.2 -1.3 10.31 10.31 0 0 0 1.48 -2.37" fill="#ffffff" stroke-width="0.5"></path>
        <path d="M128.61 99.28a12 12 0 0 1 1.23 -1.75c-0.58 -0.07 -1 0.26 -1.42 -0.13s-0.65 -0.84 -0.13 -1.43a46.09 46.09 0 0 0 3.56 -5.63c0.19 -0.39 0.26 -0.91 0.78 -0.78s0.38 0.84 0.19 1.23c-0.79 1.85 -1.09 2.24 -1.62 3.3 0.58 0.2 0.91 -0.19 1.3 -0.38s0.9 -0.39 1.36 0.13a1 1 0 0 1 0.14 1.36 20.91 20.91 0 0 1 -1.43 2.52 1.54 1.54 0 0 1 0.91 2.53c-0.84 1.16 -1.23 2.46 -2 3.62s-1.36 2.27 -2.07 3.31c-0.74 1.48 -2.9 1.56 -2 -0.65 0.67 -1.71 2.65 -4.17 2.8 -4.92 -0.04 0 -2.95 0.25 -1.6 -2.33" fill="#ffffff" stroke-width="0.5"></path>
        <path d="M144.61 44.29c-2.14 0 -3.24 -1 -3.31 -3.63 -0.06 -1.29 1.75 -2.59 3.63 -2.65 1.17 0 2.66 1.94 2.59 3.43a2.61 2.61 0 0 1 -2.91 2.85" fill="#ffffff" stroke-width="0.5"></path>
        <path d="M130 38.65c0 2.27 -1.11 3.24 -3.24 3.18 -1.56 0 -2.92 -1.75 -2.79 -3.69a2.78 2.78 0 0 1 2.72 -2.66A3.16 3.16 0 0 1 130 38.65" fill="#ffffff" stroke-width="0.5"></path>
        <path d="M27.45 90.79c-2.3 1.75 -4.77 -1 -3.57 -4.4a22.66 22.66 0 0 1 1.49 -2.79 2.28 2.28 0 0 1 2.53 -1 2 2 0 0 1 1.81 2 6.37 6.37 0 0 1 -2.26 6.19m0.45 -3a5 5 0 0 0 0.39 -2.59c-0.07 -0.84 -0.58 -1.1 -1.3 -0.71a4.54 4.54 0 0 0 -1.68 4.51c0.26 0.84 0.78 1 1.42 0.46a3.7 3.7 0 0 0 1.17 -1.65Z" fill="#ffffff" stroke-width="0.5"></path>
        <path d="M35.54 87.94a7 7 0 0 1 -1.54 2.27 2 2 0 0 1 -3.37 -0.78c-0.78 -2.07 -0.13 -4 0.91 -5.76a2.06 2.06 0 0 1 2.59 -1.23 2.5 2.5 0 0 1 1.93 2.56 11.88 11.88 0 0 1 -0.52 2.94m-1.68 -0.39a3.79 3.79 0 0 0 0.45 -2.13c0 -0.52 0 -1.3 -0.52 -1.23s-1.23 0.06 -1.42 0.77a6.11 6.11 0 0 0 -0.52 1.88c-0.06 0.84 -0.39 2.14 0.58 2.4 0.78 0.13 1.17 -1.17 1.43 -1.69" fill="#ffffff" stroke-width="0.5"></path>
        <path d="M21.85 95.51c1.48 -0.6 6.33 -2 10.91 -3.42a7.52 7.52 0 0 1 1.68 -0.26c0.26 0 0.52 0 0.65 0.26a0.62 0.62 0 0 1 -0.26 0.64c-0.39 0.2 -0.71 0.46 -1.17 0.65a98.81 98.81 0 0 1 -10.9 3.25c-1.76 0.42 -2.31 -0.56 -0.91 -1.12" fill="#ffffff" stroke-width="0.5"></path>
        <path d="M21.75 86.19c-0.52 0.2 -0.91 0.59 -1.3 0.13s0 -0.84 0.26 -1.23c0.45 -0.65 0.91 -1.36 1.36 -2.07a0.87 0.87 0 0 1 1.62 0.58c-0.19 2.53 -0.45 5.05 -0.65 7.51 -0.06 0.52 -0.13 1 -0.77 1s-0.72 -0.58 -0.78 -1.1c-0.07 -1.58 0.19 -3.2 0.26 -4.82" fill="#ffffff" stroke-width="0.5"></path>
        <path d="M35 95.13c-0.38 0.19 -0.71 0.52 -1.1 0.71a86.6 86.6 0 0 1 -8.87 3.31c-0.45 0.13 -1 0.26 -1.23 -0.26s0.26 -0.72 0.71 -0.91c2.72 -1.17 5.51 -2.27 8.29 -3.37a4.26 4.26 0 0 1 1.82 -0.19c0.38 0.06 0.53 0.19 0.38 0.71" fill="#ffffff" stroke-width="0.5"></path>
      </g>
      <g>
        <path d="M123.23 186.77c-0.71 -2.59 0.65 -4.92 1.69 -7.25 0.35 -0.69 0.1 -1.64 1.16 -1.49 2 0.39 3.83 0.91 5.83 1.17a7.3 7.3 0 0 1 2.59 0.58c1.88 0.84 3.63 -0.07 5.32 -0.71s3.43 -1.49 5.18 -2.27 3.62 -1.75 5.37 -2.59c1.49 -0.71 3.18 -1.36 4.67 -2.07 2.33 -1.1 4.53 -2.33 6.86 -3.31 3.56 -1.55 6.87 -3.69 10.23 -5.57 2.14 -1.16 4.6 -1.75 6.74 -3s3.88 -1.1 6 -0.19c2.72 1 5.31 2.26 8 3.36 1.14 0.38 0.14 1.22 -0.52 1.3 -2.45 0.17 -5.74 1.9 -8.35 3 -3.18 1.23 -6.29 2.72 -9.52 3.82 -11 3.73 -14 5.66 -20.54 7.45 -1.49 0.45 -2.91 1.36 -4.4 1.94a15.56 15.56 0 0 0 -4.6 2.59 7.41 7.41 0 0 0 -3.11 6.09c0.07 1.1 0 2.27 0 3.3a1.81 1.81 0 0 1 -2.39 1.75c-2.79 -1.1 -5.83 -1.49 -8.81 -2.27 -1.49 -0.39 -3 -0.71 -4.41 -1.23 -0.77 -0.26 -1.68 -0.19 -2.46 -0.45 -0.39 -0.13 -0.58 -0.19 -0.58 -0.58 0.18 -1.23 -0.18 -2.2 0.05 -3.37" fill="#ffffff" stroke-width="0.5"></path>
        <path d="M137.74 109.9c-0.39 0.71 -1 0.64 -1.49 0.9a34.07 34.07 0 0 0 -5.5 4.6c-2.92 2.66 -4.6 6.16 -6.54 9.46a49.36 49.36 0 0 0 -3.37 6.28c-1.33 2.87 -0.41 4.44 -2.59 4a50 50 0 0 0 -9.33 -1.29c-1.88 -0.13 -3.69 -0.65 -5.5 -0.65a21.91 21.91 0 0 1 -4.08 -0.52c-0.72 -0.13 -0.85 -0.26 -0.46 -0.91 4.73 -7.15 9.62 -12.36 16.78 -16.84a45 45 0 0 1 8.81 -4.4c1.1 -0.39 2.33 -0.52 3.36 -0.78 0.78 -0.19 1.75 -0.26 2.27 -1.1 0.26 -0.45 0.58 -0.06 0.84 0 2.2 0.28 4.47 0.99 6.8 1.25" fill="#ffffff" stroke-width="0.5"></path>
        <path d="M123.43 106.46c-3.72 1.12 -0.4 -0.07 -10 3.24 -6.31 2.37 -6.77 3.48 -9.46 5.83 -0.9 0.91 -1.94 1.75 -2.78 2.72 -3.84 4.65 -4.87 6.71 -8.23 13.08 -0.19 0.39 -0.45 0.26 -0.64 0.39a13.38 13.38 0 0 1 -2.27 -0.19c-1.55 -0.26 -3.17 -0.2 -4.73 -0.39a4.32 4.32 0 0 1 -3.43 -2.53 10.29 10.29 0 0 1 -1.17 -4c-0.12 -1.81 0.78 -3.3 1.43 -4.85 0.52 -1.17 1.49 -2 1.55 -3.37 0 -0.52 0.65 -0.91 1.17 -1.17a34.12 34.12 0 0 1 7.71 -2.39c3 -0.52 5.89 -1.43 8.93 -1.82 2.43 -0.21 2.51 -1 12.57 -3.11 1.36 -0.26 2.65 -0.71 4 -1.1 1.82 -0.45 3.63 -0.26 5.31 -0.77 0.04 0.11 0.04 0.24 0.04 0.43" fill="#ffffff" stroke-width="0.5"></path>
        <path d="M178.48 114.3a45.21 45.21 0 0 0 -7.64 1.69c-3.56 0.89 -4 0.37 -9.78 2.2 -1.93 0.61 -9.68 2 -9.78 2.07a59.12 59.12 0 0 0 -5.7 1.68c-0.6 0.18 -6.2 1.08 -7.38 3.31a17.58 17.58 0 0 0 -1.75 10.62c0.19 1.1 -1.17 2.07 -2.4 1.81 -3.76 -0.91 -6.65 -1 -7.25 -1.23s-0.78 -0.52 -0.46 -1.1c3.6 -6.17 5.39 -9.2 12.37 -15.87a35 35 0 0 1 7.71 -5.7 5 5 0 0 1 2.53 -0.45 25.1 25.1 0 0 0 7.19 -1.55 15.42 15.42 0 0 1 8.93 -0.13c2.72 0.64 5.64 1 8.36 1.68a17.07 17.07 0 0 1 5.05 0.97" fill="#ffffff" stroke-width="0.5"></path>
        <path d="M99.85 184.83c-3.3 -0.71 -6.47 -1.81 -9.71 -2.4a3.77 3.77 0 0 1 -2.46 -1.43 11.49 11.49 0 0 1 -2.53 -4.6c-0.39 -2 1.36 -5.5 3.31 -6.28 0.71 -0.26 1.29 -0.26 1.36 0.65a0.41 0.41 0 0 0 0.45 0.45c1.55 0.07 3.11 0.52 4.66 0.45 1.36 0 2.14 0.78 1.88 2.14 -0.39 1.81 0 3.17 1.75 4a0.5 0.5 0 0 1 0.39 0.51c-0.07 2.24 0.71 4.31 0.9 6.51" fill="#ffffff" stroke-width="0.5"></path>
        <path d="M18.44 47.2a29.29 29.29 0 0 1 -4.85 0.13c-2.14 -0.13 -4.28 -0.51 -5.7 -2.46 -0.78 -1.16 -1.1 -2.39 -0.26 -3.43a10 10 0 0 1 4.21 -3.63c0.65 -0.26 1.23 -0.58 1.94 -0.06a1.2 1.2 0 0 0 0.84 0.06 7.59 7.59 0 0 1 3.82 0.07 6.25 6.25 0 0 1 4 2 2.51 2.51 0 0 1 0.58 2c-0.06 1.49 0.26 3.31 -1.36 4.34 -1.01 0.72 -2.18 0.66 -3.22 0.98" fill="#ffffff" stroke-width="0.5"></path>
        <path d="M46.62 18.58a15.9 15.9 0 0 1 -4.6 -0.46 33.53 33.53 0 0 0 -5 -0.45l-1.1 0c-0.58 0 -0.78 -0.45 -0.91 -0.91s0.26 -0.71 0.72 -0.77a9.1 9.1 0 0 1 2.65 -0.46c3.89 0 7.71 0.59 11.6 0.78 2.33 0.13 4.53 0.2 6.86 0.52 1.43 0.19 3 -0.07 4.4 0.78 0.59 0.38 1.3 0.64 1.17 1.29s-1 0.71 -1.68 0.71a41.11 41.11 0 0 1 -5.64 -0.38c-1.29 -0.13 -2.65 -0.07 -4 -0.26 -1.62 -0.13 -3.31 -0.59 -4.47 -0.39" fill="#ffffff" stroke-width="0.5"></path>
        <path d="M35.15 25.05c3.11 0.26 6.22 0.13 9.4 0.39 2.13 0.13 4.33 0.07 6.47 0.39s4.21 0.39 6.28 0.58a4.32 4.32 0 0 1 2 0.78c0.58 0.39 0.58 0.78 -0.13 1.1a5.11 5.11 0 0 1 -2 0.52c-4.6 -0.19 -9.2 -1.36 -13.86 -1.17a23.64 23.64 0 0 1 -3.63 -0.51 1.85 1.85 0 0 0 -0.84 -0.07c-1.68 0.39 -3.24 -0.39 -4.86 -0.45 -0.51 0 -1.1 -0.2 -1.1 -0.78s0.72 -0.65 1.23 -0.71a5.86 5.86 0 0 1 1.04 -0.07" fill="#ffffff" stroke-width="0.5"></path>
        <path d="M35 29.78c2.78 -0.39 5.63 0.07 8.42 0.2 2.4 0.13 4.73 0.19 7.12 0.51a46.68 46.68 0 0 0 6.22 0.39 2.69 2.69 0 0 1 1.49 0.39c0.39 0.2 0.84 0.46 0.78 0.91a1.09 1.09 0 0 1 -1.17 0.91c-4.58 0.24 -7.92 -0.53 -12.76 -0.85 -4 -0.19 -8 -0.64 -12 -1 -0.52 -0.07 -1 -0.2 -0.91 -0.78s0.39 -0.78 1 -0.71a7.89 7.89 0 0 0 1.81 0.03" fill="#ffffff" stroke-width="0.5"></path>
        <path d="M51.67 38c-4.34 -0.2 -8.74 -0.52 -13.15 -0.78 -2.26 -0.13 -4.34 -0.71 -6.54 -0.71a0.69 0.69 0 0 1 -0.78 -0.59 0.64 0.64 0 0 1 0.59 -0.77 4.87 4.87 0 0 1 2.72 -0.2 6.61 6.61 0 0 0 3.56 0.13 18.29 18.29 0 0 1 3.76 0.2c3 0.13 6 0.52 8.93 0.45 1.82 -0.06 3.63 0.39 5.38 0.45 0.65 0 1.68 0.39 1.55 1.23s-1.1 0.85 -1.81 0.85c-1.3 0.14 -2.66 -0.38 -4.21 -0.26" fill="#ffffff" stroke-width="0.5"></path>
        <path d="m45.71 23.18 -10 -0.65c-0.58 -0.07 -1.23 -0.26 -1.23 -0.91s0.78 -0.71 1.23 -0.71a83.47 83.47 0 0 1 12 0.32c2.72 0.13 5.31 0.85 8.09 0.78a2.91 2.91 0 0 1 2.27 0.84c0.45 0.52 0.39 0.84 -0.26 1a7.88 7.88 0 0 1 -3.43 0.39C44.25 23 45.87 23.19 45.71 23.18" fill="#ffffff" stroke-width="0.5"></path>
        <path d="M34.18 44.1c2.14 0 4.21 0.12 6.16 -0.07a69.24 69.24 0 0 1 8.16 0.13 44.82 44.82 0 0 1 5.89 0.39c0.78 0.13 1.88 0.19 1.81 1.1s-1.23 0.65 -1.94 0.65a22.15 22.15 0 0 1 -5.51 -0.2c-1 -0.26 -2.07 0.13 -3.17 0.07 -1.81 -0.07 -3.63 -0.52 -5.5 -0.2a7.55 7.55 0 0 1 -2.72 -0.13c-2 -0.45 -4.08 0.07 -6.16 -0.38 -0.39 -0.07 -0.84 0.06 -0.9 -0.52s0.51 -0.39 0.77 -0.52c1.04 -0.65 2.21 -0.07 3.11 -0.32" fill="#ffffff" stroke-width="0.5"></path>
        <path d="M52.12 42.8c-2 -0.39 -4.08 0.06 -6.15 -0.45a31.16 31.16 0 0 0 -5.51 -0.59c-2 -0.13 -4 -0.26 -6.15 -0.26 -0.78 0 -1.68 -0.06 -2.46 -0.06A0.85 0.85 0 0 1 31 40.6c-0.07 -0.46 0.26 -0.71 0.71 -0.78 1.56 0 3.11 -0.45 4.66 -0.06a11.9 11.9 0 0 0 2.6 0.06 69.81 69.81 0 0 1 8.93 0.71c1.23 0.2 2.46 -0.19 3.69 0a3.38 3.38 0 0 1 1.69 1.1 0.5 0.5 0 0 1 0 0.59 1.45 1.45 0 0 1 -1.16 0.58" fill="#ffffff" stroke-width="0.5"></path>
        <path d="M22 109.9c4.13 -0.21 3.83 -0.82 8.68 0.06 0.38 0.07 0.71 0.13 0.64 0.52s-0.45 0.39 -0.77 0.45c-0.8 0.2 -2.1 -0.85 -8.49 -0.19 -0.26 0 -0.65 0.13 -0.71 -0.2s0.2 -0.45 0.65 -0.64" fill="#ffffff" stroke-width="0.5"></path>
        <path d="M19.09 106.79a18.89 18.89 0 0 1 7.52 -0.91c1.48 0.07 3.1 0.07 4.59 0.2 0.59 0.06 0.72 -0.13 0.91 -0.65 1.3 -3.56 4 -5.77 7.12 -7.64a1.63 1.63 0 0 1 2.27 0.77c2.14 4.08 4.92 7.84 6.93 12 0.26 0.65 0.13 0.78 -0.26 1.1 -1.55 1.1 -3.11 2.14 -4.66 3.24 -4.27 3.1 -3.34 4.86 -5.83 4.86 -3.17 0.06 -6.41 0.19 -9.59 0.38a8.41 8.41 0 0 0 -4.27 1.11 0.94 0.94 0 0 1 -1.49 -0.52c-1.88 -4 -3.69 -7.84 -5.57 -11.85 -0.39 -0.72 0.2 -1.17 0.71 -1.43a5 5 0 0 1 1.62 -0.66M37 118.12a72.59 72.59 0 0 1 -5 -10.1 0.89 0.89 0 0 0 -0.91 -0.58c-2 -0.07 -4.08 -0.2 -6.15 -0.39a20.32 20.32 0 0 0 -6 0.71c-0.91 0.19 -1.17 0.71 -0.78 1.49 1.55 3.24 3.24 6.48 4.86 9.71 0.26 0.59 0.58 0.59 1.1 0.46a15.16 15.16 0 0 1 5.05 -0.91Zm1.75 0.2c1.88 -3.24 4.92 -5.18 7.71 -7.19 0.52 -0.39 0.45 -0.65 0.19 -1.1 -1.94 -4 -4.53 -7.58 -6.41 -11.66 -0.45 0.26 -0.84 0.58 -1.29 0.84 -2.08 1.68 -4.28 3.3 -5.64 5.7a3.07 3.07 0 0 0 0 3.24c1.38 2.35 2.2 5.32 5.47 10.17Z" fill="#ffffff" stroke-width="0.5"></path>
        <path d="M23.82 113.59a35.09 35.09 0 0 1 6.87 0.06c0.25 0.07 0.71 0.13 0.64 0.59s-0.45 0.51 -0.77 0.51l-4.21 -0.19 -2.46 0c-0.26 0 -0.78 0.19 -0.85 -0.26s0.46 -0.52 0.78 -0.71" fill="#ffffff" stroke-width="0.5"></path>
        <path d="M39.82 102.13a0.61 0.61 0 0 1 -0.2 0.58c-1.55 1.55 -3 3.3 -4.4 5 -0.2 0.19 -0.45 0.64 -0.78 0.45s-0.13 -0.65 0.07 -0.91a23.35 23.35 0 0 1 4.4 -5c0.32 -0.32 0.58 -0.51 0.91 -0.12" fill="#ffffff" stroke-width="0.5"></path>
        <path d="M41 105.62a0.84 0.84 0 0 1 -0.26 0.59 41.56 41.56 0 0 0 -3.23 4.59c-0.2 0.26 -0.46 0.85 -0.85 0.59s-0.06 -0.72 0.07 -1.1a17.13 17.13 0 0 1 3.37 -4.67c0.24 -0.13 0.56 -0.39 0.9 0" fill="#ffffff" stroke-width="0.5"></path>
        <path d="m43.25 109.7 -3.56 3.76c-0.26 0.26 -0.65 0.65 -1 0.45s0 -0.71 0.26 -1a21.93 21.93 0 0 1 3.63 -3.7c0.66 -0.49 1.19 -0.03 0.67 0.49" fill="#ffffff" stroke-width="0.5"></path>
        <path d="M50.05 146.3c-0.91 2.52 -2.53 4.46 -3.82 6.47 -1.1 1.75 -2.27 3.37 -3.56 5a3.1 3.1 0 0 1 -1.69 1.3 2.62 2.62 0 0 1 -3 -0.71 2.94 2.94 0 0 1 -0.13 -3.31c2.33 -3.17 4.53 -6.41 6.93 -9.58A63 63 0 0 1 50.11 140c0.2 -0.2 0.52 -0.46 0.85 -0.26a0.52 0.52 0 0 1 0.26 0.78 42.36 42.36 0 0 1 -1.17 5.78m-1.49 1.1c-0.71 -0.59 -1.42 -1.1 -2.07 -1.56 -0.46 -0.39 -0.78 -0.39 -1.1 0.2 -0.34 0.9 -1.53 2 -5.12 7.44 -0.91 1.43 -0.91 1.69 0.39 2.79 0.82 0.78 1.07 1 1.47 0.53s6.26 -9.15 6.43 -9.4m-1.88 -2.72 2 1.74c0.25 0.2 0.51 0.39 0.58 -0.12 0.19 -1 0.39 -2 0.65 -3.11 0.06 -0.46 -0.13 -0.59 -0.46 -0.78s-0.45 0.06 -0.58 0.19c-0.7 0.72 -1.41 1.4 -2.19 2.08M41.5 157.76a4.66 4.66 0 0 1 -2.72 -2.46 2 2 0 0 0 0.07 2.59c0.58 0.71 1.61 0.71 2.65 -0.13" fill="#ffffff" stroke-width="0.5"></path>
      </g>
      <g>
        <path d="M85.8 106.4c-2.46 -0.45 -5.31 -0.39 -8.16 -1.17A74.25 74.25 0 0 1 70 102.9a2.74 2.74 0 0 1 -1.75 -1.75 63.91 63.91 0 0 0 -2.92 -6.86 144.68 144.68 0 0 1 -6.6 -15.29c-1.1 -2.78 -2.4 -5.57 -3.56 -8.29a39.05 39.05 0 0 1 -1.23 -3.71 12.49 12.49 0 0 0 -1.11 -2.27c-0.45 -0.78 -1.16 -1.49 -0.71 -2.53 0.13 -0.38 -0.26 -0.45 -0.52 -0.64a2.18 2.18 0 0 1 -0.45 -2.4 2 2 0 0 1 2.46 0.13c1.49 1.88 3.69 2.33 5.7 3.17 0.84 0.39 1.56 0.78 2.46 1.1 3.5 1.46 10.21 -0.1 17 -0.64 2.72 -0.2 5.38 -0.59 8.16 -0.78 1.85 -0.14 3.79 -0.14 5.74 -0.14 0.45 0 0.64 0.12 0.71 0.58 0.62 2.18 1.23 4.42 2.07 6.42 1.36 3.24 2.07 6.61 3.24 9.91 0.58 1.49 1.1 3 1.68 4.53 0.46 1 -0.19 1.75 -0.52 2.53 -0.06 0.26 -0.51 0.13 -0.71 0a36 36 0 0 0 -5.5 -2.27c-0.78 -0.26 -1.1 0 -1.49 0.71 -1.69 2.4 -0.91 4.47 0.52 6.55 0.58 0.84 -0.07 1 -0.72 1a7.26 7.26 0 0 0 -4.27 1.43c-0.45 0.39 -0.65 0.64 -0.45 1.23 0.38 1.36 1.42 2 2.46 2.72 0.26 0.19 0.58 0.26 0.84 0.45 2.27 1.1 2.39 1.88 0.26 3.17a4.35 4.35 0 0 0 -2.33 3.83c0.06 1.29 -0.52 1.61 -2.66 1.61" fill="#ffffff" stroke-width="0.5"></path>
        <path d="M69.74 49.28A35.94 35.94 0 0 1 58 48c-0.45 -0.06 -0.45 -0.39 -0.39 -0.71 0.65 -3.17 0.91 -6.48 2 -9.65 3.89 -11.65 4.34 -20.95 5 -22.8 0.13 -0.52 -0.2 -0.78 -0.71 -1 -3.43 -1.08 -13.46 -1.71 -19.63 -1.36 -0.91 0.07 -1.16 -0.25 -1.16 -1.16 0.06 -1.75 0.06 -3.43 0 -5.18 0 -0.78 0.25 -1.1 1.1 -1 0.1 0 31.63 0.79 31.73 0.78 0.26 0 0.91 -0.13 0.65 0.45 -0.29 0.76 -0.3 7.92 -0.45 9.85 -0.07 0.51 -0.2 0.71 -0.78 0.71 -1.43 0.06 -2.92 0.58 -4.41 0.45 -0.58 -0.06 -0.71 0.39 -0.71 0.84 0 3.57 -1.67 15.12 -0.86 21 0.1 0.78 0.64 0.91 1.9 0.86 1 0 2 -0.19 3.11 -0.19 0.64 0 0.9 0.13 0.84 0.84a76.65 76.65 0 0 0 -0.45 7.71c0 0.58 -0.39 0.71 -0.85 0.71a29.75 29.75 0 0 1 -4.19 0.13" fill="#ffffff" stroke-width="0.5"></path>
        <path d="M72.65 172.27c0.46 -2 0.65 -4 1.88 -5.77 3.51 -4.84 0 -3.46 9.2 -11.85 1.16 -1.1 2.78 -1.42 3.88 -2.59 0.52 -0.58 1.3 0.13 1.49 0.45 1.1 1.3 2.34 1.1 3.63 0.59 1.56 -0.65 2.46 -0.13 2.4 1.42a5.75 5.75 0 0 0 0.39 2.33 13.48 13.48 0 0 1 0.71 4.21 1.56 1.56 0 0 1 -0.58 1.43 57.14 57.14 0 0 1 -6.74 6.34c-1.1 0.78 -2 1.88 -3.11 2.59 -2.07 1.36 -4.21 2.72 -6.28 4 -2.72 2.01 -7.79 1.35 -6.87 -3.15" fill="#ffffff" stroke-width="0.5"></path>
        <path d="M96.29 176c-0.13 -0.78 0.39 -1.49 0.59 -2.27 0.9 -2.65 2.91 -4.66 4.59 -6.86a23.48 23.48 0 0 1 5.25 -4.54c2.27 -1.42 4.4 -3.17 7 -4.21A1.63 1.63 0 0 0 115 157c0.12 -0.58 0.64 -0.65 1.1 -0.13a1.63 1.63 0 0 1 0.38 0.52c0.78 2 2.47 2.91 4.41 3.43a1.76 1.76 0 0 1 1.16 2.46c-1 2.92 0.37 4.83 -2.26 6.93a39.26 39.26 0 0 1 -7.13 4.86 68.59 68.59 0 0 1 -6.73 3.3 8.38 8.38 0 0 1 -3.76 0.59 23.69 23.69 0 0 1 -3.63 -0.39c-1.66 -0.22 -2.25 -0.86 -2.25 -2.57" fill="#ffffff" stroke-width="0.5"></path>
        <path d="M135.74 147.27c-3.45 -0.39 -7.43 -3.29 -11.08 -3.76 -0.91 -0.13 -1.36 -1.1 -1 -2.27a12.67 12.67 0 0 0 0.78 -3.11c0.07 -0.45 0.45 -0.77 0.71 -0.58 1.23 0.91 2.66 0.52 4 0.71a41.35 41.35 0 0 0 7.52 0.46 8.3 8.3 0 0 1 3.56 0.45 0.22 0.22 0 0 1 0.19 0.07c1.43 1.49 3 0.77 4.47 0.06 2.72 -1.29 5.64 -2.07 8.36 -3.3 3.3 -1.49 6.73 -2.59 10 -4 1.36 -0.58 2.91 -0.84 4.27 -1.36 2.07 -0.71 4.27 -1 6.41 -1.68a3 3 0 0 1 3.82 2.26c0.2 0.91 -0.45 1.24 -1.1 1.43 -15.95 5.21 -6.75 2.32 -14.12 4.47 -1.36 0.39 -2.65 1 -4 1.49 -3.63 1.29 -7.19 2.52 -10.75 3.95S140.46 145 137 146.88a1.41 1.41 0 0 1 -1.26 0.39" fill="#ffffff" stroke-width="0.5"></path>
        <path d="M112 139.24a8.52 8.52 0 0 0 3.23 1.42 11.26 11.26 0 0 1 2.72 0.84c1 0.46 1 0.91 0.78 2 -0.26 1.75 -1.1 3.3 -0.65 5.12 0.2 0.77 -0.25 1.23 -0.77 1.68s-0.85 0.07 -1.36 -0.06c-4.39 -1.47 0 -0.08 -12.44 -3.83 -3.64 -1.28 -5.46 -0.37 -6.93 -4.79a9.45 9.45 0 0 1 -0.45 -2.39c-0.13 -1.69 0.58 -3.18 1.1 -4.73a0.71 0.71 0 0 1 0.65 -0.46c1.1 0 2.26 -0.19 3.24 0.46 0.25 0.13 0.58 0.26 0.77 0.13 1.36 -0.71 2.79 -0.46 4.28 -0.2a23.87 23.87 0 0 0 3 0.2 59.85 59.85 0 0 1 8.36 1 2.56 2.56 0 0 1 2 2.46l0 0.91c0 1.49 -0.58 1.94 -2.13 1.55s-3.11 -1.16 -4.67 -1.49c-0.19 -0.06 -0.52 -0.06 -0.71 -0.13a0.27 0.27 0 0 1 -0.02 0.31" fill="#ffffff" stroke-width="0.5"></path>
        <path d="M113.26 97.53a1.55 1.55 0 0 1 -1.75 -1.43c-0.06 -0.78 0.59 -1.29 1.3 -1.55a123.62 123.62 0 0 0 16.38 -6.16c3 -1.32 2.81 -1.55 8.16 -4.92 3 -1.94 5.31 -4.47 7.9 -6.73 0.39 -0.26 0.46 -0.84 0.85 -1.1s0.65 -0.65 1.16 -0.2 0.39 0.78 0.13 1.3a15.64 15.64 0 0 1 -2.26 3.11 40.39 40.39 0 0 1 -9.91 8.48 48.87 48.87 0 0 1 -7.9 4.08c-4.21 1.75 -8.42 3.3 -12.7 4.73a8.08 8.08 0 0 1 -1.36 0.39" fill="#ffffff" stroke-width="0.5"></path>
        <path d="M99.73 94a7.71 7.71 0 0 1 4.4 -2.46 2 2 0 0 1 2.14 0.72 10.38 10.38 0 0 0 1.16 1.29 1.54 1.54 0 0 1 -0.43 2.45 2.31 2.31 0 0 0 0.19 4.21c0.72 0.46 1.69 0.59 1.82 1.69 0.4 2.43 -2.34 0.85 -4 2.65a0.71 0.71 0 0 1 -0.45 0.13c-4.68 0.86 -10.28 -5.27 -4.83 -10.68" fill="#ffffff" stroke-width="0.5"></path>
        <path d="M149 35.74c0 0.39 -0.19 0.39 -0.52 0.19a82.8 82.8 0 0 0 -15.15 -3.49 24.45 24.45 0 0 0 -5.7 -0.52c-0.78 0.06 -1.3 -0.13 -0.65 -1 0.12 -0.18 1.46 -4.41 6.93 -3.49 3.18 0.58 6.41 1.16 9.52 2a12.52 12.52 0 0 1 4.29 1.57c0.19 0.19 0.51 0.39 0.58 0.58a41.13 41.13 0 0 1 0.7 4.16" fill="#ffffff" stroke-width="0.5"></path>
        <path d="M82.11 138.33c0.45 -1.1 -0.26 -2.33 0.13 -3.56a5 5 0 0 1 6.09 -3.24c0.71 0.19 1.29 0.84 2.07 1 0.45 0.06 0.58 0.64 0.19 1.1 -1 1.49 -0.71 3.23 -0.45 4.92 0.06 0.58 0.26 1.16 0.26 1.68a1.38 1.38 0 0 1 -1.75 1.56c-1.68 -0.26 -3.17 -0.91 -4.92 -1.1a2.32 2.32 0 0 1 -1.62 -2.36" fill="#ffffff" stroke-width="0.5"></path>
        <path d="M135.74 149.21c-0.07 0.19 -0.07 0.45 -0.13 0.65 -0.91 1.55 -0.78 3.3 -0.72 5a1.56 1.56 0 0 1 -1.94 1.55 23.2 23.2 0 0 0 -4.27 -1.29 1.45 1.45 0 0 1 -1.17 -1.3 8.65 8.65 0 0 1 -0.26 -2.91 26.53 26.53 0 0 1 0.45 -3.76c0.13 -1 0.85 -1.36 1.75 -0.84a8.09 8.09 0 0 0 2.79 0.58c1.9 0.49 3.11 0.03 3.5 2.32" fill="#ffffff" stroke-width="0.5"></path>
        <path d="M159.89 43c3.73 0.18 5.72 3.83 1.36 10.24 -0.84 1.29 -3.3 1.16 -4.34 -0.13 -1.68 -2.14 -1.16 -4.34 -0.39 -6.54 0.39 -1.17 0.65 -2.4 1.75 -3.11a2.71 2.71 0 0 1 1.62 -0.46" fill="#ffffff" stroke-width="0.5"></path>
        <path d="M19.48 33.47c1.23 -1.55 2.92 -2.59 4.08 -4a1.17 1.17 0 0 1 1.81 -0.2c0.59 0.52 0.39 1.1 0.13 1.69a12.37 12.37 0 0 1 -2.33 3.17 16.93 16.93 0 0 0 -1.68 2.46c-0.71 1.43 -1.1 1.49 -2.72 1.23 -0.71 -0.13 -1.56 0.13 -1.56 -0.9a92 92 0 0 1 0 -10.37c0.07 -0.9 0.65 -1.42 1.36 -1.29s0.91 1 0.85 1.68a39.35 39.35 0 0 0 -0.13 5.64 0.74 0.74 0 0 0 0.19 0.89" fill="#ffffff" stroke-width="0.5"></path>
        <path d="M117.15 36.84c1.23 -0.91 2.91 -1.1 3.75 0.2a2.23 2.23 0 0 1 0.39 1.94c-0.71 2 -1.36 4.08 -2.07 6.22s-3.23 2.65 -4 0.26c-1.16 -2.76 -0.12 -6.94 1.93 -8.62" fill="#ffffff" stroke-width="0.5"></path>
        <path d="M128.16 60.09c2.33 0.71 4.66 0.71 6.93 1.1 1 0.13 1.29 0.59 1.68 1.69 0.58 1.55 0.26 3 0.2 4.47a2.34 2.34 0 0 1 -3.31 1.65 4.81 4.81 0 0 1 -2.39 -3.37 4.73 4.73 0 0 0 -1.56 -2.59 6.58 6.58 0 0 1 -1.55 -2.95" fill="#ffffff" stroke-width="0.5"></path>
        <path d="M106.46 87.94a0.81 0.81 0 0 1 -0.91 -0.71c-0.19 -0.71 -0.25 -1.3 0.46 -1.81a20.28 20.28 0 0 1 2.52 -1.17 16.51 16.51 0 0 0 5.64 -4.92 22 22 0 0 0 2.14 -3.33 1.39 1.39 0 0 1 1.74 -0.9c0.46 0.13 0.78 1.94 0.52 2.46 -1.55 2.59 -3.17 5.25 -5.7 7.12a20.8 20.8 0 0 1 -6 3.11 0.61 0.61 0 0 0 -0.41 0.15" fill="#ffffff" stroke-width="0.5"></path>
        <path d="M10.15 30a1.06 1.06 0 0 1 0.78 0.2c1.49 1.87 3.43 3.3 4.54 5.57 0.25 0.58 0.64 1.23 0 1.68s-1.43 0.13 -2 -0.52c-0.39 -0.52 -0.65 -1 -1 -1.49A16.73 16.73 0 0 0 10 32.57c-1.12 -0.99 -1.37 -2.65 0.15 -2.57" fill="#ffffff" stroke-width="0.5"></path>
        <path d="M183.6 137.16c0 1.84 -1.89 0.81 -3.44 2.08 -0.71 0.51 -1.23 0 -1.49 -0.65 -0.45 -0.91 -0.13 -1.94 -0.45 -3 -0.06 -0.45 1.17 -0.91 1.81 -0.65a7.9 7.9 0 0 0 2.72 0.78c0.72 0.15 0.85 0.8 0.85 1.44" fill="#ffffff" stroke-width="0.5"></path>
      </g>
      <g>
        <path d="M191.24 171.68c-0.45 -0.58 -1.09 -1 -1 -1.75a12.11 12.11 0 0 1 1.1 -4.53c0.48 -1 0.26 -1.16 -0.64 -1.23 1 -1 0.64 -1.68 -0.72 -2.07 -3.17 -0.84 -6.21 -1.88 -9.39 -3 1.55 -0.77 4 -1.72 6.16 -2.59 0.32 -0.07 0.9 -0.2 0.51 -0.65s-0.45 -0.91 -0.84 -1.1c-2.14 -1.43 -2.59 -2.79 -1.42 -5.12 2.46 -4.64 2.62 -3.71 3.06 -5.93a11.13 11.13 0 0 0 -0.73 -5.79 3 3 0 0 0 -2.07 -1.88c-1.63 -0.41 -3 -1.36 -4.67 -1.75 -0.26 -0.06 -0.64 -0.19 -0.26 -0.58a2.56 2.56 0 0 0 0.52 -2.07c0 -0.58 -0.13 -1 -0.71 -1.23 -1.5 -0.55 -3 -1.17 -4.66 -1.75 2.25 -1 6.79 -1.55 10.36 -4.15 0.64 -0.46 0.45 -0.45 0.06 -0.84 -1.94 -2 -2 -4.47 -1.55 -7a3.17 3.17 0 0 1 1.1 -2c0.19 -0.13 0.19 -0.39 0.13 -0.65 -0.19 -1.1 -1 -1.36 -1.94 -1.36a24.61 24.61 0 0 1 -4.34 -0.52c-3.31 -0.71 -6.8 -0.77 -10.11 -1.42a39.65 39.65 0 0 0 -5.89 -0.71c-1 0 -2.2 -0.33 -3.37 -0.46a1.87 1.87 0 0 1 0.78 -1.23c0.45 -0.26 0.52 -0.65 0.71 -1a8.22 8.22 0 0 0 0.52 -3.57c0.13 -2.78 0.07 -5.69 0 -8.48 -0.19 -7.44 0.81 -2.93 -4.27 -23.77a7.33 7.33 0 0 0 -5.38 -5.83c-4.13 -1 -8.07 -1.91 -12.31 -1.29 -0.39 0 -1 0.12 -1.1 -0.59a3 3 0 0 0 -1.16 -2.26c2.59 0.26 4.86 1 7.25 0.77 1 -0.1 2.07 -0.64 3 -0.38 2 0.71 3.76 0 5.57 -0.65 2.92 -1.1 4.66 -3.43 5.83 -6.22 0.24 -0.54 1.51 -1.45 -0.37 -1.91a3.28 3.28 0 0 1 -2.09 -3.85 17.25 17.25 0 0 1 1.42 -4.34 4.17 4.17 0 0 1 3.18 -1.1c-2.72 1.94 -3.89 5.57 -2.59 8.35 0.24 1 2.14 1.3 1.49 -0.45a6.58 6.58 0 0 1 -0.2 -3.37c0.26 -1.62 1.3 -2.72 2.07 -4 0.13 -0.13 0.26 -0.19 0.39 -0.13 0.78 0.2 1.43 0.46 1.56 1.37a7.41 7.41 0 0 1 -0.46 3.75 16.23 16.23 0 0 1 -1.59 3.21 0.47 0.47 0 0 0 0.65 0.66 4.86 4.86 0 0 0 0.94 -0.82 9 9 0 0 0 2.08 -6.22 3.4 3.4 0 0 0 -2.46 -3.43c-0.39 -0.13 -0.78 -0.52 -1.17 -0.52 -1.62 0 -2.27 -1 -3.17 -2.08a9.94 9.94 0 0 0 -4.54 -2.78 3.54 3.54 0 0 1 -2.65 -2.46 5.18 5.18 0 0 0 -3.3 -3.93c-1 -0.39 -1.94 -0.71 -3 -1.17 -0.58 -0.26 -1.56 -0.39 -1.75 -0.84 -0.31 -0.67 0.5 -0.83 1.17 -1.49 1.68 -2.2 4 -3.89 5.95 -5.89a0.44 0.44 0 0 1 0.65 -0.07 2.38 2.38 0 0 0 3 -0.9c0.65 -0.78 0.13 -1.82 -0.26 -2.53 -1 -2 -2.24 -2 -3.43 -0.07a2.43 2.43 0 0 0 -0.52 1.37c0 0.25 0 0.51 -0.26 0.64 -1.75 1 -2.91 2.66 -4.34 4 -1.1 1 -2.07 2.07 -3.17 3.17 -0.91 -2.07 -2.07 -3.75 -2.78 -5.7 -0.52 -1.36 -1.24 -2.65 -1.88 -3.95 -0.26 -0.52 -0.33 -0.84 0.39 -1.29a2.26 2.26 0 0 0 0.19 -3.83 2.62 2.62 0 0 0 -2.53 0.2c-1.36 0.65 -1.87 2.59 -0.58 3.3s1.62 2.14 2.14 3.37c0.91 2.07 1.55 4.08 2.46 6.09 0.45 1 0.84 2 1.36 3.24 -1.88 -0.78 -3.57 -0.68 -5.31 -0.91a8.29 8.29 0 0 0 -4 0.06 8 8 0 0 0 -3.71 3.2 1.42 1.42 0 0 1 -1.29 0.71 11 11 0 0 0 -3.18 0.45c-1.55 0.59 -2.2 1.88 -2.72 3.31 -0.13 0.51 -0.32 0.79 -0.9 0.71a2.27 2.27 0 0 0 -2.14 0.91c-1.3 1.94 -2.59 4 -2.14 6.47 0.2 1.1 0.12 2.55 1.36 3.05 1 0.41 1 0.9 0.78 1.68a5 5 0 0 0 -0.39 1.36c-0.13 1.88 -0.39 3.69 1.1 5.25a15.36 15.36 0 0 0 8.23 4.4c1.1 0.21 7.8 2 8 2.07 1.23 0.26 1.23 0.26 0.52 1.17 -1.36 1.75 -3.37 1.62 -4.6 -0.39 -0.2 -0.33 -0.36 -0.67 -0.53 -1a0.57 0.57 0 0 0 -1 0.48 7.77 7.77 0 0 0 1.88 2.66c-2 0.39 -3.88 0.26 -5.7 0.84a18 18 0 0 0 -5.89 3.24 6.5 6.5 0 0 0 -2.66 4.27c-0.13 0.58 0.13 1.43 -0.13 1.69 -2 2 -1.53 4 -10.55 10.16 -0.78 0.65 -1.69 1.23 -2.59 0.2 -0.07 -0.13 -0.39 -0.13 -0.52 -0.13 -0.46 0.06 -0.64 -0.2 -0.84 -0.65 -1 -2.29 -1.62 -4.53 -2.47 -6.8a48.19 48.19 0 0 1 -1.74 -5.12c-0.59 -2.33 -0.85 -4.72 -1.49 -7.06 -0.65 -2.59 -1.23 -3.17 -3.83 -3.1 -4.08 0.06 -8.29 0.26 -12.37 0.64 -1 0.07 -1.94 0 -3 0.07 -2.14 0.19 -4.4 0.44 -6.55 0.78 -1.93 0.3 -3.81 0.43 -5.76 0.84a5.34 5.34 0 0 1 -5 -1.17 7.35 7.35 0 0 0 -0.77 -0.58c-1.62 -1.17 -3.5 -1.88 -5.19 -3a6.4 6.4 0 0 0 -3 -1.3c-0.65 -0.19 -1.24 0.06 -1 0.84 0.13 0.58 0.26 1 -0.45 1.23a0.62 0.62 0 0 0 -0.2 0.84c0.71 0.72 0.71 1.82 1.3 2.6 1.16 1.81 1.94 3.82 3.11 5.63a19.75 19.75 0 0 1 1.87 4.34c0.72 2.14 1.92 4.13 2.59 6.22a1 1 0 0 1 -0.38 1.42 3.39 3.39 0 0 0 1 5.7 2.52 2.52 0 0 1 1.23 0.52c-1.49 1.88 -1.55 4.53 1.43 5 0.52 0.06 0.32 0.32 0.26 0.71 -0.33 2 0.84 3.24 2.78 2.78 0.58 -0.13 0.58 0.26 0.71 0.52a29.78 29.78 0 0 0 2.14 4.41 15.82 15.82 0 0 0 2.79 2.39 16.73 16.73 0 0 0 4.27 3c0.26 0.13 0.58 0.45 0.84 0.06 0.78 -1 1.88 -0.58 2.79 -0.58s1.68 0.19 2.52 0.26c1.69 0.13 3.37 0.32 4.93 0.58a43 43 0 0 1 5.76 1.1 1.42 1.42 0 0 0 0.71 0 0.89 0.89 0 0 0 0.78 -0.71c0.06 -0.39 -0.2 -0.64 -0.65 -0.78a1.74 1.74 0 0 1 -1.23 -0.71c1.36 0.52 2.59 0.06 3.76 -0.07 -0.35 1 -1.78 2.94 -0.52 4a1.84 1.84 0 0 0 2.07 0.06c1.24 -0.48 2 -1.68 3.11 -2.39 0.56 -0.39 1 -1.21 1.67 -1.25 0.86 -0.07 1 1.75 4.51 0.53a8.27 8.27 0 0 0 3.28 -2.13c0.64 -0.78 0.77 -1.88 1.36 -2.59 0.9 -1.1 1.87 -2.08 3.56 -1.88a4.11 4.11 0 0 0 1.68 -0.39c3.11 -1 5.93 -2.66 8.94 -4 0.64 -0.27 1 -0.26 1.1 0.52a22.52 22.52 0 0 1 0.07 3 43.54 43.54 0 0 0 -0.26 6c0.06 0.9 -0.13 1 -0.85 1.1 -7.33 1.52 -21.9 6.67 -28.88 7.57a40.83 40.83 0 0 0 -5.38 1.3c-1.62 0.45 -3.17 1.1 -4.85 0.65a1 1 0 0 0 -1.1 0.58c-0.91 1.68 -1.72 3.25 -2.47 5 -1.48 3.46 -1.68 6.73 1.36 9.52 0.46 0.52 0.2 0.58 -0.19 0.77 -1.36 0.78 -2.33 4.54 -2.07 5.9 0.45 2.52 2.39 3.56 4.4 4.6 0.2 0.06 0.52 -0.13 0.65 0.26a0.42 0.42 0 0 1 -0.52 0.19c-0.26 0 -0.58 -0.45 -0.84 0 -0.5 0.63 1.22 1.27 1.36 3.5 0.26 3.3 0.22 6.43 -2.46 8.93 -1.64 1.54 -3.18 3.18 -4.66 4.86a27.88 27.88 0 0 0 -3.83 5.18 24 24 0 0 0 -2 7.06 3.75 3.75 0 0 0 3.82 4.34 10.64 10.64 0 0 0 3.69 -0.84 17.86 17.86 0 0 0 4.21 -2 9.31 9.31 0 0 0 -0.39 3.82c0.28 2.15 1.81 4.93 4.4 5.12a19.06 19.06 0 0 1 2.27 0.39c10.86 3.3 7.13 1.77 16.39 4.21 2.53 0.71 15.94 4.16 18.58 5a55.66 55.66 0 0 0 8.55 2.13c1.78 0.26 3.51 1.34 5.3 0.9a27.87 27.87 0 0 0 4.94 -2.13c6.74 -3.69 12.4 -5.26 34 -14.76 2.07 -1 4.21 -1.43 6.15 -2.47a28.5 28.5 0 0 1 5.83 -2.39c0.9 -0.33 0.97 -0.78 0.32 -1.5m-38.6 -153.36a2 2 0 0 1 0.91 1.29c0 0.46 -0.39 0.65 -0.85 0.59a0.88 0.88 0 0 1 -0.77 -1.1c0.07 -0.39 0.19 -0.72 0.71 -0.78M137 15.27c-0.32 0.07 -0.84 -0.25 -0.78 -0.64 0.13 -0.65 0.56 -0.81 1.17 -0.79a0.76 0.76 0 0 1 0.65 0.66c-0.1 0.58 -0.56 0.71 -1.04 0.77M185.47 139.5a2.24 2.24 0 0 1 0.2 -0.72c0.18 -0.52 0.4 -0.65 0.78 -0.06 0.8 1.27 0.58 5.05 -0.52 6.41a21.25 21.25 0 0 1 -0.46 -5.63m-0.32 6.15c0.26 0.71 0.07 1.1 -0.78 1.23a27.7 27.7 0 0 0 -5.11 1.81c-8.79 3.49 -17.38 7.38 -20.34 8.49 -3.37 1.23 -6.73 2.72 -10.1 4 -2.85 1.1 -5.7 2.4 -8.49 3.63 -0.58 0.19 -1.23 0.39 -1.94 0.58a8.6 8.6 0 0 0 0.26 -6c9.53 -3.31 6.14 -2 14.18 -5.05 1.77 -0.67 3.5 -1.62 5.38 -2.27 2.65 -1 15.54 -6 19.36 -7.31a11.47 11.47 0 0 0 2.79 -1c0.26 -0.13 0.65 -0.39 0.65 -0.78s-0.52 -0.58 -0.78 -0.65c-0.71 -0.19 -0.78 -0.9 -1.17 -1.42 1.95 -0.78 3.89 -1.55 5.9 -2.27a10.78 10.78 0 0 0 0.19 7.01M97.91 167a15.87 15.87 0 0 0 3.18 0.71 31.47 31.47 0 0 0 -2.66 3.69 0.6 0.6 0 0 1 -0.78 0.39c-2.13 -0.32 -4.34 -0.58 -6.41 -1.1a3.45 3.45 0 0 1 -1.16 -0.13c1.29 -1.16 2.55 -2.36 3.82 -3.56a9.88 9.88 0 0 0 1.68 -1.68 1.59 1.59 0 0 1 2 -0.78c1.88 0.45 3.82 0.32 5.7 1.1 -0.59 0.65 -1 1.23 -2 1a23.29 23.29 0 0 0 -3.17 -0.52c-0.33 -0.07 -0.78 -0.39 -0.91 0.13s0.32 0.75 0.71 0.75M137 135.74c0.24 0.78 0.84 1.42 1.3 2.46a12.66 12.66 0 0 0 -5.12 -1c-1.81 -0.19 -3.63 -0.51 -5.51 -0.71 -0.84 -0.06 -1 -0.51 -0.58 -1.16 1.34 -2.31 2.46 -4.86 3.95 -7.19 1 -1.43 2.07 -2.79 3 -4.21a1.1 1.1 0 0 1 1.23 -0.59 32.05 32.05 0 0 1 5.31 0.59 21.94 21.94 0 0 0 -2.39 3.69 10 10 0 0 0 -1.19 8.12M127.25 131a35 35 0 0 0 -2.78 6.93c-0.39 1.75 -1.11 3.56 -1.56 5.38s-0.65 3.3 -1 5a32 32 0 0 0 -0.85 9.59c0.07 0.52 -0.06 0.59 -0.45 0.58a2.56 2.56 0 0 1 -2.4 -2.65 26.13 26.13 0 0 0 0.33 -3.24c0 -1.36 0.19 -2.66 0.26 -4a34.52 34.52 0 0 1 1.75 -7.7c0.58 -1.88 1.36 -3.7 2.07 -5.57a93.13 93.13 0 0 1 4.08 -9.07 57.66 57.66 0 0 1 6.22 -9.13 24.51 24.51 0 0 1 9.32 -7 9 9 0 0 1 3.95 -0.84c1.31 0 1.86 1.21 0 2.66a14.32 14.32 0 0 1 -3.77 1.87 6.32 6.32 0 0 0 -2.02 1.19 29.77 29.77 0 0 0 -4.66 4.34A50.43 50.43 0 0 0 127.25 131m0.13 21.76c0.07 0.58 0.07 1.17 -0.84 0.71s-1.75 -0.64 -2.59 -0.9 -0.84 -0.65 -0.78 -1.3c0.26 -1.94 0.52 -3.88 0.71 -5.76 1.36 0 2.33 1 3.57 1 0.38 0.07 0.32 0.39 0.19 0.65 -0.71 1.84 -0.45 3.73 -0.26 5.61Zm-9.26 -11.59c-1.88 -0.91 -3.89 -1.62 -5.77 -2.46 -2.83 -1.24 -7.3 -2.71 -8.74 -3.43a46.85 46.85 0 0 1 8 1.16c1.74 0.3 3.56 0.52 5.31 0.71 0.78 0.07 1.49 0.59 2.26 0.52 0.52 0 0.46 0.33 0.39 0.71 -0.13 0.91 -0.71 1.75 -0.71 2.66 -0.03 0.53 -0.48 0.27 -0.74 0.14Zm14.57 -26.36c-4.3 4.88 -4.14 5.59 -5.18 5.44 -2.53 -0.39 -5.12 -0.52 -7.58 -1s-5 -0.58 -7.64 -1a18.45 18.45 0 0 1 3.37 -2.46 51.65 51.65 0 0 1 11.46 -5.57 8 8 0 0 1 5.77 0c1 0.51 2.26 0.51 3.43 1.16 -1.23 1.24 -2.59 2.21 -3.63 3.44Zm-17.49 5.57a10.93 10.93 0 0 1 3 0.65 21.63 21.63 0 0 0 4.86 0.58c1.23 0.06 2.39 0.65 3.69 0.58 -1.9 3.8 -3.85 6.39 -5.31 10.62a17.61 17.61 0 0 0 -0.91 2.27c-0.08 0.52 -0.52 0.45 -0.91 0.39 -4 -1 -8 -1 -12 -1.88 -1.85 -0.41 -2.06 0.14 -2.91 -0.71 -1.43 -1.43 -1.69 -3.37 -2.08 -5.25 -0.12 -0.32 0.13 -0.58 0.26 -0.77a72.64 72.64 0 0 1 6.29 -6.48 2 2 0 0 1 1.68 -0.45 17.41 17.41 0 0 0 4.34 0.46ZM103.09 133c-1.42 -0.19 -2.65 -0.38 -4 -0.58a33 33 0 0 1 2.33 -3.69 7 7 0 0 0 1.67 4.27m8.29 7.32c2.12 0.89 4.3 1.83 6.35 2.79 0.26 0.12 0.26 0.32 0.19 0.58a51.19 51.19 0 0 0 -0.9 6.22c0 0.65 -0.33 0.4 -0.71 0.26 -1.51 -0.55 -3 -0.91 -4.54 -1.49 -2 -0.78 -4.21 -1.36 -6.28 -2 -1.88 -0.58 -3.76 -1.23 -5.7 -1.68 -1.23 -0.2 -1.68 -1 -2.14 -1.95a6.18 6.18 0 0 1 -0.71 -2.72 17.34 17.34 0 0 1 0.78 -4.86c0.26 -0.45 0.52 -0.71 1.1 -0.45 6.78 3.09 2.64 1.09 12.56 5.25Zm-13.86 5.64c11.76 3.24 13.77 4.53 17.55 5.76 0.26 0.07 0.39 0.2 0.52 0.2 1.62 -0.26 1.36 1.1 1.56 2 0.06 0.46 -1 0.84 -1.82 0.65s-1.68 -0.52 -2.52 -0.78c-1.49 -0.45 -3 -0.71 -4.47 -1.29 -2.85 -1.1 -5.89 -1.17 -8.68 -2.27a9.34 9.34 0 0 0 -3.3 -0.78c-0.13 0 -0.46 -0.13 -0.52 0.13s0.2 0.45 0.45 0.52c3.32 0.91 6.67 2.14 10 3 3 0.9 6.15 1.81 9.2 3a0.79 0.79 0 0 1 0.71 0.65 3.68 3.68 0 0 0 -2.2 0.32c-0.65 0.26 -1.43 -0.18 -2.07 -0.39 -2.61 -0.85 -5.46 -1.18 -8.1 -2a0.32256782235 0.32256782235 0 0 0 -0.21 0.61c2.77 1 5.75 1.49 8.57 2.7a26.8 26.8 0 0 1 -3.11 2.33c-0.59 0.32 -1.3 -0.26 -2 -0.39 -2.33 -0.39 -4.53 -1 -6.87 -1.16 -4.23 -0.25 -2.49 -5 -5 -7.52 -0.72 -0.71 -0.52 -3.17 0.06 -4a1.52 1.52 0 0 0 0.26 -0.59c0.13 -0.51 0.13 -1.23 0.52 -1.36s0.95 0.46 1.47 0.61ZM103 164.24a58.27 58.27 0 0 0 -6.15 -0.65 6.17 6.17 0 0 0 1 -3 0.36 0.36 0 0 1 0.46 -0.39c2.85 0.52 5.82 1.1 8.93 1.68 -1 0.91 -1.88 1.69 -2.72 2.53 -0.46 0.59 -0.97 -0.11 -1.52 -0.17m8.94 -3.83c1.55 -0.84 2.85 -2.2 4.66 -2.65 0.39 -0.07 0.78 -0.07 0.84 0.19 0.58 1.82 2.27 2 3.69 2.53 0.33 0.13 0.65 0.26 0.72 0.78 0.12 2.59 0.24 5.14 -1 7.51 -0.5 0.92 -1.54 1.31 -2.33 1.94 -0.51 0.41 -5 2.95 -5.18 2.79 -0.39 -0.33 -0.33 -1.17 -0.46 -1.75a11 11 0 0 0 -6.8 -7.13c1.92 -1.36 3.55 -3.04 5.92 -4.21Zm6.41 11.66a3 3 0 0 1 1.68 -0.06c2.33 0.52 4.6 0.9 6.93 1.36 0.39 0.13 1 0.26 1 -0.26s-0.39 -0.78 -0.84 -0.91a25.23 25.23 0 0 0 -4.54 -1.16c-0.39 -0.06 -1.17 -0.07 -1 -0.52a1.47 1.47 0 0 1 1.29 -0.84 3.18 3.18 0 0 0 0.78 -0.07c0.26 -0.06 0.65 -0.13 0.65 -0.52s-0.33 -0.45 -0.52 -0.52c-0.58 -0.19 -0.71 -0.45 -0.52 -1.1a10.79 10.79 0 0 0 0.13 -2c3.69 0.58 7.25 1.29 10.88 2.07 -3.37 4.27 -3.76 7.71 0.06 11.46 -7.12 -1.1 -14.24 -1.55 -21.11 -3.62a31.19 31.19 0 0 1 5.16 -3.31Zm6.47 -8.35c-1.42 -0.33 -1.87 -0.91 -1.49 -2.27 0.07 -0.39 0.26 -0.26 0.52 -0.19 2.66 1 5.51 1.36 8.23 2.13a4.94 4.94 0 0 0 3.11 0.2c-0.39 -0.84 -1 -1.3 -1.69 -1.17 -3.3 -0.52 -6.47 -1.62 -9.78 -2.26a1.8 1.8 0 0 1 -1 -1.75 10.7 10.7 0 0 0 0.26 -3.18c-0.13 -0.64 0 -0.92 0.77 -0.64 3.53 1.27 7 2.59 10.62 3.69 0.59 0.26 1.31 0.18 1.88 0.45 1.31 0.62 1.88 2.27 1.36 4 -0.39 0.9 -0.77 1.81 -1.16 2.72 -0.07 0.26 -0.26 0.32 -0.65 0.26 -3.66 -0.51 -8.66 -1.71 -10.95 -1.99Zm9.59 -8.23c0 0.71 -0.26 0.84 -0.78 0.58a36.06 36.06 0 0 0 -4.27 -1.48 0.75 0.75 0 0 1 -0.65 -0.85 21.19 21.19 0 0 1 -0.19 -3.56 7.94 7.94 0 0 1 0.26 -2.46c0.12 -0.58 0.32 -0.71 0.9 -0.45a22.41 22.41 0 0 0 4.86 1.75c2.12 0.52 -0.54 0.85 -0.1 6.47Zm1.94 1a1.91 1.91 0 0 1 -0.64 -1.55c0 -2.26 -0.77 -5.38 2.39 -6.61s24.92 -9.06 28.24 -10.49c1.88 -0.78 3.89 -1.29 5.83 -1.94a41.22 41.22 0 0 1 5.18 -1.49c0.58 -0.07 0.91 -0.65 1.42 -0.78a0.48 0.48 0 0 1 -0.13 0.65c-0.9 2.27 -1.68 4.53 -1.16 6.93 0.26 1.16 -0.06 1.25 -0.91 1.68 -3.14 1.62 -6.47 2.46 -9.71 3.69 -7.95 2.94 -20.34 8.38 -28.24 11.08 -1.01 0.23 -1.62 -0.66 -2.24 -1.2Zm43.14 -18.91c0.45 -2.07 0.47 -2.11 2.33 -1.23a14.31 14.31 0 0 1 1.49 0.84c-1.23 0.91 -2.59 1.23 -3.69 2 -0.33 0.26 -0.39 -0.06 -0.39 -0.26 0.09 -0.47 0.22 -0.93 0.29 -1.38Zm-0.39 -5.5c-1.49 0.71 -2.92 0.64 -4.28 1.1 -1.68 0.39 -3.17 1.16 -4.85 1.55 -3.7 0.84 -7 2.79 -10.56 4 -2.14 0.72 -4.28 1.75 -6.35 2.53 -2.59 1 -5.22 1.92 -7.77 3 -2.12 0.88 -4.66 1.42 -6.54 2.72s-3 0.65 -4.53 0.13c-5.36 -1.88 -9.84 -3 -9.78 -3.95s1.17 -4.35 1.7 -4.63c0.32 -0.16 0.79 -0.06 1.66 0.16a49.13 49.13 0 0 0 6.87 0.78 14.92 14.92 0 0 0 4.47 0.19c0.58 -0.06 0.9 0.39 1.29 0.65a3 3 0 0 0 3.63 0.26 46 46 0 0 1 5.38 -2.34c2.39 -0.9 4.66 -1.81 7.05 -2.65 5 -1.75 10 -3.65 15.1 -5.31a4.76 4.76 0 0 1 3.82 0.19c1.19 0.54 2.36 1 3.72 1.59Zm4.79 -16.45c-1 1.75 -0.65 3.36 -0.65 5a4 4 0 0 0 0.52 2.46c0.39 0.78 0.07 0.85 -0.45 1 -2.46 1.23 -5.12 1.75 -7.64 2.66 -4.54 1.62 -9.14 2.91 -13.61 4.72 -8.25 3.29 -11.51 4.24 -18.84 7.71 -0.26 0.13 -0.58 0.25 -0.84 0 -1.59 -1.52 -3.2 -3 -3.7 -5.31 -0.55 -2.6 1 -5.57 2.21 -7.9a2.29 2.29 0 0 1 1.81 -1.23c3.9 -0.75 7.77 -1.81 11.66 -2.53 4.35 -0.78 20.69 -4.49 21.31 -4.66 2.62 -0.72 5.27 -1.31 8.25 -1.95ZM160.73 111c7 1.3 16.94 2.91 19.05 3.24l0 0.13c-1.43 0.38 -2.85 0.71 -4.28 1 -2.23 0.67 -13.13 3.48 -19.23 4.73 -3.63 0.78 -7.13 1.68 -10.76 2.33 -1.36 0.26 -2.91 -0.19 -4.4 -0.26s-3 -1.1 -4.86 -0.84a38.62 38.62 0 0 1 8.75 -7.12c0.35 -0.22 2.56 -0.48 2.72 -0.72 1.29 -1.68 3.3 -1.16 5 -1.42a19 19 0 0 0 5.64 -1.36c0.69 -0.36 1.64 0.14 2.37 0.29M155.49 45a15 15 0 0 0 0.13 -5.63c3.49 2.87 3.82 2.8 3.82 3.37a0.54 0.54 0 0 1 -0.58 0.45c-0.91 -0.07 -1.18 0.57 -1.56 1.23a11.53 11.53 0 0 0 -1.81 5.37c-0.07 2.34 0.52 3.37 2.52 4.41 -1.16 3.88 -4.08 5.57 -8 6.67 1.94 -1.55 2.52 -3.76 3.11 -5.76A91.25 91.25 0 0 0 155.49 45m-19.3 -15.74c3.18 0.43 9.65 1.7 12.43 3.63 1.3 0.84 1.36 0.84 1.82 2.53 -6.87 -1.69 -13.54 -4.34 -21 -4 2.09 -2.29 4.29 -2.42 6.75 -2.16m-17.55 16.84c-2 -3 -0.33 -7.64 1.81 -8.68 0.55 2.67 -1.2 5.19 -1.81 8.68m10.49 12.31c-3.67 -1.12 -5.91 -0.85 -9.39 -5.12 -0.71 -0.84 -0.52 -2.14 -0.26 -3.3 0.65 -2.72 1 -5.57 1.81 -8.29a15.72 15.72 0 0 0 0.46 -2.53 14 14 0 0 1 1.36 -3.24 3.55 3.55 0 0 1 3.56 -2.26c1.75 0 3.37 -0.39 4.4 -0.26a44.29 44.29 0 0 1 13.73 2.4c1.8 0.62 3.76 0.71 5.51 1.49 2.33 1.1 3.43 1.74 3.36 5a38.62 38.62 0 0 1 -1.94 10.62c-1.88 6.83 -4.41 7.94 -8.81 7.71 -1.49 -0.06 -3.1 -0.32 -4.59 -0.52a62.42 62.42 0 0 1 -9.2 -1.7M137 63.78a2.8 2.8 0 0 1 -0.2 3.76 1 1 0 0 1 -1.16 0.26 4 4 0 0 1 -2.53 -2.46c1.78 0.52 2.75 -0.71 3.89 -1.56m-14.12 4.34a21.66 21.66 0 0 1 6.18 -2.12c1.75 -0.46 2.92 -0.65 3.83 1.42a3.33 3.33 0 0 0 4 1.81c1.62 -0.45 2.07 -1.81 2.33 -3.1 0.19 -1 0.71 -1.12 1.36 -1 4.29 0.54 8.61 1 12.63 2.91a6.43 6.43 0 0 1 3.36 4.21 86.05 86.05 0 0 1 2.47 10 43.85 43.85 0 0 1 1.29 10.94c-0.19 3.11 -0.06 6.29 -0.06 9.46a32 32 0 0 0 -0.13 3.56A1.76 1.76 0 0 1 159 108c-1.36 0.59 -2.6 1.6 -4.08 1.82s-3.18 0.32 -4.73 0.52c-0.46 0.06 -0.64 -0.2 -0.84 -0.59 -1.12 -2.1 -3.11 -3 -4.86 -2.26A29.1 29.1 0 0 0 139 109.9c-0.19 0.19 -0.45 0 -0.64 -0.07 -2.79 -0.84 -5.44 -1.62 -8.16 -2.39 -0.33 -0.07 -0.39 -0.26 -0.46 -0.52s-0.26 -0.46 -0.45 -0.58c-1.56 -0.85 -1.56 -0.85 -1.56 -2.79a41.68 41.68 0 0 0 0 -5.7c0 -1.91 -1.25 -2.91 0.2 -3.43 2 -0.78 3.67 -2.19 5.57 -3.18a57.42 57.42 0 0 0 8.68 -5.95c1.42 -1.17 2.72 -2.46 4.08 -3.76 0.32 -0.32 0.33 -0.33 0.77 -0.07a3.18 3.18 0 0 0 3.18 -0.12c2.39 -1.23 4.08 -4.86 2.33 -7.65a6.72 6.72 0 0 0 -2.4 -2.59c-3 -1.66 -6.78 0.66 -6 4.67 0.07 0.51 -0.13 0.71 -0.38 1.1 -2.14 2.39 -4.93 4 -7.45 6s-5.44 2.91 -8 4.59c-0.52 0.39 -1.16 0.66 -1.75 1 -0.83 0.53 -1 0.06 -1.1 -0.65a25.13 25.13 0 0 0 -2.27 -8.22c-1 -2.33 -1.49 -4.86 -2.4 -7.26 -0.6 -1.49 0.28 -3.15 2.06 -4.21Zm25.77 7.52c-0.77 -0.85 -1.55 -1.69 -3 -1.49 1 -1.82 2.33 -2.14 4.08 -1.43 1.36 0.65 2.53 3.18 2.07 4.47 -0.71 1.94 -2.07 3 -3.75 2.59 0.38 -0.39 1.42 0.2 1.42 -0.84s0 -2.4 -0.85 -3.3Zm-29.47 -5.06a10.88 10.88 0 0 0 1.24 5.25c-2.24 -1.42 -2.56 -2.53 -1.27 -5.25Zm-12.46 15.87a36.88 36.88 0 0 0 5.63 -4.53c2 -1.94 4 -4 4.73 -7 1.11 0.8 1.58 2 2.89 2.24a33.16 33.16 0 0 1 -2.18 3.33c-2.18 2.15 -4.08 4.47 -6.6 6.29 -1.23 0.84 -2.72 1.23 -4 1.94 -0.32 0.06 -0.39 0 -0.45 -0.2 -0.14 -0.45 -0.45 -0.84 -0.58 -1.36s0.3 -0.58 0.56 -0.71m-3.89 0.07c0.46 -0.33 0.78 0.19 1 0.39 1.55 1 1.55 2.85 2.59 4.4 -1 -0.13 -1.81 -0.58 -2.65 -0.65a0.35 0.35 0 0 1 -0.39 -0.26c-0.31 -0.85 -0.78 -1.75 -1 -2.65a1 1 0 0 1 0.45 -1.23m-38.14 -21.33c3.09 -0.22 6 -0.42 9 -0.82 4 -0.52 8 -0.2 11.85 -0.78 1 -0.13 2.27 0.13 3.37 0.06 1.49 -0.12 2.85 -0.09 4.27 -0.12 1.17 0 1.17 0 1.56 1.29a30.74 30.74 0 0 1 -4.28 -0.26c-5.18 -0.24 -8.29 0.84 -12.37 1.23a53.61 53.61 0 0 1 -7.9 0.46c-1.42 -0.06 -4.37 0 -5.55 -0.16a0.45069390945 0.45069390945 0 0 1 0.05 -0.9m-4.6 -0.31a1.91 1.91 0 0 1 1.35 0.43 0.44 0.44 0 0 1 -0.14 0.8 1.23 1.23 0 0 1 -1.47 -0.45c-0.17 -0.22 -0.83 -0.78 0.26 -0.78m-7.64 -4.14c0.06 -0.26 0.32 -0.19 0.45 -0.19 0.65 0.06 1 0.65 1.49 0.9 1.47 0.81 3 1.49 4.53 2.27 0.26 0.13 0.65 0.13 0.39 0.65 -0.19 0.32 -0.39 0.51 -0.84 0.26a8.55 8.55 0 0 1 -1.23 -0.78 21.86 21.86 0 0 0 -4.34 -2.46c-0.32 -0.13 -0.52 -0.26 -0.45 -0.65m6.15 24.09c-0.26 -0.64 -0.52 -1.23 -0.07 -1.81a0.69 0.69 0 0 1 0.59 -0.45c0.39 0 0.39 0.32 0.52 0.51a21.27 21.27 0 0 1 1.29 3 2.6 2.6 0 0 1 -2.33 -1.25m3.82 6.54c-0.72 -0.17 -1.75 -0.19 -1.75 -1.36a8.06 8.06 0 0 1 0.33 -1.1 1 1 0 0 1 0.71 -0.71c0.45 -0.06 0.39 0.45 0.52 0.71 0.26 0.65 0.51 1.23 0.77 1.88s0 0.73 -0.58 0.58m0.84 1.75c0.07 -0.26 0.13 -0.52 0.46 -0.52 0.5 0 0.25 0.33 1.36 2.72 -1.49 -0.38 -2.01 -1.16 -1.82 -2.2m5.9 7.58c-0.13 -0.06 -0.13 -0.32 -0.2 -0.45a48.58 48.58 0 0 0 -3.63 -8.55c-2.33 -4.79 -4.27 -9.85 -6.28 -14.77 -0.84 -2 -1.81 -3.88 -2.65 -5.89a32.15 32.15 0 0 1 -1.3 -3.24c-0.68 -1.74 -1.81 -3.11 -2.72 -4.92 2.85 1.29 5.12 2.91 7.58 4.21a1.21 1.21 0 0 1 0.65 0.84c1.1 3.37 2.39 6.61 3.39 9.91 1.29 4.47 2.91 8.87 4.27 13.34a23.47 23.47 0 0 0 2.53 6.41 29.86 29.86 0 0 1 1.68 3.63 4.56 4.56 0 0 0 1.49 2 0.94 0.94 0 0 1 0.39 0.9c-1.9 -0.76 -3.26 -2.58 -5.2 -3.42m6.73 2.59c-2 -2.27 -2.52 -5.24 -3.75 -7.84s-1.88 -5.18 -2.79 -7.7c-0.91 -2.33 -1.29 -4.8 -2.46 -6.93 -1 -1.88 -1.36 -4.15 -2.07 -6.16s-1.56 -4 -2.27 -5.89c-0.26 -0.71 -0.19 -0.91 0.58 -0.84s1.23 0.26 1.36 0.91c0.33 1.87 1.43 3.49 2.08 5.31 0.77 2.13 1.68 4.27 2.33 6.41a47.45 47.45 0 0 0 2.59 7.19c1 2.07 1.36 4.34 2.26 6.41 1.36 3.24 2.34 6.73 3.83 10 -1.04 0.3 -1.3 -0.29 -1.69 -0.87m14.44 -0.58a1.84 1.84 0 0 0 0.07 2.59c0.19 0.13 0.45 0.26 0.45 0.65 -1.29 -0.26 -2.65 -0.54 -3.95 -0.72 -1.68 -0.22 -3.3 -0.45 -5 -0.58 -0.84 -0.06 -1.68 -0.19 -2.52 -0.26 -0.65 -0.06 -1.1 -0.78 -1.3 -1.42 -1 -2.59 -1.81 -5.18 -2.91 -7.77 -0.78 -1.88 -1.23 -4 -2 -5.83 -0.91 -2.14 -1.88 -4.28 -2.59 -6.54 -0.45 -1.56 -1 -3.18 -1.55 -4.67 -2.72 -7.61 -4 -8.08 -4.15 -10l7.58 0c11.88 -0.46 9.71 -1.79 21.5 -1.49a1.83 1.83 0 0 1 2 1.88c0.06 2.65 1.23 5 2 7.57 2.5 7.92 4.34 8.18 2.85 10.37 -0.63 0.92 -0.07 2.13 0.39 3.24a2.14 2.14 0 0 1 0.45 1.42c-1.65 -2.04 -3.22 -4.15 -5.65 -5.35a4.55 4.55 0 0 0 -2.79 -0.38c-1 0.17 -1.58 1.76 -0.9 2.91a27.89 27.89 0 0 0 1.88 3.11 9.1 9.1 0 0 0 2.52 2.46 19.61 19.61 0 0 0 -3.11 -0.78 5.34 5.34 0 0 0 -4.27 0.65 2 2 0 0 0 -0.84 1.75c0 1.17 5 3.5 7.51 3.82a11.36 11.36 0 0 1 -2.33 0.71 7.52 7.52 0 0 0 -3.34 2.66m3.57 -15c-0.13 -0.33 -0.33 -0.78 0.06 -0.78 2.8 0.37 4.49 2.48 6.48 4.47 0.32 0.26 0.58 0.58 -0.07 0.84a1.2 1.2 0 0 0 -0.39 0.39c-0.51 1.36 -1 0.71 -1.81 0.19a11 11 0 0 1 -4.27 -5.07Zm4.08 10c-0.2 0.19 -0.26 0.19 -0.46 0.13a13.4 13.4 0 0 1 -6.93 -2.79 2.94 2.94 0 0 1 2.14 -0.65 11.37 11.37 0 0 1 4.73 1.36 1.54 1.54 0 0 1 0.54 2.03Zm-4.08 6.47c-0.72 0.2 -1.56 0.33 -2 -0.19s0.53 -0.9 0.91 -1.36a7.22 7.22 0 0 1 4.39 -1.63c0.58 -0.13 0.84 0.13 1.1 0.71s-3.06 2.36 -4.4 2.55Zm6.41 1a47.3 47.3 0 0 0 -4 2.79 10 10 0 0 1 2.59 -3.69c0.66 -0.57 1.1 -0.33 1.49 0.45 0.05 0.27 0.05 0.44 -0.08 0.5Zm6.35 -0.45c-1.71 0.8 -3 0.78 -4.41 -0.65 -0.91 -0.84 -2.11 -1.56 -2.4 -2.78 -0.58 -2.48 -0.58 -4.92 1.17 -7s3.11 -2.46 4.92 -1.68a6.35 6.35 0 0 1 1.69 1.17c0.51 0.51 0.84 1 0 1.68a4.2 4.2 0 0 0 -0.46 5.7 3.06 3.06 0 0 0 2.08 1.1 5.21 5.21 0 0 1 -2.59 2.51ZM111 99.15c-0.32 0.51 -0.06 1.49 -1.23 1.36a1.84 1.84 0 0 1 -1.49 -2.72c0.65 -1.56 1.11 -1.62 2.14 -0.39 0.07 0.06 0.13 0.19 0.2 0.19 1.38 0.2 0.63 1.04 0.38 1.56m0.2 -3.24a3.15 3.15 0 0 0 -2 -1.23c-0.06 -0.07 -0.26 -0.2 -0.26 -0.26 -0.26 -1.3 -1.29 -2.33 -1.36 -3.69 -0.06 -0.39 0 -0.52 0.46 -0.59a9.45 9.45 0 0 0 4.59 -2.33 31.69 31.69 0 0 0 6.09 -6.73 13.68 13.68 0 0 0 1.74 -3.69c1.08 0.88 1.4 2.34 1.82 3.36a36.17 36.17 0 0 1 1.8 5.25c0.13 0.91 0.32 1.81 0.52 2.72a0.9 0.9 0 0 1 -0.59 1c-2.59 1.29 -5.11 2.65 -7.7 3.82a23 23 0 0 0 -4.54 2.33 0.48 0.48 0 0 1 -0.58 0.04Zm11.59 -1.1c-2.33 0.9 -4.34 2.33 -6.73 2.91 -0.91 0.2 -1.88 0.45 -2.72 0.65 -0.26 -0.07 -0.65 0.13 -0.78 -0.45 -0.07 -0.39 0.19 -0.59 0.58 -0.78 2.27 -1.23 4.6 -2.07 6.87 -3.24 6 -2.94 15.15 -8 20.46 -12.05a35.34 35.34 0 0 0 5.76 -5.85c0.32 -0.45 0.52 -0.52 0.9 0 1 1.3 0.78 2.46 -0.71 3.69A57.84 57.84 0 0 1 141.05 84a80.84 80.84 0 0 1 -8.88 5.89c-3.11 1.68 -6.09 3.69 -9.39 4.92Zm2.53 12.63a2.44 2.44 0 0 1 3 1c-3.5 0.41 -6.24 1.8 -9.2 3.11a67.52 67.52 0 0 0 -9.13 5.57 47.8 47.8 0 0 0 -5.83 5.64 26.88 26.88 0 0 0 -4 5c-2.25 3.84 -5.47 9.46 -6 14.32 -0.11 1 -0.52 1.81 -0.65 2.72a19 19 0 0 0 -0.19 6.93c0.06 0.51 -0.07 0.58 -0.58 0.45 -1 -0.26 -1 -1.17 -1.17 -1.94 -1.41 -5.75 1.15 -11.88 3 -17.23a1.84 1.84 0 0 1 0.26 -0.45c1.42 -1.88 2 -4.15 3.17 -6.16a35.73 35.73 0 0 1 6.41 -8.22c2.85 -2.85 6.35 -4.8 9.72 -6.8 4.03 -2.38 9.05 -3.17 11.18 -3.94ZM91 137.42a5.59 5.59 0 0 1 0.58 -3.82 0.68 0.68 0 0 1 0.91 -0.39c0.45 0.2 0 0.52 -0.06 0.78 -0.43 1.1 -0.93 2.27 -1.43 3.43m3.37 -7.58a7.44 7.44 0 0 1 -1.19 -3.84c-0.27 -2.14 0.31 -4.07 0.72 -6.08 0.47 -2.31 1.36 -1.79 7.32 -1.17a39.5 39.5 0 0 0 -6.87 11.09Zm14.57 -17a45.32 45.32 0 0 0 -4.86 3.63 2.71 2.71 0 0 1 -2.91 0.65 20.2 20.2 0 0 0 -6 -0.52c-1.23 -0.07 -2.39 -0.2 -3.56 -0.26a0.77 0.77 0 0 1 -0.07 -0.39c5.92 -0.55 11.46 -2.88 17.38 -3.14ZM84.76 121a16.2 16.2 0 0 1 1.36 -3.31c0.62 -0.92 0.22 -0.49 6.42 0.26 0.64 0.08 1.16 0 0.71 1.17 -1.68 4.35 -2.08 8.4 0.39 12.3a40 40 0 0 1 -5.77 -0.45 2.34 2.34 0 0 1 -2 -1.17c-0.59 -1.1 -1.62 -1.87 -2 -3.17 -0.6 -2.03 0.31 -3.78 0.89 -5.63m0.59 19.3a3.66 3.66 0 0 1 -2.14 -3 7.93 7.93 0 0 1 0.71 -4.21 1.79 1.79 0 0 1 2.46 -1 23.76 23.76 0 0 0 4.47 1.1 9 9 0 0 0 -0.9 6.67 6.23 6.23 0 0 1 -0.07 1.1c0 0.52 -0.39 0.65 -0.65 0.46 -1.16 -0.69 -2.65 -0.5 -3.88 -1.08Zm1.65 2.89c0.07 -0.07 0.13 -0.13 0.2 -0.13 2 -0.13 2.52 0.39 2.52 2.39a21.08 21.08 0 0 0 0.45 5.64c0.07 0.26 0.07 0.65 -0.19 0.65 -0.71 0 -1.23 0.58 -1.94 0.71 0.42 -3.18 0.8 -6.35 -1.04 -9.26m-5.7 17.74a35.7 35.7 0 0 1 5.12 -5.24 17.26 17.26 0 0 1 4.08 -2.79c0.19 -0.06 0.52 -0.45 0.78 0.07 0.51 1 1.49 1.16 2.52 1.23 0.2 0 0.52 -0.2 0.65 0.26 0 0.15 1.13 4.28 1.17 4.34 0.71 1.61 -0.13 2.91 -0.85 4.21a11 11 0 0 1 -2.26 2.59 31.45 31.45 0 0 1 -4.08 3.56c-0.51 0.33 -0.85 0.32 -0.91 -0.39a9.43 9.43 0 0 0 -2.14 -4.47 6 6 0 0 0 -3.66 -2.3c-1.04 -0.23 -0.84 -0.48 -0.39 -1.07Zm4.21 10.43c-2.39 1.49 -4.92 3 -7.9 3.24 -1.29 0.09 -2.1 -1.17 -1.81 -2.66a33.37 33.37 0 0 1 1.81 -6.15 16.23 16.23 0 0 1 2.33 -3.3c0.26 -0.33 0.65 -0.13 1 -0.07 2.85 0.78 4.4 2.87 5.24 5.64 0.06 0.19 0.13 0.45 0.2 0.64a1.93 1.93 0 0 1 -0.84 2.66Zm12.7 12.11c-1.56 -0.45 -3.18 -0.78 -4.67 -1.23 -1.16 -0.26 -2.33 -0.52 -3.56 -0.71a2.56 2.56 0 0 1 -1.88 -1.23 8.28 8.28 0 0 1 -1.68 -4.41 9.05 9.05 0 0 1 1.42 -3.82c0.91 -1.16 2.14 -0.84 3 -0.58 5.27 1.58 7.25 0.66 6.41 2.2 -0.84 1.81 -1.1 3.56 0.84 4.86a0.9 0.9 0 0 1 0.26 0.84A6.11 6.11 0 0 0 99 183c0.27 0.67 -0.31 0.54 -0.76 0.47Zm0.51 -9.13c1.74 -2.62 3.57 -5.31 5.57 -7.84a2.17 2.17 0 0 1 3.37 -0.06c1.56 1.49 3.11 2.85 3.82 4.92 0.2 0.84 0.33 1.62 0.59 2.4a0.4 0.4 0 0 1 -0.2 0.51 30.46 30.46 0 0 1 -8.68 3.63c-0.25 0.07 -0.64 0 -0.9 0.07a7.11 7.11 0 0 1 -2.53 -0.52c-0.88 -0.13 -1.57 -2.26 -1.01 -3.11Zm3.11 10.23a2.14 2.14 0 0 1 -1.88 -1.75c-0.38 -1.67 -1.23 -3.43 0.2 -3 4.59 1.27 8.13 -2.09 10.81 -2.92 0.78 -0.25 1.75 0.26 2.53 0.52a110.92 110.92 0 0 0 11.27 2.4c-1.43 1.16 -1.55 2.85 -2 4.73 -0.45 1.68 0 3.24 0.2 4.92 -6.96 -1.64 -16.23 -4.1 -21.1 -4.9Zm38.73 8.68a91.06 91.06 0 0 1 -13.27 -3 5 5 0 0 1 -2.08 -0.78c-1.81 -1.29 -1.46 -3.17 -1.36 -4.92a8.86 8.86 0 0 1 1.69 -4.73c0.19 -0.25 0.58 -0.13 0.84 -0.06a96.34 96.34 0 0 0 9.58 1.49c1.3 0.06 1.3 -0.2 1.23 -1.49s-0.71 -1.49 -1.42 -2a5.34 5.34 0 0 1 -1.43 -7.58l0.07 -0.06c0.84 -2.72 3.24 -3.24 5.57 -3.89 1.15 -0.29 20.33 -7.84 26.36 -10.42 2.52 -1.17 5.12 -2.08 7.64 -3.11 3.11 -1.3 6.22 -2.59 9.46 -3.63a1.7 1.7 0 0 1 0.9 -0.19 4.73 4.73 0 0 0 0.39 6.54c0.46 0.52 0 0.64 -0.26 0.77 -4.47 1.69 -8.8 4 -13.21 6 -14.23 6.4 -16.15 8.48 -22.15 10.69 -3.61 1.31 -6.22 3.76 -10.81 6.35 -0.33 0.19 -0.52 0.39 -0.39 0.64s0.39 0.27 0.77 0.13a34.75 34.75 0 0 0 5.77 -3.17 41.14 41.14 0 0 1 7.64 -3.63c3 -1 5.51 -2.72 8.29 -4.08 16.5 -7.79 12.86 -5.88 18.72 -8.48a2.31 2.31 0 0 1 2.26 0.26c2.27 1.1 4.6 1.75 6.93 2.65 0.13 0.13 0.33 0.2 0.59 0.39 -2.9 1.31 -32.2 13.3 -35.11 14.31a30.52 30.52 0 0 0 -6.8 3.24 2.3 2.3 0 0 1 -2.46 0.26 49.25 49.25 0 0 0 -6 -1c-0.32 0 -0.71 -0.07 -0.77 0.45s0.26 0.58 0.65 0.65c1.36 0.39 2.72 0.71 4.08 1.1 1.66 0.21 -1.38 1.11 -1.56 8.48a3.18 3.18 0 0 0 0.26 1.17c0.52 0.78 0.01 0.72 -0.58 0.65Zm2.07 -0.71c-0.64 -1.69 -0.06 -3.24 0.2 -4.67a10.45 10.45 0 0 1 1.17 -3.17c0.13 -0.26 0.13 -0.71 0.59 -0.65s0.84 0.13 1 0.59a1.73 1.73 0 0 1 0.07 1.42 34.93 34.93 0 0 1 -3 6.48Zm46.51 -20.27c-2.61 0.71 -4.86 2.46 -7.45 3.3 -4.41 1.42 -8.55 3.63 -12.83 5.37 -3.69 1.49 -7.25 3 -10.88 4.67a117.66 117.66 0 0 0 -11.85 5.63 5.42 5.42 0 0 1 -1 0.46c0.84 -1.82 1.42 -3.44 2 -4.93s-0.26 -2.52 -0.9 -3.69c14.83 -6 29.66 -11.59 44.3 -17.81 0.26 0.52 -0.07 0.84 -0.2 1.23 -0.58 1.69 -1.36 3.37 -0.77 5.25 0.06 0.32 -0.14 0.45 -0.39 0.52Z" fill="#ffffff" stroke-width="0.5"></path>
        <path d="M11.26 47.92A6.68 6.68 0 0 1 12 38c1.36 -0.91 1.23 -0.91 0.19 -2.27a15.73 15.73 0 0 1 -2.91 -4.47c-0.2 -0.65 -0.58 -1.29 0.19 -1.88s1.36 -0.13 2 0.2a10.83 10.83 0 0 1 4.27 4.27 4.48 4.48 0 0 0 0.45 0.59c0 -1.11 0.07 -2 0 -3a11.88 11.88 0 0 1 1.3 -6 1.22 1.22 0 0 1 1.16 -0.91 1.52 1.52 0 0 1 1.23 1.1 10.72 10.72 0 0 1 0.2 3.82l0 3.31c1.29 -1.49 2.33 -3.11 4.08 -3.89a2.06 2.06 0 0 1 3 1.81c0 3.27 -2.89 5.57 -3.19 6.2 -0.14 0.3 0 0.57 1.12 0.8 0.26 0.06 0.52 0.71 0.71 1.16A7.53 7.53 0 0 1 25 47c-0.07 0.06 -0.07 0.19 -0.13 0.39 1.16 0.06 2.13 0.13 3.23 0.13a1 1 0 0 0 1.11 -0.91c0.51 -3 2.13 -12.43 2.46 -14.12 0.78 -3.67 0.21 -2.86 1.81 -9.58 0.52 -2.4 1 -4.73 1.49 -7.19a7.51 7.51 0 0 0 0.39 -2.07c-0.07 -0.46 0.58 -0.72 1.1 -0.72 7.18 0.25 5.76 0.54 6.86 0.47 0.55 0 0.57 -0.38 0.52 -1.44a32.3 32.3 0 0 0 -0.45 -4.21c0.13 -0.78 0.32 -1.29 0.45 -1.88a1.08 1.08 0 0 1 1.23 -0.77c2.79 0.84 5.7 0.51 8.55 0.64 4.21 0.2 8.36 0.39 12.57 0.78 2 0.2 3.95 0 6 0.07 1.55 0 3.17 0.06 4.72 0.13a1.27 1.27 0 0 1 1.3 1.74c-0.23 0.92 -0.45 17.91 -0.45 18 0 6.51 -1.14 14.84 -0.59 19.17 0.07 0.58 -0.52 1.36 0.07 1.75 0.45 0.19 1.16 -0.07 1.75 -0.07a48.55 48.55 0 0 1 6 0.26c0.78 0.26 1.36 1.56 1.23 3.11a2.46 2.46 0 0 1 -1.65 2.32 1 1 0 0 0 -0.91 0.65 12 12 0 0 1 -2.59 3.1c-0.71 0.65 -1.36 0.39 -1.42 -0.64a16.07 16.07 0 0 1 -0.2 -1.82c0.07 -1.36 -0.71 -1.49 -1.68 -1.29 -2.66 0.52 -5.31 -0.13 -8 0 -3.24 0.19 -6.48 -0.13 -9.65 -0.26 -4.41 -0.2 -8.74 0.06 -13 0 -7.54 -0.17 -26.64 0.77 -33.81 -0.2 -0.45 -0.06 -0.84 -0.06 -1.1 0.46a17.65 17.65 0 0 1 -2.91 3.3 0.84 0.84 0 0 1 -1.49 -0.19c-0.71 -1.35 0.19 -3.11 -0.96 -4.89 -0.58 -0.84 0.13 -1.88 0.13 -2.79 0 -0.38 0.45 -0.45 0.71 -0.45 1.23 0.13 2.46 0.45 3.57 -0.06m19.3 -0.72c0.1 0 8.48 -0.43 19.23 0.13a1 1 0 0 0 1.1 -0.84c0.45 -2.68 0.46 -1.29 4.73 -18.39 0.84 -3.43 2.33 -6.87 3 -10.36a19 19 0 0 1 0.71 -2c0.13 -0.26 0.39 -0.52 0.65 -0.39s0.26 0.39 0.19 0.65c-0.19 0.77 -0.38 1.49 -0.58 2.33 -0.58 2 -0.58 2 1.49 2.27a1.65 1.65 0 0 1 0.58 0.19 0.57 0.57 0 0 0 0.72 -0.39c0.58 -1.23 0.45 -2.59 1.1 -3.82 0.19 -0.39 -0.2 -0.39 -0.46 -0.45 -2.22 -0.64 -2.91 -1.51 -3.43 -1.17a8.42 8.42 0 0 1 -4.59 0.44c-3 -0.19 -5.9 -0.45 -8.88 -0.38S40.55 14.11 37.7 13.85c-1.29 -0.06 -1.29 0.52 -1.36 1.23 -0.19 1.94 -0.58 3.82 -0.84 5.76 -0.58 4 -1.68 7.84 -2.26 11.86 -0.94 4.72 -1.58 9.65 -2.68 14.5m25.9 -33.41A26.3 26.3 0 0 1 63 14.56c1.17 0.2 1.36 0.65 1.17 1.69 -0.26 1.49 -0.52 3.11 -0.84 4.59 -0.72 2.66 -1.23 5.32 -1.88 8 -0.52 1.94 -1.17 3.82 -1.49 5.76 -0.78 3.89 -1.68 7.71 -2.53 11.59 -0.19 1.1 0.13 1.69 1.23 1.36 0.48 -0.16 10.46 0.06 10.56 0.07 0.26 0 0.26 0 0.39 -0.26a10.89 10.89 0 0 0 0.26 -2.46c-0.45 -3.89 0 -7.71 0.06 -11.6 0 -2.65 0.13 -5.24 0.2 -7.9 0.13 -5.18 0.06 -10.36 0.26 -15.48 0.06 -0.9 -0.26 -1.23 -1.23 -1.23 -2.72 -0.06 -5.51 -0.13 -8.16 -0.45a88.5 88.5 0 0 0 -9.33 -0.58 20.26 20.26 0 0 1 -5.25 -0.46c-1.1 -0.19 -1.36 0 -1.23 1.17a14.58 14.58 0 0 1 0.13 4.47c-0.26 0.52 0 0.52 0.46 0.52a24.67 24.67 0 0 1 3.1 0c2.79 0.43 5.51 -0.16 7.58 0.43m-19.1 37.43c2.13 0 4.34 0.13 6.47 0.13 20.44 0 25.19 0.39 25.78 0.32 1.55 -0.13 3.11 0.2 4.66 0.13a22.61 22.61 0 0 1 3.56 -0.13 49.49 49.49 0 0 0 5.32 -0.06c1.36 0 2.65 -2.62 -1.88 -2.2 -3.44 0.26 -6.87 -0.2 -10.3 -0.13 -0.1 0 -52.85 -0.26 -54.92 -0.13s-4.21 0.26 -6.28 0.26a2.53 2.53 0 0 0 -1.69 0.26 1 1 0 0 0 -0.19 1.23 1.19 1.19 0 0 0 1.16 0.77c1.69 0 3.37 -0.19 5.06 -0.06 3.1 0.19 6.15 0 9.19 0.19 2.53 0.08 13.94 -0.58 14.06 -0.58M23.63 45.91a5.43 5.43 0 0 0 0.58 -6.28 1 1 0 0 0 -0.65 -0.52c-1.29 -0.07 -2.52 -0.26 -3.82 -0.39 -1.88 -0.19 -3.76 0.06 -5.63 -0.19a1.53 1.53 0 0 0 -1.3 0.19 6.23 6.23 0 0 0 -1.75 5.63 2.72 2.72 0 0 0 1.56 2.34c5.78 1.71 9.07 0.91 11.01 -0.78m49.8 -28c-1.94 0 -2 0 -1.94 1.94 0 3.76 -0.07 7.45 -0.2 11.21 -0.13 2.39 0.2 4.66 -0.13 7.06 -0.06 0.52 0.07 1.16 1.1 1.1s1.95 -0.2 2.92 -0.2c0.45 0 0.65 -0.13 0.71 -0.58a24 24 0 0 0 0.2 -3c-0.13 -2.79 0.38 -5.64 0.38 -8.42 0 -1.25 0.8 -8.06 0.07 -8.55a4.11 4.11 0 0 0 -3.11 -0.54Zm3.3 -8.61c0.07 -0.52 -0.26 -0.59 -0.64 -0.59a12.07 12.07 0 0 1 -3.44 -0.51c-0.51 -0.13 -0.77 0 -0.77 0.64a70.14 70.14 0 0 1 -0.2 7.39c-0.06 0.45 0 0.58 0.65 0.51 1.23 -0.06 2.4 -0.51 3.63 -0.19 0.84 0.26 1.16 -0.26 1.16 -1.1a34.18 34.18 0 0 1 -0.39 -6.13ZM60 29.26c0.06 -0.26 0.06 -0.51 -0.26 -0.58 -0.78 -0.19 -1.68 -0.45 -2.46 -0.58 -0.26 -0.07 -0.39 0 -0.45 0.26 -0.39 2.52 -1.23 5 -1.75 7.57 -0.46 2.14 -0.46 2.08 1.68 2.53 0.84 0.2 1.17 -0.06 1.17 -0.84a26.92 26.92 0 0 1 0.9 -4c0.35 -1.44 0.78 -2.87 1.17 -4.36m11.2 18.4a15.82 15.82 0 0 1 3.57 -0.13c0.9 0.06 1.16 -0.46 1 -1.17 -0.26 -1.88 0.07 -3.69 -0.06 -5.57a11.45 11.45 0 0 1 -3.37 -0.19c-1.1 -0.2 -1.17 0 -1.17 1.1 0 1.49 0.46 3 0.07 4.53a2.16 2.16 0 0 0 -0.08 1.43ZM20.45 37.1a1.68 1.68 0 0 0 1.75 -0.52 18 18 0 0 0 2.92 -3.69 2.82 2.82 0 0 0 0.64 -2c-0.13 -0.71 -0.39 -0.9 -1.1 -0.58a8.21 8.21 0 0 0 -2.46 2.27c-0.84 1.1 -1.23 2.46 -2.07 3.56 -0.2 0.26 -0.45 0.58 -0.26 0.84s0.52 0.12 0.58 0.12m-9.71 -6a9.38 9.38 0 0 0 0.77 1.81c0.91 1.17 1.82 2.4 2.6 3.63 0.64 1 1 1.16 2.26 0.58 -1.88 -1.96 -2.65 -5.07 -5.63 -6.04Zm7.45 5.63c0.9 -3.17 0.58 -6.41 0.51 -9.58 -1.7 3.09 -0.84 6.32 -0.51 9.56ZM52.25 47.2a11.83 11.83 0 0 0 2.66 0c0.77 -0.06 0.71 -0.51 0.84 -1.1 0.13 -0.77 -0.52 -0.58 -0.78 -0.71s-0.58 -0.06 -0.84 -0.13c-1.42 -0.39 -1.49 -0.26 -1.68 1.1a4.58 4.58 0 0 1 -0.2 0.84m3.75 -3.1c0.19 0 0.19 -0.13 0.26 -0.26 0.26 -1.1 0.58 -2.14 0.84 -3.31a0.38 0.38 0 0 0 -0.26 -0.51 0.42 0.42 0 0 0 -0.58 0.25 13.67 13.67 0 0 0 -0.78 3.18c-0.05 0.39 0.33 0.45 0.52 0.65m26.36 9.45a6.87 6.87 0 0 1 -1.3 -0.13c-0.39 0 -0.84 -0.06 -0.9 0.46a1.18 1.18 0 0 0 0.51 1.29c0.26 0.13 0.65 -0.26 0.85 -0.58a12.77 12.77 0 0 0 0.85 -1.04Zm-21.25 -30.72a11.63 11.63 0 0 1 -1 3.33c-0.07 0.19 -0.52 0.51 -0.13 0.71s0.58 -0.07 0.71 -0.46c0.26 -1 0.76 -2 0.95 -3.13 0.21 -0.72 -0.43 -0.79 -0.53 -0.45M10.28 53.42a4.36 4.36 0 0 0 -1.28 -0.13c-0.24 0 -0.34 0.11 -0.38 0.21s-0.28 1.19 0.06 1.41 1.43 -1.23 1.6 -1.49" fill="#ffffff" stroke-width="0.5"></path>
        <path d="M178.29 156.2c0 0.46 -0.39 0.52 -0.65 0.65a53 53 0 0 1 -7.58 3.37c-2.27 0.91 -4.34 1.94 -6.54 2.91 -1.43 0.59 -3 1.17 -4.4 1.75a2.53 2.53 0 0 0 -1.24 0.65 0.4 0.4 0 0 1 -0.71 -0.06c-0.13 -0.26 0 -0.46 0.26 -0.59 1.49 -0.71 3 -1.42 4.47 -2.07 3.68 -1.53 4.86 -2.42 9.52 -4.21 6.45 -2.76 4.87 -2.48 6.09 -2.78 0.58 -0.26 0.78 -0.07 0.78 0.38" fill="#ffffff" stroke-width="0.5"></path>
        <path d="M150.89 164.88c2.59 -1.29 5.31 -2.13 8 -3.37 1.56 -0.71 3.11 -1.55 4.73 -2.26 0.58 -0.2 1.49 -0.91 1.88 -0.2s-0.78 0.78 -1.36 1c-8.94 4.33 -7.21 3 -12.81 5.54 -1.49 0.71 -1.2 -0.29 -0.44 -0.71" fill="#ffffff" stroke-width="0.5"></path>
        <path d="M148.15 167.09c-0.47 0.3 -0.72 -0.29 -0.3 -0.5s0.82 -0.79 1.47 -0.91 1.16 0.17 0.44 0.66 -1.16 0.47 -1.61 0.75" fill="#ffffff" stroke-width="0.5"></path>
        <path d="M141.5 54.46a61.7 61.7 0 0 1 -8.1 -1.36 48.84 48.84 0 0 1 -5.83 -1.88 4.55 4.55 0 0 1 -2.57 -3.56c-0.19 -0.91 1.36 -2.14 2.34 -1.88a25.85 25.85 0 0 0 5.82 0.78 41.19 41.19 0 0 1 7.45 1.36c0.91 0.19 1.88 0.39 2.79 0.64a3.59 3.59 0 0 1 2.72 2.08c0.65 1.36 0.45 2.46 -1 3a9 9 0 0 1 -3.62 0.82m-6.74 -2.79c0.78 0.13 1.56 0.72 2.46 0.52 0.07 0 0.07 -0.19 0.07 -0.26a7.75 7.75 0 0 1 0.45 -3c-0.84 -0.19 -1.75 -0.45 -2.59 -0.64 -0.06 0 -0.13 -0.07 -0.19 -0.07 -0.52 -0.06 -0.84 -0.06 -0.71 0.65 0.11 0.39 0.22 2.75 0.51 2.8m-1.68 -3c0.23 -1.2 -0.88 -0.79 -1.43 -1 -1.42 -0.19 -1.42 -0.19 -1.55 1.3 0 0.19 -0.06 0.45 -0.06 0.65s-0.13 0.38 0.19 0.51c4.67 1.61 2.35 1.17 2.85 -1.44Zm7.77 4c0.39 0.13 0.45 -0.13 0.45 -0.52l0 -0.84c0 -0.52 0.59 -1 0.07 -1.36s-1 -0.26 -1.49 -0.52c-0.19 -0.06 -0.45 -0.13 -0.58 -0.19a0.16 0.16 0 0 0 -0.26 0.13l0 2.91c0 0.07 0.19 0.19 0.26 0.19a12.12 12.12 0 0 0 1.55 0.24Zm-12.5 -5.64c-2.26 0 -1.09 2.32 -0.06 2.21 0.38 0.06 1.81 -2.17 0.06 -2.17Zm14.9 5.64c0.65 0 1.55 -0.13 1.55 -0.84s-0.71 -1.36 -1.42 -1.43 -0.66 2.31 -0.13 2.31Z" fill="#ffffff" stroke-width="0.5"></path>
        <path d="M132.24 39a3.68 3.68 0 0 1 -3.43 3.18c-2.14 0 -4 -1.3 -4.09 -2.92 -0.06 -2.59 2.53 -4.27 4.47 -4.34s3.05 1.6 3.05 4.08m-3.43 -2.33a2.65 2.65 0 0 0 -2.47 2.4c-0.06 0.71 1 1.68 2 1.75s2.27 -0.78 2.33 -1.56c0.21 -1.51 -0.57 -2.48 -1.86 -2.55Z" fill="#ffffff" stroke-width="0.5"></path>
        <path d="M149.72 41.25c0.2 1.74 -1.1 2.59 -2.26 3.1a3.39 3.39 0 0 1 -3.76 -0.51C142.6 43 142 42 142.41 40.6c0.99 -3.14 7.59 -4.25 7.31 0.65m-1.55 -0.07c0 -1.36 -0.65 -1.94 -2 -1.94a2.54 2.54 0 0 0 -2.26 2.07c0 0.58 1.55 1.81 2.33 1.81a1.89 1.89 0 0 0 1.93 -1.94" fill="#ffffff" stroke-width="0.5"></path>
        <path d="M149.53 129.72c-0.26 -0.2 -0.78 0.06 -0.84 -0.46 -0.07 -0.26 0.26 -0.39 0.52 -0.45A87 87 0 0 0 158.4 126a57.63 57.63 0 0 1 6.61 -1.55c2.91 -0.65 5.76 -1.49 8.74 -2.14 0.52 -0.13 1.36 -0.71 1.69 0.2s-0.65 0.9 -1.36 1.16c-5.06 1.3 -10.17 2.14 -15.22 3.56 -2.92 0.78 -5.7 1.82 -8.75 2.4a4.71 4.71 0 0 0 -0.58 0.09" fill="#ffffff" stroke-width="0.5"></path>
        <path d="M160.35 130a1 1 0 0 1 -0.91 0.91c-3.3 0.25 -6.28 1.81 -9.46 2.52 -2 0.52 -4 1 -6.08 1.49 -0.2 0.07 -0.52 0.2 -0.65 -0.06s0.26 -0.39 0.52 -0.46c1.81 -0.64 11.07 -3.75 13.79 -4.6 0.58 -0.19 1.17 -0.25 1.75 -0.45 0.45 0.17 0.97 0.17 1.04 0.65" fill="#ffffff" stroke-width="0.5"></path>
        <path d="M172.85 142a20.67 20.67 0 0 1 -4.28 1.74c-2.65 0.78 -5.31 1.75 -8.09 2.53 -1.56 0.45 -3.18 1.1 -4.67 1.68 -0.26 0.13 -0.64 0.39 -0.84 0s0.2 -0.51 0.58 -0.64c2.46 -1.1 5 -2 7.52 -3 2.91 -1.1 5.82 -1.88 8.54 -3.18 0.46 -0.19 0.91 -0.26 1.43 -0.45 0.46 -0.02 1.18 0.45 -0.19 1.32" fill="#ffffff" stroke-width="0.5"></path>
        <path d="M147.85 146.94a60.85 60.85 0 0 0 8.35 -3 33.58 33.58 0 0 1 3.63 -1c0.39 -0.07 1 -0.26 1.16 0.45s-0.39 0.78 -0.77 0.91c-1.82 0.65 -3.76 0.77 -5.57 1.55 -2.13 1 -4.41 1.29 -6.62 2 -2.85 0.86 -0.86 -0.72 -0.18 -0.91" fill="#ffffff" stroke-width="0.5"></path>
        <path d="M177.7 174.66a1.67 1.67 0 0 1 -1.1 0.91 17.17 17.17 0 0 1 -4.27 1.68 40 40 0 0 0 -5.51 2.08c-1.36 0.51 -2.72 0.84 -4.08 1.42a29 29 0 0 1 -4.86 1.94 23.83 23.83 0 0 0 -3.75 1.36c-0.2 0.07 -0.52 0.26 -0.58 -0.13s-0.07 -0.51 0.19 -0.64c1 -0.3 12.21 -5.34 23.06 -9.07 0.64 -0.13 0.84 -0.07 0.9 0.45" fill="#ffffff" stroke-width="0.5"></path>
      </g>
    </g>
  </g>
</svg>