<svg viewBox="0 0 200 200" xmlns="http://www.w3.org/2000/svg" id="Be-Patient-2--Streamline-Free-Illustrations" height="200" width="200">
  <desc>
    Be Patient 2 Streamline Illustration: https://streamlinehq.com
  </desc>
  <g>
    <path d="M54.782 156.2s-10.693 2.95 -3.7 9.195c9.368 8.362 66.915 6.379 66.915 6.379s27.232 0.7 29.255 -9.106c0 0 -2.507 -8.139 -8.226 -7.039s-15.354 3.959 -15.354 3.959 7.432 6.572 -8.623 4.135c-10.648 -1.616 -44.7 -3.871 -44.7 -3.871s-12.488 -2.252 -15.567 -3.652" fill="#ffffff" stroke-width="0.5"></path>
    <path d="M108.19 66.538c0.349 3.258 0.7 4.008 0.924 5.763a1.636 1.636 0 0 1 -2.728 1.5c-0.308 -0.308 -0.836 0.088 -0.572 0.44 0.924 1.452 3.085 1.939 4.048 0.22a3.955 3.955 0 0 0 0.22 -2.6c-0.29 -1.806 -0.725 -3.646 -1.188 -5.411 -0.094 -0.35 -0.747 -0.308 -0.704 0.088" fill="#ffffff" stroke-width="0.5"></path>
    <path d="M109.554 68.122c1.265 1.243 3.871 1.056 4.487 -0.792 0.132 -0.4 -0.351 -0.571 -0.616 -0.352a3.824 3.824 0 0 1 -1.452 0.968 2.869 2.869 0 0 1 -2.023 -0.308c-0.308 -0.176 -0.662 0.222 -0.396 0.484" fill="#ffffff" stroke-width="0.5"></path>
    <path d="M100.007 68.826c1.175 1.471 3.7 1.98 5.059 0.44 0.22 -0.22 0 -0.748 -0.352 -0.572a3.774 3.774 0 0 1 -4.223 -0.352c-0.303 -0.227 -0.698 0.215 -0.484 0.484" fill="#ffffff" stroke-width="0.5"></path>
    <path d="M109.774 64.514c1.023 -1.045 2.464 -0.746 3.695 -1.319a0.829 0.829 0 0 0 -0.176 -1.5 4.78 4.78 0 0 0 -2.771 0.352 3.5 3.5 0 0 0 -1.892 1.584 0.727 0.727 0 0 0 1.144 0.883" fill="#ffffff" stroke-width="0.5"></path>
    <path d="M105.11 64.338a4.845 4.845 0 0 0 -5.5 1.1c-0.4 0.484 -0.049 1.528 0.7 1.232a15.5 15.5 0 0 1 2.112 -0.792 14.083 14.083 0 0 1 2.331 -0.132 0.762 0.762 0 0 0 0.357 -1.408" fill="#ffffff" stroke-width="0.5"></path>
    <path d="M101.987 77.361a3.55 3.55 0 0 0 3.651 1.1c0.309 -0.131 0.22 -0.659 -0.088 -0.747 -0.528 -0.088 -1.054 -0.049 -1.583 -0.176a5.951 5.951 0 0 1 -1.54 -0.748c-0.394 -0.225 -0.696 0.256 -0.44 0.571" fill="#ffffff" stroke-width="0.5"></path>
    <path d="M97.06 6.839a24.411 24.411 0 0 0 0.659 12.761 0.39 0.39 0 1 0 0.748 -0.22c-0.749 -4.231 -1.363 -8.051 -0.748 -12.362 0.088 -0.399 -0.576 -0.618 -0.659 -0.179" fill="#ffffff" stroke-width="0.5"></path>
    <path d="M93.848 5.255a22.306 22.306 0 0 0 0.7 14.606c0.222 0.571 1.1 0.306 0.88 -0.264a22.183 22.183 0 0 1 -0.924 -14.166 0.342 0.342 0 1 0 -0.656 -0.176" fill="#ffffff" stroke-width="0.5"></path>
    <path d="M90.592 11.458a20.645 20.645 0 0 0 2.816 11.7 0.455 0.455 0 0 0 0.792 -0.44 25.414 25.414 0 0 1 -2.86 -11.262c0 -0.482 -0.704 -0.438 -0.748 0.002" fill="#ffffff" stroke-width="0.5"></path>
    <path d="M92.484 25.756c-13.916 6.268 -32.935 15.926 -40.826 29.564 -8.242 14.245 0.215 30.362 11.7 39.814a56.2 56.2 0 0 0 22.042 11.043 0.55 0.55 0 0 0 0.308 -1.056c-13.75 -3.591 -26.658 -12.143 -33.214 -25.033 -3.827 -7.523 -4.417 -16.155 -0.308 -23.712 7.5 -13.8 26.613 -23.3 40.606 -30.048 0.44 -0.128 0.087 -0.75 -0.308 -0.572" fill="#ffffff" stroke-width="0.5"></path>
    <path d="M108.322 7.235a41.294 41.294 0 0 1 1.936 12.8 0.462 0.462 0 1 0 0.924 0 30.88 30.88 0 0 0 -2.2 -13.066 0.357 0.357 0 0 0 -0.66 0.266" fill="#ffffff" stroke-width="0.5"></path>
    <path d="M112.413 8.862a39.734 39.734 0 0 1 0.4 10.471c-0.037 0.484 0.751 0.572 0.836 0.132a25.746 25.746 0 0 0 -0.484 -10.779c-0.092 -0.528 -0.84 -0.307 -0.752 0.176" fill="#ffffff" stroke-width="0.5"></path>
    <path d="M116.329 13.922a25.371 25.371 0 0 1 -0.572 7.215c-0.361 1.669 -1.8 4.089 -1.408 5.763 0.315 1.362 1.984 1.973 3.036 2.639 12.841 8.129 33.766 22.752 32.379 37.923 -1.262 13.8 -17.8 26.764 -30.708 32.028 -0.658 0.268 -0.349 1.369 0.308 1.1 12.317 -5.045 25.905 -14.784 30.356 -27.936 6.012 -17.76 -14.473 -32.706 -30.18 -42.982 -2.616 -1.711 -2.9 -1.652 -3.519 -3.167 -0.7 -1.715 -0.227 -1.16 0.528 -4.752a28.829 28.829 0 0 0 0.484 -7.874 0.353 0.353 0 0 0 -0.704 0.043" fill="#ffffff" stroke-width="0.5"></path>
    <path d="M100.623 9.566a0.481 0.481 0 0 0 -0.924 0.264c1.234 5.763 2.994 11.88 -0.572 17.158C96.094 31.477 91.3 35 87.381 38.646c-7.518 7.006 -15.381 14.303 -20.954 23.068a4.644 4.644 0 0 0 -4.343 -1.114c-0.309 0.082 -0.264 0.738 0.133 0.7a5.526 5.526 0 0 1 2.155 0.22 5.17 5.17 0 0 1 1.293 0.753 0.363 0.363 0 0 0 -0.017 0.215c2.875 14.112 12.337 24.089 20.325 26.712a0.488 0.488 0 0 0 0.4 -0.88c-5.188 -2.822 -9.676 -5.809 -13.242 -10.646a42.8 42.8 0 0 1 -6.722 -14.926 0.416 0.416 0 0 0 0.343 -0.164c7.1 -9.59 15.394 -17.734 24.152 -25.781 3.738 -3.433 8.535 -6.951 10.471 -11.79s0.71 -10.627 -0.752 -15.447" fill="#ffffff" stroke-width="0.5"></path>
    <path d="M140.261 59.015a4.371 4.371 0 0 0 -3.986 1.252A277.222 277.222 0 0 1 115.009 37.15c-3.426 -4.271 -6.8 -8.494 -8.095 -13.946 -1.261 -5.326 -0.7 -10.6 -0.792 -16.013 -0.007 -0.44 -0.759 -0.618 -0.836 -0.133a44.126 44.126 0 0 0 0.352 15.31c1.061 5.191 3.736 9.286 6.951 13.418 6.968 8.956 14.726 17.922 23.419 25.322 -1.508 2.315 -2.783 4.817 -4.281 7.146a37.513 37.513 0 0 1 -5.852 6.555c-3.311 3.2 -6.467 6.555 -9.766 9.723 -0.308 0.4 0.22 0.923 0.528 0.572 3.475 -3.256 6.775 -6.687 10.25 -9.987a54.179 54.179 0 0 0 10.295 -14.21 0.5 0.5 0 0 0 0.039 -0.095 4.955 4.955 0 0 1 3.04 -1.049c0.396 -0.05 0.353 -0.663 0 -0.748" fill="#ffffff" stroke-width="0.5"></path>
    <path d="M104.978 132.089c0 -0.973 -1.187 -0.975 -1.187 0 -0.091 0.792 1.187 0.792 1.187 0" fill="#ffffff" stroke-width="0.5"></path>
    <path d="M126.271 65a6.552 6.552 0 0 0 -3.035 0.44c-0.352 0.132 -0.572 -0.44 -0.264 -0.615a6.724 6.724 0 0 1 3.343 -0.836 5.6 5.6 0 0 1 0.4 -0.7 4.267 4.267 0 0 0 -2.683 -5.983 8.539 8.539 0 0 0 0.352 -3.476 2.975 2.975 0 0 0 -2.2 -2.464c-0.792 -0.132 -1.865 0.142 -2.244 -0.572a1.831 1.831 0 0 1 -0.132 -0.836 3.975 3.975 0 0 0 -4.839 -3.475 3.189 3.189 0 0 0 -0.748 2.112 0.36 0.36 0 0 1 -0.7 0.088 3.8 3.8 0 0 1 0.88 -3.036c-0.472 -2.831 -3.667 -4.562 -7.435 -2.991a4.487 4.487 0 0 0 -3.827 -3.608 5.393 5.393 0 0 0 -4.883 2.244A5.211 5.211 0 0 0 90.2 46.741a6.5 6.5 0 0 1 2.111 3.036c0.124 0.354 -0.434 0.569 -0.572 0.263A5.984 5.984 0 0 0 88 46.829c-5.485 -0.288 -8.584 3.676 -8.095 7.039a4.805 4.805 0 0 0 -3.875 6.732c-1.759 0.748 -3.651 1.76 -4.355 3.563 -0.7 1.892 0.132 4.048 1.188 5.764 0.924 1.54 2.244 3.123 4 3.519a9.912 9.912 0 0 1 2.816 -1.408c0.306 -0.094 0.572 0.352 0.308 0.528 -1.71 1.33 -2.59 1.445 -3.212 2.376a5.391 5.391 0 0 0 2.64 4.927 8.6 8.6 0 0 0 7.215 0.22 5.3 5.3 0 0 0 9 3.254c0.16 2.023 0.269 4.053 0.288 6.117 0 0.7 1.128 0.7 1.1 0 -0.186 -4.587 -0.048 -9.384 -1.313 -13.828 0.279 -0.372 0 -1.046 -0.535 -0.866 -1.5 0.528 -3.828 -0.176 -3.916 -2.067a2.836 2.836 0 0 1 3.036 -2.685 0.355 0.355 0 0 0 0.176 -0.659 2.277 2.277 0 0 0 -0.586 -0.19 1.287 1.287 0 0 0 0.19 -0.6 9.995 9.995 0 0 1 1.76 -4.707 3.086 3.086 0 0 1 2.727 -1.144 1.222 1.222 0 0 0 1.362 -1.014 2.952 2.952 0 0 1 3.916 -2.068 0.95 0.95 0 0 0 1.231 -0.616 2.731 2.731 0 0 1 3.432 -1.848 1.265 1.265 0 0 0 1.54 -0.7 2.113 2.113 0 0 1 3.343 -1.056c1.1 0.835 1.144 2.2 1.408 3.431 1.423 6.106 3.163 12.956 0.22 18.566a11.519 11.519 0 0 1 -15.178 4.883c-0.435 -0.229 -0.748 0.352 -0.4 0.66a9.051 9.051 0 0 0 6.139 1.729 40.8 40.8 0 0 0 0.68 5.662 0.614 0.614 0 0 0 0.572 0.571c0.88 0.045 1.815 0.276 2.508 -0.395a0.478 0.478 0 0 0 -0.484 -0.792 5.346 5.346 0 0 1 -1.551 0.1 34.5 34.5 0 0 0 -0.822 -5.243 13.494 13.494 0 0 0 9.565 -6.67 5.632 5.632 0 0 0 5.7 -5.123 3.816 3.816 0 0 0 4.531 -2.067 6.776 6.776 0 0 0 0.044 -5.324c0.046 -0.05 0.002 -0.226 -0.042 -0.4m-39.638 -6.425a0.312 0.312 0 0 1 0.22 -0.572 3.556 3.556 0 0 0 4.883 -2.111c0.132 -0.352 0.713 -0.308 0.7 0.088 -0.062 2.949 -3.588 3.793 -5.803 2.595m17.949 -12.142c-1.671 0.22 -3.519 1.188 -3.255 3.167 0.044 0.352 -0.484 0.4 -0.572 0.089 -0.572 -2.288 1.672 -3.872 3.784 -3.872 0.307 0 0.396 0.572 0.043 0.616" fill="#ffffff" stroke-width="0.5"></path>
    <path d="M121.96 112.952c-0.044 -0.616 -0.617 -0.429 -1.232 -0.484 -2.864 -0.257 -5.464 -9.634 -5.763 -11.879a102.412 102.412 0 0 1 -0.836 -13.462 0.677 0.677 0 0 0 -1.188 -0.44 10.017 10.017 0 0 0 -1.451 4 20.269 20.269 0 0 1 -4.928 9.326 5.121 5.121 0 0 1 -2.551 1.54c-2.508 0.571 -3.733 -1.236 -4.752 -2.9 -1.267 -2.074 -2.558 -4.088 -3.827 -6.16 -1.455 -2.373 -2.216 -3.255 -4.928 -3.255a0.668 0.668 0 0 0 -0.615 0.88c2.375 6.511 1.19 24.46 -3.388 24.548 -0.484 0.01 -0.929 2.934 0.528 3.168 6.315 1.012 12.757 2.276 19.093 1.584 5.322 -0.582 10.236 -0.826 14.914 -2.816a1.344 1.344 0 0 0 0.836 -1.32Zm-12.582 -12.539c-2.5 1.859 -4.006 5.55 -7.743 4.092 -3.258 -1.271 -5.319 -5.884 -7.171 -8.579 -0.214 -0.312 0.309 -0.617 0.528 -0.308 1.77 2.5 3.477 6.157 6.2 7.7 3.961 2.24 5.046 -2.051 7.831 -3.52a0.355052813 0.355052813 0 0 1 0.355 0.615" fill="#ffffff" stroke-width="0.5"></path>
    <path d="M86.677 111.632a36.736 36.736 0 0 0 -0.572 -5.983c-0.1 -0.571 -1.01 -0.353 -0.88 0.264 0.4 1.89 0.611 3.832 0.836 5.763 0.039 0.309 0.616 0.352 0.616 -0.044" fill="#ffffff" stroke-width="0.5"></path>
    <path d="M119.54 107.32a67.237 67.237 0 0 0 0.132 -7.083c0 -0.615 -1.011 -0.616 -0.968 0 0.044 2.376 -0.028 4.754 0.176 7.083a0.33 0.33 0 1 0 0.66 0" fill="#ffffff" stroke-width="0.5"></path>
    <path d="M188.347 159.409a0.4 0.4 0 0 0 0 -0.792 27.316 27.316 0 0 1 -4 -0.616 12.878 12.878 0 0 0 -0.812 -4.206 12.144 12.144 0 0 0 4.025 0.115 0.374 0.374 0 0 0 0 -0.748c-1.452 -0.044 -2.905 -0.176 -4.357 -0.176a14.749 14.749 0 0 0 -1.559 -2.668 41.258 41.258 0 0 0 4.42 0.072c0.484 0 0.485 -0.756 0 -0.792a35.435 35.435 0 0 0 -4.619 -0.087 0.434 0.434 0 0 0 -0.288 0.175 18.059 18.059 0 0 0 -2.073 -2.151c1 -0.139 2 -0.3 2.977 -0.532 0.4 -0.088 0.351 -0.792 -0.089 -0.748a35.061 35.061 0 0 0 -3.656 0.633 25.832 25.832 0 0 0 -3.458 -2.316 25.422 25.422 0 0 0 2.759 -0.649c0.484 -0.132 0.263 -0.8 -0.22 -0.748a21.987 21.987 0 0 0 -3.655 0.794c0.1 0 -1.988 -0.969 -3.407 -1.53a24.087 24.087 0 0 0 4.687 -1.948 0.336 0.336 0 0 0 -0.264 -0.615 30.153 30.153 0 0 0 -5.4 2.19c-1.976 -0.73 -2.5 -0.822 -2.4 -0.822a49.579 49.579 0 0 0 4.765 -2.38 0.39 0.39 0 0 0 -0.308 -0.7 23.42 23.42 0 0 0 -3.854 1.828 5.062 5.062 0 0 0 -0.721 -5.435c-2.2 -2.552 -5.72 -3.96 -8.887 -4.8 -6.6 -1.672 -13.506 -1.187 -20.149 -0.044a122.419 122.419 0 0 0 -20.916 5.465c1.117 -1.493 1.032 -3.543 1.251 -5.333a65.238 65.238 0 0 0 0.659 -9.723 0.44 0.44 0 0 0 -0.879 0 98.508 98.508 0 0 1 -0.836 11.395 6.734 6.734 0 0 1 -0.528 2.64c-1.1 2.067 -3.52 2.376 -5.631 2.551a103.9 103.9 0 0 1 -16.234 -0.175c-0.044 0 -2.2 -0.045 -2.2 0 -0.4 -0.309 -0.484 -2.376 -0.572 -2.86 -0.836 -4.092 -1.715 -8.183 -2.243 -12.363 -0.088 -0.308 -0.7 -0.352 -0.66 0.088 0.589 4.97 1.582 9.9 2.592 14.751 -10.822 -3.588 -22.429 -5.048 -33.74 -6.084 -4.971 -0.484 -10.426 -1.232 -15.178 0.836a10.079 10.079 0 0 0 -5.726 13.063 39.308 39.308 0 0 0 -4.359 1.63 0.394 0.394 0 0 0 -0.3 -0.263 35.781 35.781 0 0 1 -3.476 -1.408c-0.308 -0.176 -0.616 0.352 -0.352 0.616a8.336 8.336 0 0 0 3.071 1.538c-1.118 0.534 -2.22 1.122 -3.294 1.761 -1.582 -0.22 -3.121 -0.616 -4.7 -0.923a0.369 0.369 0 0 0 -0.22 0.7 15.915 15.915 0 0 0 3.725 0.964 36.142 36.142 0 0 0 -4.768 3.659 27.4 27.4 0 0 0 -4.456 -0.443c-0.4 -0.044 -0.531 0.626 -0.088 0.748a23.167 23.167 0 0 0 3.661 0.533 26.141 26.141 0 0 0 -3.756 4.563c-1.346 -0.177 -2.65 -0.478 -4 -0.609 -0.44 -0.087 -0.483 0.572 -0.088 0.748a15.185 15.185 0 0 0 3.584 0.736 13.5 13.5 0 0 0 -1.324 3.694c-0.152 0 0.225 0 -4.239 0.8a0.38 0.38 0 0 0 0.088 0.748 17.107 17.107 0 0 0 4 -0.629 12.145 12.145 0 0 0 0.32 4.584 19.908 19.908 0 0 0 -4.324 0.357c-0.352 0.044 -0.264 0.616 0.088 0.66a23.006 23.006 0 0 0 2.463 -0.044 10.981 10.981 0 0 0 2.016 -0.17 13.3 13.3 0 0 0 1.917 3.632 27.629 27.629 0 0 0 -3.845 1.2c-0.4 0.176 -0.264 0.792 0.176 0.66a31.975 31.975 0 0 0 4.221 -1.16 15.855 15.855 0 0 0 2.093 2.064c-1.049 0.915 -2.163 1.823 -3.278 2.659 -0.352 0.265 -0.044 0.88 0.352 0.617a31.183 31.183 0 0 0 3.626 -2.731 21.5 21.5 0 0 0 2.9 1.794 13.832 13.832 0 0 0 -3.141 3.532c-0.264 0.44 0.4 0.792 0.66 0.4a15.361 15.361 0 0 1 3.259 -3.541c0.769 0.366 1.555 0.7 2.353 1a20.852 20.852 0 0 0 -1.344 3.639c-0.132 0.44 0.439 0.7 0.615 0.308a23.422 23.422 0 0 0 1.438 -3.685c0.979 0.353 1.972 0.67 2.965 0.965a3.66 3.66 0 0 0 -0.487 1.4c-0.176 0.7 -0.352 1.364 -0.484 2.068 -0.088 0.527 0.616 0.7 0.748 0.264a33.9 33.9 0 0 1 1.038 -3.494q1.673 0.474 3.359 0.914c-0.2 0.45 -0.325 0.955 -0.482 1.392 -0.234 0.654 -0.4 1.364 -0.572 2.024 -0.044 0.395 0.572 0.571 0.7 0.175a30.571 30.571 0 0 0 1.189 -3.375q1.68 0.431 3.369 0.83c-0.147 0.657 -0.267 1.311 -0.422 1.93 -0.176 0.747 -0.44 1.451 -0.572 2.2a0.334 0.334 0 0 0 0.616 0.22 10.824 10.824 0 0 0 1.193 -4.157q2.3 0.537 4.6 1.036a46.344 46.344 0 0 0 -1.219 4.529 0.343 0.343 0 0 0 0.66 0.176c0.5 -1.5 0.959 -3 1.343 -4.536 0 0 1.893 0.405 2.832 0.6a13.717 13.717 0 0 0 -1.007 3.541 0.4530565638 0.4530565638 0 1 0 0.879 0.22 34.437 34.437 0 0 1 1 -3.583q1.9 0.385 3.8 0.744a37.624 37.624 0 0 0 -1.273 3.815c-0.176 0.572 0.66 0.792 0.88 0.22a33.658 33.658 0 0 0 1.246 -3.87q2.16 0.4 4.324 0.767a27.4 27.4 0 0 0 -1.127 3.763 0.4322314195 0.4322314195 0 0 0 0.836 0.22 24.938 24.938 0 0 0 1.066 -3.852q2.094 0.35 4.193 0.669a22.125 22.125 0 0 0 -1.475 4.59c-0.044 0.44 0.527 0.749 0.747 0.309a21.973 21.973 0 0 0 1.515 -4.781q1.9 0.284 3.8 0.543a22.149 22.149 0 0 0 -0.872 3.973c-0.044 0.484 0.66 0.484 0.792 0.088a20.988 20.988 0 0 0 0.881 -3.953q1.818 0.243 3.635 0.464a45.3 45.3 0 0 0 -0.953 4.458c-0.088 0.483 0.616 0.7 0.748 0.219a43.567 43.567 0 0 0 0.97 -4.585c0.278 0.033 2.4 0.27 3.187 0.352a15.8 15.8 0 0 0 -0.593 2.561c-0.088 0.44 0.527 0.748 0.748 0.309a8.524 8.524 0 0 0 0.724 -2.78q1.85 0.186 3.7 0.347a17.786 17.786 0 0 0 -0.906 4.192c-0.044 0.484 0.7 0.572 0.836 0.132 0.375 -1.374 0.671 -2.828 0.962 -4.247q1.528 0.128 3.057 0.239a7.5 7.5 0 0 1 -0.412 2.425 0.408 0.408 0 0 0 0.748 0.307 5.179 5.179 0 0 0 0.506 -2.672q1.429 0.1 2.859 0.184a26.65 26.65 0 0 1 -1.253 3.632 0.455 0.455 0 1 0 0.836 0.352 18.477 18.477 0 0 0 1.267 -3.935q1.63 0.093 3.262 0.165a24.178 24.178 0 0 0 -0.438 4.562c0 0.4 0.7 0.527 0.748 0.088 0.186 -1.556 0.305 -3.1 0.515 -4.615q1.94 0.081 3.879 0.133c-0.035 1.221 -0.235 2.474 -0.214 3.69a0.36 0.36 0 0 0 0.7 0.088 15.8 15.8 0 0 0 0.309 -3.757q2.38 0.057 4.761 0.075c-0.3 1.051 -0.688 2.1 -0.89 3.154 -0.088 0.44 0.528 0.748 0.748 0.308a15.955 15.955 0 0 0 1.042 -3.458q1.63 0.006 3.262 -0.007a22.132 22.132 0 0 0 -0.477 3.333 0.4 0.4 0 0 0 0.792 0.088c0.229 -1.133 0.383 -2.3 0.508 -3.429q1.248 -0.013 2.5 -0.04a37.972 37.972 0 0 0 -0.629 4c-0.036 0.441 0.66 0.528 0.792 0.088a32.216 32.216 0 0 0 0.723 -4.1q1.968 -0.047 3.937 -0.122c-0.091 1.615 -0.437 3.272 -0.437 4.886 0 0.44 0.7 0.572 0.792 0.088a27.275 27.275 0 0 0 0.481 -5.008q2.008 -0.082 4.017 -0.195a8.137 8.137 0 0 0 0.165 2.3 0.357 0.357 0 0 0 0.7 -0.087c0.019 -0.756 0.043 -1.509 0.016 -2.264q1.356 -0.081 2.711 -0.176c0.126 1.8 0.1 3.591 0.265 5.387a0.419 0.419 0 0 0 0.836 0 23.536 23.536 0 0 0 -0.307 -5.444q1.709 -0.124 3.415 -0.271a24.468 24.468 0 0 0 0.235 2.592c0.088 0.439 0.7 0.307 0.748 -0.089a11.3 11.3 0 0 0 -0.168 -2.574q1.94 -0.173 3.875 -0.373a20.808 20.808 0 0 0 0.56 5.015c0.132 0.44 0.825 0.353 0.792 -0.088 -0.124 -1.68 -0.393 -3.327 -0.614 -5.005q1.767 -0.19 3.545 -0.411a8.925 8.925 0 0 0 0.545 2.865c0.132 0.352 0.748 0.352 0.7 -0.088a18.928 18.928 0 0 0 -0.414 -2.883q1.289 -0.166 2.578 -0.354a14.259 14.259 0 0 1 1.927 4.468c0.132 0.572 1.012 0.352 0.88 -0.264a11.242 11.242 0 0 0 -1.919 -4.335q1.9 -0.288 3.789 -0.628a31.823 31.823 0 0 1 1.913 4c0.176 0.4 0.74 0.09 0.66 -0.264a11.333 11.333 0 0 0 -1.766 -3.881q1.95 -0.366 3.885 -0.8c0.672 1.429 1.35 2.854 2.149 4.2a0.344 0.344 0 0 0 0.616 -0.264 21.039 21.039 0 0 0 -1.95 -4.124q1.761 -0.414 3.5 -0.9a30.987 30.987 0 0 0 1.88 2.953 0.38587562765 0.38587562765 0 0 0 0.66 -0.4 13.763 13.763 0 0 0 -1.748 -2.782q1.879 -0.543 3.724 -1.18c0.447 1.169 0.829 2.406 1.368 3.566 0.176 0.44 0.791 0.088 0.7 -0.308a13.267 13.267 0 0 0 -1.371 -3.5q1.521 -0.544 3.011 -1.161a11.942 11.942 0 0 0 2.011 3.169 0.364 0.364 0 0 0 0.572 -0.44c-0.552 -1.025 -1.246 -2.016 -1.859 -3.034q1.756 -0.754 3.46 -1.62a7.388 7.388 0 0 0 1.831 3.027 0.4 0.4 0 0 0 0.615 -0.484 19.33 19.33 0 0 1 -1.662 -2.95q1.715 -0.909 3.363 -1.944a15.782 15.782 0 0 0 2.7 2.694c0.352 0.264 0.66 -0.264 0.4 -0.528 -0.764 -0.917 -1.661 -1.7 -2.489 -2.554q1.947 -1.267 3.784 -2.733a7.1 7.1 0 0 0 2.444 1.768c0.4 0.176 0.572 -0.44 0.264 -0.616a18.488 18.488 0 0 1 -2.135 -1.617c1.227 -1.015 2.393 -2.1 3.054 -2.774a6.135 6.135 0 0 0 3.217 1.927 0.39 0.39 0 0 0 0.22 -0.748 6.568 6.568 0 0 1 -2.907 -1.74 21.556 21.556 0 0 0 1.791 -2.252 10.049 10.049 0 0 0 2.743 1.485c0.4 0.131 0.616 -0.484 0.264 -0.661 -0.872 -0.455 -1.745 -0.91 -2.59 -1.45a20.828 20.828 0 0 0 1.216 -2.168c1.428 0.607 2.9 1.252 4.41 1.727 0.4 0.132 0.66 -0.484 0.308 -0.7a38.713 38.713 0 0 0 -4.394 -1.727c0.234 -0.536 0.443 -1.082 0.625 -1.634a23.3 23.3 0 0 1 4.605 0.37 0.378 0.378 0 0 0 0.176 -0.7 9.134 9.134 0 0 0 -4.528 -0.5 15.66 15.66 0 0 0 0.566 -3.682 10.317 10.317 0 0 0 4.016 0.595m-147.116 -26.44c4.356 -3.036 10.031 -2.42 15.046 -1.98a205.462 205.462 0 0 1 35.767 6.111 126.068 126.068 0 0 0 14.606 0.66c2.468 -0.067 5.872 0.176 8.314 -1.025 11.206 -3.473 23.245 -7.509 35.152 -6.938 5.367 0.264 21.117 2.9 15.53 11.4 -3.036 4.575 -8.535 7.479 -13.374 9.678 -10.336 4.725 -22.8 6.521 -24.02 7.069a14.235 14.235 0 0 0 -3.426 0.134c-5.351 -4.107 -12 -6.844 -18.5 -9.094 8.94 -3.735 14.379 -7.187 32.965 -10.647 0.484 -0.088 0.265 -0.782 -0.176 -0.7a135.247 135.247 0 0 0 -19.4 4.575c-4.958 1.682 -10.338 3.576 -14.9 6.259a182.923 182.923 0 0 0 -38.9 -8.766c-0.44 -0.044 -0.442 0.715 0.044 0.791 18.311 2.883 42.468 7.933 57.853 18.3a3.232 3.232 0 0 0 -0.4 0.617 6.749 6.749 0 0 0 -1.237 4.53c-12.915 -1.825 -28.345 -3.1 -41.481 -3.826 -11.126 -0.7 -16.832 -0.033 -30.092 -5.939 -4.223 -1.848 -8.623 -3.96 -11.262 -7.875 -2.948 -4.359 -2.64 -10.166 1.891 -13.334m22.481 32.159a3.332 3.332 0 0 0 1.672 0.748 33.39 33.39 0 0 0 25.132 -4.035c29.087 2.106 32.314 3.9 33.072 3.3 4.049 1.729 8.268 2.435 12.45 3.329 4.531 0.968 9.5 1.319 13.594 -0.924a3.547 3.547 0 0 0 1.32 -1.1 2.682 2.682 0 0 0 -0.264 -2.948 7.025 7.025 0 0 0 -2.508 -1.847c-4.675 -2.3 -9.94 -2.933 -15.154 -3.362a88 88 0 0 0 24.939 -8.961c5.722 4.292 6.5 8.27 3.985 13.819a23.089 23.089 0 0 1 -9.986 10.206c-9.283 5.191 -20.193 5.587 -30.576 5.807 -22.613 0.484 -45.577 0.968 -67.662 -4.531 -5.587 -1.408 -12.143 -2.948 -15.222 -8.359a9.884 9.884 0 0 1 -0.836 -8.535c1.09 -2.789 3.389 -4.5 5.785 -6.114 4.818 3.238 14.08 6.687 19.72 7.961a4.964 4.964 0 0 0 0.539 5.546m114.208 5.455c-4.883 4.928 -11.658 8.8 -18.081 11.307 -7.611 2.947 -15.75 4.268 -23.845 5.191a273.32 273.32 0 0 1 -102.9 -7.655c-4.532 -1.231 -9.239 -2.727 -12.715 -6.071 -3.3 -3.123 -5.059 -7.611 -3.651 -12.054a14.633 14.633 0 0 1 1.251 -2.793 0.382 0.382 0 0 0 0.158 -0.269c3.589 -5.982 12.17 -11.5 19.031 -13.718a15.728 15.728 0 0 0 5.77 6.746c-3.536 2.262 -6.592 5.134 -6.721 9.638 -0.132 4.795 3.124 8.886 7.127 11.13 5.236 2.9 11.7 3.959 17.554 5.1 19.188 3.732 39.589 3.446 59.3 2.992 11.351 -0.264 23.537 -0.484 33.524 -6.731 4.531 -2.816 8.49 -7.083 9.942 -12.362a9.225 9.225 0 0 0 -0.176 -6.6 15.517 15.517 0 0 0 -4.727 -5.578 24.773 24.773 0 0 0 7.716 -6.851c6.049 1.951 12.968 5.154 15.8 11.2 2.77 5.94 -0.001 13.023 -4.357 17.378" fill="#ffffff" stroke-width="0.5"></path>
  </g>
</svg>