<svg xmlns="http://www.w3.org/2000/svg" viewBox="0 0 200 200" id="Designer-Desk-2--Streamline-Free-Illustrations" height="200" width="200">
  <desc>
    Designer Desk 2 Streamline Illustration: https://streamlinehq.com
  </desc>
  <g>
    <g fill="#ffffff">
      <path d="m132 111.83 -0.06 0zM48.5 141c0.38 0.06 2.46 0.16 2.46 -0.2 0 -0.21 -0.38 -0.2 -0.38 -0.2 0.05 -1.6 2.08 -2 3.53 -1.16a5.56 5.56 0 0 1 1.1 0.83c-2.05 0.11 -4.77 1.51 -4.59 3.54a3.57 3.57 0 0 0 1.87 2.49 5.64 5.64 0 0 0 4.23 1.06 5.85 5.85 0 0 0 3.28 -2.22 7.6 7.6 0 0 0 5 -1.67 0.56 0.56 0 0 0 0.21 -0.39c0 -0.35 0 -0.33 -2 -2.55a0.53 0.53 0 0 0 -0.86 0.1 0.85 0.85 0 0 0 -0.09 0.14 1.47 1.47 0 0 1 -1.71 0.72c-1 -0.29 -2.29 -2.94 -4.64 -4.52 -2.05 -1.38 -4.8 -1.79 -6.74 -0.15a5.35 5.35 0 0 0 -1.7 2.74 1.36 1.36 0 0 0 0.06 1A1.58 1.58 0 0 0 48.5 141m3.76 3.71a1.34 1.34 0 0 1 -0.37 -1.78 3.8 3.8 0 0 1 1.77 -1.34 16.09 16.09 0 0 0 -1.4 3.07zm9.42 -1.58c0.24 -0.72 0 -0.47 0.4 -0.65a2.89 2.89 0 0 0 0.81 -0.6l0.91 1.08a7.46 7.46 0 0 1 -2.46 1c0.1 -0.26 0.26 -0.66 0.34 -0.88zm-3.62 -2.55c0.95 1.19 1.74 2.25 3.19 2.13a7.89 7.89 0 0 0 -0.5 1.34c-0.73 0.05 -0.83 -0.12 -1.12 0 -0.57 0.22 -1.51 2.27 -3.79 2.26a3.31 3.31 0 0 0 0.27 -1 4.07 4.07 0 0 0 1.76 -0.83 1.19 1.19 0 0 0 0.4 -0.74c0 -0.35 -0.12 -0.8 -0.86 -1.39a9.87 9.87 0 0 0 0.65 -1.82zm-3.36 3.78c-0.88 -0.47 0.62 -1.3 1.59 -1.27a1.18 1.18 0 0 1 1.06 0.68 1.86 1.86 0 0 1 -2.65 0.54zm1.18 -6.12a12.76 12.76 0 0 1 1.84 1.93A7.78 7.78 0 0 0 57 142a3.19 3.19 0 0 0 -2.52 0.33c-1.83 1 -1.4 3.19 1.14 2.94a3.71 3.71 0 0 0 -0.33 0.91 6.26 6.26 0 0 1 -2.76 -1.31 14.1 14.1 0 0 0 1.64 -3.55 3.21 3.21 0 0 1 2.49 -0.08l0.21 -0.79 -0.22 -0.1c-0.47 -0.32 -0.68 -0.57 -1.22 -1a4.73 4.73 0 0 0 0.45 -1.16zm-3.88 -1.6a5.9 5.9 0 0 1 3.46 1.2 6.13 6.13 0 0 0 -0.4 1.27 3.67 3.67 0 0 0 -3.44 -0.59 7.11 7.11 0 0 0 0.38 -1.88m-2.29 0.78a3.68 3.68 0 0 1 1.92 -0.76 6.48 6.48 0 0 0 -0.57 2.13 1.92 1.92 0 0 0 -0.93 1.74 5.13 5.13 0 0 1 -2.06 -0.31 4.24 4.24 0 0 1 1.62 -2.8zm-14.94 -1.67c-1.8 -0.78 -5.8 1.53 -6.53 2.77a1.18 1.18 0 0 0 0 0.85c0.63 2.39 6.51 10.83 7.6 12.14 0.19 0.24 0.45 -0.09 0.28 -0.37 -0.52 -0.86 -0.46 0.87 2.2 -7.74A2.5 2.5 0 0 0 39 143a0.56 0.56 0 0 0 0 -0.75 1.78 1.78 0 0 0 -0.31 -0.3l0.63 -2.33 2.5 1.38a19.06 19.06 0 0 0 -1.1 3.92 10.23 10.23 0 0 0 -2.8 1.54c-0.59 0.65 0.34 1.85 0.92 2.57s1.07 1.21 1.18 1.32 0.46 0 0.43 -0.18a1.63 1.63 0 0 0 -0.25 -0.4 16.78 16.78 0 0 1 -1.39 -2.66 14 14 0 0 1 2.45 -1.16c0.31 -0.11 1.27 -0.41 1.53 -0.25a25.54 25.54 0 0 0 4 1.69 0.232594067 0.232594067 0 0 0 0.2 -0.42l-1.73 -1.05a8.8 8.8 0 0 0 0.7 -2.63l4.27 2.31c0.26 0.15 0.46 -0.26 0.27 -0.37s-13.15 -8.35 -15.73 -9.48m-1.52 1.06a1.86 1.86 0 0 1 1.07 0c0.23 0.1 0.79 0.4 1.55 0.82a9.86 9.86 0 0 0 -0.52 2.19c-0.67 -0.38 -1.07 -0.67 -1.6 -0.58a1.94 1.94 0 0 0 -0.79 0.38c0.1 -0.78 0.19 -1.38 0.29 -2.81m-4 2.2a9 9 0 0 1 3.67 -2.12 53.85 53.85 0 0 0 -1.12 7.16 29.13 29.13 0 0 1 -2.54 -5.05zm4.54 8.41c-0.55 -0.91 -1.15 -1.92 -1.72 -2.91 0.34 -1.43 0.45 -2.09 0.66 -3.44a18 18 0 0 0 1.89 2.68 17.66 17.66 0 0 0 -0.82 3.67zm1.75 2.88c-0.36 -0.57 -0.82 -1.34 -1.42 -2.33a19.37 19.37 0 0 0 0.75 -3.85c0.22 0.53 2.18 -0.23 2.71 -0.43 -0.39 1.23 -1.75 5.51 -2.03 6.61zm-0.3 -6.49a28 28 0 0 1 -1.64 -3.33l0.31 -0.17c0.14 0.08 3.56 2.1 3.81 2.26a13.68 13.68 0 0 1 -2.47 1.24zm3 -2.2c-0.75 -0.5 -1.77 -1.11 -2.55 -1.56a8.83 8.83 0 0 0 0.52 -2.2l2.84 1.6c-0.05 0.38 -0.39 1.16 -0.75 2.16zm6.62 4 -1.54 -0.93a2.9 2.9 0 0 0 -2.13 0 20.44 20.44 0 0 0 0.84 -3.59l3.62 2a9 9 0 0 0 -0.73 2.57z" stroke-width="0.5"></path>
      <path d="M194.35 149.17c-1.62 -15.08 -15.58 -38.27 -23.92 -50.94a127.77 127.77 0 0 0 14 0.35c1.33 0 4.81 -0.24 5.48 -0.37 0.39 -0.08 0.45 -0.45 -0.14 -0.47s-4.79 -0.22 -5.36 -0.23l-10.17 0c-1.56 0.06 -4 0.2 -4.14 0.2 -3 -4.57 -5.09 -7.43 -5.11 -7.44a0.23 0.23 0 1 0 -0.28 0.36c0.46 0.37 20.67 29.9 26.85 50.24 2.45 8.07 3.9 18.2 -4 21 -18.76 6.7 -165.69 8.88 -179.58 1 -1.93 -1.09 -2.38 -3.36 -2 -6.42 0.59 -4.25 2.88 -10 5.64 -16.44 3.11 3 28.91 26.69 33.09 25.8s27.69 -11.81 28.66 -13.9a13 13 0 0 0 0.88 -4.55 0.83 0.83 0 0 0 -0.1 -1.09c-1.55 -1.54 -32.3 -25.92 -34.28 -25.85 -1.38 0.06 -3.88 1.48 -5.07 2.18A3.53 3.53 0 0 0 31 121a4.85 4.85 0 0 0 -2.84 3.14 0.24 0.24 0 0 0 0.47 0 4.83 4.83 0 0 1 2.68 -2.14 2.5 2.5 0 0 1 2.45 1.07l-11.12 4.75a4.92 4.92 0 0 0 -2.14 -1.29c-1.9 -0.5 -3.18 0.75 -3.94 2.58a0.24 0.24 0 0 0 0.41 0.23c1.28 -1.85 2.76 -2.48 4.53 -1 -2.14 0.95 -5.13 2.3 -7.23 3.34 0.15 -0.24 21.73 -39.32 21.73 -39.42 0.95 -1.76 2.86 -4.91 4.83 -5.32a13.08 13.08 0 0 1 2.71 -0.3c-1.39 2.3 -12.67 21 -12.69 23.64 0 3 0.52 2.53 2.12 3s91.13 -0.08 91.29 -0.08c1.55 0 7.61 -0.2 8.17 -0.61 1.74 -1.28 1.35 -3.19 0.59 -5.2 -0.18 -0.48 -1.09 -2.47 -2.31 -5.13 5.25 -1.58 9.2 0.43 9.56 9 0.36 7.41 -2.56 9.67 -8.15 9.35 -4.49 -0.26 -7.59 -1.58 -8.57 0.17 -1.1 1.95 1.94 6.33 3.26 8.15 -0.19 0 -8.56 -0.17 -10.67 -0.26a87.43 87.43 0 0 0 -8.92 0.11 26.86 26.86 0 0 0 -6.06 0.83c-0.75 0.37 -1.72 2.3 -2.13 3.11 -0.81 1.59 -4.5 11.57 -5.52 14.45 -0.6 1.66 -2.63 7.16 -1.27 8.13 -0.05 1.07 0.12 2.5 1.06 3s13.86 0.86 14.85 0.88c1.75 0.05 19.44 0.28 30.73 -0.22s16.22 -1.58 15.93 -1.55a1.61 1.61 0 0 0 1.13 -1.26 4.19 4.19 0 0 0 -0.14 -2.22c1.26 -2.45 -8.27 -22.79 -10.91 -24.22a1.09 1.09 0 0 0 -0.51 -0.14c-0.53 0 -12.39 -0.5 -17 -0.65 -1 -1.41 -4.25 -6.72 -3 -7.85 1.9 -1.66 17.77 6.66 16.92 -9.9 -0.44 -7.49 -3.89 -11.88 -10.89 -9.34 -0.61 -1.32 -5.73 -12.26 -7.1 -15.17a97.51 97.51 0 0 0 15.92 -0.35 6.78 6.78 0 0 0 2.58 4.79c4 3 19.92 2.55 22.81 -1.12a9.48 9.48 0 0 0 1.57 -7.79 1.51 1.51 0 0 0 0.59 -0.71c0.16 -0.31 0 -0.7 -0.69 -0.84a15.11 15.11 0 0 0 -2.69 -0.16c0 -0.82 0.05 -2.35 0 -4.09 0.09 -0.06 0.74 -0.84 0.81 -0.93a10.6 10.6 0 0 0 1.86 -3.14c0.33 -0.93 0.46 -2 -0.41 -2.52 -1.34 -0.73 -2.28 0.61 -2.73 2.11 -0.42 -2.31 -1.39 -5.7 -3.71 -5.36 -3.94 0.6 -1.22 10.15 0.06 13.93a12.16 12.16 0 0 0 -3.39 0c1.25 -3.14 1.89 -7.2 -1.32 -7.81a2.55 2.55 0 0 0 -2.62 1 1.39 1.39 0 0 0 -2.26 -0.66c-1.47 1.06 -0.63 3.49 1.08 4.29a17.72 17.72 0 0 0 0 3.09 11.3 11.3 0 0 0 -3.2 0.07 42.91 42.91 0 0 0 -0.8 -7.27 5.38 5.38 0 0 0 2.22 -3.72c0.14 -1.33 -0.33 -2.44 -1.44 -2.73 -1.39 -0.36 -2.21 0.61 -2.45 2 -1.23 -1.7 -3.64 -2.31 -4.81 -0.36 -3.75 -3.9 -5.56 -1.72 -4.61 0 0.71 1.32 2.56 2.06 4 2.47 0 2.24 1 4.13 2.24 6.06 0.83 1.3 1.76 2.55 2.48 3.47a24.17 24.17 0 0 0 -4.65 0.3c-0.94 0.25 -1.09 0.93 -0.22 1.42a12.27 12.27 0 0 0 -0.3 3.58 105.09 105.09 0 0 0 -16.11 0.38c-0.34 -0.73 -1.35 -2.86 -1.47 -3.11s0.84 -3.15 2.19 -30.11c6.2 -0.52 34.08 0.1 36.64 -0.89a0.88 0.88 0 0 0 0.57 -0.68c0.85 -2.79 1.43 -26.77 0 -29 -0.35 -0.55 -1.6 -0.72 -2.29 -0.82 -8.91 -1.3 -46.09 -0.74 -48 0.27s-1.1 10.87 -0.74 12.83c-19.31 -0.62 -63.9 0.59 -68.1 2.16 -1 0.36 -1.37 1.73 -1.57 2.76 -1.66 8.57 3 36.15 4.56 44.67 -0.1 0 0 0 -1.22 1.9a12.34 12.34 0 0 0 -3.09 0.16c-2.28 0.35 -4.38 3.5 -5.54 5.46 -0.05 0.1 -3 5 -3.44 5.8 -2.51 -0.39 -14.18 -0.24 -15.66 -0.16s-3 0.19 -4.34 0.29c-0.24 0 -0.26 0.46 0 0.47 2.8 0.17 3.83 0.23 6 0.26 5.31 0.08 13.14 0.3 13.39 0.27 -0.52 0.91 -8.22 14.61 -9.25 16.55 -4.48 8.4 -8 16.09 -8.21 16.74a15.32 15.32 0 0 0 -3.25 2 9.72 9.72 0 0 0 -0.57 2.74c-0.05 1.61 0.53 2 1.42 2.9a103 103 0 0 0 -5.87 15.86 15.85 15.85 0 0 0 -0.06 6.69 20.8 20.8 0 0 0 2.26 6.3 3.3 3.3 0 0 0 1.81 0.94c2.63 0.74 10.78 1.69 13.51 2a15.35 15.35 0 0 0 -0.17 3.7 13.32 13.32 0 0 0 0.55 3.76 0.231354706 0.231354706 0 0 0 0.46 -0.05 20.24 20.24 0 0 0 0.13 -3.76 16.72 16.72 0 0 0 -0.41 -3.59c1.38 0.12 2.71 0.22 3.87 0.26a15.49 15.49 0 0 0 -0.15 3.53 13.37 13.37 0 0 0 0.55 3.76 0.23 0.23 0 0 0 0.46 0 19.89 19.89 0 0 0 0.14 -3.76 16.07 16.07 0 0 0 -0.4 -3.47c2.23 0.05 35.05 3 91.73 1.88 15.19 -0.3 33.45 -1 48.49 -2.65a15.7 15.7 0 0 0 -0.17 3.65 13.17 13.17 0 0 0 0.56 3.75 0.23 0.23 0 1 0 0.45 0 18.45 18.45 0 0 0 0.14 -3.76 17.17 17.17 0 0 0 -0.43 -3.67c1.11 -0.12 3.68 -0.44 3.9 -0.47a15.35 15.35 0 0 0 -0.16 3.63 13.17 13.17 0 0 0 0.55 3.76 0.231354706 0.231354706 0 0 0 0.46 -0.05 19.37 19.37 0 0 0 0.13 -3.75 16.52 16.52 0 0 0 -0.43 -3.66c4.51 -0.61 18.3 -2.47 20.18 -6.32 2.22 -4.39 2.04 -10.1 1.12 -14.86m-91 -16.1c0.11 -0.27 3.46 -1 7.12 0a0.23 0.23 0 1 1 0 0.45 18.42 18.42 0 0 1 -5.52 0.14c-0.86 -0.14 -1.95 -0.15 -1.63 -0.59zm51.41 23.78c-9.25 1.76 -60.35 1.36 -61.12 1s-0.84 -1.52 -0.86 -2.28c5.54 1.8 59.67 0.41 62.68 -1.18 0.16 0.88 0.2 2.29 -0.73 2.46zm-19.41 -23.67c0 -0.34 2.2 -0.53 2.3 -0.54a25.62 25.62 0 0 1 3.93 0c0.73 0.08 1.74 0.18 1.66 0.49s-1.59 0.44 -1.85 0.48a28.79 28.79 0 0 1 -2.94 0.12c-0.66 -0.02 -3.17 -0.14 -3.13 -0.55zm12.85 3.33a97 97 0 0 1 6.28 14.85 7 7 0 0 1 0.35 2c-4.51 1.4 -56.49 2.84 -61.75 1.33 -0.25 -0.07 -0.32 0 -0.38 -0.42 -0.38 -2.72 4.07 -13.53 5.1 -16.05 18.92 -0.63 50.2 -1.6 50.37 -1.71zM139.78 70.4a11.87 11.87 0 0 1 -2.94 -2.28c-0.39 -0.59 -0.3 -1 0.85 -0.44 0.72 0.33 1.73 0.92 2.41 1.33a4.84 4.84 0 0 0 -0.32 1.39m24 1.79c0.8 -1.44 1.59 -1.85 1.51 -1a19.72 19.72 0 0 1 -1.82 4.36c-0.06 -1 -0.13 -1.67 -0.21 -2.33 0.04 -0.14 0.24 -0.56 0.49 -1.03zm-4.25 8.7c0.2 0.57 0.33 0.91 0.34 0.93a0.23 0.23 0 0 0 0.3 0.13c0.44 -0.17 -0.21 -0.58 -1.25 -6.61 -0.31 -1.8 -1.23 -7.35 0.59 -7.61 1.48 -0.22 2.28 3.45 2.56 4.9a64.69 64.69 0 0 1 1 8.46 0.23 0.23 0 0 0 0.45 0.07 1.54 1.54 0 0 0 0 -0.17 12.58 12.58 0 0 1 2.68 0.37 1.11 1.11 0 0 1 -0.41 0.3c-2.1 1.08 -8.45 0.87 -10.64 0.83 0.3 -0.6 0.51 -1.06 0.74 -1.61a11.32 11.32 0 0 0 3.61 0.01zm-7.8 -2.19c0.23 -2 0.74 -5.19 2.76 -4.81s1.51 3.31 1.07 5.27a31.08 31.08 0 0 1 -1 3.32l-3 0a33.7 33.7 0 0 1 0.14 -3.78zm-1.27 -4.7a0.46 0.46 0 0 1 0.68 0.05 3.6 3.6 0 0 1 0.43 0.52 7.91 7.91 0 0 0 -0.59 2c-0.52 -0.72 -1.19 -2.03 -0.52 -2.57m-3.15 -6.08c1.3 0.41 0.28 3.83 -0.59 4.87a14.94 14.94 0 0 0 -1.07 -3.12c0.29 -0.88 0.78 -2.03 1.66 -1.76zM144.85 81c0.49 0.62 0.81 1 0.81 1a0.23 0.23 0 0 0 0.36 -0.28s-1.77 -2.52 -3.23 -5.13c-1.1 -2 -2.15 -4 -1.86 -6.21 0.23 -1.74 1.15 -2.48 2.7 -1.47 2.24 1.44 3.26 10.32 3.58 13a0.34 0.34 0 0 0 0.24 0.31c0.27 0 0.23 -0.29 0.22 -0.43s0 -0.84 0 -0.91a12.75 12.75 0 0 0 3.2 0c0.06 0.73 0.13 1.3 0.18 1.6 -3.55 0 -7.84 0.24 -10.78 -0.91a32.3 32.3 0 0 1 4.58 -0.57m-4.79 1.47a15.22 15.22 0 0 0 4.57 1c1.77 0.16 13.82 0.18 15.19 0.11a18.38 18.38 0 0 0 6.05 -1.13 9 9 0 0 1 -1.87 6.97c-2.43 2.85 -17.8 3.5 -21.49 0.9 -2.43 -1.67 -2.87 -5.01 -2.45 -7.86zM132 111.83c0.21 0.67 -95.14 0.7 -95.24 0.69 -4 0 -3 0 -4.34 -0.33 -0.36 -0.08 -0.43 -0.08 -0.5 -0.43a7.49 7.49 0 0 1 -0.07 -1.66 0.21 0.21 0 0 0 0.23 0.11s99.89 -1.36 100.54 -1.38c0.27 1.17 0.31 2.26 -0.62 3m28.13 -60.69s0.06 -0.1 0.08 -0.07 -0.08 0.06 -0.13 0.07zM110.4 25.92c0 -0.65 0.26 -3.11 0.84 -3.41 1.32 -0.66 43.27 -1.22 49 0.57 1 2.1 0.68 25.69 -0.16 28.06 -4.92 0.77 -29.68 0.71 -36.12 1.37 0.39 -7.87 0.56 -14.5 0.24 -15.79a1.16 1.16 0 0 0 -0.75 -0.71c-2.19 -0.95 -10.43 -1.22 -12.83 -1.3a54.16 54.16 0 0 1 -0.22 -8.79M41.25 51.1c-0.15 -2.1 -0.89 -12.7 1.11 -13.44 1 -0.35 4.52 -0.7 9.63 -1 9.79 -0.61 25.22 -1.1 39.26 -1.2 3.12 0 29.48 -0.23 32.06 1.54 0.76 3.46 -1.67 41.9 -2.21 45.61 -23.63 0.77 -51.63 1.93 -75.46 1.35 -0.4 -2.29 -3.46 -19.96 -4.39 -32.86m4.08 33.53a0.43 0.43 0 0 0 0 -0.07c16.85 0.52 69.58 -1.21 76 -1.25 0.71 1.65 10.68 23.77 11.1 25 -0.11 0 -100.43 1.36 -100.56 1.46 1.26 -4.22 11.68 -22.06 13.46 -25.14m27.49 67c-0.74 1.44 -23.16 11.46 -27.77 12.85a5.85 5.85 0 0 0 0.1 -1.4c6.81 -2.36 21.59 -8.59 28.22 -13a7.64 7.64 0 0 1 -0.55 1.56zm0.69 -2.21c-2 1.18 -3.91 2 -28.37 13.12a5 5 0 0 0 -0.18 -1.34c3.2 -1.5 24.9 -9.91 28.77 -13.26 -0.05 0.43 -0.12 0.95 -0.22 1.49zM22 128.9a3.67 3.67 0 0 1 0.42 4.14c-0.16 0.25 0.22 0.51 0.38 0.25a3.86 3.86 0 0 0 0.27 -4.89c4.86 -2.23 9.64 -4.33 10.95 -4.9a5 5 0 0 1 0.06 4.29c-0.12 0.32 0.24 0.44 0.41 0.23a4.74 4.74 0 0 0 0.54 -5c1.08 -0.61 3.6 -2 4.83 -2 1.54 0 32.79 25.42 33.37 26 -2.61 2.69 -26.84 12.28 -28.88 13.26 -4.3 -1 -30.54 -23.57 -33 -25.89 1.53 -1.27 8.93 -4.69 10.65 -5.49m-11.41 5.95c3.12 3.05 29.15 25.77 33.51 26.49a4.67 4.67 0 0 0 -0.12 1.15c-7 -3.42 -27 -20.74 -33.62 -26.31 0.03 0 0.18 -0.98 0.26 -1.33zm0.15 3.43a2.45 2.45 0 0 1 -0.4 -1.45c6.54 6.6 25 22.83 33.63 26.21a6 6 0 0 0 0.16 1.59c-5.13 -1.15 -32.71 -25.53 -33.36 -26.35zm182 25.42c-6.46 12.82 -181.76 9.47 -184.6 4.47a19.91 19.91 0 0 1 -2.4 -6.77 4.38 4.38 0 0 0 1.84 2c14.72 8.57 161.17 6.33 180.29 -0.54 4.05 -1.46 6.09 -4.61 6.55 -9a20.07 20.07 0 0 1 -1.7 9.84z" stroke-width="0.5"></path>
      <path d="M43 95.69c70.71 1 77.46 0.39 79.44 0.08 0.47 -0.07 0.77 -0.23 0.75 -0.78 0 -1.45 -3.4 -8.1 -4.3 -8.56 -0.4 -0.21 -72 0.8 -72.25 0.88a0.34 0.34 0 0 0 -0.22 0.17c-0.68 1.11 -4 6.59 -3.85 7.83a0.45 0.45 0 0 0 0.43 0.38M46.93 88c0.72 -0.09 71.16 -0.79 71.59 -0.75a27.29 27.29 0 0 1 2 3.37c-1.64 0 -74.94 0.39 -75.32 0.4 0.44 -0.88 1.02 -1.88 1.73 -3.02m-2 3.5c0.39 0 74.56 -0.38 75.83 -0.41a18.77 18.77 0 0 1 1.55 3.86c-3.56 0.57 -36 0.29 -78.95 0a19.51 19.51 0 0 1 1.55 -3.49zm53.26 7.59a2.45 2.45 0 0 0 -2.31 -1.44c-2.54 0 -23.87 -0.59 -25.79 0.19a16.05 16.05 0 0 0 -2.8 5c-0.06 0.44 0.16 0.64 0.43 0.67 6 0.65 25.89 1.27 31.05 0.32 0.64 -0.12 0.72 -0.8 0.59 -1.45a24 24 0 0 0 -1.17 -3.29m-30.19 3.75a20.18 20.18 0 0 1 2.32 -4.59c1.52 -0.5 21.29 0.54 25.59 0.53a1.33 1.33 0 0 1 1.24 0.74 16.83 16.83 0 0 1 1.13 3.24c-5.07 0.79 -26.6 0.34 -30.28 0.08m99.64 -2.47c-1.41 -1.94 -8.48 -1.85 -10.85 -1.78 -2 0 -9.27 0.33 -9.27 2.29a1 1 0 0 0 0.46 0.79c0.19 0.15 -1.12 13.33 0.68 20.4 0.59 2.34 1.35 3.5 3.58 4.47 4.28 1.86 11.38 1.45 14.23 -2.52 0.57 -1.16 0.45 -4.54 0.5 -5.57 4.43 0.88 8.06 -0.92 9 -5.69 0.59 -3.07 -0.17 -5.08 -1.48 -6.3a7 7 0 0 0 -6.35 -1.3 0.25 0.25 0 0 1 -0.33 -0.24c0 -0.53 0.19 -4.12 -0.17 -4.55m-19 0.21c2.7 -1.58 13.7 -1.7 17.25 -0.09 0.12 0.06 0.57 0.29 0.57 0.39s-0.46 0.34 -0.57 0.39c-2.68 1.21 -12.25 1.76 -17.28 -0.08 -0.35 -0.19 0 -0.57 0 -0.61zm19.78 5.6a5.85 5.85 0 0 1 5.32 1.09c1.08 1 1.62 2.72 1.12 5.27a5.67 5.67 0 0 1 -2.82 4.29 7.71 7.71 0 0 1 -5.22 0.4 0.66 0.66 0 0 0 -0.86 0.44c-0.27 0.76 0.11 3.83 -0.44 5.77 -2.53 3.43 -9 3.74 -12.83 2.13 -1.94 -0.83 -2.48 -1.69 -3 -3.76 -1.34 -4.91 -1.42 -14.91 -1.12 -19.83 3.15 1.49 14.06 1.92 18.35 -0.28 0 3.1 -0.38 3.62 0.4 4.25a1.3 1.3 0 0 0 1.07 0.23zm-97.14 21.19a56.27 56.27 0 0 0 -8.44 -5.92 17.72 17.72 0 0 0 -3.65 -1.63c-1.07 -0.28 -1.52 0.27 -1.3 1a12.18 12.18 0 0 0 1.77 2.91 45.86 45.86 0 0 0 7.88 7.81c4.46 3.73 10.24 8.25 14.46 11.46a2 2 0 0 0 2.82 -0.47c0.74 -0.81 1.2 -2.23 0.37 -3 -0.96 -0.86 -6.83 -6.39 -13.91 -12.16m-9.58 -2.22 -1.37 -2.21a2.54 2.54 0 0 0 1.18 -1l2.17 0.88a2.46 2.46 0 0 0 -1.98 2.33m3.07 2.55a16.5 16.5 0 0 1 -2 -2c0.07 -1.21 0.45 -1.75 1.66 -1.79a12.16 12.16 0 0 1 2.27 1.41 2.53 2.53 0 0 0 -1.93 2.38m17.1 14.55c-1.11 -0.93 -15.87 -13.45 -16.78 -14.25a2.79 2.79 0 0 1 2.13 -2.34c3.45 2.56 8.41 6.8 17.06 14a2.31 2.31 0 0 0 -2.41 2.59m79.24 11.08c1.25 0.85 2.12 0.46 2.93 -0.72 2 -2.84 9 -15.41 9 -15.51s0.08 0.09 -0.25 -3.95a0.85 0.85 0 0 0 -1.37 -0.59L168 135.05s-7.59 15.69 -7.67 15.83a2.24 2.24 0 0 0 0.78 2.45m10.59 -19.55c0.06 0.73 0.14 1.7 0.2 2.37a12 12 0 0 0 -2.32 -0.83zm-2.86 2.22a6.65 6.65 0 0 0 2.92 1.16c-0.15 0.26 -7.79 14.2 -7.87 14.34a2.39 2.39 0 0 0 -2.61 -1.29c0.78 -1.45 7.28 -13.71 7.56 -14.21" stroke-width="0.5"></path>
      <path d="M164.24 116.17a1.4 1.4 0 0 0 -0.92 -0.57 14.43 14.43 0 0 0 -1.8 -0.36c0.34 2.38 0.54 5 0.53 5.23a0.58 0.58 0 0 1 -0.63 0.52 0.59 0.59 0 0 1 -0.52 -0.64c0 -0.17 -0.06 -0.86 -0.11 -5.21 -2 -0.25 -11.63 -1 -11.25 0.92 0 0.1 -0.79 5 2.27 7.35s9.18 1.89 11.32 -0.5a5.29 5.29 0 0 0 1.16 -2.54 11.73 11.73 0 0 0 -0.05 -4.2m2.4 -9.05c0 0.45 -0.6 3.89 -1 8.51l0.48 0.1a8.42 8.42 0 0 0 5.23 -0.57 3.56 3.56 0 0 0 1.83 -3.22 4.77 4.77 0 0 0 -6.54 -4.82m0.45 0.34a4.52 4.52 0 0 1 3.61 1 4.19 4.19 0 0 1 1.34 3.47c-0.09 2.57 -2.73 3.06 -5.26 2.8 0.12 -1.82 0.22 -3.91 0.31 -7.27M70.3 98.25s0.01 0.01 0 0m86.08 -49.49a1.35 1.35 0 0 0 1.34 1.37 1.37 1.37 0 1 0 -1.34 -1.37M46.93 81.75c0.23 0.45 0.53 0.5 0.72 0.36s63.52 -0.69 68.23 -0.94a10.73 10.73 0 0 0 3 -0.38c2.25 -2 3.13 -39.39 2.25 -41.12 -2.25 -4.49 -72.67 -1.6 -77 -0.29 -3.45 1.04 1.21 39.18 2.8 42.37M43.94 41c0 -0.18 0.22 -0.88 0.39 -0.93 4.79 -1.44 74.34 -3.81 76.23 -0.05a10 10 0 0 1 0.22 2.29c0.17 4.36 0 13.7 -0.45 22.07 -0.09 1.6 -0.8 14.71 -1.84 15.9 -4.15 0.88 -68.1 1.08 -70.94 1.19 -1.62 -3.76 -5.12 -33.87 -3.61 -40.47M157.85 26.71a1.37 1.37 0 1 0 -1.34 -1.38 1.35 1.35 0 0 0 1.34 1.38" stroke-width="0.5"></path>
      <path d="m63.51 66.2 11.88 0a5.19 5.19 0 0 0 5.17 -5.2l0 -9.64a5.24 5.24 0 0 0 -5.17 -5.24l-11.88 0a5.22 5.22 0 0 0 -5.24 5.24l0 9.64a5.22 5.22 0 0 0 5.24 5.2m-4.39 -14.84a4.43 4.43 0 0 1 4.39 -4.36l11.88 0a4.42 4.42 0 0 1 4.47 4.41l0 9.59a4.45 4.45 0 0 1 -4.47 4.43l-11.88 0a4.41 4.41 0 0 1 -4.39 -4.43zm36.51 21.98c0.2 0.59 0.7 0.46 0.84 0.09 0.19 -0.53 1.3 -4.34 1.44 -5 0.77 -0.24 -1.4 0.51 5.31 -1.93a0.37 0.37 0 0 0 0 -0.69l-10.28 -4.11a0.4 0.4 0 0 0 -0.57 0.39s2.71 9.66 3.26 11.25m-2.23 -10.57 8.66 3.41c-1.16 0.43 -3.12 1.17 -4.06 1.55 -0.42 0.16 -0.59 0.23 -0.69 0.36s0.25 -0.65 -1.22 3.88zM117 33.45a0.26 0.26 0 0 0 0.26 0.21c0.21 0 6.68 0.62 8 0.27 0.85 -0.23 1 -1.73 1.08 -2.61 0.1 -1.33 0 -4.59 -0.56 -5.7 -0.76 -1.5 -6.37 -1 -8 -0.71a2.92 2.92 0 0 0 -1.21 0.46 1.45 1.45 0 0 0 -0.35 0.88A32.4 32.4 0 0 0 117 33.45m0.29 -7.31c1.58 -0.49 6.08 -0.68 7.51 0 0.49 1.3 0.75 5.77 0.16 6.81 -0.93 0.24 -6.61 0.24 -7.56 0.25 -0.03 -0.78 -0.49 -4.99 -0.11 -7.06m13.13 7.27a0.27 0.27 0 0 0 0.26 0.21c0.21 0 6.68 0.62 8 0.27 0.85 -0.23 1 -1.73 1.09 -2.61 0.09 -1.33 0 -4.59 -0.57 -5.7 -0.76 -1.51 -6.37 -1 -8 -0.71a3.05 3.05 0 0 0 -1.21 0.46 1.52 1.52 0 0 0 -0.35 0.88 32.47 32.47 0 0 0 0.78 7.2m0.29 -7.31c1.58 -0.5 6.08 -0.68 7.51 0 0.49 1.3 0.75 5.77 0.16 6.8 -0.93 0.25 -6.61 0.25 -7.56 0.26 -0.03 -0.78 -0.49 -4.99 -0.11 -7.06m13.75 7.75a0.26 0.26 0 0 0 0.26 0.21c0.21 0 6.68 0.62 8 0.27 0.85 -0.23 1 -1.73 1.08 -2.61 0.1 -1.33 0 -4.59 -0.56 -5.7 -0.76 -1.5 -6.37 -1 -8 -0.71a3 3 0 0 0 -1.21 0.46 1.45 1.45 0 0 0 -0.35 0.88 32.4 32.4 0 0 0 0.78 7.2m0.29 -7.31c1.58 -0.49 6.08 -0.68 7.51 0 0.49 1.3 0.75 5.77 0.16 6.81 -0.93 0.24 -6.61 0.24 -7.56 0.25 -0.03 -0.78 -0.49 -4.99 -0.11 -7.06m-14.24 22.25c0.07 0.2 0.23 0.22 0.26 0.21 0.22 0 6.68 0.62 8 0.27 0.85 -0.23 1 -1.73 1.09 -2.61 0.09 -1.33 0 -4.59 -0.56 -5.69 -0.77 -1.51 -6.38 -1 -8 -0.72a3 3 0 0 0 -1.22 0.46 1.52 1.52 0 0 0 -0.35 0.89 32.37 32.37 0 0 0 0.78 7.19m0.3 -7.31c1.58 -0.49 6.07 -0.68 7.5 0 0.49 1.3 0.75 5.77 0.16 6.81 -0.93 0.24 -6.6 0.24 -7.55 0.25 -0.04 -0.78 -0.5 -4.99 -0.11 -7.06m23.08 -0.92c1.6 -2.36 3 -4.49 3.05 -4.59s-0.68 -1 -1.11 -0.36c-3.06 4.71 -2.64 4.26 -2.86 4.18 -1.76 -0.64 -7.44 -0.42 -8.33 0.41 -0.6 0.56 -0.37 2.59 -0.3 3.46 -0.64 -0.36 -1.13 -0.62 -1.31 -0.69 -0.46 -0.18 -0.43 0.27 -0.18 0.43l1.56 1a33.6 33.6 0 0 0 0.61 3.91 0.25 0.25 0 0 0 0.26 0.21c0.21 0 6.68 0.62 8 0.27 1.72 -0.48 1.19 -6.79 0.61 -8.23m-8.58 0.41a17.54 17.54 0 0 1 7.16 -0.13L149 46.31c-0.35 -0.2 -2.22 -1.3 -3.78 -2.18a17.09 17.09 0 0 1 0.09 -3.13zm7.67 6.8c-0.94 0.25 -6.61 0.25 -7.56 0.26 0 -0.4 -0.15 -1.71 -0.22 -3.16l3.8 2.36a0.51 0.51 0 0 0 0.49 -0.24c0.32 -0.41 1.93 -2.75 3.57 -5.16 0.31 1.8 0.41 5.08 -0.06 5.94zm-39.76 -21.39a1.37 1.37 0 1 0 -1.35 -1.38 1.38 1.38 0 0 0 1.35 1.38" stroke-width="0.5"></path>
    </g>
  </g>
</svg>