<svg viewBox="0 0 200 200" xmlns="http://www.w3.org/2000/svg" id="Business-Presentation-1--Streamline-Free-Illustrations" height="200" width="200">
  <desc>
    Business Presentation 1 Streamline Illustration: https://streamlinehq.com
  </desc>
  <g>
    <path d="M163.868 22.443c-26.033 0.41 -133.291 0.633 -160.119 0.292C2.156 22.715 2.035 20 3.684 20c27.655 0.034 123.256 -0.493 160.132 0.3 1.775 0.036 1.293 2.123 0.052 2.143" fill="#ffffff" stroke-width="0.5"></path>
    <path d="M131.923 100.415a18.385 18.385 0 0 1 -5.653 1.433 37.345 37.345 0 0 1 -0.074 6.878 0.534 0.534 0 0 1 -1.052 -0.038c-0.187 -1.563 0.25 -3.256 -0.065 -6.763 -2.339 0.063 -3.435 -0.662 -5.49 -0.941a37.558 37.558 0 0 1 -14.429 -5.12 0.627 0.627 0 0 1 -0.121 -0.873A58.719 58.719 0 0 0 115.3 76.4c0.267 -0.765 1.152 -1.793 1.156 -0.476 0.011 3.376 -0.383 6.75 -0.383 10.131 0 6.136 0.163 12.7 6.141 14.242 3.666 0.943 7.078 -0.253 9.347 -0.859 0.539 -0.149 0.939 0.698 0.362 0.977" fill="#ffffff" stroke-width="0.5"></path>
    <path d="M123.269 87.286c-0.524 1.015 1.262 0.895 2.333 0.946a0.574 0.574 0 0 1 0.095 1.128 5.617 5.617 0 0 1 -2.121 -0.12c-1.238 -0.257 -2.183 -0.713 -1.509 -2.1a24.313 24.313 0 0 1 1.482 -2.717 0.517 0.517 0 0 1 0.928 0.436 17.885 17.885 0 0 1 -1.208 2.427" fill="#ffffff" stroke-width="0.5"></path>
    <path d="M130.054 83.377c0.012 0.642 0.06 1.615 -0.886 1.64 -0.762 0.021 -0.976 -0.653 -0.972 -1.554 0.004 -1.623 1.819 -2.075 1.858 -0.086" fill="#ffffff" stroke-width="0.5"></path>
    <path d="M121.133 83.336c-0.016 0.614 -0.277 1.193 -0.986 1.164 -0.592 -0.024 -0.805 -0.824 -0.788 -1.351 0.025 -0.778 0.27 -1.175 0.762 -1.283 0.755 -0.166 1.033 0.7 1.012 1.47" fill="#ffffff" stroke-width="0.5"></path>
    <path d="M120.448 78.756a2.141 2.141 0 0 0 -2.042 0.962c-0.548 0.81 -1.134 0.145 -0.926 -0.335a3 3 0 0 1 3.12 -1.726 0.555 0.555 0 0 1 -0.152 1.099" fill="#ffffff" stroke-width="0.5"></path>
    <path d="M128.594 78.618a0.526 0.526 0 0 1 -0.16 -1.026 3.233 3.233 0 0 1 3.716 2.056c0.165 0.573 -0.6 1.043 -0.89 0.4a2.522 2.522 0 0 0 -2.666 -1.43" fill="#ffffff" stroke-width="0.5"></path>
    <path d="M123.83 92.665a4.425 4.425 0 0 0 5.218 2.471 4.371 4.371 0 0 0 2.9 -5.212c-0.122 -0.5 -0.57 -0.674 -1.108 -0.25 -2.251 1.774 -3.917 2.051 -6.577 2.095 -0.432 0.007 -0.685 0.394 -0.433 0.896" fill="#ffffff" stroke-width="0.5"></path>
    <path d="M51.088 111.924c0.238 0.451 -0.428 0.935 -0.8 0.6 -2.153 -1.949 -6.095 -4.7 -7.207 -7.3 -1.5 -3.5 -0.681 -7.883 -3.649 -10.715a0.548 0.548 0 0 1 0.671 -0.865c3.28 2.307 2.658 6.824 4.177 10.1 1.54 3.317 5.12 4.989 6.808 8.18" fill="#ffffff" stroke-width="0.5"></path>
    <path d="M29.151 106.816a18.893 18.893 0 0 1 -8.33 -3.944c-0.773 -0.681 0.153 -1.23 0.717 -0.849a19.8 19.8 0 0 0 8.026 3.335 24.719 24.719 0 0 0 8.486 -0.218c0.689 -0.092 0.674 0.916 0.2 1.2 -2.156 1.295 -6.679 1.009 -9.099 0.476" fill="#ffffff" stroke-width="0.5"></path>
    <path d="M16.436 105.257c-0.428 -0.469 0.292 -1.092 0.762 -0.752a29.273 29.273 0 0 0 10.822 5.2c3.068 0.7 2.217 2.136 -0.537 1.568a20.592 20.592 0 0 1 -11.047 -6.016" fill="#ffffff" stroke-width="0.5"></path>
    <path d="M28.356 116.215c-3.645 -0.211 -8.693 -1.891 -11.429 -4.289a0.546 0.546 0 0 1 0.595 -0.9c4.159 2.038 6.377 3.073 11.025 3.65 2.698 0.336 2.619 1.702 -0.191 1.539" fill="#ffffff" stroke-width="0.5"></path>
    <path d="M44.466 120.881c0.733 0.5 -0.1 1.731 -0.847 1.289 -3.942 -2.321 -8.431 -0.9 -12.713 -0.907a19.75 19.75 0 0 1 -11.683 -3.583c-0.493 -0.369 0.05 -1.107 0.571 -0.868a26.2 26.2 0 0 0 12.641 2.8c4.047 -0.245 8.433 -1.181 12.031 1.269" fill="#ffffff" stroke-width="0.5"></path>
    <path d="M196.174 180.009c-40.025 0.487 -153.986 -0.516 -178.328 -0.8 -1.568 -0.018 -2.812 -1.788 -0.045 -1.8 31.3 -0.161 131.761 -0.123 178.315 0.306 1.833 0.012 1.838 2.272 0.058 2.294" fill="#ffffff" stroke-width="0.5"></path>
    <path d="M119.049 107.657c-8.8 1.4 -25.656 10.809 -34.835 22.948 8.7 -1.317 34.36 -1.542 41.734 -0.677a73 73 0 0 0 -9.18 -9.33c1.28 -1.467 2.484 -2.608 3.537 -3.612 -2.107 -1.3 -5.571 -3.374 -7.1 -4.088a32.924 32.924 0 0 1 5.844 -5.241" fill="#ffffff" stroke-width="0.5"></path>
    <path d="M138.29 117.437a16.778 16.778 0 0 1 2.858 3.8c-3.085 1.768 -9.068 5.079 -12.679 8.916 3.448 0.452 5.7 2.125 6.9 7.2 0.516 2.177 1.228 5.67 1.934 9.591a119.757 119.757 0 0 1 19.854 -2.625 36.256 36.256 0 0 0 -4.659 -8.42c-0.412 -0.545 0.352 -1.237 0.807 -0.708a27.985 27.985 0 0 1 5.289 9.068 61.431 61.431 0 0 1 8.979 0.127c0.68 0.077 0.688 1.094 -0.016 1.077a119.46 119.46 0 0 0 -30.014 2.828c1.005 5.732 1.951 12.137 2.248 16.622 15.5 -0.151 40.646 7.508 44.543 -1.731 8.728 -20.691 -17.78 -53.348 -36.641 -56.207a19.542 19.542 0 0 1 3.273 7.374c-2.066 0.717 -9.966 2.598 -12.676 3.088" fill="#ffffff" stroke-width="0.5"></path>
    <path d="M126.687 123.307c-3.17 -7.911 -3.084 -12.122 -3.988 -16a0.528 0.528 0 0 0 -1.049 0.109c-0.032 4.681 2.353 12.478 4.29 16.961a0.793 0.793 0 0 0 1.271 0.15c6.273 -8.711 9.407 -11.858 16.6 -17.445a0.53 0.53 0 0 0 -0.579 -0.887 56.107 56.107 0 0 0 -16.545 17.112" fill="#ffffff" stroke-width="0.5"></path>
    <path d="M75.686 131.508c-6.17 -3.762 -16.629 -13.017 -20.917 -18.872a87.532 87.532 0 0 0 -11.437 14.433C51.138 138.581 63.5 151 71.247 154.608c-0.9 -3.838 -1.129 -14.447 -0.9 -17.833s2.781 -4.74 5.339 -5.267" fill="#ffffff" stroke-width="0.5"></path>
    <path d="M40.331 131.333c1.914 -0.08 0.93 -1.422 0.114 -1.438 -10.9 -0.214 -22.582 -0.48 -30.8 -0.352 0.635 -47.487 0.255 -77.45 0.515 -104.207 0.007 -0.709 -1.056 -0.6 -1.088 0.075 -1.038 21.753 -0.4 80.333 -1.2 103.97 -0.028 0.81 0.028 1.327 1.78 1.405 4.907 0.22 9.689 0.229 14.624 0.314 4.535 0.079 11.66 0.417 16.055 0.233" fill="#ffffff" stroke-width="0.5"></path>
    <path d="M159.749 84.2c0.481 -9.75 0.331 -19.629 0.375 -29.4 0.026 -5.776 0.288 -21.284 0.223 -28.895 -0.011 -1.318 -1.37 -0.567 -1.384 0.1 -0.263 12.923 -0.944 45.191 -0.45 58.209 0.042 1.096 1.187 1.08 1.236 -0.014" fill="#ffffff" stroke-width="0.5"></path>
    <path d="M25.446 54.4c0 -3.17 0.027 -6.338 0 -9.508 14.278 -0.082 28.565 -0.163 42.841 -0.421 0.012 2.774 0 5.548 0 8.322 -13.637 0.349 -27.582 0.863 -41.26 1.108 -0.881 0.016 -0.738 1.332 0.114 1.343 13.811 0.167 28.046 -0.714 41.9 -1.073a0.713 0.713 0 0 0 0.638 -0.755c0 -3.239 -0.011 -6.479 0.011 -9.718a0.719 0.719 0 0 0 -0.762 -0.642c-14.751 0.009 -29.512 0.21 -44.263 0.407a0.733 0.733 0 0 0 -0.656 0.777c0.082 3.42 0.256 6.832 0.374 10.25 0.017 0.695 1.062 0.597 1.063 -0.09" fill="#ffffff" stroke-width="0.5"></path>
    <path d="M24.614 77.257c14.912 -0.582 30.265 -0.65 45.086 -1.671a0.731 0.731 0 0 0 0.736 -0.862c-0.262 -2.114 -0.525 -4.228 -0.8 -6.34 -0.115 -0.877 -1.431 -0.577 -1.335 0.284 0.2 1.835 0.422 3.669 0.64 5.5 -14.478 0.611 -29.084 1.024 -43.5 1.486 0 -2.867 -0.015 -5.738 0.066 -8.6 14.575 -0.151 28.9 -0.387 43.635 -0.267a0.548 0.548 0 0 0 0.055 -1.094c-14.792 -0.681 -29.646 -0.381 -44.5 -0.351a0.874 0.874 0 0 0 -0.92 0.832c0.123 3.413 0.077 6.838 0.089 10.255a0.8 0.8 0 0 0 0.748 0.828" fill="#ffffff" stroke-width="0.5"></path>
    <path d="M68.473 97.283c-7.16 0.095 -16.269 -0.047 -23.614 0.3 -0.615 0.029 -0.587 1.283 0.016 1.293 6.613 0.113 16.621 -0.214 24.266 -0.053 0.845 0.018 0.884 -0.8 0.785 -1.408a29.182 29.182 0 0 1 -0.079 -9.02 0.735 0.735 0 0 0 -0.743 -0.871c-14.548 0.344 -29.1 0.882 -43.647 1.115a0.758 0.758 0 0 0 -0.706 0.779c-0.026 3.148 -0.02 6.3 -0.042 9.444a0.8 0.8 0 0 0 0.824 0.747c4.2 -0.154 7.507 -0.131 11.708 -0.39 0.7 -0.043 0.641 -1.306 -0.053 -1.308 -3.938 -0.011 -6.975 0.032 -10.912 0.114 -0.015 -2.641 -0.018 -5.282 -0.036 -7.923 14.022 -0.5 28.055 -0.72 42.08 -1.112a30.4 30.4 0 0 0 0.153 8.293" fill="#ffffff" stroke-width="0.5"></path>
    <path d="M102.468 106.607c0.662 0.157 0.842 -0.906 0.2 -1.094a28.57 28.57 0 0 1 -16.4 -13.525c-8.131 -14.522 -3.1 -33.553 10.11 -43.207 11.7 -8.551 36.834 -8.377 44.938 5.6 0.49 0.845 1.763 0.383 1.355 -0.516C136.335 39.9 110.619 37.9 98.008 45.6c-14.849 9.07 -21.736 28.686 -14.38 44.763 3.7 8.088 10.572 14.286 18.84 16.244" fill="#ffffff" stroke-width="0.5"></path>
    <path d="M159.632 109.534c0.254 -2.156 0.028 -7.9 0.037 -11.261 0 -1.206 -1.132 -0.763 -1.173 -0.258a96.034 96.034 0 0 0 -0.03 11.521c0.045 0.573 1.1 0.564 1.166 -0.002" fill="#ffffff" stroke-width="0.5"></path>
    <path d="M163.218 168.678c-5.969 -0.7 -18.347 -1.467 -26.385 -1.6 0 -4.615 -4.414 -31 -7.223 -33.207 -2.69 -2.114 -53.722 -2.508 -55.829 1.5 -2.77 5.276 1.808 37.962 4.336 38.825 4.113 1.4 82.289 1.167 85.7 0.9 1.783 -0.135 2.037 -6.111 -0.599 -6.418m-73.684 -31.659c-2.964 0.31 -5.8 0.72 -8.756 1.153 -2.559 0.375 -2.74 0.911 -3.018 3.367a70.211 70.211 0 0 0 -0.506 8.789c0 0.625 -0.909 0.789 -0.992 0.131a42.168 42.168 0 0 1 0.076 -10.14c0.286 -2.208 1.1 -3.2 3.3 -3.649a41.083 41.083 0 0 1 9.889 -0.776 0.569 0.569 0 0 1 0.007 1.125m13.066 22.329c-2.115 0.4 -4.406 -0.744 -5.231 -3.97 -0.717 -2.8 0.6 -4.913 2.926 -5.508 5.57 -1.424 7.605 8.465 2.305 9.478" fill="#ffffff" stroke-width="0.5"></path>
    <path d="M160.42 92.586c-9.51 -9.423 -3.841 -22.634 -9.923 -29.027a7.138 7.138 0 0 0 -9.169 -1.1c-4.685 -7.619 -14.241 -9.463 -22.377 -6.928 -8.867 2.763 -12.044 13.588 -4.926 17.072 3.73 1.826 16.825 1.981 20.919 1.188a18.284 18.284 0 0 0 3.661 9.329c0.212 0.255 0.508 0.608 0.86 0.3a3.7 3.7 0 0 1 5.426 0.514 3.855 3.855 0 0 1 -1.047 5.363c-1.223 0.809 -2.095 0.691 -3.465 0.622 -0.429 -0.021 -0.509 0.338 -0.538 0.666 -0.423 4.764 -0.892 10.2 -0.165 14.938a0.51 0.51 0 0 0 1.013 -0.116c0.01 -1.284 -0.038 -2.568 -0.08 -3.853 6.695 0.749 15.172 -3.167 19.831 -7.644 0.738 -0.701 0.21 -1.096 -0.02 -1.324M124.4 59.99a10.1 10.1 0 0 0 -4.707 1.069c-1.621 0.778 -4.373 2.712 -4.188 4.74 0.055 0.608 -0.819 0.98 -1.046 0.353 -1.095 -3.022 1.953 -5.383 3.985 -6.492a12.4 12.4 0 0 1 5.9 -1.515c2.638 0.003 1.549 1.908 0.056 1.845" fill="#ffffff" stroke-width="0.5"></path>
  </g>
</svg>