<svg viewBox="0 0 200 200" xmlns="http://www.w3.org/2000/svg" id="Designer-Giving-A-Keynote-2--Streamline-Free-Illustrations" height="200" width="200">
  <desc>
    Designer Giving A Keynote 2 Streamline Illustration: https://streamlinehq.com
  </desc>
  <g>
    <path d="M106.008 124.881c16.363 -0.83 31.354 -1.206 33.771 0.149 1.245 0.7 3.182 9.9 4.072 16.053 5.026 -0.6 11.342 -1.152 17.652 -1.582 -0.937 -4.734 -1.515 -7.7 -3.641 -12.274 -0.322 -0.693 0.56 -0.973 0.919 -0.34a38.048 38.048 0 0 1 4.227 12.536c8.543 -0.561 16.972 -0.9 22.255 -0.9 -0.6 -5.17 -3.923 -17.084 -9.88 -23.193 -4.592 -4.709 -13.5 -8.9 -21.384 -9.892a5.984 5.984 0 0 1 -3.82 4.925c-4.212 1.655 -11.9 2.09 -18.758 -1.677 -7.235 2.064 -20.494 9.938 -25.413 16.195" fill="#ffffff" stroke-width="0.5"></path>
    <path d="M194.206 161.679c-43.143 0.811 -86.091 0.651 -129.211 0.7 -0.872 0 -1.069 1.363 -0.167 1.379 43.023 0.795 86.559 -0.141 129.575 -0.668 0.919 -0.008 0.717 -1.428 -0.197 -1.411" fill="#ffffff" stroke-width="0.5"></path>
    <path d="M87.979 76.436c4.429 0.083 26.014 -0.319 28.309 -0.418 0.692 -0.03 0.674 -1.224 0 -1.224 -3.081 0 -23.351 0.391 -28.309 0.651a0.5 0.5 0 0 0 0 0.991" fill="#ffffff" stroke-width="0.5"></path>
    <path d="M70.3 70.907c-0.322 0.168 -5.891 6.862 -3.325 6.066 0.364 -0.113 4 -4.72 4.179 -5.546a0.532 0.532 0 0 0 -0.854 -0.52" fill="#ffffff" stroke-width="0.5"></path>
    <path d="M58.165 55.7c1.791 0.084 38.26 -0.007 40.434 -0.221a1.257 1.257 0 0 0 -0.077 -2.5c-10.149 0.126 -31.247 0.178 -40.3 0.376 -1.358 0.031 -1.472 2.281 -0.057 2.345" fill="#ffffff" stroke-width="0.5"></path>
    <path d="M109.214 94.184c-2.347 0 -20.192 -0.2 -21.456 0.161 -0.43 0.124 -0.6 0.82 -0.084 0.967 1.348 0.387 19.1 0.191 21.551 0.191s4.83 0.088 7.23 0c0.734 -0.027 0.68 -1.257 -0.048 -1.289 -2.388 -0.106 -4.8 -0.03 -7.193 -0.03" fill="#ffffff" stroke-width="0.5"></path>
    <path d="M87.477 103.527a0.6 0.6 0 0 0 -0.406 0.74c0.206 0.7 -0.719 0.46 29.694 0.967a0.681 0.681 0 0 0 0 -1.355c-29.176 -0.471 -27.365 -0.501 -29.288 -0.352" fill="#ffffff" stroke-width="0.5"></path>
    <path d="M116.115 86.19a0.657 0.657 0 0 0 0.041 -1.307c-4.34 -0.12 -24.536 -0.288 -28.2 0.442 -0.6 0.119 -0.466 0.993 0.107 1.044 3.099 0.279 7.837 -0.762 28.052 -0.179" fill="#ffffff" stroke-width="0.5"></path>
    <path d="M142.788 68.424c0.054 -8.614 0.454 -19.36 -0.269 -27.718a0.514 0.514 0 0 0 -1.021 0.054c-0.235 4.01 -0.014 22.642 0 27.76 0.002 0.841 1.285 0.746 1.29 -0.096" fill="#ffffff" stroke-width="0.5"></path>
    <path d="M67.323 108.332a47.123 47.123 0 0 0 3.946 3.845c0.6 0.565 1.524 -0.336 0.92 -0.9a53.437 53.437 0 0 0 -4.078 -3.7c-0.433 -0.277 -1.122 0.29 -0.788 0.755" fill="#ffffff" stroke-width="0.5"></path>
    <path d="M11.9 40.706c0 -0.752 -1.184 -0.889 -1.194 -0.119 -0.394 31.856 0.132 68.909 1.654 100.6 0.042 0.878 1.4 0.663 1.355 -0.209 -1.608 -33.523 -1.861 -66.721 -1.815 -100.272" fill="#ffffff" stroke-width="0.5"></path>
    <path d="M26.943 111.789c-0.336 0.5 0.443 1.136 0.836 0.669 0.507 -0.6 3.447 -4.007 3.3 -4.74 -0.405 -1.942 -3.562 3.222 -4.136 4.071" fill="#ffffff" stroke-width="0.5"></path>
    <path d="M48.942 95.629c-0.513 -0.095 -3.767 2.793 -4.424 3.42 -6.143 -4.017 -5.532 -3.028 -5.456 -0.6a44.783 44.783 0 0 0 0.346 4.967c0.075 0.521 0.867 0.43 0.9 -0.077 0.125 -1.857 -0.114 -3.708 -0.144 -5.564 5.409 3.3 3.737 3.2 8.788 -0.938 0.6 0.663 3.457 3.443 4.322 3.338 0.7 -0.087 3.057 -3.254 3.618 -3.929 0 1.433 0.046 5.523 0.471 6.681 0.22 0.6 0.8 0.388 0.83 -0.209 0.074 -1.272 -0.08 -4.287 -0.077 -5.755 0 -1.672 -0.005 -2.1 -0.705 -3.1 -1.52 -2.172 -5.37 -7.493 -7.719 -10.381 -2.069 -2.545 -2.16 -2.6 -3.612 -0.352 -2.237 3.469 -5.992 10.2 -6.566 11.48 -0.243 0.539 0.588 0.793 0.877 0.394 0.962 -1.329 3.14 -5.236 4.143 -6.955a59.63 59.63 0 0 0 6.764 -0.114c1.857 2.2 3.612 4.472 5.3 6.8l-3.444 4.179c-0.469 -0.372 -3.693 -3.189 -4.212 -3.285" fill="#ffffff" stroke-width="0.5"></path>
    <path d="M66.171 140.4c-5.373 -0.3 -49.126 -0.065 -50.833 0.2a0.6 0.6 0 0 0 0.065 1.159c16.543 0.047 34.1 -0.084 50.672 -0.066 0.806 0 0.944 -1.243 0.096 -1.293" fill="#ffffff" stroke-width="0.5"></path>
    <path d="M29.051 78.483c0.592 0.661 1.5 -0.167 1.008 -0.728 -1.194 -1.355 -3.752 -4.432 -4.931 -5.468 -0.467 -0.411 -1.1 0.232 -0.77 0.722 0.848 1.265 3.524 4.17 4.693 5.474" fill="#ffffff" stroke-width="0.5"></path>
    <path d="M48.3 72.6a44.249 44.249 0 0 0 -0.459 -7.761 0.55 0.55 0 0 0 -1 0.1 48.832 48.832 0 0 0 0.376 7.76 0.549 0.549 0 0 0 1.083 -0.099" fill="#ffffff" stroke-width="0.5"></path>
    <path d="M49.175 111.317c0 0.83 -0.221 6.34 0.077 7.063a0.6 0.6 0 0 0 1.039 0c0.311 -0.794 -0.042 -5.97 -0.083 -7.063 -0.054 -0.585 -1.033 -0.597 -1.033 0" fill="#ffffff" stroke-width="0.5"></path>
    <path d="M24.155 93.241C36.3 70.4 63.984 72.8 74.165 91.39c-12.028 18.357 -35.592 21.136 -50.065 3.486 -0.452 -0.55 -1.011 0.153 -0.6 0.729 12.724 17.7 39.911 15.39 51.137 -2.5a2.782 2.782 0 0 0 0.173 -3.247c-12.345 -21.142 -43.263 -17.339 -51.491 2.842 -0.245 0.6 0.543 1.093 0.836 0.541" fill="#ffffff" stroke-width="0.5"></path>
    <path d="M134.854 70.042c-3.128 0.6 -5.887 7.433 -2.436 10.632 2.113 1.959 11.844 2.042 17.743 1.791a6.949 6.949 0 0 0 0.459 2.107c0.235 0.6 0.939 0.79 0.764 -0.292a11.166 11.166 0 0 1 -0.131 -1.863c1.194 -0.059 2.137 -0.131 2.746 -0.2a38.225 38.225 0 0 1 -0.686 3.964c-0.165 0.717 0.64 0.851 0.913 0.167a15.435 15.435 0 0 0 0.991 -6.8c-0.356 -5.097 -14.649 -10.604 -20.363 -9.506m0.985 2.692c-1.439 0.329 -1.779 2.515 -1.91 3.684 -0.225 2 -1.5 0.6 -1.194 -1.159 0.234 -1.326 1.367 -3.486 3.02 -3.271a0.376 0.376 0 0 1 0.084 0.746" fill="#ffffff" stroke-width="0.5"></path>
    <path d="M146.549 90.62a13.088 13.088 0 0 0 1.618 -4.376 10.216 10.216 0 0 1 3.767 1.5c0.68 0.293 0.938 -0.6 0.6 -0.877a7.882 7.882 0 0 0 -4.305 -1.743c-0.728 -1.379 -6.262 -1.7 -7.116 -0.245a1.7 1.7 0 0 0 -1.385 -0.125c-0.435 -1.194 -5.343 -1.493 -6.566 -0.114 -1.409 -0.155 -1.994 1.146 -0.132 1.134a14.722 14.722 0 0 0 0.711 3.8c0.482 0.986 3.948 0.971 4.638 0.472 0.821 -0.593 1.194 -3.182 1.427 -4.179a1.45 1.45 0 0 1 1.027 0.06 16.819 16.819 0 0 0 0.453 3.97c0.53 1.054 4.494 1.631 5.263 0.723M138 88.9c-0.163 0.393 -0.31 0.487 -1.624 0.435 -2.22 -0.087 -1.755 0.394 -2.435 -4.077a7.5 7.5 0 0 1 4.823 0A9.871 9.871 0 0 1 138 88.9m4.179 0.453a14.6 14.6 0 0 1 -0.263 -3.737 7.229 7.229 0 0 1 5.272 0.161 9.159 9.159 0 0 1 -0.747 2.848c-0.568 1.243 -0.662 1.406 -2.453 1.26 -0.86 -0.07 -1.688 -0.261 -1.809 -0.531Z" fill="#ffffff" stroke-width="0.5"></path>
    <path d="M143.027 88.554c0.187 0.674 1.5 0.753 1.194 -1.194 -0.175 -1.108 -1.737 -0.76 -1.194 1.194" fill="#ffffff" stroke-width="0.5"></path>
    <path d="M154.369 87.748c-3.426 0.287 -5.117 6.563 -6.937 7.164 -1.272 0.421 -4.125 -1.409 -7.008 -1.606s-4.525 1.021 -5.063 0.764 -0.167 -2.507 -0.167 -3.032 -0.286 -0.812 -0.794 0.346 -5.462 12.274 -3.307 15.265c3.08 4.274 15.649 5.179 19.551 2.239 4.892 -3.686 0.729 -15.524 1.934 -18.608a2.328 2.328 0 0 1 2.466 -1.23c1.648 0.714 1.195 5.6 -1.439 4.835 -0.662 -0.191 -0.812 0.641 -0.2 0.962 1.789 0.941 3.545 -0.526 3.779 -2.985 0.175 -1.862 -0.457 -4.311 -2.815 -4.114m-13.641 11.1c-2.483 0 -2.985 -0.985 -3.194 -2.6a14.332 14.332 0 0 0 6.508 -0.113c-0.227 1.476 -0.542 2.717 -3.314 2.717Z" fill="#ffffff" stroke-width="0.5"></path>
    <path d="M139.54 88.357a16.105 16.105 0 0 0 -1.027 3.3c-0.247 1.345 1.542 1.349 2.55 1.194 0.6 -0.092 0.71 -0.776 0.053 -0.824 -0.483 -0.036 -1.432 -0.06 -1.522 -0.227a14.168 14.168 0 0 1 0.639 -3.283c0.139 -0.44 -0.503 -0.612 -0.693 -0.16" fill="#ffffff" stroke-width="0.5"></path>
    <path d="M136.7 88.6c0.556 -0.212 0.6 -1.709 0.125 -1.988 -1.199 -0.712 -1.366 2.456 -0.125 1.988" fill="#ffffff" stroke-width="0.5"></path>
    <path d="M146.483 35.93c-46.248 0.036 -95.344 -0.071 -140.888 0.317 -0.776 0.006 -0.794 2 -0.048 2.005 46.105 0.289 94.664 -0.071 140.888 -0.107 0.83 -0.001 0.848 -2.215 0.048 -2.215" fill="#ffffff" stroke-width="0.5"></path>
    <path d="M93.793 142.384c-7.9 -0.47 -20.137 -2.016 -27.509 -5.181 -0.948 -0.408 -5.631 0.357 -10.948 -2.1 -0.556 -0.256 -0.777 0.527 -0.257 0.848 2.717 1.674 6.149 2.12 9.283 2.221a5.12 5.12 0 0 1 2.43 0.543 82.42 82.42 0 0 0 27.061 4.835c0.758 0.011 0.734 -1.118 -0.06 -1.166" fill="#ffffff" stroke-width="0.5"></path>
    <path d="M183.61 140.116c-0.154 -0.842 -1.289 -0.545 -1.147 0.292a20.287 20.287 0 0 1 -0.567 9c-2.041 7.113 -8.047 5.972 -14.059 5.695 -6.31 -0.29 -15 -0.895 -20.452 -1.146a0.466 0.466 0 0 0 -0.147 0.92c5.245 0.833 16.449 1.326 20.814 1.533 5.97 0.284 12.63 1.08 14.853 -5.832a21.526 21.526 0 0 0 0.705 -10.462" fill="#ffffff" stroke-width="0.5"></path>
    <path d="M144.477 143.68a232.99 232.99 0 0 1 23.319 -2.513 0.491 0.491 0 0 0 -0.048 -0.98 195.432 195.432 0 0 0 -23.468 2.388 0.56147684725 0.56147684725 0 0 0 0.2 1.105Z" fill="#ffffff" stroke-width="0.5"></path>
    <path d="M62.225 135.03a0.619 0.619 0 1 0 -0.054 -1.236c-3.712 0.119 -5.585 -0.935 -8.035 -2.675 -0.388 -0.275 -0.8 0.21 -0.5 0.6 1.744 2.305 5.813 3.419 8.589 3.311" fill="#ffffff" stroke-width="0.5"></path>
    <path d="M68.4 128.7c0.452 0.784 1.4 0.89 2.244 1.081 4.985 1.133 16.392 0.755 21.683 0.693 0.752 -0.009 0.6 -0.981 -0.173 -0.974 -3.863 0.039 -15.522 0.149 -21.307 -0.919 -1.068 -0.2 -1.013 -0.042 -1.558 -0.9 -1.03 -1.626 -2.566 -3.615 -4.429 -3.648 -0.556 -0.01 -0.6 0.526 -0.126 0.764a7.771 7.771 0 0 1 3.666 3.903" fill="#ffffff" stroke-width="0.5"></path>
    <path d="M65.1 128.922c-2.582 -0.758 -6.231 -1.974 -8.238 -4.567 -0.6 -0.778 -1.11 -0.173 -0.812 0.454 1.25 2.632 5.826 5 8.453 5.1 1.453 0.061 1.049 -0.855 0.597 -0.987" fill="#ffffff" stroke-width="0.5"></path>
    <path d="M54.643 126.881a0.508 0.508 0 0 0 -0.818 0.6 11.552 11.552 0 0 0 8.328 4.889 0.6 0.6 0 0 0 0.352 -1.1c-0.877 -0.378 -4.605 -0.621 -7.862 -4.389" fill="#ffffff" stroke-width="0.5"></path>
    <path d="M169.766 157.476c-1.791 -0.233 -22.566 0.227 -23.528 -0.167S140.3 128.576 139 126.714s-42.249 -0.681 -44.111 0.394 4.287 33.445 5.88 34.1c1.421 0.583 66.862 -0.227 69 -0.34s1.788 -3.159 -0.003 -3.392m-51.592 -9.313c-5.587 0.465 -7.338 -8.7 -1.755 -9.611 2.65 -0.433 4.985 1.917 5.48 4.811a4.078 4.078 0 0 1 -3.725 4.8" fill="#ffffff" stroke-width="0.5"></path>
  </g>
</svg>