<svg viewBox="0 0 200 200" xmlns="http://www.w3.org/2000/svg" id="Designer-Desk-2--Streamline-Free-Illustrations" height="200" width="200">
  <desc>
    Designer Desk 2 Streamline Illustration: https://streamlinehq.com
  </desc>
  <g>
    <path d="M38.974 108.817c-0.061 -0.1 -5.5 -9.892 -9.343 -16.484A0.927 0.927 0 0 0 28.45 91.8c-7.145 1.332 -13.293 2.45 -22.551 4.242 2.868 6.811 0.5 1.742 7.732 17.289 0.107 0.269 0.214 0.483 0.59 0.376 2.739 -0.537 5.478 -0.958 8.215 -1.5 4.513 -0.907 15.517 -3.122 16.538 -3.39" fill="#ffffff" stroke-width="0.5"></path>
    <path d="M75.86 67.313c-0.214 0 -0.538 -0.376 -0.59 -0.645 -0.333 -1.716 -6.291 -34.146 -6.443 -34.685 -0.228 -0.8 0.106 -1.3 0.966 -1.4 3 -0.349 46.175 -5 48.646 -5.262 0.536 -0.056 0.867 0.051 1.02 0.644 0.455 1.766 7.724 32.325 8.322 34.954a1.077 1.077 0 0 1 -1.02 1.342c-2.148 0.165 -50.149 5.105 -50.901 5.052" fill="#ffffff" stroke-width="0.5"></path>
    <path d="M39.886 117.837c-0.238 -1.664 -0.837 -2.926 0.645 -3.382 1.137 -0.351 1.127 -0.323 1.127 -2.255a8.69 8.69 0 0 1 1.879 -5.853A11.59 11.59 0 0 1 51 101.515c2.448 -0.516 3.066 -0.84 9.611 -0.054 2.3 0.276 8.666 1.564 11.6 1.611 3.61 0.058 6.789 -1.212 5.689 -4.672 -1.506 -4.763 -5.929 -6.766 -10.685 -9.772 -2.387 -1.509 -4.358 -2.862 -2.631 -5.423a8.283 8.283 0 0 1 3.168 -2.631c3.506 -1.838 3.356 -1.611 5.1 -1.88 0 -0.107 0 -0.322 0.107 -0.375 0.7 -0.537 0.475 -1.18 0.322 -1.826a10.307 10.307 0 0 1 0.161 -4.349 1.906 1.906 0 0 1 1.772 -1.4c2.313 -0.18 52.786 -5.472 54.93 -5.744a5.263 5.263 0 0 1 4.456 1.342c4.822 4.245 13.945 11.335 18.685 15.249a2.413 2.413 0 0 1 0.967 2.846c-0.227 0.663 -0.428 2.943 -3.276 3.275 -8.645 1.008 -44.072 4.548 -56 5.96 -6.275 0.742 -12.845 -3.569 -16.913 -8.323a25.139 25.139 0 0 1 -3.437 -4.778c-0.107 -0.322 -0.81 -0.274 -0.966 -0.43 -0.376 -0.591 -0.859 -0.376 -1.342 -0.215a13.287 13.287 0 0 0 -6.713 3.974c-1.986 2.419 2.111 3.509 7.517 7.141 2.96 1.988 6.189 5.551 6.121 8.966a4.269 4.269 0 0 1 -2.416 3.6c-5.677 2.51 -15.627 -1.629 -22.551 -1.181 -4.3 0.277 -7.869 1.946 -10.094 5.8a9.039 9.039 0 0 0 -1.289 5.1c0 0.43 0.107 0.752 0.644 0.859 1.021 0.108 1.192 0.964 1.4 1.772 0.284 1.124 0.271 1.1 1.4 0.967 15.852 -1.852 9.5 -1.384 14.658 -1.88a3.937 3.937 0 0 1 3.6 2.2c2.372 5.181 10.993 22.259 11.222 25.074a2.437 2.437 0 0 1 -1.88 2.792 32.137 32.137 0 0 1 -6.282 1.933c-0.118 0.028 -21.033 4.411 -24.269 4.725 -0.968 0.094 -4.349 0.269 -5.745 -0.483 -3.336 -1.043 -5.837 -6.978 -7.248 -10.2 -6.18 -14.113 -6.08 -14.5 -6.336 -17.342a2.655 2.655 0 0 1 2.094 -2.9c3.27 -0.826 6.546 -1.522 9.826 -2.255 2.097 -0.47 3.714 -0.555 3.909 -0.751m-12.94 10.041a0.654 0.654 0 0 0 -0.483 0.913c1.673 3.778 8.967 19.007 9.289 19.436 0.4 0.4 37.586 -6.957 37.692 -6.98a0.768 0.768 0 0 0 0.537 -1.073c-1.772 -3.68 -8.269 -17.558 -8.8 -18.632a0.63 0.63 0 0 0 -0.591 -0.268c-4.19 0.698 -32.06 5.584 -37.644 6.604m49.129 -47.411a24.408 24.408 0 0 0 4.188 5.692c5.164 4.9 11.014 6.64 12.886 6.5 1.717 -0.131 53.427 -5.725 57.183 -6.174a2.688 2.688 0 0 0 2.524 -2.255 1.835 1.835 0 0 0 -0.537 -1.826c-6.256 -5.175 -12.526 -10.452 -18.739 -15.678a2.775 2.775 0 0 0 -2.362 -0.752c-3.749 0.553 -50.254 5.506 -55.572 6.068 -1.833 0.193 -1.356 0.685 -0.913 5.154 0.048 0.484 0.322 0.644 0.8 0.644a2.534 2.534 0 0 1 1.45 0.43 3.716 3.716 0 0 1 0.859 1.5c0.215 0.43 0 0.7 -0.483 0.7a5.144 5.144 0 0 1 -1.284 -0.003" fill="#ffffff" stroke-width="0.5"></path>
    <path d="M146.2 43.258c-0.483 -1.611 -0.913 -3.168 -1.45 -4.671A24.4 24.4 0 0 1 145.233 31.5c0.8 -0.4 1.858 1.889 3.276 3.382 1.124 1.184 1.288 2.685 1.718 4.081 0.215 0.7 0.429 1.342 0.644 2.04a0.2 0.2 0 0 0 0.161 -0.054c-0.107 -0.7 -0.537 -7.624 -0.537 -10.2 0 -1.6 1.209 -3.253 2.739 -2.524 1.467 0.7 1.59 2.167 1.825 3.812 1.128 -0.107 1.269 0 1.5 1.128a9.168 9.168 0 0 1 0 3.544c-0.111 0.442 -0.255 0.624 -0.537 0.483 -0.108 -1.4 -0.43 -4.242 -0.484 -4.242a8.448 8.448 0 0 0 -0.214 1.128q0.242 3.785 0.644 7.57c0 0.15 0.146 0.921 0.591 0.7a108.271 108.271 0 0 1 2.741 -11.922c0.27 -1.051 1.02 -2.035 2.094 -1.665a1.729 1.729 0 0 1 0.752 1.772c0 0.107 -0.054 0.161 -0.054 0.269a1.329 1.329 0 0 1 0.859 1.342c0.027 1.236 0.027 2.415 0 3.651a0.542 0.542 0 0 1 -1.074 0.054 7.954 7.954 0 0 0 -0.161 -1.182c-2.821 14.106 -0.81 7.261 2.577 0.161a7.552 7.552 0 0 1 1.074 -1.449 11.979 11.979 0 0 1 1.4 -1.718 0.99 0.99 0 0 1 0.752 -0.484c0.483 0 0.544 0.322 0.59 0.806 0.129 1.34 0.323 2.631 0.484 3.973 0.089 0.448 -0.063 0.641 -3.007 7.141 -0.218 0.482 0 0.744 0.376 0.967 0.435 0.26 0.913 0.537 1.342 0.751a1.672 1.672 0 0 1 0.859 1.88c-0.422 2.694 -3.961 22.221 -4.349 24.644 -0.947 5.907 -9.578 4.792 -15.41 3.544 -2.929 -0.626 -2.723 -2.4 -3.436 -5.476 -0.386 -1.663 -4.79 -20.415 -5.53 -23.088 -0.689 -2.468 4.235 -3.197 6.762 -3.061M166.5 47.285c-8.591 1.826 -17.075 1.987 -25.451 -0.966 2.326 11.627 3.42 14.793 6.229 25.5 0.348 1.329 1.19 1.159 1.664 1.4 6.469 0.7 8.985 1.5 11.866 0.161a2.4 2.4 0 0 0 1.557 -1.879c3.943 -21.101 2.735 -16.121 4.129 -24.216Zm-20.565 -8.967A35.61 35.61 0 0 0 148.077 46a0.792 0.792 0 0 0 0.269 0.322c0.966 0.161 1.932 0.268 2.953 0.376 -0.162 -0.649 -2.653 -8.6 -2.685 -8.7 -0.483 -1.237 -2.899 0.052 -2.685 0.32Zm20.135 -1.557c-0.268 0.054 -0.538 0.275 -0.805 0.215 -0.216 -0.048 -0.376 -0.376 -0.591 -0.644 -1.45 3.382 -3.221 6.6 -4.51 10.148 0.966 -0.108 1.772 -0.215 2.577 -0.322 0.391 0 0.439 -0.236 3.812 -8.108 0.178 -0.367 -0.19 -0.79 -0.489 -1.289Zm-7.785 -0.751c-0.752 3.7 -1.4 7.141 -2.148 10.738 0.752 -0.053 1.235 -0.107 1.772 -0.107 0.89 0 0.384 0.023 2.684 -10.041 -0.811 -0.214 -1.563 -0.376 -2.314 -0.59Zm-3.222 10.738c-0.339 -4.742 -0.572 -6.939 -0.7 -9.128 -0.068 -1.18 -0.215 -1.4 -1.45 -1.288a9.129 9.129 0 0 0 -0.966 0.268c0.322 3.383 0.644 6.766 0.913 10.148Zm-0.966 -11.7c-0.215 -1.664 -0.42 -3.438 -0.752 -5.154 -0.208 -1.075 -1.289 -0.537 -1.45 -0.269a1.711 1.711 0 0 0 -0.322 1.02c0.086 3.606 0.322 3.946 0.322 4.886 0.746 -0.166 1.39 -0.331 2.196 -0.488Zm-6.605 0.913c-1.02 -1.557 -1.02 -1.557 -1.718 -1.342 -0.322 2.416 -0.537 2.04 0.161 2.04a3.461 3.461 0 0 0 1.551 -0.703Zm18.256 -0.537c0.752 -0.429 0.752 -0.429 1.5 0.644l0.161 0q-0.079 -1.047 -0.161 -2.094a7.736 7.736 0 0 0 -0.859 -0.268c-1.023 1.122 -1.023 1.122 -0.647 1.713Z" fill="#ffffff" stroke-width="0.5"></path>
    <path d="M11.375 169.651a5.558 5.558 0 0 1 -1.557 0 0.6 0.6 0 0 1 -0.429 -0.376c-0.054 -0.107 0.161 -0.322 0.268 -0.483a1.818 1.818 0 0 1 1.45 -0.537c9.416 -1.766 162.344 -29.7 179.387 -33.021 1.578 -0.308 2.538 1.222 1.289 1.5 -1.109 0.253 -180.308 32.899 -180.408 32.917" fill="#ffffff" stroke-width="0.5"></path>
    <path d="M193.984 141.194a0.822 0.822 0 0 1 1.02 0.376c-0.107 0.59 -0.59 0.7 -1.073 0.859 -60.9 14.589 -175.6 35.652 -181.106 35.652 0 -2.297 36.303 -5.181 181.159 -36.887" fill="#ffffff" stroke-width="0.5"></path>
    <path d="M37.953 84.709c-1.5 1.289 -5.74 0.636 -7.248 -0.322a7.071 7.071 0 0 1 -3.275 -6.175c-0.155 -5.19 4.251 -6.912 7.033 -4.564 0.215 0.161 0.43 0.376 0.591 0a5.526 5.526 0 0 1 4.4 -2.953c5.41 -0.934 8.154 -1.495 16.269 0.054 2.42 0.462 3.7 2.523 3.49 5.154a18.566 18.566 0 0 1 -4.3 10.309 5.394 5.394 0 0 1 -3.536 1.988 32.029 32.029 0 0 1 -7.464 0.268c-3.05 -0.254 -4.941 -2.886 -5.96 -3.759m-2.147 -9.557a11.23 11.23 0 0 0 0.966 5.637 16.353 16.353 0 0 0 4.457 5.531 3.924 3.924 0 0 0 2.471 1.02 33.178 33.178 0 0 0 8.752 -0.483 1.582 1.582 0 0 0 0.752 -0.484c2.88 -2.971 5.211 -7.506 5.047 -11.758 -0.093 -2.408 -2.609 -3.139 -4.993 -3.49 -5.316 -0.784 -16.934 -1.311 -17.452 4.027m8.859 -3.813c8.759 -0.9 14.373 1.824 12.081 2.846 -4.084 1.821 -10.9 2.871 -18.685 0.859 -0.807 -0.208 -2.152 -1.3 -0.376 -2.309 1.232 -0.702 5.476 -1.242 6.98 -1.396m-10.094 4.242a1.382 1.382 0 0 0 -0.161 -0.966 3.063 3.063 0 0 0 -5.262 0.913 6.2 6.2 0 0 0 3.866 8.372 6.874 6.874 0 0 0 4.456 0.214c-0.268 -0.376 -0.537 -0.7 -0.752 -1.02 -3.131 1.114 -9.182 -4.714 -5.261 -7.463a2.542 2.542 0 0 1 3.114 -0.05m1.879 7.141a11.633 11.633 0 0 1 -1.772 -5.852 1.547 1.547 0 0 0 -2.309 -0.7c-2.969 1.648 0.716 6.552 4.081 6.552m7.624 -9.664c-1.5 -0.752 -4.188 -0.484 -5.047 0.859 1.718 -0.317 3.273 -0.591 5.047 -0.859" fill="#ffffff" stroke-width="0.5"></path>
    <path d="M72.478 69.89c0.215 2.255 -0.959 0.321 -1.02 -0.054 -0.335 -2.047 -6.674 -35.113 -6.927 -36.887a5.629 5.629 0 0 1 2.524 -5.96 5.1 5.1 0 0 1 1.825 -0.537c1.393 -0.233 46.392 -4.435 48.324 -4.51 6.026 -0.234 5.467 0.566 14.228 41.451 0 1.128 -0.847 0.749 -0.966 0.268 -0.147 -0.594 -0.39 -1.177 -0.537 -1.771 -7.786 -31.48 -7.684 -35.506 -8.376 -36.78a3.3 3.3 0 0 0 -3.275 -1.987c-1.611 0.11 -49.563 4.5 -50.364 4.994 -1.874 1.147 -1.9 2.786 -2.148 4.295 0.054 0.054 6.175 34.364 6.712 37.478" fill="#ffffff" stroke-width="0.5"></path>
    <path d="M34.141 110.857c-1.23 0.241 -5.8 1.226 -6.872 1.45 -1.671 0.349 -5.726 0.945 -12.672 2.47a2.091 2.091 0 0 1 -2.631 -1.5C4.654 95.909 4.9 96.426 5.04 95.447c0 -0.332 -0.285 -0.181 19.49 -3.973 1.4 -0.267 2.795 -0.524 4.188 -0.859 0.646 -0.155 0.967 0.215 1.235 0.7 6.66 11.988 3.934 7.6 8.913 15.678 0.43 0.7 0.761 1.39 1.181 2.041 0.275 0.425 0.053 0.747 -0.375 0.859 -0.372 0.095 -3.972 0.659 -5.531 0.964m4.833 -2.04c-0.061 -0.1 -5.5 -9.892 -9.343 -16.484A0.927 0.927 0 0 0 28.45 91.8c-7.145 1.332 -13.293 2.45 -22.551 4.242 2.868 6.811 0.5 1.742 7.732 17.289 0.107 0.269 0.214 0.483 0.59 0.376 2.739 -0.537 5.478 -0.958 8.215 -1.5 4.513 -0.907 15.517 -3.122 16.538 -3.39" fill="#ffffff" stroke-width="0.5"></path>
    <path d="M8.208 65c-1.155 0.231 -1.706 -1.319 -0.537 -1.611 1.5 -0.18 57.214 -5.06 59.008 -5.208 0.751 -0.062 1.02 0.053 1.074 0.59s-0.108 0.806 -0.7 0.806C65.042 59.581 8.525 65 8.208 65" fill="#ffffff" stroke-width="0.5"></path>
    <path d="M175.514 93.192c-3.057 -0.833 -1.343 -0.007 -9.235 -2.953a24.769 24.769 0 0 1 -5.8 -3.436 3.514 3.514 0 0 0 -1.235 -0.537 1.8 1.8 0 0 1 -1.074 -3.007 11.092 11.092 0 0 1 4.672 -3.275c3.125 -1.317 6.228 -0.858 9.288 0.215 4.569 1.6 10.221 3.264 11.6 7.732a4.021 4.021 0 0 1 -1.718 4.4c-3.806 2.097 -4.826 1.317 -6.498 0.861m-13.638 -6.174a37.685 37.685 0 0 0 10.9 4.617c-0.627 -0.626 0.706 0.166 -10.524 -4.725 -0.438 -0.291 -0.639 -0.024 -0.376 0.108m3.436 -6.98c-2.157 0.5 -5.2 1.844 -6.443 3.651 -0.55 0.8 -0.324 1.35 0.645 1.611a54.053 54.053 0 0 1 14.228 5.959c2.464 1.243 4.411 2.294 7.625 -0.375 1.5 -1.244 1.558 -2.31 0.536 -3.974a7.764 7.764 0 0 0 -3.543 -3.167c-2.522 -1.078 -5.1 -2.041 -7.732 -2.954a14.485 14.485 0 0 0 -5.316 -0.751" fill="#ffffff" stroke-width="0.5"></path>
    <path d="M156.668 106.455c0.107 -2.041 1.658 -2.836 3.436 -1.826 0.1 0.059 13.819 7.621 24.538 13.8a21.463 21.463 0 0 1 2.523 3.383c0.247 0.374 0.126 0.8 -0.483 0.8 -4.76 -0.529 -0.537 1.148 -28.618 -14.6 -0.483 -0.43 -1.181 -0.859 -1.396 -1.557m27.276 12.51L163.7 107.475a1.457 1.457 0 0 0 -2.2 0.376c-0.44 0.528 -0.427 0.8 0.161 1.127 9.262 5.131 20.807 11.866 21.048 11.866 0.376 -0.59 0.752 -1.235 1.235 -1.879m1.718 1.825 -0.805 -1.288c-1.021 0.429 -1.45 0.966 -1.4 1.825 0.755 -0.107 1.614 0.43 2.205 -0.537m-27.6 -13.852c0.429 -0.645 0.805 -1.235 1.235 -1.88a1.08 1.08 0 0 0 -1.5 0.484c-0.377 0.644 -0.216 1.181 0.267 1.396Zm2.04 1.288c0.537 -0.7 1.02 -1.235 1.5 -1.825a1.6 1.6 0 0 0 -1.665 1.235c0.006 0.164 0.163 0.429 0.163 0.59Zm-1.074 -0.537c0.484 -0.8 0.859 -1.4 1.182 -2.04 -0.806 0.161 -1.343 0.591 -1.4 1.289a2.3 2.3 0 0 0 0.22 0.751Z" fill="#ffffff" stroke-width="0.5"></path>
    <path d="M57.229 85.514c3.262 0.568 2.333 7.351 -9.074 8.054 -4.427 0.273 -14.136 -1.464 -12.457 -4.939a2.227 2.227 0 0 1 1.933 -1.5 0.847 0.847 0 0 1 -0.376 0.376 1.64 1.64 0 0 0 0.108 2.953c4.834 2.938 14.769 3.256 19.759 -0.8a2.489 2.489 0 0 0 0.429 -3.6c-0.161 -0.114 -0.215 -0.329 -0.322 -0.544" fill="#ffffff" stroke-width="0.5"></path>
    <path d="M169.769 49.809c-0.78 0 -0.929 -0.66 -0.376 -1.074 0.911 -0.982 12.571 -1.718 12.672 -1.718a1.023171662 1.023171662 0 0 1 0.161 2.04 108.885 108.885 0 0 1 -12.457 0.752" fill="#ffffff" stroke-width="0.5"></path>
    <path d="M134.063 51.634c4.2 -0.479 4.894 -0.551 5.477 -0.215a0.609 0.609 0 0 1 -0.054 1.128 12.129 12.129 0 0 1 -2.309 0.591c-1.877 0.232 -3.812 0.376 -5.745 0.483 -0.805 0.107 -2.259 -1.429 2.631 -1.987" fill="#ffffff" stroke-width="0.5"></path>
    <path d="M150.278 100.763c-0.375 -0.483 -0.8 -1.074 -1.61 -0.752 -0.161 0.054 -1.788 0.171 -2.2 -0.537 -0.773 -1.32 -3.729 -2.1 -4.886 -2.2 -10.976 -1.176 -15.933 1.062 -21.369 4.134 -1.047 0.449 -0.287 0.221 -3.652 -0.966 -6.488 -2.433 -17.456 -1.888 -27.92 4.779a10.934 10.934 0 0 0 -3.382 3.275c-0.678 1.015 -1.191 0.839 -2.685 1.5a1 1 0 0 0 -0.591 1.557c0.859 1.45 16.43 27.545 17.826 29.961 0.43 0.752 0.752 0.913 1.557 0.752 2.954 -0.645 27.835 -5.476 33.344 -6.658a8.223 8.223 0 0 1 2.684 -0.269 7.346 7.346 0 0 0 5.262 -1.4 2.817 2.817 0 0 1 1.45 -0.537c2.523 -0.322 21.853 -3.168 23.839 -3.436 5.894 -0.615 7.926 3.998 -17.667 -29.203m-47.571 38.981c-0.4 -0.4 -17.276 -28.25 -17.343 -28.35 0.469 -0.469 -1 -2.45 17.074 27.384 0.577 0.961 0.582 0.653 0.269 0.966m8.483 -2.685a57.688 57.688 0 0 1 20.994 -4.886Zm2.148 -1.933c4.671 -2.362 9.557 -3.865 14.551 -3.651a68.073 68.073 0 0 0 -14.551 3.651m-9.289 4.081q-9.182 -14.98 -18.363 -29.907c9.162 -7.8 21.394 -10.769 31.733 -7.087a5.8 5.8 0 0 1 3.06 2.47c8.846 13.558 16.694 25.209 17.772 27.007 -12.832 -3.973 -24 -0.483 -34.202 7.517m35.491 -7.732c-6.282 -9.45 -12.618 -19.007 -19.007 -28.564 6.019 -4.982 18.667 -5.543 24.967 -3.222 0.477 0.12 20.142 25.784 20.564 26.417a28.094 28.094 0 0 0 -13.692 0.483 49.818 49.818 0 0 0 -12.832 4.886m22.443 -4.617c-3.7 0.537 -7.624 1.02 -11.49 1.557 5.155 -1.396 9.987 -1.987 11.49 -1.557m-16.644 3.973a0.322 0.322 0 0 1 -0.054 -0.215c1.235 -0.322 2.524 -0.7 3.866 -0.913 2.706 -0.411 13.382 -2.021 16.161 -2.147a3.983 3.983 0 0 1 1.074 0.161c-7.086 1.074 -14.067 2.094 -21.047 3.114" fill="#ffffff" stroke-width="0.5"></path>
    <path d="M158.064 106.938c-1.1 -0.49 -0.177 -2.559 1.181 -1.88 -0.376 0.642 -0.805 1.235 -1.181 1.88" fill="#ffffff" stroke-width="0.5"></path>
    <path d="M63.565 141.355c-0.108 0.59 -0.431 0.87 -0.967 0.805 -2.531 -0.307 0.778 1.15 -10.04 -5.262 -2.821 -1.672 -14.39 -7.907 -14.39 -10.04 0.263 -0.263 3.286 0.2 3.759 0.483 23.93 14.454 19.92 11.867 21.638 14.014m-11.222 -5.477c0.271 0.271 5.263 3.243 8.859 5.369 0.373 0.221 0.537 0.054 0.752 -0.214 0.215 -0.323 0 -0.482 -0.268 -0.645 -1.01 -0.613 -7.035 -4.3 -8.967 -5.423a8.045 8.045 0 0 1 -0.376 0.913" fill="#ffffff" stroke-width="0.5"></path>
    <path d="M131.271 68.011c0.982 0.151 0.3 -0.236 15.088 12.51 0.558 0.372 0.149 0.752 -0.215 0.752 -2.04 0.214 -50.632 5.749 -52.833 6.067a1.88 1.88 0 0 1 -1.826 -0.752c-10.5 -12.733 -10.836 -12.7 -10.685 -13.155 0.423 -0.846 50.353 -5.441 50.471 -5.422m-40.591 9.235c-0.645 0.107 -1.128 0.214 -1.665 0.268 -0.483 0.108 -0.054 0.269 0.269 0.269 1.911 -0.531 2.729 0.727 4.939 3.49 -0.751 0.107 -1.342 0.161 -1.933 0.268 -0.537 0.215 -0.053 0.161 0 0.215a7.1 7.1 0 0 0 1.557 0 1.4 1.4 0 0 1 1.45 0.537 20.536 20.536 0 0 0 1.611 1.449c0.161 0.108 0.322 0.215 0.161 -0.161 -0.537 -0.59 -1.02 -1.181 -1.611 -1.771a0.1 0.1 0 0 1 0.054 -0.162c0.859 -0.107 4.51 -0.59 6.389 -0.751a1.13 1.13 0 0 1 0.7 0.376c1.383 1.383 3.252 3.55 2.685 2.416 -0.752 -0.913 -1.5 -1.879 -2.309 -2.792 0.215 -0.108 1.721 -0.247 5.853 -0.7 1.88 -0.2 2.482 -0.441 3.06 0.215 0.6 0.686 1.235 1.342 1.826 2.04 0.268 0.429 0.483 0.215 0.161 -0.161 -0.537 -0.806 -1.128 -1.557 -1.718 -2.416 2.308 -0.269 4.564 -0.537 6.872 -0.806 0.8 0 1.732 1.763 2.792 2.47l0.161 -0.161c-0.59 -0.752 -1.127 -1.5 -1.718 -2.255 -0.151 -0.3 -0.19 -0.112 6.282 -0.967 0.753 -0.1 1.235 -0.214 1.772 0.537 0.967 1.719 1.4 1.987 1.02 1.021 -0.161 -0.269 -0.537 -1.021 -0.751 -1.45a0.181 0.181 0 0 1 0.161 -0.269c0.859 -0.107 3.008 -0.527 4.939 -0.751 1.773 -0.206 2.314 -0.541 2.953 0.161 0.487 0.534 1.021 1.02 1.558 1.557 0.375 0.429 0.536 0.322 0.214 -0.161l-1.5 -1.826a0.15 0.15 0 0 1 0.107 -0.268l1.826 -0.483c0.429 -0.108 0.215 -0.215 -0.054 -0.215 -2.511 0.228 -2.311 0.682 -3.651 -0.913 -0.588 -0.7 -2.685 -2.47 -3.007 -2.792a4.906 4.906 0 0 1 0.537 -0.269c0.376 -0.107 0.376 -0.268 -0.161 -0.161a1.731 1.731 0 0 1 -0.913 -0.053c-0.107 -0.054 -0.912 -1.02 -1.181 -1.343 -0.322 -0.268 -0.322 -0.107 -0.161 0.108l0.7 1.127a0.181 0.181 0 0 1 -0.161 0.269c-2.255 0.268 -4.457 0.537 -6.658 0.751 -0.717 0 -1 -0.485 -1.772 -1.127 -0.215 -0.376 -0.376 -0.215 -0.107 0.107 0.268 0.376 0.483 0.752 0.752 1.128 0.107 0.215 0.053 0.268 -0.054 0.268 -1.02 0.215 -3.061 0.264 -4.3 0.43 -3.115 0.418 -3.283 0.49 -4.51 -0.967a7.144 7.144 0 0 0 -0.913 -0.859c-0.161 -0.214 -0.268 -0.053 -0.161 0.161 0.484 0.591 1.074 1.343 1.611 1.987a0.1 0.1 0 0 1 -0.054 0.161c-0.805 0.054 -4.133 0.217 -5.584 0.483 -1.18 0.217 -1.4 0.161 -2.308 -0.912a6.96 6.96 0 0 0 -0.806 -0.967c-0.376 -0.483 -0.268 -0.107 -0.161 0.161 0.376 0.537 0.752 1.128 1.128 1.718a0.2 0.2 0 0 1 -0.108 0.269c-2.47 0.376 -4.875 0.76 -7.3 1.127 -0.887 0.135 -0.579 -0.2 -1.987 -1.61l-0.161 0.161c0.323 0.537 0.7 1.02 1.128 1.61 -2.094 0.376 -4.135 0.641 -6.175 1.074a1.314 1.314 0 0 1 -1.557 -0.7c-1.342 -1.664 -1.557 -1.557 -1.342 -1.288a12.42 12.42 0 0 0 1.284 2.098" fill="#ffffff" stroke-width="0.5"></path>
    <path d="M91.324 90.669c-0.1 -0.1 -0.956 -0.755 0.107 -1.02 2.2 -0.269 57.183 -6.551 59.545 -6.819 0.463 0 0.786 0.569 0.054 0.751 -5.659 0.731 -58.569 6.86 -59.706 7.088" fill="#ffffff" stroke-width="0.5"></path>
    <path d="M75.538 73.219c14.691 16.5 15.038 16.035 14.39 16.591 -0.376 0.322 -0.641 -0.057 -0.859 -0.322 -2.807 -3.42 -14.336 -15.838 -14.336 -16.055 0 -0.161 -0.004 -1.124 0.805 -0.214" fill="#ffffff" stroke-width="0.5"></path>
    <path d="M98.733 110.374c-0.622 0.319 -1.222 0.677 -1.4 0.215 -0.214 -0.857 4.316 -2.828 4.779 -3.007a31.163 31.163 0 0 1 13.262 -2.094 15.6 15.6 0 0 1 2.309 0.43c2.317 1.155 -8.747 -0.772 -18.95 4.456" fill="#ffffff" stroke-width="0.5"></path>
    <path d="M118.117 109.515c1.288 0.537 0.053 0.7 -0.162 0.7a31.188 31.188 0 0 0 -7.731 1.02c-0.161 0.054 -1.45 -0.107 -0.215 -0.7 4.791 -1.535 5.849 -1.541 8.108 -1.02" fill="#ffffff" stroke-width="0.5"></path>
    <path d="M140.077 120.737c-0.644 -1.02 -1.289 -1.987 -1.933 -2.953a0.813 0.813 0 0 0 -0.644 -0.108c-0.541 0.149 -1.128 0.322 -1.719 0.43 0.323 -0.752 1.074 -0.913 1.719 -1.343 -0.484 -0.805 -0.913 -1.61 -1.4 -2.469 -1.936 0.7 -1.82 0.664 -2.363 0.483 0.326 -0.489 -0.247 -0.3 1.987 -1.235 -0.645 -1.128 -1.235 -2.2 -1.88 -3.329 -0.429 0.161 -0.859 0.322 -1.342 0.483 0 -0.751 0.644 -0.8 0.967 -1.127 -0.484 -1.02 -0.967 -2.041 -1.45 -3.115 0.054 -0.053 0.026 -0.878 0.859 0.269 1.4 1.926 1.528 2.47 1.933 2.47 1.772 -0.376 3.49 -0.806 5.262 -1.235 -1.826 -3.329 -2.094 -4.457 0.644 -0.537a0.753 0.753 0 0 0 0.913 0.483c1.287 -0.125 2.577 -0.161 3.973 -0.215a5.161 5.161 0 0 1 -0.429 -1.02c-1.4 -4.349 0.751 -0.322 0.751 -0.268 0.988 2.964 3.381 0.464 4.4 2.362 -0.859 -0.053 -1.772 -0.107 -2.846 -0.161 0.591 0.913 1.074 1.718 1.611 2.524 0.126 0.251 2.758 0.019 3.544 0.8 -0.913 0.483 -1.826 0 -2.846 0.322 0.43 0.7 0.859 1.4 1.343 2.094 0.053 0.108 0.322 0.108 0.536 0.108 0.806 0.053 1.558 0.053 2.363 0.107a3.008 3.008 0 0 1 0.644 0.215c0 0.39 0.318 0.082 -2.9 0.59 0.483 0.806 0.913 1.611 1.45 2.363 0.279 0.28 1.2 0.086 3.382 0.215 0.211 0 1.2 0.352 0.913 0.644 -1.181 0.107 -2.363 0.215 -3.6 0.322a7.523 7.523 0 0 0 0.375 1.181c1.4 3.866 1.343 4.027 -0.7 0.484 -0.4 -0.535 -0.75 -1.45 -1.288 -1.45 -1.4 0.215 -2.739 0.43 -4.188 0.644 0.376 0.913 1.074 2.739 1.288 3.437 0.484 1.288 -0.322 0.107 -0.375 0.053 -1.362 -1.928 -1.759 -3.114 -2.363 -3.114 -1.611 0.322 -3.168 0.7 -4.779 1.02 0.484 0.859 0.913 1.665 1.343 2.47 0.376 0.591 -0.054 0.483 -0.269 0.161 -0.322 -0.376 -0.7 -0.7 -1.02 -1.074 -0.374 -0.431 -0.7 -1.127 -1.127 -1.235 -0.567 -0.188 -1.183 0.347 -3.007 0.752 0.335 -0.8 1.355 -0.961 2.268 -1.498m-3.383 -7.571c1.718 -0.429 3.383 -0.913 5.047 -1.342 -0.429 -0.967 -0.912 -1.879 -1.4 -2.953 -1.772 0.322 -3.6 0.7 -5.53 1.074 0.702 1.127 1.289 2.201 1.883 3.221m2.255 4.027c0.7 1.074 1.343 2.094 1.987 3.061a0.332 0.332 0 0 0 0.376 0.107c1.557 -0.43 3.168 -0.859 4.778 -1.342 -0.536 -0.913 -1.073 -1.772 -1.61 -2.631a0.36 0.36 0 0 0 -0.376 -0.161c-1.665 0.322 -3.329 0.644 -5.155 0.966m4.833 -1.879c-0.43 -0.752 -0.913 -1.5 -1.343 -2.255 -0.192 -0.385 -0.965 0.043 -5.315 0.859 0.483 0.859 0.859 1.5 1.288 2.2 0.108 0.108 0.323 0.269 0.484 0.215 1.61 -0.321 3.221 -0.643 4.886 -1.019m1.664 0.644c1.373 2.247 1.655 2.9 1.987 2.9 1.4 -0.215 2.792 -0.484 4.241 -0.752 -0.483 -0.806 -0.912 -1.557 -1.4 -2.309 -0.151 -0.31 -0.55 -0.281 -4.828 0.161m-4.134 -7.195c1.591 2.917 1.113 2.94 3.007 2.739 1.02 -0.109 2.04 -0.215 3.114 -0.323 -0.43 -0.805 -0.847 -1.565 -1.289 -2.255a0.692 0.692 0 0 0 -0.483 -0.322c-1.397 0.027 -2.792 0.108 -4.349 0.161m2.094 3.866c0.483 0.859 0.913 1.557 1.4 2.255a0.556 0.556 0 0 0 0.429 0.215c1.45 -0.161 2.846 -0.376 4.349 -0.537 -1.938 -2.901 -0.413 -2.345 -6.178 -1.933" fill="#ffffff" stroke-width="0.5"></path>
    <path d="M130.627 103.716c-0.161 -0.483 0.215 -0.752 0.591 -0.859 5.457 -2.01 11.043 -1.628 12.08 -0.591 0.467 0.467 -0.048 0.749 -0.375 0.645 -3.901 -1.242 -8.418 -0.164 -12.296 0.805" fill="#ffffff" stroke-width="0.5"></path>
    <path d="M21.523 93.837a8.672 8.672 0 1 1 -8.752 8.7 8.743 8.743 0 0 1 8.752 -8.7m-1.288 7.356c0 -0.054 -1.772 -3.544 -2.685 -5.423 -0.859 0.805 -1.611 1.5 -2.47 2.255 1.772 1.127 5.101 3.168 5.155 3.168M14.758 106.4c0.859 0.913 1.611 1.664 2.416 2.523 1.128 -1.825 3.276 -5.315 3.276 -5.369 -0.15 0.155 -3.798 1.9 -5.692 2.846m-0.376 -0.7c1.987 -1.02 5.584 -2.9 5.584 -2.953 -2.04 -0.108 -4.08 -0.161 -6.282 -0.269 0.216 1.131 0.43 2.097 0.698 3.222m13.96 0.59c0.323 -1.073 0.645 -2.04 0.967 -3.06 -2.2 -0.107 -6.282 -0.269 -6.336 -0.215 1.772 1.077 3.49 2.151 5.369 3.278ZM22.329 94.8c-0.108 2.2 -0.269 6.282 -0.215 6.282 1.074 -1.718 2.148 -3.436 3.329 -5.315 -1.074 -0.319 -2.043 -0.642 -3.114 -0.967m-1.235 6.121c0.054 0 0.268 -4.027 0.376 -6.174 -1.074 0.214 -2.094 0.483 -3.168 0.7 0.966 1.933 1.879 3.705 2.792 5.477Zm6.765 6.121c-1.772 -1.127 -5.154 -3.168 -5.208 -3.114 0.913 1.718 1.825 3.436 2.738 5.262 0.859 -0.69 1.611 -1.39 2.47 -2.145Zm-8.215 -4.993c0 -0.054 -3.221 -2.2 -4.993 -3.329 -0.322 1.02 -0.645 1.986 -0.967 3.007 2.148 0.11 4.081 0.217 5.96 0.325Zm9.074 -2.578c-1.879 0.913 -3.651 1.772 -5.369 2.631 0 0.054 3.92 0.269 6.014 0.376 -0.215 -1.071 -0.43 -2.037 -0.645 -3.004Zm-4.08 10.095c-0.967 -1.826 -2.792 -5.209 -2.792 -5.209 -0.054 1.88 -0.162 3.813 -0.215 5.853 1.02 -0.21 1.933 -0.427 3.007 -0.641Zm1.562 -13.259c-1.074 1.718 -2.094 3.275 -3.168 4.832 0.053 0.054 3.436 -1.665 5.262 -2.577 -0.757 -0.752 -1.401 -1.504 -2.094 -2.255m-5.531 13.852c0.161 -1.986 0.322 -5.745 0.269 -5.745 -1.02 1.557 -1.987 3.168 -3.114 4.886 1.015 0.322 1.876 0.591 2.84 0.859Z" fill="#ffffff" stroke-width="0.5"></path>
    <path d="M163.379 81.487c0.806 0 1.558 -0.053 2.309 0 0.43 0.054 1.5 1.289 1.826 1.557 -0.7 -0.107 -2.255 -0.375 -2.363 -0.429 -0.537 -0.322 -1.074 -0.698 -1.772 -1.128" fill="#ffffff" stroke-width="0.5"></path>
    <path d="M111.029 79.34c-0.966 0.107 -1.771 0.221 -2.577 0.322 -1.824 0.229 -3.651 0.376 -5.477 0.59 -0.215 0 -0.537 0 -0.644 -0.161 -0.967 -1.127 -1.933 -2.308 -3.007 -3.6 1.128 -0.161 6.019 -0.828 7.41 -1.074a1.25 1.25 0 0 1 1.342 0.483c0.852 1.083 1.879 2.205 2.953 3.44" fill="#ffffff" stroke-width="0.5"></path>
    <path d="M135.137 76.172a0.15 0.15 0 0 1 -0.107 0.268c-0.729 0.086 -3.749 0.556 -6.873 0.806 -0.883 0 -0.258 0.074 -3.758 -3.6a0.15 0.15 0 0 1 0.107 -0.268c6.8 -0.938 6.8 -1.143 7.034 -0.913 1.235 1.235 2.402 2.485 3.597 3.707" fill="#ffffff" stroke-width="0.5"></path>
    <path d="M115.969 74.346c2.479 -0.31 5.678 -0.608 6.926 -0.805a1.4 1.4 0 0 1 1.342 0.483c0.935 1.11 1.933 2.2 2.954 3.383 -1.53 0.218 -1.305 0.146 -7.249 0.859a1.277 1.277 0 0 1 -0.644 -0.161c-1.128 -1.128 -2.2 -2.309 -3.329 -3.49Z" fill="#ffffff" stroke-width="0.5"></path>
    <path d="M118.815 78.427c-1.826 0.215 -3.6 0.32 -5.37 0.7a2.809 2.809 0 0 1 -3.221 -1.4 28.8 28.8 0 0 0 -1.88 -2.255 0.206 0.206 0 0 1 0.108 -0.322c6.546 -0.7 5.609 -0.638 6.336 -0.7 0.322 0 0.484 0.213 0.7 0.429a35.239 35.239 0 0 1 3.327 3.548" fill="#ffffff" stroke-width="0.5"></path>
    <path d="M91.915 77.622c1.825 -0.269 2.848 -0.461 5.047 -0.752 1.29 -0.171 1.823 -0.674 2.469 0.429 1.047 1.788 1.614 1.857 2.417 3.061 -3.118 0.346 -4.554 0.587 -6.443 0.752 -0.82 0 -0.9 -0.338 -3.544 -3.276a0.115 0.115 0 0 1 0.054 -0.214" fill="#ffffff" stroke-width="0.5"></path>
  </g>
</svg>