<svg xmlns="http://www.w3.org/2000/svg" viewBox="0 0 200 200" id="About-Our-Team-1--Streamline-Free-Illustrations" height="200" width="200">
  <desc>
    About Our Team 1 Streamline Illustration: https://streamlinehq.com
  </desc>
  <g>
    <g fill="#ffffff">
      <path d="M48.09 29.77a2.83 2.83 0 0 1 -1.46 2.31A3.52 3.52 0 0 1 46.4 36a3.8 3.8 0 0 1 -3.6 1.45c-0.18 0.49 -0.61 1.34 -1.1 1.5a0.53 0.53 0 0 1 -0.49 0A3.48 3.48 0 0 0 44 41.79c2.29 0.41 4.43 -0.34 4.43 -2.67a3.86 3.86 0 0 0 3.15 -0.75 3.07 3.07 0 0 0 1.11 -2.08c0.1 -2.58 -1.69 -4.29 -2.8 -4.29 0.81 -1.43 0.29 -2.67 -1 -3.61a2.77 2.77 0 0 0 -1.08 -0.39 4.67 4.67 0 0 1 0.28 1.77M28.1 30.51a0.17 0.17 0 0 0 0 -0.34l-0.61 -0.07c-0.19 0 -0.5 0 -0.68 -0.06a27.89 27.89 0 0 1 0 -4.41 0.18 0.18 0 0 0 -0.35 -0.05 8.47 8.47 0 0 0 -0.57 3.5 4.87 4.87 0 0 0 0.11 1.23c0.24 0.63 1.45 0.35 2.1 0.2m-4.64 -5.83c-0.48 0.13 -1.13 0.6 -0.89 0.78a1.49 1.49 0 0 0 1.12 0.05c0.35 -0.09 0.93 -0.44 0.92 -0.62s-0.68 -0.34 -1.15 -0.21m6.48 0.7c3.52 0.73 1.89 -0.61 0.16 -0.83 -0.45 -0.06 -1.5 0 -1.48 0.25s1.05 0.52 1.32 0.58m0.79 1.68a0.43 0.43 0 0 0 -0.59 -0.16c-0.25 0.14 -0.24 0.29 -0.18 1.1a0.43104524125 0.43104524125 0 0 0 0.86 -0.06 2.91 2.91 0 0 0 -0.09 -0.88m-7.08 0.55a0.4314220671 0.4314220671 0 0 0 -0.86 -0.07 4.69 4.69 0 0 0 0 0.73 0.43104524125 0.43104524125 0 1 0 0.86 -0.06c0.02 -0.21 -0.01 -0.48 0 -0.6m3.47 6.51c0 0.32 1.27 0.4 1.93 -0.26 0.49 -0.49 0.46 -1.24 0.26 -1.29s-0.07 0 -0.79 0.62c-0.45 0.38 -1.42 0.68 -1.4 0.93" stroke-width="0.5"></path>
      <path d="M194.58 25.81A1.9 1.9 0 0 0 193 26a2.79 2.79 0 0 0 0.19 -1.45c-0.18 -0.81 -1.36 -1.18 -2.33 0 -0.06 -0.64 -0.35 -1.08 -0.86 -1.17 -1.27 -0.24 -1.82 2.18 -2.1 3.45 -0.66 -0.49 -1.74 -1.32 -2.28 -0.67a1.17 1.17 0 0 0 -0.23 1.24 4.67 4.67 0 0 0 1.61 1.66c-0.19 0.44 -1 1.6 -1.42 2.28 -0.34 -0.1 -1.06 -0.29 -1.21 0 -3.51 4.78 -13 15.86 -18.91 15.63 -9.13 -0.35 -20.62 -4.77 -21.77 -4.61l-1.61 -3.53a9.92 9.92 0 0 0 3.79 -5 25.53 25.53 0 0 0 1.5 -9.69 29.77 29.77 0 0 0 -0.15 -3.2c4.22 -0.28 7 -5.25 3.71 -9.36a4.37 4.37 0 0 0 -2.82 -1.92 5.45 5.45 0 0 0 -2 0.27c-4 1 -4.06 -1.53 -6.8 -2.21a7 7 0 0 0 -3.72 0.39c-4 1.4 -3.22 3.63 -5.07 5.49 -1 1 -5.27 -0.41 -7 2.43 -1.84 3.11 -1.67 9.69 1 12.27a10 10 0 0 0 1.95 1.37 8 8 0 0 0 2.24 1.61c0.78 1.59 1.67 6.16 2 7.89l-0.31 2.6a41.39 41.39 0 0 0 -6.29 1.5 61.39 61.39 0 0 0 -9.76 4.12c-5.7 3 -5 2.94 -5.2 2.62a26.2 26.2 0 0 0 -2.2 -2.13c-5.46 -4.6 -11.38 -8.52 -18.37 -9.67l-0.82 -4.65c2.2 -1.8 3.4 -5.43 3.44 -8 0.82 0.34 1.47 -0.26 1.9 -1 0.12 -0.22 0.87 0 1.45 -1.3a1.21 1.21 0 0 0 0 -0.84 1.6 1.6 0 0 0 0.39 -2.42 2.32 2.32 0 0 0 1.15 -1.69c0.22 -1.31 -0.08 -2.49 -1.34 -2.9 0 -0.29 0.21 -0.77 0.21 -0.87a3.47 3.47 0 0 0 -1 -2.52c-1.39 -1.19 -1.83 -1.09 -2.7 -1 0 -0.6 0.38 -1 -0.25 -1.82a3.59 3.59 0 0 0 -4 -1l-0.25 0.08a3 3 0 0 0 -1.76 -1.71c-1.25 -0.47 -2.11 0.14 -3.16 0.69 -1.57 -1.4 -4.57 -0.65 -6.18 0.32 -0.73 0.44 -0.8 1.22 -1.09 1.58a2.82 2.82 0 0 0 -1.76 0.46c-0.46 0.29 -0.89 0.71 -1.26 1a2.19 2.19 0 0 0 -0.59 0.7 3.6 3.6 0 0 0 -0.52 1.68 2.16 2.16 0 0 0 -0.69 0.3 5.27 5.27 0 0 0 -1.61 2.7 3.13 3.13 0 0 0 0.16 1.72c0 0.06 0.1 0.18 0.13 0.24 -0.2 0.29 -0.72 0.52 -0.82 1.3s-0.07 2.31 0.69 2.77c0.32 0.19 1 0.39 1.24 0.54a6.68 6.68 0 0 0 0 1.23c0.26 1.69 1.93 2.3 3.65 2.05l0.47 0.24a16.42 16.42 0 0 0 1.4 5.15 6.7 6.7 0 0 0 2.42 2.62l-0.48 4.26a35.71 35.71 0 0 0 -7 1.76c-6.87 2.51 -10.88 5.77 -14.43 11.43C50.68 47.26 42.4 41.19 36 41.3a6.87 6.87 0 0 0 0 -1.3c0 -0.29 -0.16 -1.18 -0.43 -1.31 0 -0.49 -0.08 -1 -0.12 -1.47 2.26 3.34 6.87 1.57 6.36 -0.71a3.53 3.53 0 0 0 3 -1.33 2.93 2.93 0 0 0 0 -3.36 1.69 1.69 0 0 0 -0.3 -0.36c1.56 -0.4 2.1 -1.09 2.3 -2.08a4.06 4.06 0 0 0 -0.17 -2.27 2.69 2.69 0 0 0 0.5 -0.32 3.06 3.06 0 0 0 0.89 -1.63 10.08 10.08 0 0 0 -1.34 -6.23 2.79 2.79 0 0 0 -1.64 -1.29 10.29 10.29 0 0 1 -0.23 -1.81 6 6 0 0 0 -3.34 -4.39 6.8 6.8 0 0 0 -2.68 -0.64 2.75 2.75 0 0 0 -1.15 0.15 5.46 5.46 0 0 0 -2.42 -1.68 8 8 0 0 0 -5.36 0.88c-0.33 0.22 -0.59 0.65 -0.88 0.86a5.14 5.14 0 0 0 -4.47 0.2 5.86 5.86 0 0 0 -3.15 3.35c-0.42 1 -0.8 2.64 -0.16 3.5a1.3 1.3 0 0 1 0.1 0.15c-0.38 0.67 -1.25 1 -1.54 2.86a8.52 8.52 0 0 0 0.11 2.8 1.05 1.05 0 0 0 1 0.81c-0.31 3 -0.26 7 1.38 9.59a9.55 9.55 0 0 0 1.42 1.66 4.68 4.68 0 0 0 2 1.16l0 1.78c-0.5 0.28 -0.15 1.87 -0.36 2.83 -4.06 -0.28 -9.74 0.66 -12.89 3.26C7.57 49 5.59 54.7 5.07 61c-0.71 8.69 4 14.07 11.31 15a44.29 44.29 0 0 0 1.62 4.48 70 70 0 0 0 -6.71 18.41c-1 5.44 -1.47 14.06 -1.56 22.33 0 3.94 0 18.72 1.32 22.4 0.21 0.58 1.11 0.89 1.7 1.06a32.6 32.6 0 0 0 5 0.9c0.42 8.78 1.67 42.21 1.67 42.26a21 21 0 0 0 -4.7 3.43 1.71 1.71 0 0 0 -0.54 1.61 1.16 1.16 0 0 0 1.35 0.7c1.66 -0.15 6.13 -1.49 8.15 -1.86 0.05 0.43 0.12 0.85 0.54 1 0.72 0.25 2.14 0.38 2.66 -0.27s0.21 -2.35 0.28 -3.08c0.06 -0.54 4.62 -32 6.18 -42.79l1.25 0c1.92 10.39 7.17 40.1 7.18 40.15a29.27 29.27 0 0 0 -2.95 2.57c-0.77 0.78 -2.06 2.18 -1.55 3.14s1.71 0.47 2.72 0.1c2 -0.7 5 -2.05 6.53 -2.55 0.11 0.41 0.24 0.82 0.67 0.91a4.51 4.51 0 0 0 1.79 -0.09c0.85 -0.25 1 -0.78 1 -1.66 -0.37 -4.43 -0.38 9.54 -0.08 -42.77a13.16 13.16 0 0 0 3.27 -0.55c2.83 -1.39 2.57 -42 -1.11 -54.78 -0.25 -0.88 -1.83 -5.47 -2.95 -8.32a0.44 0.44 0 0 0 0 -0.3A26.43 26.43 0 0 0 48 80c0.3 -3.68 0.62 -10.78 0.92 -12.93l2.49 1.71a11.83 11.83 0 0 0 0.86 2.33 7.3 7.3 0 0 0 1.92 2.81 10 10 0 0 0 8.08 2.56l1.68 0c1.94 11.52 1.38 10.31 1.67 10.6 -7.37 25.4 -9.75 73.58 -8.75 98a0.52 0.52 0 0 0 0.11 0.32c0.51 0.65 3.69 1 4.74 1.18a38.54 38.54 0 0 0 -5.61 3.65c-0.89 0.87 0.28 2.5 1.37 2.78 0.6 0.16 8.76 -1 9.38 -1.09 0.08 0.38 0.26 0.75 0.64 0.82a16.32 16.32 0 0 0 3.24 0.23c0.44 0 1 -0.1 1.1 -0.52a30.38 30.38 0 0 0 0.58 -5.05c0.71 0 1.42 0 1.65 -0.2 2 -2 10.93 -52.89 11.66 -57a15.82 15.82 0 0 0 0.19 -4.18c-1.45 -17.15 -0.91 -10.09 -1.14 -16.7a0.18 0.18 0 0 1 0.35 0c0.67 7.86 1.07 8.13 1.61 18.49 0 0.71 8.15 56.47 9.62 57.93a6.32 6.32 0 0 0 2.47 0.48 26.11 26.11 0 0 0 0.51 6.42 0.62 0.62 0 0 0 0.33 0.36c0.73 0.36 3.46 0 4 -0.07a1 1 0 0 0 0.64 -0.82c0.85 0.12 8.79 1.24 9.37 1.09 1.09 -0.28 2.27 -1.91 1.37 -2.79a46.11 46.11 0 0 0 -6.62 -4.22c1.2 -0.09 3.72 -0.31 4.76 -0.92 1.57 -0.93 0.07 -70.69 -12.53 -99.3 0.23 -0.37 1.11 -10.64 1.15 -11.1a16.42 16.42 0 0 0 8.82 -2.93l4 -1.44a220.45 220.45 0 0 0 -5.47 28.23c-0.23 1.88 -1.39 11.22 -0.14 12.62a0.79 0.79 0 0 0 0.5 0.26c0.57 0.05 2.85 0.25 5.28 0.4 0 28.69 2.82 44.09 7.37 74.3a0.4 0.4 0 0 0 0.39 0.34l0.26 0a25.26 25.26 0 0 0 0.91 4.11c0.63 1.27 10.4 1.24 11.78 0.8a1.18 1.18 0 0 0 0.6 -1.36c-0.4 -1.78 -4 -2.17 -5.7 -3.45l0.59 0a0.4 0.4 0 0 0 0.4 -0.31l7.65 -38.29c0.09 0.56 5.47 39 5.47 39a0.42 0.42 0 0 0 0.43 0.35l0.79 0a34.55 34.55 0 0 0 0.68 4.19 0.43 0.43 0 0 0 0.24 0.29c1 0.47 9.79 1 11.24 0.21a1.2 1.2 0 0 0 0.53 -1.53 3.81 3.81 0 0 0 -1.29 -1.75c-1.21 -0.67 -3.32 -0.82 -4.45 -1.41l0.56 0a0.45 0.45 0 0 0 0.41 -0.34s2.91 -10.69 4.62 -35.28c1 -14.34 1.28 -29 1.17 -43.18 1.28 0.1 3.46 0.2 4.54 0.15 0.3 0 0.59 0 0.72 -0.29 1.16 -2.31 0.28 -25.27 -0.37 -31.06 -0.06 -0.56 -1.49 -10.07 -1.68 -11.31 3.33 -0.13 8.14 -0.84 10.87 -2.79 14 -10 16.67 -27.08 17.81 -29.37 0.11 -0.24 -0.16 -0.36 -0.83 -0.69a28.12 28.12 0 0 1 1.37 -3.34c1.39 -0.77 3 -1.65 3.11 -3.24a0.81 0.81 0 0 0 -0.41 -0.95M94.85 15.6c-0.08 0 -0.1 -0.06 -0.1 -0.16s0.19 0.16 0.1 0.16m36.81 38c4.94 0.31 7.88 0.35 12.9 0.32 0.32 1.94 0.68 4.06 1.07 6.31 -2.69 0 -11.81 0.1 -14.18 0.06 0.11 -2.2 0.19 -4.45 0.21 -6.67zm-1.31 20.93c5.82 0.34 10.14 0.43 17.87 0.27 0.52 2.85 1.06 5.73 1.54 8.26 -4.68 0.14 -15.48 0.33 -20.34 0.19 0.19 -1.59 0.58 -5.45 0.93 -8.7zm-1.35 11.94c7.62 0.44 13.72 0.46 21.47 0.23 0.38 1.92 0.75 3.78 1.11 5.53 -8.84 0.34 -17.49 0.36 -23.64 0.24q0.61 -2.97 1.06 -6m18.57 -15.27c-3 0.06 -14 0.18 -16.92 0.14 0.26 -2.86 0.46 -5.45 0.61 -7.8 4.8 0.3 8.06 0.41 15 0.33 0.24 1.32 1.12 6.23 1.31 7.33m-4.3 -26.7c0.12 1.64 0.48 4.18 0.73 5.81 -2.55 0 -10.35 0.09 -12.35 0.06a54.09 54.09 0 0 0 -0.41 -6.14c2.7 3.63 9.99 3.13 12.03 0.27m-16 51.16a238.19 238.19 0 0 0 25.09 0.19c0.38 1.76 0.73 3.36 1.06 4.76 -1.58 -0.09 -20.26 -1 -27.06 -1.33 0.28 -1.14 0.58 -2.35 0.88 -3.62zm2.19 -64.75c-0.35 -0.7 -2.57 -1 -2.78 -2.77 -0.24 -2.07 2.17 -2.14 3 -1.21 0.07 0.07 0.56 0.73 0.62 0.81 0.52 0.7 1 0.72 1.16 -0.28 0.23 -1.86 -0.34 -5.58 1.83 -5.19a25.15 25.15 0 0 0 4.76 1c3.07 0.28 5.51 0 7.49 -2.2 0.22 -0.05 0.95 -0.08 1.21 -0.1a26.23 26.23 0 0 1 0.08 3.18 24.75 24.75 0 0 1 -1.64 9.4c-1.59 3.81 -3.79 4.73 -3.79 4.73a0.41 0.41 0 0 0 -0.23 0.22c-0.09 0.23 -0.12 0 1.76 4.21 0.4 3.63 -10.35 5.11 -11.74 -0.59l0.34 -2.91c0.04 -0.21 -1.15 -6.43 -2.1 -8.3zm-22 18a22.93 22.93 0 0 1 6.27 11.49c0.59 3 0.34 5.52 -0.64 7.25a13.09 13.09 0 0 1 -2.38 3 9.23 9.23 0 0 1 -3.5 2.24 18.63 18.63 0 0 1 -8.69 1 69 69 0 0 1 -11.52 -2.47c0 -0.3 -0.06 -0.62 -0.09 -1l3.45 -1.26a10 10 0 0 0 1.91 -0.75c0.35 -0.18 0.38 -0.71 0.42 -1.16 0.17 -1.64 -0.17 -1.42 0.33 -1.82 1.12 -0.88 4.2 -1.74 5.54 -2.12 0.45 -0.12 1.1 -0.22 0.9 -0.65a3 3 0 0 0 -0.72 -1.66c-2.11 -8.94 -1.75 -8.91 -2.09 -8.85a0.16 0.16 0 0 0 -0.14 0.2c0.45 2.66 1.12 6.1 1.6 8.42l-1.24 -0.18c-0.21 0 -0.42 0 -0.47 -0.1 -0.4 -0.83 -0.23 -1.81 -1.19 -2.29a0.86 0.86 0 0 0 -1.24 0.31c-0.52 1 0.11 3.24 0 3.21a6.94 6.94 0 0 1 -1.66 0.45 0.71 0.71 0 0 0 -0.33 -0.44 38.91 38.91 0 0 0 -6.31 -2.43c-0.47 -3.94 -1.09 -8.9 -1.31 -10.56a0.83 0.83 0 0 0 0.21 -0.14 8.82 8.82 0 0 0 0.77 -2.2c0.17 0.19 0.31 0.37 0.62 0.25a68.12 68.12 0 0 0 7.67 -6.49 48.14 48.14 0 0 1 13.83 8.71zM94.8 59c0.72 0.41 0.33 1.63 1.14 2.24a8.44 8.44 0 0 0 2.5 0.34 2.72 2.72 0 0 1 0.37 1.08c-0.78 0.24 -4.57 1.08 -6.15 2.17a16.69 16.69 0 0 0 -0.25 -2.25c0.82 -0.07 1.85 0 2.15 -0.53s-0.21 -3.32 0.24 -3.05m-1.93 -19c-1.79 1.55 -5.8 4.87 -7 5.75 -0.6 -0.67 -2.17 -2.53 -2.61 -3.21 1 -0.86 4.7 -3.36 5.24 -3.66a18.82 18.82 0 0 1 4.37 1.06zm-15.75 -1.19 4.88 3.76c-0.74 0.79 -2.55 2.36 -3.36 3.18 -1.14 -0.82 -4.25 -4.11 -6 -5.93a34.7 34.7 0 0 1 4.48 -1.01m-2.72 -13.24c-0.14 -0.2 -0.16 -0.14 -1.18 -0.68 -0.67 -0.55 -1.48 -1 -1.78 -1.82 0 -0.68 0.21 -1.52 0.92 -1.48a3.35 3.35 0 0 1 1.45 0.74 2.4 2.4 0 0 0 2.58 -0.73 2.89 2.89 0 0 0 0.29 -2.05 2.55 2.55 0 0 0 1.7 -0.87 3.78 3.78 0 0 0 0.38 -1.38 4.11 4.11 0 0 0 2.82 -0.21 5.4 5.4 0 0 0 1.63 -1.09 3.33 3.33 0 0 0 0.41 0.74 1.58 1.58 0 0 0 1.45 0.71 2.84 2.84 0 0 0 1 -0.36l0 0.4A2.1 2.1 0 0 0 88.5 19.6a1.09 1.09 0 0 0 0 0.2c0.1 0.54 -0.11 2.17 0.64 2.36s0.34 -1.68 1.78 -1.91a1.14 1.14 0 0 1 1.31 0.64c0.28 0.9 0 1.3 -0.47 2.19l-0.31 0.35c-0.48 0.52 -1 1.07 -1 1.57a11 11 0 0 1 -0.85 4.46 8.26 8.26 0 0 1 -2.58 3.65 0.42 0.42 0 0 0 -0.16 0.39l0.82 4.81L82.5 41.83c-0.91 -0.7 0.3 0.34 -4.68 -3.51l0.54 -4.65a0.44 0.44 0 0 0 -0.22 -0.43c-3.59 -2.01 -3.31 -6.98 -3.74 -7.67m-11.6 18.9a30.53 30.53 0 0 1 9 -4.42 75.32 75.32 0 0 0 5.83 6c0.44 0.38 1 0.85 1.39 0.45 0.14 -0.16 0.35 -0.37 0.59 -0.61a26.5 26.5 0 0 0 0.88 2.56 0.64 0.64 0 0 0 0.38 0.31c-0.11 1.29 -0.38 5 -0.69 9.11a39.64 39.64 0 0 0 -9.66 -0.86c0 -0.26 0.32 -3.34 0.33 -3.44 0 -0.54 0 -1.25 0.06 -1.53a0.17102631375 0.17102631375 0 0 0 -0.33 -0.09c-0.89 1.81 -0.73 3.09 -0.61 5.09a16.9 16.9 0 0 0 -6.45 1.63 0.17442763545 0.17442763545 0 0 0 0.16 0.31c7 -3.42 19.7 -0.18 26.45 2.73a11.57 11.57 0 0 1 1.37 0.67 17.89 17.89 0 0 1 0.28 4.79c0 0.45 0 0.56 -0.8 0.87 -0.57 0.23 -1.25 0.39 -1.67 0.55 -1.37 0.51 -2.69 1 -4 1.5a161.84 161.84 0 0 1 -22.61 5.5c-2.49 0 -5.77 -0.46 -7.6 -2.18 -7.92 -7.41 0.36 -23.9 7.7 -28.94M25.32 36A7 7 0 0 1 23 33.83c-1.56 -2.42 -1.58 -6.38 -1.32 -9.24a9 9 0 0 0 3.7 -2.24 20 20 0 0 0 2.91 -3.79l0.56 -1.08a14.58 14.58 0 0 0 5 6.48 6.42 6.42 0 0 0 2.49 0.58 8.91 8.91 0 0 0 0.25 2.33 0.33 0.33 0 0 0 0.46 0.14c0.44 -0.24 0.61 -1.53 1.29 -2.42 0.18 -0.25 0.39 -0.44 0.65 -0.38a1.76 1.76 0 0 1 0.76 0.31c1 0.74 0.2 3.7 -1.67 4.62 -0.56 0.28 -3.48 3.68 -3.67 4.75a3.44 3.44 0 0 0 0.09 1.77c0.06 0.87 0.16 2 0.23 3 -1.85 0 -6.36 0 -8.21 0.09 0.09 -2.47 0.14 -2.21 -1.2 -2.75M44 145.79l-7.55 0c1.15 -14.24 2.55 -49.16 2.25 -61.53q2 -0.09 3.6 -0.24c2.28 11.79 3.55 50.24 1.7 61.77m-25 -0.91c-1.08 -11.93 0 -50.65 2.86 -61 0.5 0.07 4.08 0.39 4.08 0.39 -1.52 12.22 -3.08 47.29 -2.54 61 -1.62 -0.12 -3.1 -0.27 -4.46 -0.39zm11.06 -61.34 -3.76 -0.15a20.35 20.35 0 0 1 0.23 -3.22l1.35 -0.1 2.92 -0.07a20.88 20.88 0 0 1 -0.74 3.54m-11.58 -3.29 7.24 -0.14a17.06 17.06 0 0 0 -0.28 3.34 43.25 43.25 0 0 1 -8.09 -0.83c0.74 -1.62 1.05 -2.17 1.13 -2.37m8.15 65.2c-0.33 -12.48 1.7 -50.66 3 -61.13 1.37 0 2.39 0.07 5.23 0 0 4.74 -1.42 55.5 -1.75 61.35 -1.71 0 -6.04 -0.19 -6.48 -0.22m4.2 -61.9a16.84 16.84 0 0 0 0.36 -3.55c6.57 -0.12 13 -0.28 15.9 0.11a14 14 0 0 1 1 2.18c-5.65 1.21 -11.99 1.26 -17.26 1.26M12 143.5c-1.73 -1.1 -2.29 -32.14 -0.17 -44.52a65.36 65.36 0 0 1 5.33 -16l1.05 0.22c-2.8 10.11 -3.92 46.85 -2.53 61.21A13.76 13.76 0 0 1 12 143.5m14.47 45c-2.78 0.38 -4.28 0.6 -5.37 0.84a2.59 2.59 0 0 1 -1.76 -0.48c0.82 -0.49 1 -0.42 1 -0.89 0.09 -1.94 -1.89 -38.5 -2.13 -42.37 4.56 0.52 10.26 0.8 14.82 0.93 -1.55 9.54 -5.85 37.08 -6.59 42zm22.38 -2.06c-2.54 0.71 -4.13 1.17 -5.2 1.57a2.56 2.56 0 0 1 -1.81 -0.24c0.72 -0.57 0.87 -0.53 0.83 -1 -0.18 -2 -7.23 -38.17 -7.63 -40.18 5.66 0.12 11 0.06 14.47 -0.18 -0.23 11.23 -0.63 35.45 -0.69 40.06zm2.54 -95.21c3.34 11.83 3.68 48 1.43 53.81 -0.84 0.42 -4.61 0.58 -5.53 0.62 2 -12.45 1 -50 -1.29 -62.13 0.94 -0.15 1.78 -0.31 2.56 -0.48 1.11 3.03 2.57 7.39 2.8 8.21zM44.33 62c-0.43 -0.39 -0.85 -0.74 -1.21 -1.12a0.17102631375 0.17102631375 0 0 0 -0.27 0.21c1.71 2.8 4.08 4.15 5.35 5.3 -0.32 1.22 -0.65 8.53 -1 12.86 -2.64 -0.61 -16.43 0.11 -21.06 0.11a0.4 0.4 0 0 0 -0.28 0.12c-3.64 0.17 -6.51 0.34 -7.31 0.39 -0.48 -1.12 -1.08 -2.93 -1.45 -4.08a13.26 13.26 0 0 0 4.9 -0.04 5.32 5.32 0 0 0 0.39 1.77c0.5 0.44 17.14 -0.75 17.67 -0.86 0.36 -0.08 0.37 -0.58 0.4 -1 0.09 -1 0.15 -3.2 0.19 -5.78a1.15 1.15 0 0 0 0.56 -1.66 1.39 1.39 0 0 0 -0.3 -2 1.17 1.17 0 0 0 -0.23 -1.85c0 -3.61 0 -7.13 -0.13 -9.1 -0.06 -1.62 -0.11 -1.8 -0.36 -2 -0.49 -0.3 -2.6 -0.18 -3.55 -0.14a2.11 2.11 0 0 0 -0.33 -1.2c-0.46 -0.45 -2.49 0 -3.67 0 -0.26 -0.83 -0.39 -1.45 -1.31 -1.88a1.94 1.94 0 0 0 -2.4 1c0 0.1 -0.29 0.92 -0.35 1.19a31.09 31.09 0 0 0 -3.2 0.41c-0.38 0.12 -0.41 0.92 -0.42 1.48 -3.81 0.4 -4.06 0.4 -4.13 0.79s0.21 6.75 0.23 7.28a20.26 20.26 0 0 0 -2.77 0.55 31 31 0 0 0 0.34 -3.75c0 -0.55 0.05 -2.9 -0.28 -2.91s-0.53 2.3 -0.56 2.76c-0.06 0.7 -0.15 3.31 -0.1 4.09 -0.42 0.13 -0.82 0.27 -1.23 0.43a0.1708800749 0.1708800749 0 0 0 0.12 0.32c5.65 -1.95 13.3 -0.86 17.49 1.24l0.19 4.21c-3.62 2.53 -9.38 5.66 -13.78 6.22a14.43 14.43 0 0 1 -3.9 -0.08C9 74.3 5.09 68.87 5.64 61.07 6.07 55 8 49.13 12.66 45.24c3 -2.49 8.73 -3.34 12.63 -3 1 0.08 0.46 -2.08 0.72 -2.86 0.38 -0.06 1.59 -0.08 2 -0.09a14.41 14.41 0 0 0 0 2.07c0 0.29 0.21 1.38 0.47 1.3s0.36 -0.93 0.37 -1.17 0 -0.27 -0.09 -2.2l3.33 0a16.58 16.58 0 0 0 0 2c0 0.29 0.21 1.38 0.47 1.3s0.36 -0.93 0.37 -1.17 0 -0.74 -0.09 -2.11l2.44 0a3.61 3.61 0 0 1 0.16 1c0 1.16 -0.2 1.33 0 1.56 0.54 0.61 5.44 -1.81 19.77 10.12 -2.67 4.5 -4.78 10.39 -4 15.58 -2.33 -1.57 -1.88 -1.08 -6.88 -5.57m-22.55 0.09c-0.1 -3.35 -0.18 -6.41 -0.18 -6.78 0.79 -0.12 2.58 -0.3 3.37 -0.38 0 1.47 0.06 1.57 1 1.67 1.79 0.21 9.68 0 10.51 -0.71a0.57 0.57 0 0 0 0.17 -0.23 9.19 9.19 0 0 0 0.04 -1.66 26 26 0 0 1 2.93 0c0.19 1.78 0.21 8.35 0.21 10.14a4.19 4.19 0 0 0 -1.11 0.16c0.14 -0.82 0.35 -2.15 -0.48 -2.33a1.18 1.18 0 0 0 -1.24 0.39 4.66 4.66 0 0 0 -0.74 2.23 11.14 11.14 0 0 1 -1.37 -0.08 0.4 0.4 0 0 0 -0.21 -0.25 24.55 24.55 0 0 0 -12.9 -2.14zm18.8 5.53c-0.39 0.23 -0.64 0.07 -1.34 0.16a0.41 0.41 0 0 0 0 0.82 4.91 4.91 0 0 0 1 0c0.08 0 0.37 0.06 0.37 0.14 0 0.91 -1.79 0.56 -2.58 0.1a9.34 9.34 0 0 0 -2.91 0.28l-0.2 -4.12a4.3 4.3 0 0 0 1.67 0.11 0.34 0.34 0 0 0 0.16 -0.2c0.23 -0.84 0.42 -2.39 1.3 -2.17a5.16 5.16 0 0 1 -0.19 1.87c-0.1 0.62 0.14 0.76 0.61 0.72a3.85 3.85 0 0 1 1.33 -0.33c0.26 0 0.52 0 0.6 0.3s-0.18 0.41 -0.43 0.5 -1.23 0.23 -1.33 0.25a0.43 0.43 0 0 0 0.14 0.84c1.21 -0.13 1 -0.19 1.36 -0.11a0.7 0.7 0 0 1 0.54 0.7 0.18 0.18 0 0 1 -0.1 0.17zm-5.51 1.91a20.84 20.84 0 0 1 2.66 -0.18 4.16 4.16 0 0 0 2.08 0.64c0 1.79 0 5 -0.12 5.94 -2.18 0.23 -14.89 1.47 -17.07 1.27a10.56 10.56 0 0 1 -0.23 -1.56c5.52 -1.14 12.4 -5.55 12.68 -6.08zm36 122.51a14.53 14.53 0 0 1 -3.41 -0.18l0 -0.5a0.47 0.47 0 0 0 -0.16 -0.31c-0.27 -0.21 -0.06 -0.06 -7.06 0.83l-2.29 0.26c-0.22 0 -0.47 0.11 -0.47 0 -0.54 -0.14 -1.33 -1.09 -1 -1.44a51.29 51.29 0 0 1 5.9 -4.09c3.11 0.37 6.83 0.63 9.13 0.7a35.32 35.32 0 0 1 -0.63 4.76zm33.79 -5.76c0.93 0 1.86 -0.05 2.75 -0.1 1.35 0.83 5.81 3.58 6.91 4.71 0.18 0.19 0 0.56 -0.16 0.77 -0.64 0.88 -1.13 0.66 -1.31 0.64 -1.7 -0.14 -7.33 -0.93 -9 -1.17a0.43 0.43 0 0 0 -0.49 0.39l0 0.5a13.85 13.85 0 0 1 -3.4 0.19 29.7 29.7 0 0 1 -0.62 -5.92c-0.02 -0.29 -0.32 0.12 5.33 0.02zM100 85.4c-5.13 0 -29.53 0.61 -33.69 1.08 -0.1 -1.7 -1.26 -8.69 -1.54 -10.37a141 141 0 0 0 14.32 -3.24 8.11 8.11 0 0 0 -0.09 2.06 30.22 30.22 0 0 0 4 4 0.53 0.53 0 0 0 0.54 0.07 17.16 17.16 0 0 0 3.63 -4.2 10.43 10.43 0 0 0 -0.17 -2.47c2.78 1 10.32 2.58 14.1 2.52 -0.18 2.07 -0.94 9.49 -1.1 10.55m10.6 9.23c2.56 -17.63 4.95 -23.47 5 -24.77a17.78 17.78 0 0 0 4.38 -2.72 15.68 15.68 0 0 0 1.46 -1.48c0.17 -0.16 -0.06 -0.41 -0.22 -0.26s-0.55 0.36 -0.83 0.54c-3.4 2.28 -4.18 3.11 -8.17 4.53a7.94 7.94 0 0 0 1.93 -3.07c1.75 -5.91 -0.66 -12 -4.49 -16.79a74.62 74.62 0 0 1 14.49 -6.92 41.06 41.06 0 0 1 6.12 -1.54 4.59 4.59 0 0 0 0.41 1.26c1.6 9.83 -1.56 38.44 -3.44 47.94 -1.09 5.52 -3.17 13.57 -5.56 18.72a7.52 7.52 0 0 1 -0.57 1.1c-1.26 0.42 -10.1 -0.32 -11.47 -0.45 -1.02 -1.85 0.67 -13.95 0.98 -16.09zm42.3 92 -7.59 0c0 -0.3 -5.64 -40.19 -5.8 -40.74 0.64 -4.11 5 -26.16 4.85 -31.67a0.17 0.17 0 1 0 -0.34 0c0 0.58 -0.18 1.7 -0.42 3.19 -3.71 23.16 -6.56 36.5 -12.94 68.54l-7.72 -0.08c-5.06 -32 -7.54 -47.52 -7.67 -73.82 1.06 0.06 5.46 0.34 6.31 -0.09 0.3 -0.15 0.61 -0.82 0.8 -1.21a73.35 73.35 0 0 0 3.7 -10.58c6.85 0.38 24.45 1.2 27.48 1.36 1.29 6.08 1.38 6.43 1.74 6.56a18.92 18.92 0 0 0 3.49 0.55c0.08 20.27 -0.98 58.26 -5.87 77.94zm38 -152.64c-1.38 3.23 -4.32 19.39 -17.78 28.83 -2.63 1.84 -7.42 2.5 -10.62 2.59a23.71 23.71 0 0 0 -0.9 -4.64c-0.2 -0.62 -0.5 -1.35 -0.68 -1.79a0.18 0.18 0 0 0 -0.34 0.09c0.55 4.38 0.64 2.83 1.24 6.79 0 0 1.65 11.17 1.71 11.72 0.77 7 1.26 27.54 0.48 30.39a41 41 0 0 1 -8.24 -0.64C154.7 103.76 144.23 51.9 144 43.14c2.65 0.48 12.87 4.16 21.43 4.43 7.64 0.23 19.13 -16 19.23 -16 0.79 -0.14 5.15 1.71 6.25 2.37zm3.35 -7.29c-0.08 1.29 -1.58 2.16 -2.69 2.84 -0.39 0.25 -1.27 3.22 -1.38 3.64a39.15 39.15 0 0 0 -4.25 -1.69c1 -1.52 1.87 -2.32 1.49 -2.68 -0.69 -0.63 -2 -1.48 -1.32 -2.19a0.89 0.89 0 0 1 0.24 0.09c0.95 0.45 1.71 1.67 2.12 0.92a17.56 17.56 0 0 1 0.75 -2.59c0.53 -1.23 0.86 -1 0.73 0.2a11.13 11.13 0 0 1 -0.61 2.4 0.43011626335 0.43011626335 0 0 0 0.82 0.26 9.74 9.74 0 0 1 1.11 -2.51c0.49 -0.72 1.08 -0.9 1.06 -0.41a6.28 6.28 0 0 1 -1 2.45 1.26 1.26 0 0 0 -0.23 0.61 0.41 0.41 0 0 0 0.75 0.29 9.49 9.49 0 0 1 1 -1.18c0.59 -0.58 1.45 -0.98 1.42 -0.5z" stroke-width="0.5"></path>
      <path d="M81.63 27.48c0.41 0.93 2.65 0.35 2.21 -0.12a0.17 0.17 0 0 0 -0.24 0 0.67 0.67 0 0 1 -0.41 0 2.93 2.93 0 0 1 -0.79 -0.23l0 -3.76a0.18 0.18 0 0 0 -0.35 0 9.27 9.27 0 0 0 -0.45 3.39 2.48 2.48 0 0 0 0.03 0.72m-2.9 -2.48c0 -0.27 0 -0.56 -0.06 -0.81a0.44 0.44 0 0 0 -0.49 -0.36 0.43 0.43 0 0 0 -0.36 0.5c0 0.18 0 0.39 0.05 0.73a0.43104524125 0.43104524125 0 0 0 0.86 -0.06m6.75 -0.07a0.43 0.43 0 0 0 0.86 0l0 -0.45a0.44 0.44 0 0 0 -0.57 -0.64c-0.39 0.25 -0.29 0.75 -0.29 1.09m-2.02 6.18a6.24 6.24 0 0 1 -1.13 0.49c-0.22 0 -0.27 0.31 0 0.34a1.7 1.7 0 0 0 0.82 0.18 1.93 1.93 0 0 0 1.42 -0.91 1.67 1.67 0 0 0 0.15 -0.85 0.1735655496 0.1735655496 0 0 0 -0.34 -0.07 5.19 5.19 0 0 1 -0.92 0.82m55.82 0.68c0.76 0.24 2 0.4 2.53 -0.2s0.24 -2.16 0.18 -2.82a16.05 16.05 0 0 0 -0.84 -3.8 0.1735655496 0.1735655496 0 0 0 -0.34 0.07c0 0.31 0.14 1.84 0.17 2.23a19.86 19.86 0 0 1 0.2 3.85 1.7 1.7 0 0 1 -0.75 0.28c-1 0.17 -1.23 -0.07 -1.28 0.19a0.16 0.16 0 0 0 0.13 0.2m-1.69 -6.59c0 -0.32 -0.92 -0.48 -1.52 -0.35s-1.42 0.76 -1.19 1 2.67 -0.36 2.71 -0.65m-0.66 2.39 0 0.86a0.43 0.43 0 0 0 0.86 0l0 -0.83a0.44 0.44 0 0 0 -0.42 -0.45 0.44 0.44 0 0 0 -0.44 0.42m8.53 -1.98c0.08 -0.12 -0.24 -0.76 -1 -1s-1.34 0.14 -1.34 0.32 2.19 0.9 2.34 0.68M136.5 33.93c-0.23 0.07 -0.23 1.51 1.14 1.92 0.7 0.2 1.65 0.09 1.67 -0.16s-1.36 -0.55 -1.81 -0.86 -0.81 -0.96 -1 -0.9M144.09 27a0.43 0.43 0 0 0 -0.44 0.42l0 0.85a0.44 0.44 0 0 0 0.87 0l0 -0.83a0.43 0.43 0 0 0 -0.43 -0.44" stroke-width="0.5"></path>
    </g>
  </g>
</svg>